<svg width="15" height="14" viewBox="0 0 15 14" fill="none" xmlns="http://www.w3.org/2000/svg">
<path d="M13.5 0H1.49687C0.946875 0 0.5 0.453125 0.5 1.00938V12.9906C0.5 13.5469 0.946875 14 1.49687 14H13.5C14.05 14 14.5 13.5469 14.5 12.9906V1.00938C14.5 0.453125 14.05 0 13.5 0ZM4.73125 12H2.65625V5.31875H4.73438V12H4.73125ZM3.69375 4.40625C3.02812 4.40625 2.49063 3.86562 2.49063 3.20312C2.49063 2.54063 3.02812 2 3.69375 2C4.35625 2 4.89687 2.54063 4.89687 3.20312C4.89687 3.86875 4.35938 4.40625 3.69375 4.40625ZM12.5094 12H10.4344V8.75C10.4344 7.975 10.4187 6.97813 9.35625 6.97813C8.275 6.97813 8.10938 7.82188 8.10938 8.69375V12H6.03438V5.31875H8.025V6.23125H8.05312C8.33125 5.70625 9.00938 5.15312 10.0188 5.15312C12.1187 5.15312 12.5094 6.5375 12.5094 8.3375V12Z" fill="white"/>
</svg>
