<svg width="41" height="43" viewBox="0 0 41 43" fill="none" xmlns="http://www.w3.org/2000/svg">
<rect x="0.0400391" y="0.526367" width="40.32" height="42" rx="20" fill="white"/>
<rect x="0.540039" y="1.02637" width="39.32" height="41" rx="19.5" stroke="#37B5FF" stroke-opacity="0.16"/>
<path d="M20.8711 10.177C20.6988 9.99184 20.4553 9.88635 20.1999 9.88635C19.9446 9.88635 19.7011 9.99184 19.5288 10.177L14.6782 15.3908C14.3393 15.7551 14.365 16.3205 14.7357 16.6536C15.1064 16.9867 15.6817 16.9614 16.0206 16.597L19.2905 13.0823V26.2726C19.2905 26.7662 19.6977 27.1664 20.1999 27.1664C20.7022 27.1664 21.1094 26.7662 21.1094 26.2726V13.0823L24.3793 16.597C24.7182 16.9614 25.2935 16.9867 25.6642 16.6536C26.0349 16.3205 26.0606 15.7551 25.7217 15.3908L20.8711 10.177Z" fill="#1C274C"/>
<path d="M10.4525 25.5704C10.4525 25.0933 10.0557 24.7064 9.56633 24.7064C9.07693 24.7064 8.68018 25.0933 8.68018 25.5704V25.6337C8.68015 27.2091 8.68013 28.479 8.81785 29.4778C8.96084 30.5147 9.26673 31.3877 9.97792 32.0811C10.6891 32.7746 11.5846 33.0728 12.6481 33.2122C13.6724 33.3464 14.9749 33.3464 16.5907 33.3464H23.8097C25.4255 33.3464 26.7279 33.3464 27.7523 33.2122C28.8158 33.0728 29.7112 32.7746 30.4225 32.0811C31.1337 31.3877 31.4396 30.5147 31.5825 29.4778C31.7202 28.479 31.7202 27.2091 31.7202 25.6337V25.5704C31.7202 25.0933 31.3234 24.7064 30.834 24.7064C30.3446 24.7064 29.9479 25.0933 29.9479 25.5704C29.9479 27.224 29.946 28.3773 29.8261 29.2475C29.7094 30.0928 29.4963 30.5404 29.1692 30.8593C28.8422 31.1781 28.3832 31.3859 27.5161 31.4996C26.6236 31.6166 25.4408 31.6184 23.7448 31.6184H16.6556C14.9596 31.6184 13.7767 31.6166 12.8842 31.4996C12.0173 31.3859 11.5581 31.1781 11.2311 30.8593C10.9041 30.5404 10.6909 30.0928 10.5744 29.2475C10.4544 28.3773 10.4525 27.224 10.4525 25.5704Z" fill="#1C274C"/>
</svg>
