<svg width="37" height="36" viewBox="0 0 37 36" fill="none" xmlns="http://www.w3.org/2000/svg">
<path d="M17.3921 4.52612C17.7133 4.25153 18.3463 4.22392 18.731 4.48022L18.8042 4.53589L21.2603 6.64917V6.65015C21.7226 7.05093 22.2847 7.3385 22.7866 7.52612C23.2888 7.71379 23.9044 7.86597 24.52 7.86597H27.1851C27.7632 7.86621 28.2495 8.35251 28.2495 8.9314V11.5964C28.2496 12.2067 28.4023 12.822 28.5874 13.3201C28.7494 13.7561 28.99 14.2465 29.3188 14.6755L29.4644 14.8552L31.5923 17.3279C31.8812 17.6724 31.8911 18.3643 31.5786 18.7351L29.4644 21.1921C29.0637 21.6546 28.7759 22.2166 28.5884 22.7185C28.4008 23.2207 28.2495 23.8363 28.2495 24.4519V27.1169C28.2494 27.6957 27.7631 28.1812 27.1851 28.1814H24.52C23.9096 28.1814 23.2946 28.3351 22.7964 28.5203C22.2997 28.7049 21.7317 28.9903 21.2651 29.3933L18.7935 31.5212C18.4525 31.8127 17.7609 31.8256 17.3872 31.5164L14.9204 29.3933C14.4589 28.9947 13.8992 28.7082 13.3989 28.5212C12.8967 28.3336 12.2811 28.1814 11.6655 28.1814H8.95459C8.37632 28.1814 7.89029 27.6959 7.89014 27.1169V24.4363C7.89014 23.8246 7.73583 23.2131 7.5542 22.7224C7.37158 22.229 7.09417 21.6763 6.71436 21.2205L6.70264 21.2068L4.59131 18.7205C4.29649 18.3678 4.2968 17.6778 4.59229 17.3259L4.59131 17.325L6.70264 14.8406L6.71436 14.8269C7.09417 14.3711 7.37158 13.8184 7.5542 13.325C7.73577 12.8343 7.89009 12.2236 7.89014 11.6121V8.91479C7.8904 8.33597 8.37638 7.85034 8.95459 7.85034H11.6655C12.2758 7.85034 12.8911 7.69751 13.3892 7.51245C13.8875 7.32723 14.4578 7.03967 14.9253 6.63452L14.9243 6.63354L17.3921 4.5271V4.52612Z" fill="#00C64F" stroke="white" stroke-width="3.92188"/>
<path d="M17.0035 22.3721C16.7421 22.3721 16.4938 22.2676 16.3109 22.0846L13.1485 18.9222C12.7695 18.5433 12.7695 17.916 13.1485 17.5371C13.5274 17.1581 14.1547 17.1581 14.5337 17.5371L17.0035 20.0069L22.6226 14.3877C23.0015 14.0088 23.6288 14.0088 24.0078 14.3877C24.3867 14.7667 24.3867 15.394 24.0078 15.7729L17.696 22.0846C17.5131 22.2676 17.2648 22.3721 17.0035 22.3721Z" fill="white"/>
</svg>
