<svg width="80" height="61" viewBox="0 0 80 61" fill="none" xmlns="http://www.w3.org/2000/svg">
<path d="M56.7859 60.5596L68.7247 60.5596C74.9516 60.5596 80 55.5111 80 49.2843L80 37.3455C80 31.1186 74.9516 26.0704 68.7247 26.0704L67.5436 26.0704C66.5533 26.0704 65.6256 25.5816 65.0639 24.7638C64.5047 23.946 64.3819 22.9047 64.7398 21.9808L71.4737 4.53004C71.8317 3.60504 71.7089 2.56379 71.1497 1.74722C70.588 0.929414 69.6603 0.440663 68.67 0.440663L60.7422 0.440664C59.6239 0.440664 58.5969 1.06269 58.0795 2.05285L48.5081 20.3388C46.538 24.1029 45.5084 28.2889 45.5084 32.5375L45.5084 49.2844C45.5081 55.5111 50.5591 60.5596 56.7859 60.5596Z" fill="#37B5FF"/>
<path d="M11.2757 60.5596L23.2147 60.5596C29.4416 60.5596 34.4897 55.5111 34.4897 49.2843L34.4897 37.3455C34.4897 31.1186 29.4415 26.0704 23.2147 26.0704L22.0361 26.0704C21.0458 26.0704 20.1157 25.5816 19.5565 24.7638C18.9946 23.946 18.8744 22.9047 19.2297 21.9808L25.9661 4.52988C26.3241 3.60488 26.2013 2.56363 25.6396 1.74707C25.0804 0.929253 24.1527 0.440507 23.1597 0.440507L15.2344 0.440508C14.1161 0.440508 13.0891 1.06254 12.5691 2.0527L3.00037 20.3386C1.03021 24.1029 0.00068001 28.2888 0.000680381 32.5375L0.000681845 49.2844C0.000682389 55.5111 5.04896 60.5596 11.2757 60.5596Z" fill="#37B5FF"/>
</svg>
