<svg width="15" height="15" viewBox="0 0 15 15" fill="none" xmlns="http://www.w3.org/2000/svg">
<path d="M0.122981 6.11718C-0.116101 5.88531 0.0137703 5.46615 0.337151 5.42595L4.91926 4.85602C5.05105 4.83962 5.16553 4.75283 5.22113 4.62645L7.15382 0.232596C7.2902 -0.0774907 7.71059 -0.0775548 7.84698 0.23254L9.77963 4.62636C9.8352 4.75274 9.94899 4.83977 10.0807 4.85615L14.6631 5.42595C14.9865 5.46615 15.116 5.88539 14.8769 6.11726L11.4897 9.40278C11.3922 9.4973 11.3488 9.63792 11.3746 9.77447L12.2736 14.5203C12.3371 14.8553 11.9972 15.1148 11.713 14.9481L7.6867 12.584C7.57092 12.5161 7.43026 12.5164 7.3144 12.5843L3.2877 14.9474C3.00354 15.1142 2.663 14.8553 2.72646 14.5203L3.62558 9.77471C3.65145 9.63824 3.60818 9.49722 3.51074 9.40278L0.122981 6.11718Z" fill="#FEBC00"/>
</svg>
