<svg width="27" height="27" viewBox="0 0 27 27" fill="none" xmlns="http://www.w3.org/2000/svg">
<path d="M12.4258 2.35062C12.7661 1.58073 12.9364 1.19578 13.1733 1.07724C13.3792 0.974252 13.6209 0.974252 13.8267 1.07724C14.0637 1.19578 14.2339 1.58073 14.5743 2.35062L17.2852 8.48288C17.3859 8.71047 17.4362 8.82427 17.5141 8.91141C17.5829 8.98852 17.6672 9.0502 17.7611 9.09242C17.8674 9.14015 17.9903 9.15322 18.2361 9.17937L24.8582 9.88408C25.6896 9.97255 26.1052 10.0168 26.2903 10.2074C26.451 10.373 26.5256 10.6048 26.4921 10.834C26.4536 11.0979 26.1431 11.38 25.5221 11.9443L20.5755 16.439C20.392 16.6057 20.3001 16.6892 20.242 16.7907C20.1906 16.8807 20.1584 16.9805 20.1476 17.0836C20.1354 17.2003 20.161 17.3221 20.2123 17.566L21.594 24.1337C21.7675 24.9583 21.8542 25.3705 21.7316 25.6068C21.625 25.8123 21.4295 25.9555 21.2029 25.9942C20.9421 26.0386 20.58 25.8281 19.8558 25.407L14.0876 22.0525C13.8736 21.928 13.7666 21.8659 13.6528 21.8414C13.5521 21.8199 13.448 21.8199 13.3473 21.8414C13.2335 21.8659 13.1264 21.928 12.9124 22.0525L7.14424 25.407C6.42007 25.8281 6.05798 26.0386 5.79716 25.9942C5.57059 25.9555 5.375 25.8123 5.2685 25.6068C5.14591 25.3705 5.23263 24.9583 5.4061 24.1337L6.7877 17.566C6.83898 17.3221 6.86461 17.2003 6.85244 17.0836C6.84167 16.9805 6.80951 16.8807 6.75806 16.7907C6.69991 16.6892 6.60812 16.6057 6.42454 16.439L1.478 11.9443C0.85699 11.38 0.546478 11.0979 0.507871 10.834C0.474351 10.6048 0.549051 10.373 0.709798 10.2074C0.894862 10.0168 1.31055 9.97255 2.14193 9.88408L8.76396 9.17937C9.00974 9.15322 9.13262 9.14015 9.23888 9.09242C9.3329 9.0502 9.41708 8.98852 9.48597 8.91141C9.56382 8.82427 9.61413 8.71047 9.71476 8.48288L12.4258 2.35062Z" stroke="#808080" stroke-linecap="round" stroke-linejoin="round"/>
</svg>
