<svg width="51" height="50" viewBox="0 0 51 50" fill="none" xmlns="http://www.w3.org/2000/svg">
<circle cx="25.8125" cy="25" r="25" fill="#F5F7FA"/>
<rect width="25" height="25" transform="translate(13.8125 12)" fill="white"/>
<path d="M25.2544 37C23.1014 37 21.3481 35.2479 21.3481 33.0938C21.3481 32.6625 21.6981 32.3125 22.1294 32.3125C22.5606 32.3125 22.9106 32.6625 22.9106 33.0938C22.9106 34.3866 23.9627 35.4375 25.2544 35.4375C26.5461 35.4375 27.5981 34.3866 27.5981 33.0938C27.5981 32.6625 27.9481 32.3125 28.3794 32.3125C28.8106 32.3125 29.1606 32.6625 29.1606 33.0938C29.1606 35.2479 27.4076 37 25.2544 37Z" fill="#005782"/>
<path d="M33.8482 33.875H16.6607C15.6556 33.875 14.8379 33.0573 14.8379 32.0521C14.8379 31.5187 15.0702 31.0136 15.4753 30.6666C15.5015 30.6438 15.5295 30.623 15.5587 30.6041C17.0878 29.2697 17.9629 27.35 17.9629 25.3228V22.4166C17.9629 18.3959 21.2348 15.125 25.2545 15.125C25.4212 15.125 25.6014 15.1281 25.7681 15.1563C26.1941 15.227 26.4817 15.6303 26.4107 16.0552C26.34 16.4802 25.9295 16.7678 25.5118 16.6968C25.4284 16.6833 25.3369 16.6875 25.2545 16.6875C22.0963 16.6875 19.5254 19.2573 19.5254 22.4166V25.3228C19.5254 27.8396 18.4222 30.2209 16.5015 31.8551C16.4858 31.8677 16.4723 31.8792 16.4555 31.8906C16.4275 31.9261 16.4004 31.9802 16.4004 32.0521C16.4004 32.1937 16.5192 32.3125 16.6607 32.3125H33.8482C33.99 32.3125 34.1088 32.1937 34.1088 32.0521C34.1088 31.9791 34.0817 31.9261 34.0525 31.8906C34.0369 31.8792 34.0233 31.8677 34.0077 31.8551C32.0859 30.2198 30.9838 27.8396 30.9838 25.3228V24.1876C30.9838 23.7563 31.3338 23.4063 31.765 23.4063C32.1963 23.4063 32.5463 23.7563 32.5463 24.1876V25.3228C32.5463 27.3511 33.4223 29.2718 34.9536 30.6073C34.9816 30.626 35.0087 30.6459 35.0337 30.6678C35.439 31.0136 35.6713 31.5187 35.6713 32.0521C35.6713 33.0573 34.8536 33.875 33.8482 33.875Z" fill="#005782"/>
<path d="M32.5463 22.4166C29.6744 22.4166 27.3379 20.0803 27.3379 17.2084C27.3379 14.3365 29.6744 12 32.5463 12C35.4182 12 37.7545 14.3365 37.7545 17.2084C37.7545 20.0803 35.4182 22.4166 32.5463 22.4166ZM32.5463 13.5625C30.5358 13.5625 28.9004 15.1979 28.9004 17.2084C28.9004 19.2187 30.5358 20.8541 32.5463 20.8541C34.5566 20.8541 36.192 19.2187 36.192 17.2084C36.192 15.1979 34.5566 13.5625 32.5463 13.5625Z" fill="#FE5C73"/>
</svg>
