<svg width="51" height="50" viewBox="0 0 51 50" fill="none" xmlns="http://www.w3.org/2000/svg">
<circle cx="25.8125" cy="25" r="25" fill="#F5F7FA"/>
<g clip-path="url(#clip0_8_99)">
<rect width="25" height="25" transform="translate(12.8125 12)" fill="white"/>
<path d="M26.097 37H24.528C23.259 37 22.2265 35.9676 22.2265 34.6986V34.1678C21.687 33.9954 21.1628 33.7778 20.6593 33.5172L20.2831 33.8934C19.372 34.8056 17.9126 34.7789 17.028 33.8931L15.919 32.7842C15.0329 31.899 15.0074 30.44 15.9193 29.5291L16.2952 29.1532C16.0346 28.6496 15.8171 28.1255 15.6447 27.5859H15.1139C13.845 27.5859 12.8125 26.5535 12.8125 25.2845V23.7155C12.8125 22.4465 13.845 21.4141 15.114 21.4141H15.6447C15.8171 20.8745 16.0347 20.3504 16.2953 19.8468L15.9191 19.4707C15.0077 18.5603 15.0328 17.1012 15.9194 16.2156L17.0284 15.1066C17.9151 14.2187 19.3742 14.1965 20.2835 15.1069L20.6593 15.4827C21.1629 15.2222 21.6871 15.0046 22.2266 14.8322V14.3014C22.2266 13.0324 23.259 12 24.528 12H26.097C27.366 12 28.3984 13.0324 28.3984 14.3014V14.8322C28.9379 15.0046 29.4621 15.2222 29.9657 15.4828L30.3418 15.1066C31.2529 14.1944 32.7124 14.2211 33.597 15.1069L34.7059 16.2158C35.5921 17.101 35.6176 18.56 34.7056 19.4709L34.3297 19.8468C34.5903 20.3504 34.8079 20.8745 34.9803 21.4141H35.511C36.78 21.4141 37.8125 22.4465 37.8125 23.7155V25.2845C37.8125 26.5535 36.78 27.5859 35.511 27.5859H34.9803C34.8079 28.1255 34.5903 28.6496 34.3297 29.1532L34.7059 29.5293C35.6173 30.4398 35.5922 31.8989 34.7056 32.7845L33.5966 33.8935C32.7099 34.7813 31.2508 34.8035 30.3415 33.8932L29.9657 33.5173C29.4621 33.7779 28.9379 33.9955 28.3984 34.1679V34.6987C28.3984 35.9676 27.366 37 26.097 37ZM20.9042 31.979C21.6037 32.3927 22.3566 32.7053 23.142 32.908C23.4654 32.9914 23.6914 33.2831 23.6914 33.6171V34.6986C23.6914 35.1599 24.0667 35.5352 24.528 35.5352H26.097C26.5583 35.5352 26.9336 35.1599 26.9336 34.6986V33.6171C26.9336 33.2831 27.1596 32.9914 27.4831 32.908C28.2684 32.7053 29.0213 32.3927 29.7209 31.979C30.0087 31.8088 30.3752 31.8551 30.6117 32.0916L31.3777 32.8576C31.708 33.1883 32.2383 33.1806 32.5605 32.858L33.6702 31.7483C33.9916 31.4273 34.0023 30.8968 33.6705 30.5654L32.9042 29.7991C32.6677 29.5626 32.6214 29.1961 32.7916 28.9083C33.2053 28.2088 33.5178 27.4559 33.7205 26.6705C33.804 26.3471 34.0957 26.1211 34.4297 26.1211H35.5111C35.9724 26.1211 36.3477 25.7458 36.3477 25.2846V23.7155C36.3477 23.2542 35.9724 22.879 35.5111 22.879H34.4297C34.0957 22.879 33.804 22.653 33.7205 22.3296C33.5178 21.5442 33.2053 20.7913 32.7916 20.0917C32.6214 19.804 32.6677 19.4375 32.9042 19.201L33.6702 18.435C34.0014 18.1042 33.9927 17.5739 33.6705 17.2521L32.5609 16.1425C32.2393 15.8204 31.7088 15.811 31.378 16.1422L30.6117 16.9085C30.3753 17.145 30.0087 17.1913 29.7209 17.0211C29.0214 16.6074 28.2685 16.2948 27.4831 16.0921C27.1597 16.0087 26.9337 15.717 26.9337 15.383V14.3014C26.9337 13.8401 26.5583 13.4648 26.0971 13.4648H24.5281C24.0668 13.4648 23.6915 13.8401 23.6915 14.3014V15.3829C23.6915 15.7169 23.4655 16.0086 23.142 16.092C22.3567 16.2947 21.6038 16.6073 20.9042 17.021C20.6163 17.1912 20.2499 17.1449 20.0134 16.9084L19.2474 16.1424C18.9171 15.8117 18.3867 15.8194 18.0646 16.142L16.9549 17.2517C16.6335 17.5727 16.6228 18.1031 16.9546 18.4346L17.7209 19.2009C17.9574 19.4374 18.0037 19.8039 17.8335 20.0917C17.4198 20.7912 17.1073 21.5441 16.9046 22.3295C16.8211 22.6529 16.5294 22.8789 16.1954 22.8789H15.114C14.6527 22.8789 14.2773 23.2542 14.2773 23.7155V25.2845C14.2773 25.7458 14.6527 26.1211 15.114 26.1211H16.1954C16.5294 26.1211 16.821 26.3471 16.9045 26.6705C17.1072 27.4559 17.4198 28.2088 17.8334 28.9083C18.0036 29.1961 17.9573 29.5626 17.7209 29.799L16.9548 30.5651C16.6237 30.8959 16.6323 31.4261 16.9545 31.7479L18.0642 32.8576C18.3858 33.1796 18.9163 33.1891 19.247 32.8579L20.0133 32.0915C20.1875 31.9173 20.55 31.7695 20.9042 31.979Z" fill="#005782"/>
<path d="M25.3125 29.9395C22.3131 29.9395 19.873 27.4993 19.873 24.5C19.873 21.5007 22.3131 19.0605 25.3125 19.0605C28.3119 19.0605 30.752 21.5007 30.752 24.5C30.752 27.4993 28.3119 29.9395 25.3125 29.9395ZM25.3125 20.5254C23.1208 20.5254 21.3379 22.3084 21.3379 24.5C21.3379 26.6916 23.1209 28.4746 25.3125 28.4746C27.5041 28.4746 29.2871 26.6916 29.2871 24.5C29.2871 22.3084 27.5042 20.5254 25.3125 20.5254Z" fill="#005782"/>
</g>
<defs>
<clipPath id="clip0_8_99">
<rect width="25" height="25" fill="white" transform="translate(12.8125 12)"/>
</clipPath>
</defs>
</svg>
