<svg width="18" height="19" viewBox="0 0 18 19" fill="none" xmlns="http://www.w3.org/2000/svg">
<path d="M15.3224 15.4882C15.3224 15.6325 15.2651 15.771 15.163 15.8731C15.0609 15.9752 14.9224 16.0325 14.7781 16.0325H2.80217C2.6578 16.0325 2.51934 15.9752 2.41725 15.8731C2.31516 15.771 2.25781 15.6325 2.25781 15.4882C2.25781 15.3438 2.31516 15.2053 2.41725 15.1032C2.51934 15.0012 2.6578 14.9438 2.80217 14.9438H14.7781C14.9224 14.9438 15.0609 15.0012 15.163 15.1032C15.2651 15.2053 15.3224 15.3438 15.3224 15.4882ZM5.52396 12.7664C5.59547 12.7664 5.66629 12.7524 5.73237 12.7251C5.79845 12.6978 5.85851 12.6577 5.9091 12.6072L12.6006 5.91494V11.1333C12.6006 11.2777 12.658 11.4161 12.7601 11.5182C12.8621 11.6203 13.0006 11.6777 13.145 11.6777C13.2894 11.6777 13.4278 11.6203 13.5299 11.5182C13.632 11.4161 13.6893 11.2777 13.6893 11.1333V4.601C13.6893 4.45663 13.632 4.31817 13.5299 4.21608C13.4278 4.11399 13.2894 4.05664 13.145 4.05664H6.61268C6.46831 4.05664 6.32985 4.11399 6.22776 4.21608C6.12567 4.31817 6.06832 4.45663 6.06832 4.601C6.06832 4.74537 6.12567 4.88383 6.22776 4.98592C6.32985 5.08801 6.46831 5.14536 6.61268 5.14536H11.831L5.13883 11.8369C5.06261 11.913 5.0107 12.01 4.98966 12.1157C4.96862 12.2214 4.9794 12.3309 5.02064 12.4304C5.06187 12.5299 5.13171 12.615 5.22131 12.6748C5.31091 12.7346 5.41624 12.7665 5.52396 12.7664Z" fill="#3E3E3E"/>
</svg>
