<svg width="42" height="43" viewBox="0 0 42 43" fill="none" xmlns="http://www.w3.org/2000/svg">
<rect y="0.59668" width="41.8067" height="41.8067" rx="20.9034" fill="url(#paint0_linear_5_485)"/>
<path fill-rule="evenodd" clip-rule="evenodd" d="M18.4835 35.9967C17.4222 36.0131 16.3772 35.8335 15.3812 35.4906C16.7364 36.4049 18.3366 36.8948 20.002 36.8948C24.8024 36.8948 28.1822 33.0741 28.1822 26.5103V6.14941L26.4025 6.99846V26.1837C26.4025 32.6169 23.1533 35.9967 18.4835 35.9967ZM16.4425 34.119C15.4955 34.119 14.4179 33.8904 13.3402 33.5312C14.6301 34.4946 16.1649 35.0497 17.6671 35.0497C21.7654 35.0497 24.7207 32.0617 24.7207 26.249V7.63525L22.9737 8.46797V26.1021C22.9737 31.6535 20.3612 34.119 16.4425 34.119ZM14.7118 32.2577C13.8301 32.225 12.9484 32.0781 12.1156 31.8005C13.1769 32.6332 14.4995 33.0904 15.871 33.0741C19.104 33.0741 21.3572 30.8535 21.3572 25.9225V9.10476L19.6428 9.93748V26.2C19.6428 30.5922 17.7651 32.2577 14.7118 32.2577ZM18.01 10.6232V26.6735C18.01 29.5146 16.6221 31.2127 14.3199 31.2127C12.0177 31.2127 10.4502 29.5472 10.4502 27.0654V14.0358L18.01 10.6232Z" fill="#002677"/>
<defs>
<linearGradient id="paint0_linear_5_485" x1="20.9034" y1="0.59668" x2="20.9034" y2="42.4034" gradientUnits="userSpaceOnUse">
<stop stop-color="#87D4FF"/>
<stop offset="1" stop-color="#E3E9F7" stop-opacity="0.81"/>
</linearGradient>
</defs>
</svg>
