<svg width="61" height="60" viewBox="0 0 61 60" fill="none" xmlns="http://www.w3.org/2000/svg">
<g clip-path="url(#clip0_63_10119)">
<path d="M50.9324 18.9856C51.0368 18.8898 51.1591 18.8157 51.2923 18.7676C51.4255 18.7194 51.5669 18.6981 51.7084 18.705C51.8883 18.6998 52.0663 18.7436 52.2233 18.8316C52.3803 18.9196 52.5104 19.0485 52.5999 19.2047C52.9015 19.7325 52.8848 20.7026 52.6787 21.3021C52.5328 21.7267 52.2937 22.3761 51.7221 22.8406C51.5962 22.9445 51.4502 23.0212 51.2932 23.0659C51.1362 23.1105 50.9717 23.1221 50.81 23.1L50.7228 23.0849C50.6357 23.3747 50.5299 23.6584 50.4059 23.9343C50.1823 24.5342 48.9958 26.5696 47.4747 27.4938C47.4829 27.3976 47.4916 27.479 47.5002 27.5304C47.589 28.0683 47.6877 28.621 47.9715 29.0849C48.4476 29.8572 50.055 30.4643 51.2484 30.9578L49.6847 31.7597C48.6772 32.3149 47.6853 32.791 44.7497 32.8565C42.2684 32.9112 40.7058 32.569 38.4164 31.4855L36.9468 30.6271C38.3877 30.1118 39.8329 29.7448 40.5261 29.2799C40.6115 29.2398 40.6872 29.1817 40.748 29.1096C40.7771 29.054 40.7958 28.9935 40.803 28.9311C40.8777 28.5125 40.9522 28.0943 41.0265 27.6764C40.2576 27.3214 39.5713 26.7418 38.9198 25.9559C38.2138 25.0958 37.6913 24.1005 37.3845 23.031C37.2121 23.0667 37.0338 23.0626 36.8632 23.0191C36.6926 22.9756 36.5342 22.8939 36.3998 22.7801C35.8316 22.3115 35.5978 21.6602 35.4551 21.2345C35.2536 20.6335 35.2446 19.6632 35.5503 19.1381C35.641 18.9825 35.7722 18.8544 35.9301 18.7676C36.0879 18.6808 36.2663 18.6384 36.4463 18.6451C36.5879 18.6395 36.7292 18.662 36.862 18.7113C36.9948 18.7607 37.1165 18.8358 37.2201 18.9325C37.2201 18.9325 35.3773 13.0439 44.0714 13.0439C52.7654 13.0439 50.9324 18.9856 50.9324 18.9856Z" fill="white"/>
<path d="M26.023 15.0934C26.1358 14.9957 26.2668 14.9213 26.4085 14.8746C26.5502 14.8278 26.6998 14.8095 26.8486 14.8209C27.0382 14.8208 27.2243 14.8723 27.3871 14.9696C27.5498 15.067 27.6831 15.2067 27.7727 15.3739C28.0746 15.9386 28.0281 16.9597 27.7933 17.585C27.6269 18.0277 27.3559 18.7045 26.74 19.1764C26.6044 19.282 26.4484 19.3585 26.2818 19.4008C26.1151 19.4431 25.9416 19.4505 25.772 19.4224L25.6803 19.4039C25.5802 19.7065 25.4603 20.0022 25.3216 20.2892C25.1495 20.7139 24.4894 21.8231 23.5731 22.7817C22.0897 23.6958 21.5135 25.5781 21.5105 27.2412C21.5025 27.525 21.4878 27.8085 21.4706 28.0877C18.3831 29.159 15.2087 28.5805 12.6727 26.3238C13.3434 26.068 14.1519 25.7559 14.1789 25.7481C14.6887 25.5581 14.8631 25.1395 14.9659 24.6898C15.0325 24.4086 15.0828 24.1238 15.1167 23.8368C14.3559 23.3854 13.6926 22.7869 13.1655 22.0764C12.4477 21.1499 11.9271 20.0864 11.6357 18.9512C11.453 18.9837 11.2654 18.9742 11.087 18.9234C10.9086 18.8726 10.7441 18.7817 10.6061 18.6578C10.0218 18.1476 9.79454 17.4548 9.65726 17.0022C9.46284 16.3633 9.48228 15.3411 9.81973 14.7971C9.91987 14.636 10.0618 14.5052 10.2305 14.4184C10.3991 14.3317 10.5881 14.2924 10.7773 14.3046C10.9265 14.3028 11.0746 14.3305 11.213 14.3863C11.3515 14.442 11.4775 14.5246 11.5838 14.6293C11.5838 14.6293 9.03645 7.8667 18.9173 7.8667C28.7982 7.8667 26.023 15.0934 26.023 15.0934Z" fill="white"/>
<path d="M25.4425 18.7705C25.3681 19.0701 25.2737 19.3644 25.1601 19.6515C25.1201 19.7554 25.0783 19.8586 25.0317 19.9597C25.0122 20.0016 24.9902 20.0423 24.9711 20.0844C24.846 20.3597 25 20.0349 24.9373 20.1614C24.7888 20.4631 24.6218 20.7554 24.4374 21.0366C23.9094 21.8775 23.2429 22.623 22.4661 23.2414C22.0308 23.5922 21.5207 23.8381 20.9753 23.9603C20.8715 23.989 20.7834 24.0577 20.7303 24.1514C20.6772 24.245 20.6635 24.3559 20.6922 24.4597C20.7209 24.5635 20.7897 24.6516 20.8833 24.7046C20.977 24.7577 21.0879 24.7714 21.1917 24.7427C22.3023 24.5229 23.248 23.7395 23.9941 22.9254C24.6327 22.2498 25.1723 21.487 25.5968 20.6599C25.6129 20.6271 25.6285 20.5943 25.6433 20.561C25.6635 20.5215 25.6813 20.4808 25.6966 20.4391C25.6662 20.4992 25.7071 20.4222 25.7135 20.4092C25.7304 20.3754 25.7456 20.3401 25.7612 20.3052C25.797 20.2246 25.8312 20.1431 25.8648 20.0616C26.0126 19.7132 26.1329 19.3537 26.2246 18.9865C26.3463 18.4793 25.564 18.2622 25.4422 18.7708L25.4425 18.7705Z" fill="#211715"/>
<path d="M22.7564 23.473C21.8735 24.4754 21.5131 25.9267 21.5105 27.2412C21.4912 27.9237 21.4334 28.6032 21.3944 29.2285C21.331 30.2598 21.5041 31.2335 22.181 31.9461C22.8985 32.7017 23.646 33.1833 24.6663 32.8017C25.2819 32.3978 26.2248 32.2027 26.9879 32.0881C28.0996 31.927 29.2313 32.1883 30.1599 32.8203C31.2376 32.1637 31.974 31.2987 32.3433 30.4005C32.773 29.2505 32.9476 28.0209 32.855 26.7967C32.6127 23.3288 29.4329 21.9004 26.2633 22.0378C25.3407 22.0562 24.4366 22.2994 23.6293 22.7464C23.3017 22.941 23.0071 23.1862 22.7564 23.473Z" fill="white"/>
<path d="M13.4954 55.9894C9.49905 55.5852 6.42493 54.8186 5.14628 54.4127C3.34404 53.8406 2.17748 52.4285 1.49294 51.0405C0.752765 49.5394 0.861474 46.5921 1.08853 45.1739C1.63681 41.7468 1.98644 39.9579 2.64394 36.5823C2.91292 35.2028 3.4186 32.3219 4.65903 30.6572C5.57723 29.4248 7.07093 28.5243 8.74671 27.7713C9.98749 27.2134 11.3284 26.7371 12.6092 26.2666C15.155 28.5711 18.3574 29.1688 21.4703 28.0883C21.4459 28.48 21.4167 28.864 21.3939 29.2293C21.3305 30.2606 21.5036 31.2343 22.1805 31.9469C22.8127 32.6125 23.4681 33.0656 24.3133 32.9031L24.5349 32.8605C23.3944 33.4861 22.379 34.2279 21.6387 35.5341C21.3487 34.9149 20.9911 34.3298 20.5722 33.7894C20.777 33.397 20.8412 32.9462 20.7541 32.5122C20.6838 32.1682 20.4537 31.8022 20.103 31.7837C19.8221 31.7694 19.5872 31.9831 19.3884 32.1821C18.8369 31.5344 18.0557 30.9595 17.2118 31.0662C16.2945 31.1815 15.6301 32.1372 15.661 33.0612C15.696 34.1124 16.4725 35.0491 17.3948 35.5209C17.2024 36.8009 18.107 40.1831 18.443 41.3236C18.656 42.0457 18.9651 42.8031 19.6214 43.2226C19.9743 43.4325 20.3705 43.5589 20.7798 43.592L20.6819 43.9058C19.0613 44.0731 17.8873 45.9949 18.478 47.5133L18.7468 48.1693C18.7749 48.8126 18.8019 49.4335 18.8019 49.4335C18.8837 51.3158 18.5483 54.6976 18.3792 56.2549C16.6512 56.2434 15.0074 56.1423 13.4954 55.9894Z" fill="white"/>
<path d="M51.6593 54.7543C48.9467 54.7543 43.8294 54.7448 38.9392 54.7343C32.6825 54.7208 26.7979 54.7054 26.7979 54.7054C27.3125 49.8094 28.803 37.2324 28.803 37.2324L32.9207 33.2533C33.6028 32.4813 34.4592 31.8839 35.3266 31.3285C35.837 31.0376 36.3762 30.8004 36.9356 30.6206L38.4157 31.4849C40.7051 32.5679 42.2677 32.9106 44.7489 32.8558C47.6846 32.7909 48.6765 32.3148 49.684 31.7591L51.2477 30.9572C52.5222 31.4232 53.7486 32.0117 54.9095 32.7145C55.964 33.3879 56.7944 34.3596 57.2953 35.5061C57.6838 36.4115 57.9987 37.3467 58.2369 38.3026C58.8015 40.3365 59.4083 42.3655 59.7561 44.4509C60.066 46.3079 60.4002 48.6801 59.5701 50.4431C59.0423 51.5647 58.1094 52.4288 57.1694 53.206C57.1687 53.206 54.0804 53.9027 51.6593 54.7543Z" fill="white"/>
<path d="M51.06 42.9483C51.1519 42.8686 51.2598 42.8097 51.3765 42.7755C51.4932 42.7414 51.6159 42.7328 51.7363 42.7504C51.8543 42.7671 51.9672 42.8101 52.0665 42.8761C52.1657 42.9421 52.249 43.0296 52.3101 43.132C52.3809 43.2732 52.4212 43.4278 52.4284 43.5857C52.4799 44.2034 52.3606 44.8233 52.0837 45.3778C51.953 45.658 51.7635 45.9068 51.528 46.1072C51.4309 46.2012 51.3072 46.263 51.1737 46.2839C51.0401 46.3049 50.9034 46.284 50.7822 46.2242C50.7329 46.4093 50.6742 46.5917 50.6066 46.7709C50.4143 47.258 49.3386 48.9857 47.9844 49.618C47.9921 49.6799 48.0038 49.7495 48.0173 49.8288C48.089 50.2456 48.2053 50.7168 48.7597 51.0229C48.7966 51.0346 49.5205 51.378 49.5758 51.4028L49.7905 51.4992L49.7418 51.5602C49.1347 52.32 47.7091 52.968 46.2616 53.0556C45.3865 53.112 44.5077 53.0522 43.6483 52.8776C42.7918 52.6996 41.9519 52.3285 41.3558 51.6882L41.2185 51.5406L41.547 51.4028C41.607 51.3776 42.3262 51.0346 42.367 51.0229C42.9175 50.7168 43.0356 50.2452 43.1073 49.8288C43.1132 49.8036 43.1171 49.7805 43.121 49.7571C42.3925 49.4331 41.7449 48.9515 41.2249 48.3471C40.672 47.7268 40.2519 46.9999 39.9908 46.211C39.6056 46.4115 39.3745 46.3251 39.1454 46.1418C38.9098 45.9415 38.7203 45.6928 38.5897 45.4125C38.3127 44.858 38.1935 44.2381 38.245 43.6204C38.2521 43.4625 38.2924 43.3079 38.3633 43.1666C38.4244 43.0642 38.5076 42.9768 38.6068 42.9107C38.7061 42.8447 38.8189 42.8017 38.937 42.785C39.0573 42.7674 39.18 42.776 39.2967 42.8102C39.4134 42.8444 39.5214 42.9033 39.6132 42.983C39.6132 42.983 38.2129 37.8877 44.7085 37.8877C51.2042 37.8877 51.06 42.9483 51.06 42.9483Z" fill="white"/>
<path d="M36.9888 54.439C36.5685 55.1 36.306 55.7639 35.9891 56.6813H55.3605C54.8631 55.5197 54.192 54.4405 53.3703 53.4805C52.6714 52.6521 51.2867 51.916 49.8598 51.3931C49.3415 52.223 47.8141 52.9618 46.2612 53.0558C45.3861 53.1122 44.5074 53.0524 43.648 52.8778C42.7234 52.6856 41.818 52.2683 41.2182 51.5302C39.9164 52.0421 38.3228 52.7711 37.7104 53.4805C37.4466 53.7818 37.2054 54.1022 36.9888 54.439Z" fill="#FEBE69"/>
<path d="M50.0079 10.1536C49.5425 9.72663 49.0485 9.33196 48.5293 8.97233C48.1609 8.74367 47.7752 8.54434 47.3756 8.37621C46.3341 7.93098 45.2056 7.72662 44.0742 7.77839C40.2937 7.5559 36.6752 10.3861 35.9315 13.9677C35.7295 14.9341 35.8072 16.4292 35.9164 17.2138C35.9698 17.6542 36.0836 18.0851 36.2546 18.4945L36.3301 18.6531C36.3663 18.649 36.4045 18.6463 36.4444 18.6449C36.7118 18.6348 36.9734 18.724 37.1789 18.8955C37.8509 18.1046 38.6259 17.7563 39.8849 17.237C40.0126 17.1902 40.1372 17.1355 40.2581 17.0733C40.3654 17.0733 40.4413 17.0733 40.4413 17.0733C40.4247 17.1448 40.4306 17.2196 40.4582 17.2876C40.4859 17.3556 40.5339 17.4133 40.5957 17.4529C40.7651 17.5118 40.9447 17.5362 41.1237 17.5244C41.7584 17.5517 42.3883 17.4035 42.9442 17.096H43.9508C43.9077 17.2381 43.9508 17.4057 44.2022 17.4408C44.8888 17.5042 45.5763 17.3287 46.1485 16.944C46.5809 16.6058 46.9433 16.1866 47.2155 15.7098C47.5058 15.2025 47.7057 14.6484 47.806 14.0725H48.443C48.5627 15.0401 48.9526 15.9519 49.37 16.8331C49.6209 17.3629 49.9291 17.9306 50.4751 18.1442L50.9315 18.9851C51.0359 18.8893 51.1582 18.8152 51.2914 18.7671C51.4246 18.7189 51.5661 18.6976 51.7075 18.7044C51.8515 18.7078 51.9936 18.7369 52.1273 18.7902C52.6758 17.4113 52.3948 15.1639 52.1659 14.0308C52.0493 13.4531 51.8606 12.8923 51.6042 12.3616C51.2228 11.5276 50.6803 10.7772 50.0079 10.1536Z" fill="#FEBE69"/>
<path d="M47.9409 36.0118C48.0821 35.0213 48.8895 34.5959 49.7824 34.4693C50.7197 34.3366 51.3787 34.5817 52.1282 35.251C52.4 35.4968 52.6149 35.7989 52.7579 36.1363C52.9528 36.6188 53.1032 37.1182 53.2072 37.6281C53.3581 38.3108 53.5128 38.746 53.9783 39.2241C53.148 39.4831 52.4254 39.5338 51.7466 39.2496" fill="#85807F"/>
<path d="M40.0476 43.1789C39.9938 43.2005 39.9722 43.1101 39.9865 43.054C40.1446 42.4069 40.4346 41.7995 40.8384 41.2698C41.1073 40.9095 41.4467 40.6077 41.836 40.3828C42.2252 40.1579 42.6562 40.0146 43.1026 39.9616C43.4475 40.4444 43.8956 40.8444 44.4144 41.1325C44.5192 41.2 44.6372 41.2447 44.7604 41.2636C44.7604 41.2636 46.9799 41.2636 48.6194 41.2636C48.7844 41.3107 48.9458 41.3698 49.1022 41.4404C49.4689 41.614 49.7894 41.8719 50.0374 42.1931C50.2854 42.5142 50.454 42.8894 50.5293 43.2881L50.551 43.4078L51.06 42.9485C51.1443 42.8749 51.2426 42.8191 51.3489 42.7844C51.4553 42.7497 51.5675 42.7368 51.679 42.7464C51.7836 42.1495 51.8229 41.5429 51.796 40.9374C51.7603 39.8756 51.4526 38.8407 50.9024 37.9318C50.6683 37.5553 50.3925 37.2064 50.0803 36.8917C49.9552 36.7652 49.765 36.5804 49.6355 36.4678C49.2965 36.1974 48.9345 35.9574 48.5534 35.7505C48.2506 35.5838 47.9346 35.4421 47.6087 35.3268C46.8883 35.0784 46.1309 34.9542 45.3689 34.9594C44.0123 34.9364 42.6834 35.3454 41.5746 36.1273C40.7907 36.6679 40.1444 37.3845 39.6874 38.2198C39.2303 39.0551 38.9752 39.9858 38.9425 40.9374C38.9334 41.5545 38.9865 42.171 39.1011 42.7774C39.2894 42.7865 39.4691 42.8589 39.611 42.983" fill="#85807F"/>
<path d="M12.3854 26.611C14.3702 28.364 16.9562 29.2843 19.6057 28.9392C20.3583 28.8417 21.0975 28.6595 21.8093 28.396C21.9115 28.3649 21.9978 28.2958 22.0506 28.2029C22.1033 28.11 22.1183 28.0004 22.0926 27.8967C22.0633 27.7935 21.9945 27.7059 21.9011 27.6529C21.8077 27.5999 21.6973 27.5857 21.5935 27.6134C19.3372 28.4489 16.8582 28.4051 14.7142 27.2617C14.0835 26.9235 13.4945 26.5125 12.9593 26.0372C12.5691 25.6926 11.9931 26.2644 12.3854 26.611Z" fill="#211715"/>
<path d="M10.5655 9.34882C11.1584 7.50732 12.3498 5.91684 13.9504 4.83019C15.4763 3.78266 17.3034 3.26366 19.1522 3.35255C20.8641 3.38445 22.5266 3.93156 23.9229 4.9225L25.0183 5.82075C26.375 7.12797 27.574 9.13681 27.6033 12.0441C27.607 13.0056 27.46 13.9618 27.1676 14.8778C27.0638 14.8465 26.9568 14.8274 26.8486 14.8208C26.6998 14.8095 26.5502 14.8277 26.4085 14.8745C26.2668 14.9213 26.1358 14.9956 26.023 15.0933L24.9072 14.1493C24.5674 13.2069 23.7655 12.1521 22.9188 11.3749C22.5397 11.0126 22.102 10.7172 21.6241 10.5013L20.1953 10.279C19.2147 10.6557 17.8228 11.4679 17.0434 11.8682C16.9993 11.888 16.9506 11.8953 16.9027 11.8891C16.8547 11.8829 16.8094 11.8636 16.7718 11.8333C16.7341 11.803 16.7056 11.7629 16.6893 11.7174C16.673 11.6719 16.6697 11.6227 16.6796 11.5754C16.7049 11.4077 16.6992 11.2367 16.6627 11.0711C16.6186 10.8593 16.4598 10.7649 16.332 10.8268C15.2412 11.3548 13.666 12.7602 12.7691 13.6974L11.5839 14.6293C11.4776 14.5245 11.3516 14.4419 11.2132 14.3862C11.0748 14.3304 10.9267 14.3027 10.7775 14.3045C10.6581 14.3038 10.5391 14.3187 10.4236 14.3489C10.1919 13.4126 10.1036 12.4465 10.1618 11.4836C10.2129 10.7587 10.3484 10.0423 10.5655 9.34882Z" fill="#85807F"/>
<path d="M11.8702 14.3425C11.6328 14.1192 11.3339 13.9722 11.0121 13.9205C10.6904 13.8688 10.3605 13.9148 10.0651 14.0525C9.86161 14.1587 9.68354 14.3077 9.54313 14.4893C9.40272 14.6708 9.3033 14.8806 9.25172 15.1043C8.95332 16.1417 9.18781 17.3427 9.74674 18.254C10.1332 18.8843 10.7669 19.4501 11.5557 19.3714C11.6624 19.3685 11.764 19.3248 11.8395 19.2493C11.9149 19.1738 11.9586 19.0723 11.9615 18.9656C11.9608 18.8582 11.9178 18.7554 11.8418 18.6795C11.7659 18.6036 11.6631 18.5606 11.5557 18.5598C10.9398 18.6214 10.5436 18.0724 10.3004 17.5771C10.0951 17.1687 9.97363 16.7235 9.94303 16.2675C9.92071 15.8279 9.94303 15.2947 10.2189 14.9285C10.1613 15.0051 10.261 14.8882 10.2742 14.8757C10.3273 14.825 10.2536 14.8815 10.3249 14.8335C10.4127 14.7741 10.5129 14.7354 10.6178 14.7203C10.7382 14.6976 10.8624 14.7036 10.9801 14.7376C11.0979 14.7717 11.206 14.8329 11.2957 14.9165C11.6731 15.2774 12.2477 14.7045 11.8695 14.3416L11.8702 14.3425Z" fill="#211715"/>
<path d="M26.3099 15.3804C26.4077 15.3061 26.5216 15.2559 26.6424 15.2339C26.7632 15.2119 26.8875 15.2187 27.0051 15.2538C27.1464 15.2812 27.2726 15.3599 27.3593 15.4747C27.6168 15.8518 27.6089 16.4024 27.5561 16.8384C27.4917 17.2981 27.3366 17.7403 27.0997 18.1394C26.863 18.5509 26.4246 19.1212 25.8797 19.0312C25.776 19.0058 25.6666 19.021 25.5737 19.0737C25.4809 19.1263 25.4117 19.2125 25.3804 19.3146C25.3527 19.4183 25.3669 19.5288 25.42 19.6222C25.473 19.7156 25.5606 19.7844 25.6639 19.8138C26.9957 20.0336 27.8062 18.7555 28.1935 17.6679C28.5161 16.7618 28.5655 15.3195 27.6965 14.6909C27.4019 14.4932 27.0506 14.3975 26.6964 14.4183C26.3422 14.4392 26.0046 14.5756 25.7353 14.8066C25.66 14.8831 25.6178 14.9862 25.6178 15.0935C25.6178 15.2008 25.66 15.3039 25.7353 15.3804C25.8125 15.4544 25.9153 15.4958 26.0222 15.4958C26.1291 15.4958 26.2319 15.4544 26.3091 15.3804H26.3099Z" fill="#211715"/>
<path d="M11.1182 18.5001C11.3278 19.5913 11.736 20.6348 12.3224 21.5786C12.948 22.5785 13.7822 23.5173 14.8033 24.1246C15.3251 24.4347 15.898 24.6492 16.4952 24.7579C16.5988 24.7835 16.7084 24.7684 16.8012 24.7156C16.8941 24.6629 16.9632 24.5765 16.9942 24.4744C17.0219 24.3707 17.0077 24.2602 16.9547 24.1669C16.9017 24.0735 16.8141 24.0047 16.7109 23.9753C15.4033 23.7386 14.3879 22.944 13.5652 21.9315C12.7198 20.8706 12.1483 19.6181 11.9008 18.2844C11.8712 18.1812 11.8024 18.0937 11.709 18.0407C11.6157 17.9878 11.5053 17.9735 11.4015 18.001C11.299 18.0315 11.2122 18.1005 11.1594 18.1935C11.1066 18.2866 11.0918 18.3964 11.1182 18.5001Z" fill="#211715"/>
<path d="M24.1276 4.57332C22.8595 3.7048 21.3969 3.16209 19.8691 2.99318C18.3414 2.82428 16.7956 3.03438 15.3683 3.60491C14.2038 4.09109 13.152 4.812 12.2784 5.72269C11.4048 6.63338 10.7283 7.7143 10.2909 8.89803C9.67892 10.6428 9.57849 12.5261 10.0015 14.3261C10.1146 14.8356 10.8975 14.6199 10.7841 14.1103C10.1909 11.4391 10.786 8.57816 12.6381 6.52181C14.0174 5.00214 15.9032 4.0371 17.9426 3.80726C19.9819 3.57742 22.0352 4.09853 23.7182 5.27309C23.8113 5.32645 23.9217 5.34109 24.0255 5.31387C24.1294 5.28664 24.2184 5.21972 24.2734 5.12752C24.3255 5.03413 24.3395 4.92416 24.3124 4.82068C24.2853 4.7172 24.2191 4.62825 24.1278 4.57248L24.1276 4.57332Z" fill="#211715"/>
<path d="M27.593 14.8663C27.8066 14.1395 27.9416 13.3918 27.9957 12.6362C28.0342 11.886 27.9908 11.1339 27.8664 10.3932C27.6753 9.17652 27.222 8.01596 26.5378 6.9919C26.1984 6.49215 25.8086 6.02857 25.3745 5.60843C24.9992 5.24477 24.4247 5.8179 24.8007 6.18224C25.5256 6.87875 26.1084 7.70935 26.5167 8.62795C27.0057 9.79124 27.2376 11.0464 27.1965 12.3077C27.168 13.1016 27.0382 13.8887 26.8104 14.6497C26.6699 15.1537 27.4528 15.3686 27.593 14.8656V14.8663Z" fill="#211715"/>
<path d="M17.4698 20.956C17.9001 21.1939 18.3825 21.3217 18.8741 21.3279C19.3416 21.343 19.8907 21.2814 20.2812 20.9967C20.3723 20.9407 20.4382 20.8518 20.4653 20.7484C20.4924 20.645 20.4786 20.5351 20.4268 20.4417C20.3717 20.3496 20.2828 20.2828 20.179 20.2556C20.0752 20.2284 19.9649 20.2429 19.8718 20.2961C19.8236 20.3309 19.7727 20.3617 19.7196 20.3882C19.7044 20.3958 19.6885 20.4019 19.6736 20.41C19.6322 20.4329 19.7656 20.3762 19.699 20.3994C19.6554 20.4151 19.6121 20.431 19.5676 20.444C19.5164 20.459 19.4647 20.4719 19.4124 20.4826C19.386 20.488 19.3598 20.4929 19.3333 20.4973C19.2937 20.5039 19.2657 20.5052 19.3218 20.4997C19.1729 20.5151 19.0231 20.5207 18.8734 20.5166C18.8009 20.5142 18.7282 20.5098 18.656 20.503C18.6504 20.503 18.5208 20.4861 18.6077 20.499C18.5776 20.4946 18.5476 20.4897 18.5177 20.4843C18.41 20.4653 18.3036 20.4388 18.1995 20.4051C18.1551 20.3906 18.1118 20.3732 18.068 20.3571C18.0198 20.3394 18.1534 20.398 18.0923 20.3668C18.0743 20.3575 18.0551 20.3499 18.0367 20.3406C17.983 20.314 17.9307 20.2849 17.8788 20.2552C17.8328 20.2283 17.7819 20.2107 17.7291 20.2035C17.6763 20.1962 17.6226 20.1995 17.5711 20.213C17.5195 20.2265 17.4711 20.25 17.4287 20.2822C17.3862 20.3145 17.3505 20.3547 17.3236 20.4007C17.2967 20.4468 17.2791 20.4976 17.2719 20.5504C17.2646 20.6032 17.2679 20.6569 17.2814 20.7085C17.2949 20.7601 17.3185 20.8084 17.3507 20.8509C17.3829 20.8934 17.4232 20.9291 17.4692 20.956H17.4698Z" fill="#211715"/>
<path d="M18.7826 17.6393C18.831 17.8516 18.8759 18.0663 18.9055 18.2817L18.891 18.1739C18.8983 18.2278 18.905 18.2815 18.913 18.3353L18.8984 18.2274C18.9048 18.2683 18.9057 18.3099 18.901 18.351L18.9155 18.2432C18.9128 18.2582 18.9087 18.2729 18.9032 18.2871L18.9441 18.1903C18.9393 18.2001 18.9337 18.2095 18.9272 18.2183L18.9906 18.1362C18.9861 18.1419 18.9811 18.1472 18.9755 18.1519L19.0575 18.0883C19.0368 18.1027 19.0145 18.1144 18.9909 18.1233L19.0879 18.0824C19.0606 18.0929 19.0323 18.1007 19.0034 18.1056L19.1113 18.091C19.0807 18.0949 19.0497 18.0949 19.0191 18.091L19.127 18.1056C19.0898 18.1 19.0536 18.0895 19.0164 18.0832C18.9108 18.0578 18.7994 18.0723 18.7038 18.1241C18.6578 18.151 18.6175 18.1867 18.5853 18.2292C18.5531 18.2716 18.5295 18.32 18.516 18.3716C18.5025 18.4232 18.4993 18.4769 18.5065 18.5297C18.5138 18.5825 18.5313 18.6334 18.5583 18.6794C18.5843 18.7249 18.6191 18.7648 18.6608 18.7968C18.7024 18.8287 18.75 18.852 18.8007 18.8653C18.8815 18.879 18.9573 18.8981 19.0404 18.9044C19.1708 18.9081 19.2999 18.878 19.4153 18.817C19.4846 18.7833 19.5456 18.7348 19.594 18.6748C19.6423 18.6148 19.6768 18.5448 19.6949 18.4699C19.7197 18.3461 19.7183 18.2185 19.6908 18.0952L19.7054 18.2031C19.6716 17.9407 19.6244 17.6802 19.564 17.4227C19.5347 17.3194 19.4659 17.2318 19.3725 17.1788C19.2791 17.1258 19.1687 17.1116 19.065 17.1393C18.9625 17.1699 18.8758 17.2389 18.8229 17.3319C18.7701 17.4249 18.7553 17.5347 18.7816 17.6384L18.7826 17.6393Z" fill="#211715"/>
<path d="M15.0963 15.4686C14.9643 15.8534 15.0135 16.7496 15.747 16.8493C16.7202 16.8747 16.8066 15.7959 16.4955 15.277C16.24 14.8523 15.4579 14.6544 15.0963 15.4686Z" fill="#211715"/>
<path d="M22.8869 15.7189C22.9939 16.1113 22.8869 17.0026 22.1489 17.0545C21.1761 17.0173 21.159 15.9352 21.5029 15.4376C21.7844 15.0307 22.5784 14.8831 22.8869 15.7189Z" fill="#211715"/>
<path d="M21.4192 10.8518C22.1115 11.1976 22.7274 11.6788 23.2304 12.2669C23.7797 12.8439 24.2156 13.519 24.5153 14.2571C24.5464 14.3593 24.6155 14.4457 24.7084 14.4985C24.8013 14.5512 24.9109 14.5662 25.0146 14.5405C25.1179 14.5111 25.2055 14.4423 25.2585 14.349C25.3115 14.2556 25.3257 14.1451 25.2979 14.0414C24.9618 13.191 24.4697 12.411 23.847 11.7414C23.2879 11.0815 22.6015 10.541 21.8289 10.1522C21.7353 10.1007 21.6255 10.0871 21.5222 10.1142C21.4189 10.1413 21.3299 10.207 21.2736 10.2978C21.2203 10.3909 21.2056 10.5013 21.2329 10.6051C21.2601 10.709 21.327 10.798 21.4192 10.853V10.8518Z" fill="#211715"/>
<path d="M13.0554 13.9844C13.9344 13.0336 14.9245 12.1918 16.0044 11.4773C16.1199 11.4043 16.2374 11.3341 16.3576 11.2691C16.3885 11.2549 16.4187 11.239 16.4479 11.2214C16.504 11.1816 16.4879 11.2297 16.4514 11.2065C16.4345 11.1958 16.1797 11.3008 16.2746 11.163C16.2605 11.1835 16.2827 11.2307 16.2847 11.2537C16.2974 11.3996 16.2646 11.5436 16.2776 11.6882C16.2859 11.7843 16.3148 11.8776 16.3626 11.9615C16.4103 12.0454 16.4756 12.118 16.554 12.1742C16.8834 12.4094 17.1965 12.249 17.5086 12.0826C17.7782 11.9389 18.0462 11.7921 18.3152 11.6471C18.9571 11.2809 19.621 10.9548 20.3031 10.6706C20.4051 10.6392 20.4913 10.5701 20.544 10.4772C20.5966 10.3844 20.6118 10.275 20.5864 10.1713C20.5571 10.068 20.4883 9.98034 20.3949 9.92732C20.3014 9.8743 20.1909 9.86016 20.0872 9.88795C19.4484 10.1472 18.8256 10.444 18.2219 10.7767C17.9274 10.9335 17.6347 11.0934 17.341 11.2518C17.2227 11.3155 17.1043 11.3791 16.986 11.4415C16.8922 11.4909 16.8396 11.4772 16.9659 11.5172C17.0922 11.5573 17.0856 11.6246 17.0966 11.4642C17.1216 11.1029 17.0398 10.663 16.6949 10.4748C16.3689 10.2969 16.0426 10.5086 15.7621 10.6739C15.1803 11.0323 14.6288 11.4378 14.1132 11.8863C13.5426 12.3652 12.9979 12.874 12.4812 13.4106C12.1194 13.7875 12.6926 14.3621 13.0561 13.9844H13.0554Z" fill="#211715"/>
<path d="M12.7801 26.7149C13.1429 26.5765 13.5055 26.4377 13.8679 26.2984C14.0958 26.2227 14.3188 26.1329 14.5357 26.0295C15.2987 25.6199 15.4236 24.6432 15.5184 23.8716C15.5184 23.764 15.4757 23.6608 15.3996 23.5847C15.3235 23.5086 15.2203 23.4658 15.1127 23.4658C15.0061 23.4689 14.9046 23.5127 14.8292 23.5881C14.7538 23.6635 14.71 23.7649 14.7069 23.8716C14.7005 23.9232 14.6994 23.933 14.7035 23.901C14.6993 23.9311 14.6948 23.9612 14.69 23.9913C14.6831 24.0361 14.6755 24.0811 14.6675 24.1265C14.6488 24.2324 14.6276 24.3377 14.605 24.4429C14.5751 24.5963 14.535 24.7476 14.4849 24.8958C14.4778 24.9159 14.4702 24.9358 14.4625 24.9556C14.4831 24.908 14.4841 24.9049 14.4655 24.9465C14.4511 24.9747 14.4379 25.0033 14.4227 25.031C14.405 25.0633 14.3845 25.0938 14.3654 25.1252C14.3133 25.2111 14.3965 25.101 14.3428 25.156C14.3203 25.179 14.2996 25.2033 14.2763 25.2255C14.2606 25.2405 14.2444 25.255 14.2278 25.2689C14.267 25.2402 14.2677 25.2392 14.2303 25.2662C14.2007 25.2846 14.1723 25.3041 14.1419 25.3212C14.1129 25.3336 14.0847 25.3478 14.0574 25.3636C14.0912 25.3509 14.0417 25.368 14.0339 25.3709C13.9984 25.3834 13.9632 25.3974 13.928 25.4109C13.8101 25.456 13.6924 25.5011 13.5747 25.5462C13.2381 25.6753 12.9014 25.8043 12.5644 25.9332C12.462 25.9639 12.3754 26.0329 12.3226 26.1259C12.2698 26.2188 12.2549 26.3286 12.281 26.4323C12.3106 26.5353 12.3795 26.6227 12.4728 26.6757C12.566 26.7287 12.6764 26.743 12.7801 26.7156V26.7149Z" fill="#211715"/>
<path d="M12.4178 25.9054C10.738 26.5217 9.03498 27.1158 7.44729 27.9511C6.03761 28.6928 4.70132 29.6653 3.90552 31.077C3.13999 32.4351 2.75215 33.992 2.44226 35.5082C2.11139 37.1262 1.80454 38.7502 1.5031 40.3739C1.18373 42.0928 0.840695 43.8229 0.628179 45.5587C0.446771 47.041 0.431555 48.6117 0.748216 50.0766C1.0713 51.5723 2.05442 52.958 3.26037 53.8796C4.24264 54.6302 5.41697 54.9447 6.59587 55.2345C9.82991 56.0161 13.133 56.4774 16.4575 56.6117C16.973 56.6342 17.4888 56.6492 18.0048 56.6565C18.5272 56.6639 18.5274 55.8524 18.0048 55.845C14.5555 55.8014 11.1195 55.4081 7.74958 54.671C7.21837 54.5536 6.68903 54.4267 6.16357 54.2859C5.71413 54.1781 5.27249 54.0401 4.84164 53.8728C3.4766 53.298 2.35485 52.0515 1.78493 50.7113C1.54299 50.0725 1.40276 49.3996 1.36936 48.7173C1.31279 47.972 1.30878 47.2236 1.35736 46.4777C1.41077 45.7572 1.50299 45.04 1.63361 44.3294C1.77619 43.4597 1.92469 42.591 2.0791 41.7232C2.38342 40.0168 2.72003 38.316 3.05005 36.6144C3.31717 35.2363 3.59782 33.8529 4.11009 32.5409C4.35253 31.8752 4.70077 31.2529 5.1414 30.6981C5.62774 30.1333 6.19644 29.645 6.82834 29.2497C8.24325 28.3354 9.83247 27.7224 11.4048 27.1391C11.8138 26.9869 12.2237 26.8382 12.6334 26.688C12.7356 26.657 12.822 26.5879 12.8747 26.495C12.9275 26.4021 12.9425 26.2924 12.9167 26.1888C12.8873 26.0855 12.8185 25.998 12.7252 25.945C12.6318 25.892 12.5216 25.8778 12.4178 25.9054Z" fill="#211715"/>
<path d="M9.42871 38.4287C9.17511 40.4541 8.81229 42.56 8.47129 44.6094C8.37965 45.1606 8.28746 45.7117 8.1947 46.2627C8.16929 46.3664 8.1845 46.4759 8.23722 46.5687C8.28993 46.6615 8.37616 46.7307 8.47822 46.762C8.58195 46.7897 8.69241 46.7755 8.78578 46.7225C8.87914 46.6695 8.94793 46.5819 8.9773 46.4786C9.33707 44.3342 9.69955 42.1899 10.0176 40.0389C10.0969 39.5028 10.1728 38.9663 10.2402 38.4287C10.2396 38.3213 10.1967 38.2184 10.1207 38.1424C10.0448 38.0665 9.9419 38.0235 9.83447 38.0229C9.72766 38.0255 9.62595 38.0691 9.5504 38.1446C9.47486 38.2202 9.43128 38.3219 9.42871 38.4287Z" fill="#211715"/>
<path d="M42.7158 49.7553C42.7158 49.7627 42.7369 49.6354 42.7241 49.6845C42.7202 49.6995 42.718 49.7152 42.7149 49.7306C42.7114 49.7495 42.7083 49.7686 42.7048 49.7878C42.6964 49.8328 42.6873 49.8779 42.6774 49.923C42.6578 50.0124 42.6324 50.1004 42.6015 50.1866C42.5956 50.2026 42.5621 50.2855 42.5912 50.2153C42.6187 50.1485 42.5885 50.2187 42.581 50.2339C42.5592 50.279 42.5348 50.3228 42.508 50.3651C42.4941 50.3869 42.4791 50.4077 42.4647 50.429C42.4255 50.487 42.5198 50.3648 42.4727 50.4182C42.4366 50.4596 42.3986 50.4991 42.3585 50.5365C42.3371 50.5562 42.3146 50.5742 42.2924 50.5932C42.2596 50.6212 42.3242 50.5687 42.3237 50.5688C42.3122 50.5753 42.3014 50.5829 42.2914 50.5917C42.2656 50.6096 42.2365 50.6243 42.2114 50.6424C42.1565 50.6843 42.2519 50.6322 42.253 50.6322C42.1862 50.6506 42.1223 50.6782 42.0632 50.7142C41.9328 50.7739 41.8032 50.8353 41.6733 50.8963C41.5634 50.9481 41.4544 51.0028 41.3428 51.0507C41.2515 51.104 41.1847 51.1911 41.1568 51.2931C41.1287 51.3987 41.1434 51.5111 41.1977 51.6059C41.2516 51.6968 41.3384 51.7634 41.4402 51.7919C41.546 51.8141 41.6562 51.7997 41.7528 51.7509C41.9925 51.6483 42.2253 51.5283 42.4629 51.4196L42.5305 51.3891C42.6035 51.3553 42.4273 51.4361 42.476 51.4121C42.5546 51.3777 42.6304 51.3372 42.7028 51.2911C42.777 51.2402 42.8482 51.1849 42.9158 51.1254C43.1123 50.9434 43.2641 50.7182 43.3591 50.4677C43.4 50.3666 43.4328 50.2623 43.4571 50.156C43.4954 50.0246 43.5195 49.8895 43.529 49.7529C43.529 49.6453 43.4862 49.5421 43.4101 49.466C43.334 49.3899 43.2308 49.3472 43.1232 49.3472C43.0156 49.3472 42.9124 49.3899 42.8363 49.466C42.7602 49.5421 42.7175 49.6453 42.7175 49.7529L42.7158 49.7553Z" fill="#211715"/>
<path d="M47.5783 49.6176C47.6459 50.129 47.7497 50.6305 48.1071 51.0252C48.2066 51.1314 48.3187 51.2251 48.4409 51.304C48.5066 51.3502 48.5782 51.3875 48.6537 51.4149C48.6813 51.4242 48.5305 51.3605 48.5765 51.3823C48.5864 51.387 48.5966 51.3912 48.6067 51.3958C48.7406 51.4562 48.8733 51.5194 49.0062 51.5818C49.1278 51.6389 49.2485 51.6976 49.3707 51.7531C49.4643 51.8047 49.5741 51.8184 49.6774 51.7913C49.7808 51.7642 49.8698 51.6984 49.9259 51.6075C49.979 51.5143 49.9935 51.404 49.9663 51.3002C49.9391 51.1965 49.8723 51.1075 49.7804 51.0523C49.5477 50.9469 49.3183 50.8342 49.0872 50.7272C49.0504 50.7103 49.0133 50.6933 48.976 50.6764C48.9386 50.6595 48.9063 50.644 48.8701 50.6318C48.8744 50.6333 48.9616 50.6807 48.9256 50.6487C48.9134 50.6402 48.9007 50.6326 48.8875 50.6257C48.8632 50.6105 48.8397 50.5941 48.8159 50.578C48.8069 50.572 48.7685 50.5422 48.8126 50.5767C48.8568 50.6112 48.8101 50.5736 48.8013 50.566C48.759 50.5301 48.7191 50.4914 48.6818 50.4502C48.6649 50.4323 48.6515 50.4108 48.6341 50.3943C48.6331 50.3934 48.6831 50.4648 48.6613 50.4281C48.6532 50.4149 48.6429 50.4024 48.6343 50.3895C48.6066 50.348 48.5812 50.305 48.5584 50.2607C48.5479 50.2406 48.5388 50.2201 48.5288 50.1998C48.5 50.1413 48.5609 50.2869 48.5312 50.2044C48.4957 50.106 48.4667 50.0054 48.4443 49.9033C48.4339 49.8556 48.4246 49.8076 48.416 49.7596C48.4098 49.7242 48.4038 49.6888 48.3979 49.6533C48.3932 49.6249 48.3748 49.4957 48.3905 49.6157C48.3868 49.5088 48.3448 49.4068 48.2721 49.3283C48.1955 49.2528 48.0923 49.2103 47.9847 49.21C47.7886 49.2188 47.5494 49.3902 47.579 49.6157L47.5783 49.6176Z" fill="#211715"/>
<path d="M48.4355 35.7223C48.8617 34.8482 50.2086 34.636 51.0382 34.9966C51.5549 35.2207 51.9894 35.5995 52.2817 36.0808C52.584 36.6075 52.7022 37.2518 52.8378 37.8366C52.9617 38.4627 53.2571 39.0422 53.6909 39.5104L53.8699 38.8322C53.1937 39.0392 52.525 39.1281 51.8545 38.8574C51.7508 38.8295 51.6402 38.8436 51.5468 38.8967C51.4534 38.9497 51.3846 39.0374 51.3554 39.1408C51.3294 39.2445 51.3444 39.3542 51.3971 39.4471C51.4499 39.5401 51.5364 39.6092 51.6388 39.64C52.4302 39.9594 53.2887 39.859 54.0857 39.6148C54.1532 39.5948 54.2145 39.5577 54.2636 39.5071C54.3127 39.4565 54.3479 39.3942 54.3659 39.326C54.3839 39.2579 54.384 39.1863 54.3663 39.118C54.3486 39.0498 54.3136 38.9873 54.2647 38.9365C53.8463 38.4992 53.7019 37.984 53.5724 37.4063C53.4221 36.7358 53.2342 35.9907 52.8238 35.4293C52.4264 34.8913 51.8888 34.4728 51.2699 34.2194C50.6693 34.0008 50.0168 33.969 49.3978 34.128C48.7095 34.281 48.0525 34.6605 47.7347 35.3124C47.6831 35.406 47.6694 35.5158 47.6965 35.6191C47.7236 35.7225 47.7894 35.8115 47.8803 35.8677C47.9734 35.921 48.0838 35.9357 48.1876 35.9084C48.2915 35.8812 48.3805 35.8143 48.4355 35.7221V35.7223Z" fill="#211715"/>
<path d="M51.3469 43.235C51.393 43.1992 51.4459 43.1733 51.5025 43.159C51.559 43.1446 51.6179 43.1421 51.6755 43.1517C51.733 43.1612 51.788 43.1825 51.8369 43.2143C51.8858 43.2462 51.9276 43.2877 51.9596 43.3365C52.0183 43.4836 52.0435 43.642 52.0337 43.8001C52.0394 43.9889 52.026 44.1778 51.9938 44.3639C51.9291 44.7391 51.7933 45.0984 51.5936 45.4226C51.5107 45.5606 51.4056 45.684 51.2825 45.7878C51.2469 45.8294 51.1995 45.8593 51.1465 45.8736C51.0936 45.8879 51.0376 45.8858 50.9858 45.8677C50.4808 45.7325 50.2653 46.5156 50.7701 46.6502C51.3971 46.8176 51.8886 46.4159 52.2306 45.9281C52.5567 45.4377 52.7587 44.8754 52.8192 44.2897C52.8858 43.7426 52.8822 43.0521 52.4401 42.6543C52.2089 42.4526 51.9121 42.342 51.6053 42.3433C51.2985 42.3445 51.0026 42.4576 50.7731 42.6612C50.6978 42.7377 50.6555 42.8408 50.6555 42.9481C50.6555 43.0555 50.6978 43.1586 50.7731 43.235C50.8503 43.309 50.9531 43.3504 51.06 43.3504C51.167 43.3504 51.2698 43.309 51.3469 43.235Z" fill="#211715"/>
<path d="M39.8981 42.6957C39.6686 42.4922 39.3727 42.3792 39.0659 42.3779C38.7591 42.3767 38.4624 42.4872 38.2311 42.6888C37.7892 43.0863 37.7855 43.7774 37.8521 44.3242C37.9125 44.91 38.1145 45.4723 38.4406 45.9626C38.7828 46.4507 39.2734 46.8521 39.901 46.6847C40.4052 46.5494 40.1913 45.7673 39.6853 45.9022C39.6335 45.9206 39.5775 45.9228 39.5245 45.9085C39.4715 45.8942 39.4241 45.8641 39.3886 45.8223C39.2658 45.7182 39.1608 45.5949 39.0776 45.4571C38.8779 45.1329 38.742 44.7736 38.6773 44.3984C38.6467 44.2224 38.6332 44.0438 38.6369 43.8652C38.6241 43.6969 38.6497 43.5279 38.7116 43.371C38.7437 43.3222 38.7855 43.2807 38.8344 43.2488C38.8833 43.217 38.9382 43.1957 38.9958 43.1862C39.0533 43.1766 39.1122 43.1791 39.1688 43.1935C39.2253 43.2078 39.2783 43.2337 39.3243 43.2695C39.4018 43.343 39.5045 43.384 39.6112 43.384C39.718 43.384 39.8207 43.343 39.8981 43.2695C39.9734 43.193 40.0156 43.09 40.0156 42.9826C40.0156 42.8753 39.9734 42.7723 39.8981 42.6957Z" fill="#211715"/>
<path d="M50.4502 45.8114C50.4246 45.9822 50.3858 46.1508 50.3342 46.3156C50.2862 46.4282 50.2467 46.5443 50.2159 46.6628C50.2071 46.7247 50.2632 46.5725 50.2266 46.6366C50.2113 46.6632 50.2002 46.6931 50.1867 46.7212C50.1572 46.78 50.126 46.838 50.0938 46.8955C49.9142 47.214 49.7102 47.5181 49.4837 47.805C48.9193 48.5117 48.205 49.2242 47.3144 49.4189C46.8045 49.5304 47.0204 50.3128 47.5303 50.2014C48.5646 49.9753 49.4172 49.1836 50.0575 48.3788C50.6115 47.6825 51.1011 46.9249 51.2337 46.0278C51.2588 45.9242 51.2435 45.8148 51.1908 45.7221C51.1382 45.6293 51.0522 45.5601 50.9503 45.5286C50.8465 45.5008 50.736 45.5149 50.6426 45.568C50.5492 45.621 50.4804 45.7087 50.4511 45.8121L50.4502 45.8114Z" fill="#211715"/>
<path d="M39.4768 45.9044C39.7581 46.9879 40.3109 47.9818 41.0829 48.7924C41.8468 49.5934 42.8329 50.2445 43.946 50.4024C44.0497 50.4274 44.159 50.4121 44.2517 50.3594C44.3444 50.3068 44.4137 50.2209 44.4453 50.119C44.4731 50.0153 44.459 49.9047 44.4059 49.8113C44.3529 49.7178 44.2652 49.649 44.1618 49.6198C42.2055 49.3425 40.7314 47.5149 40.2585 45.6887C40.1277 45.1835 39.3447 45.3975 39.4759 45.9044H39.4768Z" fill="#211715"/>
<path d="M52.0777 42.8103C52.3642 41.0538 52.1891 39.1923 51.2134 37.6642C50.2673 36.2076 48.8004 35.1674 47.1129 34.7563C45.426 34.3427 43.6469 34.5459 42.0967 35.3291C40.9516 35.9311 40.0021 36.8474 39.3598 37.9704C38.938 38.7324 38.672 39.5706 38.5772 40.4364C38.504 41.229 38.5414 42.028 38.6883 42.8103C38.7176 42.9136 38.7864 43.0012 38.8798 43.0543C38.9731 43.1073 39.0836 43.1215 39.1874 43.0938C39.2898 43.063 39.3763 42.9939 39.4291 42.9009C39.4818 42.808 39.4968 42.6982 39.4708 42.5945C39.3683 41.9992 39.33 41.3946 39.3565 40.7911C39.3962 40.111 39.5587 39.4437 39.8361 38.8215C40.3085 37.8091 41.0532 36.9481 41.987 36.3347C43.2488 35.5361 44.7527 35.2103 46.2319 35.4152C47.7709 35.6141 49.1765 36.391 50.1637 37.5883C51.3069 38.9782 51.5782 40.8586 51.2951 42.594C51.2697 42.6977 51.285 42.8071 51.3377 42.8999C51.3904 42.9927 51.4766 43.0618 51.5786 43.0931C51.6823 43.1209 51.7928 43.1068 51.8862 43.0537C51.9796 43.0007 52.0484 42.9131 52.0777 42.8098V42.8103Z" fill="#211715"/>
<path d="M55.6684 56.3733C55.1577 55.1785 54.4534 54.076 53.584 53.1103C52.7189 52.1544 51.4426 51.5764 50.2651 51.1145C50.1613 51.0867 50.0508 51.1009 49.9574 51.1539C49.864 51.207 49.7952 51.2947 49.766 51.398C49.7399 51.5017 49.7548 51.6114 49.8076 51.7044C49.8603 51.7974 49.9469 51.8664 50.0493 51.8971C51.1131 52.3144 52.2797 52.8495 53.0474 53.7259C53.8441 54.6379 54.4921 55.6698 54.9676 56.7836C55.0224 56.8761 55.1114 56.9432 55.2153 56.9704C55.3193 56.9977 55.4298 56.9829 55.5228 56.9292C55.6137 56.873 55.6794 56.784 55.7065 56.6807C55.7336 56.5773 55.72 56.4675 55.6684 56.374V56.3733Z" fill="#211715"/>
<path d="M36.3804 56.7887C36.7802 55.6347 37.2744 54.392 38.208 53.5552C38.679 53.1697 39.2001 52.85 39.7571 52.6047C40.3751 52.3017 41.0113 52.0386 41.6541 51.7932C41.7562 51.7619 41.8424 51.6928 41.8951 51.5999C41.9478 51.5071 41.963 51.3976 41.9374 51.2939C41.9082 51.1906 41.8394 51.1029 41.746 51.0499C41.6526 50.9968 41.5421 50.9827 41.4383 51.0105C40.3666 51.4195 39.2756 51.8589 38.306 52.4792C37.4514 53.0597 36.7662 53.8566 36.3204 54.7885C36.0382 55.3655 35.7966 55.9615 35.5974 56.5721C35.4262 57.0667 36.2098 57.2792 36.3799 56.7879L36.3804 56.7887Z" fill="#211715"/>
<path d="M44.3261 47.4498C44.6284 47.7456 45.0957 47.8412 45.5037 47.8408C45.9116 47.8405 46.3789 47.7458 46.6814 47.4498C46.7565 47.3735 46.7983 47.2706 46.7979 47.1636C46.7975 47.0565 46.7547 46.954 46.6791 46.8783C46.6034 46.8026 46.5008 46.7599 46.3938 46.7595C46.2868 46.759 46.1839 46.8009 46.1076 46.876C46.0919 46.8912 46.0335 46.9377 46.1008 46.8858C46.1681 46.8339 46.0949 46.888 46.0751 46.9001C46.0521 46.9142 46.0283 46.9274 46.0041 46.9395C45.988 46.9475 45.9703 46.9539 45.9546 46.9627C45.9735 46.952 46.0511 46.9258 45.9872 46.9478C45.91 46.9752 45.8309 46.9968 45.7505 47.0126C45.7375 47.0151 45.7243 47.0173 45.7111 47.0195C45.6803 47.0244 45.6934 47.0227 45.7503 47.0148C45.7267 47.0211 45.7021 47.0236 45.6776 47.0222C45.6198 47.0271 45.5618 47.0293 45.5038 47.0293C45.4506 47.0293 45.3975 47.0274 45.3446 47.0234C45.3155 47.0189 45.2862 47.016 45.2568 47.0148C45.2957 47.0131 45.3312 47.0259 45.2697 47.0148C45.188 47.0005 45.1077 46.9793 45.0296 46.9512C44.9971 46.9395 44.9451 46.9055 45.0526 46.9625C45.0392 46.9554 45.0247 46.9498 45.0112 46.9433C44.9841 46.9299 44.9578 46.9157 44.9322 46.8998C44.9128 46.8878 44.8947 46.8733 44.8753 46.8613C44.9936 46.9338 44.9329 46.9079 44.9001 46.8758C44.8238 46.8007 44.7209 46.7588 44.6139 46.7593C44.5068 46.7597 44.4043 46.8024 44.3286 46.8781C44.2529 46.9538 44.2102 47.0563 44.2098 47.1634C44.2093 47.2704 44.2512 47.3733 44.3263 47.4496L44.3261 47.4498Z" fill="#211715"/>
<path d="M45.4462 45.2397C45.4353 45.246 45.424 45.2516 45.4124 45.2566L45.5093 45.2157C45.4917 45.223 45.4732 45.2281 45.4543 45.2309L45.5622 45.2164C45.544 45.2186 45.5256 45.2186 45.5074 45.2164L45.6153 45.2309C45.6046 45.2294 45.5941 45.2273 45.5835 45.2251C45.539 45.2164 45.4934 45.2116 45.4482 45.206C45.3415 45.2089 45.24 45.2526 45.1645 45.3281C45.089 45.4035 45.0453 45.5051 45.0425 45.6118L45.057 45.7197C45.0757 45.7874 45.1117 45.8491 45.1613 45.8987L45.2435 45.9621C45.3056 45.9985 45.3763 46.0177 45.4482 46.0176H45.4501L45.3422 46.0032C45.3558 46.005 45.3689 46.0079 45.3823 46.0105C45.4246 46.0182 45.4677 46.023 45.5103 46.0274C45.5182 46.0284 45.5263 46.029 45.5343 46.0292C45.5426 46.0293 45.5509 46.0289 45.5591 46.028C45.5958 46.0242 45.6361 46.0184 45.6724 46.0128L45.679 46.0118C45.6837 46.0118 45.6885 46.01 45.693 46.0088C45.7038 46.0058 45.7143 46.0023 45.7247 45.9981C45.7692 45.9818 45.8127 45.9627 45.8548 45.9408C45.9247 45.9014 45.9808 45.8415 46.0154 45.7691C46.0501 45.6968 46.0616 45.6155 46.0486 45.5364C46.0463 45.4827 46.0297 45.4306 46.0004 45.3856L45.937 45.3034C45.8874 45.2537 45.8257 45.2178 45.758 45.1991L45.6501 45.1846C45.5781 45.1846 45.5075 45.2037 45.4454 45.24L45.4462 45.2397Z" fill="#211715"/>
<path d="M42.5095 43.4888C42.4188 43.7837 42.4779 44.4618 43.0365 44.5201C43.7747 44.5155 43.8142 43.6957 43.5655 43.3101C43.362 42.9939 42.7638 42.8628 42.5095 43.4888Z" fill="#211715"/>
<path d="M48.3964 43.4888C48.4872 43.7837 48.4282 44.4618 47.8696 44.5201C47.1314 44.5155 47.0919 43.6956 47.3406 43.3101C47.5441 42.9939 48.1428 42.8628 48.3964 43.4888Z" fill="#211715"/>
<path d="M42.3147 39.7171C41.5138 40.0098 40.8256 40.5477 40.3482 41.2543C40.1075 41.6088 39.9125 41.9922 39.7676 42.3955C39.6919 42.5835 39.6329 42.7778 39.5911 42.9762C39.5404 43.2597 39.7126 43.6142 40.0476 43.5848C40.1543 43.5821 40.2559 43.5385 40.3314 43.463C40.4069 43.3874 40.4506 43.2858 40.4533 43.1791C40.4526 43.0717 40.4096 42.9689 40.3336 42.893C40.2577 42.8171 40.1549 42.7741 40.0476 42.7733L40.0234 42.7753L40.2281 42.8308L40.2095 42.8183L40.3551 42.9639C40.384 43.0146 40.3487 43.2673 40.398 43.0861C40.4095 43.0438 40.4214 43.0016 40.4339 42.96C40.4564 42.8843 40.4804 42.8094 40.5059 42.7351C40.5507 42.603 40.6023 42.4732 40.6603 42.3463C40.7897 42.0597 40.9509 41.7886 41.1409 41.5381C41.4967 41.0679 41.9782 40.7078 42.5298 40.4995C42.6321 40.4686 42.7186 40.3996 42.7714 40.3066C42.8241 40.2137 42.8391 40.104 42.8131 40.0003C42.7837 39.897 42.7149 39.8095 42.6216 39.7565C42.5282 39.7035 42.4178 39.6893 42.3141 39.7169L42.3147 39.7171Z" fill="#211715"/>
<path d="M42.2255 38.8741C42.339 39.5091 42.6324 40.0983 43.0708 40.5715C43.289 40.8126 43.5327 41.0292 43.7978 41.2175C44.0762 41.4463 44.4075 41.6017 44.7615 41.6692C44.8691 41.6692 44.9723 41.6265 45.0484 41.5504C45.1245 41.4743 45.1673 41.3711 45.1673 41.2635C45.1641 41.1569 45.1203 41.0555 45.0449 40.9801C44.9695 40.9047 44.8681 40.8609 44.7615 40.8577C44.8347 40.8675 44.7137 40.8346 44.7098 40.833C44.7605 40.8532 44.6917 40.821 44.6749 40.8121C44.6122 40.7783 44.551 40.7428 44.4905 40.7057C44.3776 40.6366 44.2685 40.5615 44.1618 40.4829C44.1268 40.4572 44.1956 40.5108 44.1388 40.466C44.1094 40.4422 44.08 40.4183 44.0509 40.3938C44.0026 40.3531 43.9552 40.3113 43.9089 40.2684C43.8073 40.1742 43.7108 40.0746 43.62 39.97C43.5993 39.9463 43.5792 39.9223 43.5593 39.8981C43.5424 39.8778 43.5064 39.8318 43.5412 39.8773C43.4994 39.8229 43.4597 39.7667 43.4217 39.7098C43.3492 39.6016 43.2836 39.489 43.2254 39.3727C43.2085 39.3388 43.1934 39.305 43.1777 39.2722C43.1457 39.2046 43.1845 39.2925 43.1681 39.2499C43.1434 39.1865 43.1202 39.1229 43.1004 39.058C43.06 38.9275 43.0295 38.7941 43.0093 38.659C42.9804 38.5554 42.9117 38.4675 42.8182 38.4144C42.7247 38.3613 42.614 38.3474 42.5102 38.3757C42.4082 38.407 42.322 38.4761 42.2693 38.5689C42.2167 38.6617 42.2015 38.7711 42.2269 38.8748L42.2255 38.8741Z" fill="#211715"/>
<path d="M45.2582 39.0692C45.5399 39.6481 45.909 40.1802 46.3527 40.6467C46.792 41.075 47.3426 41.3715 47.942 41.5026C48.4519 41.6378 48.9746 41.7467 49.388 42.0966C49.7805 42.4301 50.0457 42.889 50.1386 43.3956C50.1681 43.4988 50.2369 43.5863 50.3302 43.6394C50.4236 43.6924 50.534 43.7067 50.6377 43.6791C50.7403 43.6486 50.8271 43.5796 50.88 43.4865C50.9328 43.3935 50.9476 43.2836 50.9212 43.1799C50.8088 42.6203 50.5386 42.1046 50.1424 41.6938C49.7238 41.2777 49.1997 40.9836 48.6265 40.843C48.074 40.6888 47.4894 40.598 47.0523 40.1957C46.598 39.7541 46.2276 39.2336 45.9595 38.6595C45.9326 38.6135 45.8969 38.5733 45.8544 38.541C45.812 38.5088 45.7636 38.4853 45.712 38.4718C45.6605 38.4582 45.6068 38.455 45.554 38.4623C45.5012 38.4695 45.4503 38.4871 45.4043 38.514C45.3583 38.5409 45.318 38.5766 45.2858 38.619C45.2536 38.6615 45.23 38.7099 45.2165 38.7614C45.203 38.813 45.1998 38.8667 45.207 38.9195C45.2143 38.9723 45.2318 39.0232 45.2587 39.0692H45.2582Z" fill="#211715"/>
<path d="M41.0685 51.9751C41.9871 52.9405 43.2946 53.2939 44.5802 53.4276C45.9327 53.5684 47.3008 53.4526 48.5533 52.8967C49.1193 52.6649 49.6244 52.3057 50.0292 51.8472C50.1025 51.7696 50.1433 51.667 50.1433 51.5603C50.1433 51.4536 50.1025 51.3509 50.0292 51.2734C49.9527 51.198 49.8497 51.1558 49.7423 51.1558C49.6349 51.1558 49.5319 51.198 49.4554 51.2734C48.6101 52.3047 47.0766 52.6446 45.8112 52.6676C44.3724 52.6938 42.6884 52.4998 41.6432 51.4013C41.2826 51.0221 40.7093 51.5966 41.0694 51.9751H41.0685Z" fill="#211715"/>
<path d="M51.2184 19.2725C51.3065 19.1994 51.4107 19.1484 51.5225 19.1237C51.6342 19.0991 51.7503 19.1015 51.8609 19.1308C51.9437 19.15 52.0226 19.1832 52.0942 19.2289C52.0954 19.2289 52.1573 19.2874 52.177 19.307C52.2369 19.3666 52.1556 19.2659 52.2015 19.3349C52.4406 19.6931 52.4455 20.1831 52.4107 20.5988C52.365 21.0294 52.2331 21.4465 52.0228 21.825C51.819 22.2049 51.4216 22.7772 50.9166 22.7082C50.813 22.6833 50.7038 22.6988 50.6111 22.7514C50.5184 22.8041 50.4492 22.89 50.4176 22.9918C50.3897 23.0955 50.4038 23.206 50.4568 23.2994C50.5099 23.3929 50.5976 23.4616 50.7009 23.4908C51.9831 23.6657 52.7326 22.448 53.077 21.3853C53.3596 20.5126 53.3717 19.1536 52.5461 18.5595C52.2584 18.369 51.9156 18.2793 51.5714 18.3045C51.2273 18.3296 50.9012 18.4683 50.6443 18.6987C50.2524 19.0454 50.8281 19.6177 51.2181 19.2725H51.2184Z" fill="#211715"/>
<path d="M50.4619 22.4735C50.348 22.9566 50.1905 23.4283 49.9913 23.883C50.0399 23.7646 49.9744 23.919 49.9545 23.9596C49.9207 24.0311 49.8843 24.1016 49.8471 24.1716C49.7645 24.3274 49.6762 24.4803 49.5841 24.6307C49.0962 25.4571 48.4723 26.1952 47.7387 26.8139C47.3471 27.147 46.8839 27.3853 46.3852 27.5103C45.8763 27.6266 46.0917 28.4092 46.6009 28.2929C47.6587 28.0513 48.5418 27.2825 49.2334 26.481C49.8197 25.8247 50.3101 25.0887 50.6899 24.2948C50.7161 24.2368 50.7407 24.1782 50.7653 24.1195C50.7755 24.0951 50.8149 24.0057 50.7702 24.1072C50.8289 23.9734 50.8862 23.8393 50.938 23.7029C51.0662 23.3732 51.1686 23.0341 51.2445 22.6885C51.3517 22.1791 50.5696 21.9615 50.4619 22.4728V22.4735Z" fill="#211715"/>
<path d="M36.8581 22.6127C37.166 23.9932 37.8072 25.2774 38.7258 26.3531C39.6134 27.3915 40.7599 28.2175 42.1347 28.4275C42.2384 28.4527 42.3477 28.4373 42.4405 28.3847C42.5333 28.332 42.6024 28.2459 42.6339 28.144C42.6617 28.0402 42.6475 27.9297 42.5944 27.8364C42.5414 27.743 42.4537 27.6742 42.3504 27.6449C41.0965 27.4535 40.1093 26.7264 39.2996 25.7793C38.4792 24.8037 37.9099 23.6424 37.6411 22.3964C37.5275 21.8869 36.745 22.1026 36.8587 22.6122L36.8581 22.6127Z" fill="#211715"/>
<path d="M42.5061 24.7766C42.9295 24.9977 43.4016 25.109 43.8791 25.1002C44.3782 25.1221 44.8704 24.977 45.2778 24.6877C45.3539 24.6116 45.3966 24.5084 45.3966 24.4008C45.3966 24.2931 45.3539 24.1899 45.2778 24.1138C45.2001 24.0407 45.0975 24 44.9909 24C44.8842 24 44.7816 24.0407 44.704 24.1138C44.8304 24.016 44.7439 24.0822 44.7116 24.1029C44.6845 24.1198 44.6566 24.1358 44.6282 24.1507C44.5876 24.1717 44.4997 24.1881 44.6113 24.1622C44.5728 24.1712 44.5344 24.1914 44.4965 24.2035C44.3915 24.2359 44.2841 24.26 44.1753 24.2755C44.2357 24.2665 44.1986 24.2719 44.1596 24.2755C44.1281 24.2785 44.0966 24.281 44.0649 24.2829C43.989 24.2875 43.9127 24.2892 43.8367 24.2883C43.769 24.2883 43.7004 24.2851 43.6323 24.2802C43.601 24.278 43.5699 24.2748 43.5388 24.2721C43.4204 24.2619 43.6187 24.2873 43.5085 24.2687C43.4073 24.2525 43.3071 24.2299 43.2087 24.2011C43.1668 24.1884 43.1257 24.1732 43.0845 24.1588C42.9861 24.125 43.1575 24.195 43.0688 24.1526C43.018 24.128 42.9673 24.1018 42.9166 24.0758C42.8237 24.0215 42.713 24.0063 42.6088 24.0336C42.5047 24.0609 42.4157 24.1284 42.3614 24.2214C42.3071 24.3143 42.2919 24.425 42.3192 24.5291C42.3465 24.6332 42.414 24.7223 42.5069 24.7766H42.5061Z" fill="#211715"/>
<path d="M43.6597 21.5776C43.7208 21.8016 43.7696 22.0287 43.8058 22.2581L43.7912 22.1502C43.7956 22.1813 43.7963 22.2128 43.7934 22.2441L43.808 22.1362C43.8058 22.1506 43.8022 22.1647 43.7975 22.1785L43.8384 22.0814C43.8342 22.0909 43.8292 22.1 43.8234 22.1086L43.8868 22.0265C43.8801 22.0345 43.8726 22.0418 43.8644 22.0483L43.9466 21.9847C43.9293 21.9954 43.9113 22.0049 43.8927 22.0131L43.9895 21.9722C43.9604 21.9845 43.9299 21.9932 43.8988 21.9982L44.0066 21.9839C43.9785 21.9871 43.9502 21.9871 43.9221 21.9839L44.03 21.9984C43.9978 21.9937 43.9664 21.9857 43.9343 21.9815C43.8819 21.9647 43.8261 21.9622 43.7725 21.9742C43.7188 21.9767 43.6667 21.9933 43.6215 22.0224C43.5755 22.0493 43.5352 22.085 43.503 22.1274C43.4707 22.1699 43.4472 22.2183 43.4337 22.2699C43.4202 22.3214 43.4169 22.3751 43.4242 22.4279C43.4314 22.4807 43.449 22.5316 43.4759 22.5776C43.5017 22.6234 43.5365 22.6634 43.5782 22.6954C43.6199 22.7273 43.6676 22.7505 43.7185 22.7636C43.7966 22.7744 43.8724 22.794 43.952 22.7974C44.0741 22.7981 44.1946 22.769 44.303 22.7129C44.3725 22.6807 44.434 22.6335 44.4832 22.5747C44.5323 22.516 44.5677 22.447 44.587 22.3729C44.6125 22.254 44.6116 22.1311 44.5845 22.0126C44.5483 21.7928 44.4984 21.5761 44.443 21.361C44.4288 21.3096 44.4047 21.2615 44.3719 21.2195C44.3392 21.1774 44.2984 21.1422 44.2521 21.1159C44.2057 21.0896 44.1547 21.0727 44.1018 21.0661C44.0489 21.0595 43.9952 21.0634 43.9438 21.0776C43.8924 21.0917 43.8443 21.1159 43.8023 21.1486C43.7602 21.1814 43.725 21.2221 43.6987 21.2685C43.6724 21.3148 43.6555 21.3659 43.6489 21.4188C43.6423 21.4717 43.6462 21.5254 43.6604 21.5767L43.6597 21.5776Z" fill="#211715"/>
<path d="M40.127 19.6219C40.0121 19.9905 40.0827 20.8392 40.7815 20.9144C41.7054 20.9126 41.7585 19.8865 41.4495 19.4028C41.1964 19.0069 40.4483 18.8396 40.127 19.6219Z" fill="#211715"/>
<path d="M47.5254 19.6509C47.6374 20.0203 47.5602 20.8682 46.8609 20.9382C45.9371 20.9291 45.8918 19.9027 46.2048 19.4215C46.4609 19.0274 47.2102 18.8661 47.5254 19.6509Z" fill="#211715"/>
<path d="M49.0865 8.85302C47.696 7.88345 46.0414 7.36381 44.3462 7.36423C43.642 7.34783 42.9375 7.39098 42.2405 7.49323C41.5833 7.61663 40.9434 7.81912 40.3348 8.09629C37.9628 9.15768 35.9476 11.4179 35.5092 14.0256C35.3906 14.8187 35.3648 15.623 35.4322 16.4221C35.484 17.1954 35.5785 17.9885 35.9044 18.6994C35.9594 18.7917 36.0484 18.8587 36.1522 18.8859C36.2561 18.9131 36.3665 18.8984 36.4597 18.845C36.5507 18.789 36.6166 18.7 36.6438 18.5966C36.6709 18.4932 36.6571 18.3833 36.6052 18.2898C36.3459 17.7246 36.2967 17.1269 36.2522 16.541C36.1956 15.8789 36.1956 15.2133 36.2522 14.5512C36.3646 13.3777 36.8893 12.2497 37.5828 11.3094C39.0078 9.37764 41.3867 8.1252 43.7986 8.17338C44.226 8.18183 44.6531 8.16577 45.0798 8.20398C45.5026 8.24399 45.9207 8.32277 46.329 8.43932C47.1676 8.67948 47.9608 9.056 48.677 9.5538C49.1088 9.84967 49.5153 9.14669 49.0865 8.85302Z" fill="#211715"/>
<path d="M52.4878 18.9745C52.959 17.8526 52.9015 16.5107 52.7719 15.3256C52.7167 14.7653 52.626 14.2091 52.5002 13.6604C52.3148 12.9196 52.0245 12.2091 51.6379 11.5505C51.2506 10.8892 50.765 10.2906 50.1977 9.7753C49.8139 9.42229 49.2385 9.99508 49.6238 10.3491C50.5887 11.2294 51.29 12.3604 51.6496 13.616C51.942 14.6974 52.0726 15.8162 52.0373 16.9359C52.0414 17.5588 51.9288 18.177 51.7054 18.7585C51.6774 18.8622 51.6915 18.9728 51.7446 19.0663C51.7977 19.1597 51.8855 19.2284 51.9889 19.2575C52.0926 19.2834 52.2022 19.2684 52.2951 19.2156C52.388 19.1629 52.4571 19.0764 52.488 18.9742L52.4878 18.9745Z" fill="#211715"/>
<path d="M48.0377 14.0727C48.1843 15.0087 48.4726 15.9168 48.8926 16.766C49.2277 17.4929 49.5912 18.2106 50.3676 18.5357C50.4713 18.5637 50.5819 18.5496 50.6754 18.4965C50.7688 18.4435 50.8375 18.3557 50.8666 18.2522C50.8925 18.1486 50.8775 18.0389 50.8248 17.946C50.772 17.8531 50.6856 17.784 50.5833 17.7531C50.0431 17.5269 49.7844 16.7749 49.5621 16.288C49.2162 15.5891 48.976 14.8427 48.8492 14.0732C48.8459 13.9667 48.8021 13.8654 48.7267 13.79C48.6513 13.7146 48.55 13.6708 48.4434 13.6675C48.336 13.6681 48.2331 13.711 48.1571 13.787C48.0812 13.8629 48.0382 13.9658 48.0377 14.0732V14.0727Z" fill="#211715"/>
<path d="M33.2075 33.5404C33.9138 32.7747 34.7352 32.1238 35.6421 31.6113C36.4776 31.1265 37.4566 30.8602 38.3721 30.5741C38.869 30.4188 38.6568 29.6351 38.1564 29.7915C37.1758 30.0982 36.1276 30.3912 35.2326 30.9106C34.2649 31.4571 33.3879 32.1507 32.6332 32.9666C32.2861 33.3554 32.858 33.9303 33.207 33.5404H33.2075Z" fill="#211715"/>
<path d="M37.5055 18.6449C37.2766 18.4386 36.9921 18.3043 36.6874 18.2586C36.3827 18.2129 36.0713 18.2579 35.792 18.388C35.5954 18.4884 35.4234 18.631 35.2882 18.8056C35.153 18.9802 35.0581 19.1824 35.0101 19.398C34.7343 20.4029 34.9896 21.5749 35.5592 22.4356C35.9459 23.0199 36.5602 23.5485 37.3089 23.4525C37.4154 23.4492 37.5167 23.4054 37.5921 23.33C37.6675 23.2546 37.7113 23.1533 37.7146 23.0467C37.7141 22.9393 37.6711 22.8364 37.5951 22.7605C37.5192 22.6845 37.4163 22.6416 37.3089 22.641C36.7521 22.7125 36.3766 22.2591 36.1318 21.8126C35.9082 21.4181 35.77 20.9811 35.7261 20.5299C35.7022 20.2803 35.7114 20.0287 35.7533 19.7816C35.7729 19.6612 35.806 19.5433 35.8519 19.4303C35.8634 19.4042 35.884 19.3682 35.8992 19.3422C35.9046 19.3329 35.9651 19.2407 35.935 19.282C35.907 19.32 35.9891 19.223 35.9993 19.2128C36.0094 19.2027 36.0897 19.1417 36.05 19.169C36.1311 19.1137 36.2235 19.0772 36.3205 19.0622C36.4275 19.0396 36.5382 19.0418 36.6441 19.0689C36.75 19.0959 36.8483 19.147 36.9313 19.2181C37.3178 19.5675 37.8935 18.9954 37.5052 18.6443L37.5055 18.6449Z" fill="#211715"/>
<path d="M51.1397 31.3484C51.9879 31.6623 52.8155 32.0294 53.6175 32.4473C54.3498 32.8314 55.0752 33.2368 55.6632 33.826C56.8734 35.0374 57.3659 36.6877 57.8129 38.2945C58.3167 40.106 58.8537 41.9125 59.2183 43.7585C59.5269 45.3203 59.7986 46.9567 59.6466 48.5519C59.5762 49.4074 59.2898 50.2311 58.8141 50.9457C58.2963 51.711 57.5882 52.3328 56.8813 52.9183C56.806 52.9948 56.7638 53.0979 56.7638 53.2052C56.7638 53.3126 56.806 53.4157 56.8813 53.4921C56.9586 53.5661 57.0613 53.6073 57.1682 53.6073C57.2752 53.6073 57.3779 53.5661 57.4552 53.4921C58.7877 52.3886 59.9938 51.1161 60.3421 49.3627C60.6718 47.7037 60.4233 45.99 60.1469 44.3423C59.8238 42.4175 59.2846 40.5402 58.7583 38.6634C58.2633 36.8951 57.7992 35.0792 56.5943 33.6421C55.9615 32.8874 55.1601 32.3613 54.3029 31.8938C53.353 31.3816 52.3679 30.9374 51.3551 30.5646C51.2513 30.5369 51.1408 30.5512 51.0474 30.6042C50.9541 30.6572 50.8852 30.7448 50.8558 30.8481C50.8296 30.9518 50.8444 31.0616 50.8972 31.1547C50.9501 31.2477 51.0368 31.3167 51.1394 31.3472L51.1397 31.3484Z" fill="#211715"/>
<path d="M53.9325 47.4783C54.3424 47.3814 54.7652 47.351 55.1848 47.388C55.3802 47.4045 55.574 47.4369 55.7642 47.4849C55.9819 47.5389 56.1953 47.6095 56.4024 47.696C56.5061 47.7244 56.6169 47.7104 56.7105 47.6573C56.804 47.6042 56.8727 47.5161 56.9015 47.4125C56.9267 47.3089 56.9115 47.1995 56.8588 47.1067C56.8062 47.0139 56.72 46.9448 56.6181 46.9134C55.6974 46.5396 54.6827 46.4635 53.7166 46.6958C53.6652 46.71 53.6171 46.7342 53.5751 46.7669C53.5331 46.7997 53.4979 46.8404 53.4716 46.8867C53.4453 46.9331 53.4284 46.9842 53.4218 47.0371C53.4152 47.0899 53.4191 47.1436 53.4333 47.195C53.4475 47.2464 53.4717 47.2944 53.5044 47.3365C53.5372 47.3785 53.5779 47.4137 53.6242 47.44C53.6706 47.4663 53.7217 47.4832 53.7746 47.4898C53.8274 47.4963 53.8811 47.4924 53.9325 47.4783Z" fill="#211715"/>
<path d="M47.1007 27.5907C47.1623 28.1519 47.3216 28.6981 47.5714 29.2044C47.7962 29.5707 48.1062 29.8772 48.475 30.0978C49.2931 30.6388 50.2384 30.9769 51.1397 31.3489C51.2434 31.3768 51.354 31.3627 51.4474 31.3097C51.5408 31.2566 51.6096 31.1689 51.6388 31.0655C51.6647 30.9618 51.6497 30.8521 51.597 30.7592C51.5442 30.6662 51.4577 30.5972 51.3554 30.5663C50.5473 30.2327 49.7139 29.922 48.9716 29.4535C48.8276 29.3666 48.6918 29.2668 48.5658 29.1554C48.4516 29.0648 48.357 28.952 48.2875 28.8239C48.037 28.3884 47.9601 27.8648 47.8828 27.3755C47.8536 27.2721 47.7848 27.1844 47.6914 27.1314C47.598 27.0783 47.4874 27.0642 47.3837 27.0921C47.2814 27.123 47.1949 27.192 47.1421 27.2849C47.0893 27.3779 47.0744 27.4875 47.1004 27.5912L47.1007 27.5907Z" fill="#211715"/>
<path d="M38.3727 30.5741C39.073 30.3712 39.7568 30.1154 40.4184 29.8089C40.7201 29.6568 41.073 29.4767 41.1737 29.1308C41.2173 28.948 41.2512 28.763 41.2752 28.5766L41.3851 27.9607C41.4106 27.857 41.3955 27.7475 41.3428 27.6546C41.29 27.5618 41.2037 27.4927 41.1015 27.4616C40.9978 27.4339 40.8874 27.4481 40.794 27.5011C40.7006 27.5541 40.6318 27.6417 40.6025 27.745C40.5384 28.1041 40.4789 28.4645 40.4102 28.8228C40.4089 28.83 40.3933 28.9156 40.3908 28.9151C40.3883 28.9146 40.4211 28.8579 40.4246 28.8655C40.4246 28.8655 40.2819 28.954 40.266 28.9639C40.1611 29.0292 40.0525 29.0884 39.9409 29.1414C39.8057 29.207 39.7294 29.239 39.6268 29.2801C39.4783 29.3396 39.3286 29.395 39.1779 29.4491C38.8398 29.5697 38.4978 29.6806 38.1563 29.792C38.0538 29.8226 37.9671 29.8916 37.9143 29.9846C37.8615 30.0776 37.8467 30.1874 37.8729 30.2911C37.9025 30.3942 37.9713 30.4817 38.0646 30.5347C38.1579 30.5877 38.2682 30.602 38.372 30.5746L38.3727 30.5741Z" fill="#211715"/>
<path d="M38.2108 31.8353C39.07 32.256 39.9647 32.5997 40.8846 32.8622C41.724 33.083 42.5847 33.2125 43.4519 33.2487C44.4326 33.2948 45.4154 33.2672 46.3919 33.1659C47.067 33.1078 47.7343 32.98 48.383 32.7843C48.9055 32.6084 49.4097 32.3823 49.8887 32.1094C50.3464 31.8576 49.9374 31.1565 49.4791 31.4088C49.2892 31.5132 49.0983 31.6157 48.9029 31.7095C48.8109 31.7538 48.7181 31.7963 48.6243 31.8362C48.7037 31.8024 48.5431 31.8681 48.5228 31.8757C48.4654 31.8983 48.4075 31.9197 48.3494 31.9401C47.7923 32.1318 47.2159 32.2617 46.6305 32.3276C44.9157 32.5354 43.0923 32.5604 41.4038 32.1571C40.443 31.9128 39.51 31.5702 38.6195 31.1345C38.5259 31.0831 38.4162 31.0696 38.3129 31.0966C38.2096 31.1237 38.1207 31.1894 38.0644 31.2801C38.011 31.3733 37.9963 31.4836 38.0236 31.5875C38.0508 31.6914 38.1178 31.7804 38.21 31.8353H38.2108Z" fill="#211715"/>
<path d="M35.2329 47.74C35.5772 49.0791 35.9891 50.3998 36.4671 51.6972C36.4981 51.7994 36.5672 51.8857 36.6601 51.9385C36.7529 51.9912 36.8625 52.0063 36.9662 51.9806C37.0695 51.9512 37.1571 51.8824 37.2101 51.7891C37.2632 51.6957 37.2774 51.5852 37.2497 51.4815C36.7717 50.1841 36.3598 48.8634 36.0155 47.5243C35.8855 47.0188 35.1024 47.233 35.2329 47.74Z" fill="#211715"/>
<path d="M43.5597 16.9881C43.5187 17.1259 43.5235 17.2733 43.5733 17.4081C43.6231 17.543 43.7153 17.6581 43.836 17.7362C44.0696 17.8486 44.3303 17.8923 44.5878 17.8623C45.2028 17.8355 45.7999 17.6472 46.3189 17.3162C47.1548 16.7752 47.7152 15.8032 48.0265 14.8779C48.2063 14.2828 48.3007 13.6652 48.3071 13.0436C48.3281 12.5215 47.5166 12.5224 47.4956 13.0436C47.456 14.0255 47.2615 14.9457 46.7115 15.7571C46.412 16.2398 45.9746 16.6216 45.4558 16.8531C45.2046 16.958 44.9386 17.0232 44.6673 17.0464C44.5532 17.0561 44.4386 17.0566 44.3244 17.0477C44.3168 17.0477 44.2399 17.0445 44.247 17.0369C44.2688 17.0153 44.3527 17.1608 44.3424 17.2038C44.4654 16.6966 43.683 16.4798 43.5597 16.9881Z" fill="#211715"/>
<path d="M40.0359 17.0732C40.0182 17.2248 40.0475 17.3782 40.1198 17.5126C40.1922 17.647 40.3042 17.7558 40.4405 17.8244C40.7205 17.9251 41.0197 17.9612 41.3156 17.9301C41.8889 17.9176 42.4529 17.7829 42.9699 17.535C44.0115 17.0491 44.7789 15.9557 45.1573 14.8975C45.3526 14.2846 45.4774 13.6514 45.5292 13.0103C45.5286 12.9028 45.4857 12.8 45.4097 12.724C45.3337 12.6481 45.2309 12.6051 45.1235 12.6045C45.0166 12.6069 44.9148 12.6505 44.8393 12.726C44.7637 12.8016 44.7202 12.9034 44.7177 13.0103C44.6675 13.5787 44.5524 14.1395 44.3747 14.6818C44.1738 15.2135 43.8749 15.7027 43.4935 16.1241C43.1052 16.5694 42.59 16.8852 42.0171 17.0293C41.7788 17.0891 41.5341 17.1195 41.2884 17.1196C41.165 17.1209 41.0395 17.1233 40.9164 17.1137C40.8777 17.1137 40.839 17.1101 40.801 17.103C40.8491 17.1184 40.8392 17.1801 40.8475 17.0738C40.8465 16.9664 40.8035 16.8638 40.7276 16.7879C40.6517 16.712 40.549 16.6689 40.4417 16.668C40.3347 16.67 40.2327 16.7134 40.157 16.789C40.0813 16.8647 40.0379 16.9668 40.0359 17.0738V17.0732Z" fill="#211715"/>
<path d="M38.2092 18.5069C39.0993 17.9126 40.1864 17.6954 41.0383 17.0484C41.9005 16.3938 42.3232 15.3966 42.5749 14.3719C42.6994 13.8647 41.9169 13.6485 41.7925 14.1562C41.5739 15.0478 41.2337 15.9271 40.4559 16.4742C40.0413 16.7659 39.5717 16.927 39.1094 17.1265C38.6532 17.313 38.2147 17.5405 37.7995 17.8061C37.3672 18.0946 37.7731 18.7979 38.2092 18.5069Z" fill="#211715"/>
<path d="M54.7979 54.909L54.5208 54.6317C54.2034 55.0998 53.7994 55.5029 53.3306 55.8192C53.2045 55.9201 53.0476 55.9748 52.8861 55.9743C52.7441 55.9677 52.6071 55.9191 52.4927 55.8346C52.3909 55.7386 52.3097 55.6229 52.2537 55.4946C52.1978 55.3664 52.1684 55.2281 52.1673 55.0882C51.8273 55.4388 51.6263 55.6238 51.1409 55.5479C50.9783 55.5032 50.8323 55.4123 50.7204 55.2862C50.5808 55.0811 50.5262 54.8299 50.5682 54.5854C50.5682 54.5854 50.6107 54.454 50.6731 54.262C50.5432 54.3327 50.3952 54.3631 50.248 54.3491C50.1008 54.3351 49.9612 54.2773 49.847 54.1833C49.7676 54.0943 49.7117 53.9868 49.6845 53.8707C49.6573 53.7545 49.6596 53.6334 49.6913 53.5184C49.7572 53.2893 49.8615 53.073 49.9998 52.8788L50.6856 51.7909L50.8279 51.5654L50.3113 51.9003C49.7561 52.26 49.2108 51.6112 49.4237 51.0538C49.5481 50.6923 49.7185 50.3483 49.9309 50.0304C50.2671 49.5819 51.0624 48.9803 51.6785 49.4016L52.8251 49.3217C53.4361 49.2371 53.8659 49.5937 54.3467 49.812C54.8204 50.0617 55.2255 50.424 55.5263 50.8671C55.9151 51.3959 56.1518 51.8984 56.1319 52.383C56.1071 52.8756 55.975 53.3568 55.7449 53.793C55.5147 54.2293 55.1921 54.6099 54.7995 54.9085" fill="white"/>
<path d="M51.8824 49.0514C51.1442 48.569 50.222 49.0573 49.7163 49.6522C49.4429 50.0007 49.2294 50.3923 49.0845 50.8108C49.0003 50.9934 48.964 51.1945 48.9791 51.395C48.9942 51.5955 49.0602 51.7889 49.1709 51.9568C49.3122 52.1717 49.5321 52.3229 49.7835 52.3778C50.0348 52.4327 50.2977 52.387 50.5158 52.2506C50.6087 52.1963 50.6763 52.1073 50.7036 52.0032C50.7309 51.8991 50.7158 51.7884 50.6615 51.6955C50.6072 51.6025 50.5182 51.535 50.4141 51.5077C50.3099 51.4804 50.1993 51.4955 50.1063 51.5498C50.0856 51.5633 50.0642 51.5757 50.0422 51.587C50.086 51.5709 50.0867 51.5701 50.0439 51.5858C50.0234 51.5927 50.0025 51.5983 49.9814 51.6027C50.0377 51.5968 50.043 51.5954 49.9971 51.5987C49.9772 51.5992 49.9573 51.5985 49.9374 51.5966C49.9966 51.6054 50.0038 51.6051 49.9589 51.5956C49.9402 51.5906 49.9218 51.5846 49.9038 51.5775C49.9559 51.6 49.9621 51.601 49.9222 51.5808C49.9053 51.571 49.8884 51.5603 49.8732 51.549C49.9161 51.5828 49.9208 51.585 49.8872 51.5557C49.8728 51.542 49.859 51.5277 49.846 51.5126C49.8772 51.5561 49.8798 51.5595 49.8541 51.5229C49.8329 51.4874 49.812 51.4533 49.7942 51.4157C49.8362 51.5045 49.7993 51.4188 49.793 51.3951C49.7876 51.3748 49.7829 51.3544 49.7792 51.3336C49.7856 51.389 49.787 51.3933 49.7829 51.3464C49.7829 51.3216 49.7998 51.19 49.7787 51.292C49.8006 51.2014 49.8302 51.1128 49.8671 51.0272C49.886 50.9792 49.9051 50.9312 49.9249 50.8837C49.898 50.9483 49.9587 50.8078 49.9645 50.7951C50.0069 50.7014 50.0521 50.6091 50.1014 50.5189C50.1493 50.4316 50.2029 50.3498 50.258 50.2664C50.2898 50.2237 50.2878 50.2258 50.2521 50.2727C50.2646 50.2571 50.2773 50.2418 50.2901 50.2267C50.3173 50.1947 50.3454 50.1635 50.3746 50.1332C50.437 50.0678 50.5046 50.0091 50.5719 49.9488C50.6079 49.92 50.6079 49.9193 50.5719 49.9467C50.5907 49.9324 50.6098 49.9183 50.6291 49.9046C50.6629 49.8806 50.6967 49.8576 50.7327 49.8357C50.7687 49.8137 50.8039 49.7927 50.8404 49.7731C50.8553 49.7652 50.9894 49.704 50.903 49.7393C50.9878 49.7048 51.0761 49.6795 51.1664 49.6639C51.0636 49.6818 51.2027 49.6652 51.225 49.6656C51.2474 49.6659 51.2693 49.6669 51.2915 49.6688C51.2386 49.6607 51.2357 49.6608 51.2823 49.6688C51.2993 49.6739 51.4328 49.7195 51.3473 49.6815C51.3909 49.7017 51.4328 49.7255 51.4725 49.7525C51.5657 49.806 51.6761 49.8207 51.78 49.7934C51.8839 49.7662 51.9729 49.6992 52.0278 49.6069C52.0797 49.5134 52.0935 49.4035 52.0664 49.3001C52.0393 49.1966 51.9733 49.1077 51.8822 49.0517L51.8824 49.0514Z" fill="#211715"/>
<path d="M50.9229 50.6538L49.9322 52.2251C49.6363 52.6946 49.2142 53.215 49.2684 53.8048C49.277 53.9418 49.3133 54.0756 49.3751 54.1981C49.4369 54.3206 49.5229 54.4293 49.6279 54.5177C49.733 54.606 49.8548 54.6721 49.9861 54.7119C50.1174 54.7518 50.2555 54.7646 50.3919 54.7496C50.9329 54.696 51.3422 54.3054 51.6881 53.9156C52.0819 53.4423 52.4448 52.944 52.7743 52.4239C52.8287 52.331 52.8439 52.2203 52.8166 52.1162C52.7893 52.0121 52.7218 51.9231 52.6289 51.8688C52.536 51.8145 52.4253 51.7993 52.3212 51.8266C52.2171 51.8538 52.1281 51.9214 52.0737 52.0143C51.7827 52.4769 51.4623 52.9203 51.1143 53.3418C50.9567 53.5321 50.7764 53.7024 50.5775 53.849C50.5069 53.9004 50.4244 53.9329 50.3378 53.9435C50.2764 53.9536 50.2135 53.9431 50.1587 53.9137C50.1036 53.8799 50.0975 53.8589 50.082 53.7905C50.0642 53.6964 50.0757 53.5992 50.1148 53.5118C50.2356 53.2411 50.3857 52.9844 50.5623 52.7463L51.6237 51.0628C51.903 50.6198 51.201 50.212 50.9229 50.6533V50.6538Z" fill="#211715"/>
<path d="M50.1768 54.4777C50.1188 54.6997 50.1257 54.9336 50.1969 55.1517C50.2681 55.3698 50.4006 55.5628 50.5784 55.7076C50.7563 55.8525 50.9721 55.9432 51.2 55.9688C51.428 55.9945 51.6585 55.954 51.8641 55.8522C52.1453 55.6913 52.3937 55.4792 52.5967 55.2267C52.8142 54.9954 53.0277 54.7604 53.2371 54.5215C53.5619 54.1528 53.8775 53.7765 54.1734 53.3841C54.2271 53.291 54.2419 53.1805 54.2146 53.0766C54.1874 52.9726 54.1203 52.8836 54.0278 52.8288C53.9343 52.7771 53.8245 52.7633 53.7212 52.7905C53.6178 52.8176 53.5288 52.8834 53.4728 52.9744C53.0117 53.5692 52.5189 54.1387 51.9967 54.6806C51.8848 54.799 51.773 54.9187 51.6511 55.0265C51.6476 55.0297 51.5497 55.1046 51.6112 55.0614C51.5715 55.0891 51.5299 55.1142 51.4869 55.1366C51.559 55.0989 51.467 55.142 51.4503 55.1466C51.4264 55.153 51.4024 55.1584 51.3781 55.1625C51.4224 55.156 51.4191 55.1549 51.3683 55.1591C51.3245 55.1564 51.281 55.1606 51.2372 55.1545C51.2839 55.1611 51.1358 55.1161 51.1939 55.1422C51.1501 55.119 51.1079 55.093 51.0675 55.0642C51.008 55.0274 51.0644 55.0715 51.0288 55.0218C50.9868 54.9633 51.0288 55.0488 51.0026 54.9701C50.9868 54.922 50.9737 54.8732 50.9635 54.8237C50.9584 54.7943 50.9579 54.7954 50.9618 54.8267C50.9589 54.8003 50.9573 54.7738 50.9566 54.7472C50.9559 54.7207 50.9566 54.6989 50.9581 54.6749C50.9492 54.729 50.9496 54.7352 50.9595 54.6936C51.0947 54.1885 50.3116 53.9727 50.1768 54.4777Z" fill="#211715"/>
<path d="M51.8415 55.5448C51.8985 55.7443 52.008 55.9249 52.1586 56.0676C52.3092 56.2104 52.4953 56.3101 52.6976 56.3563C53.1248 56.4349 53.4545 56.2437 53.7813 55.9938C54.3945 55.5109 54.8975 54.9026 55.2568 54.2097C55.3111 54.1168 55.3262 54.0061 55.2989 53.902C55.2716 53.7978 55.2041 53.7089 55.1111 53.6546C55.0182 53.6003 54.9075 53.5851 54.8034 53.6124C54.6993 53.6397 54.6103 53.7073 54.556 53.8002C54.29 54.3262 53.9281 54.7979 53.489 55.1911C53.398 55.2751 53.3005 55.352 53.1975 55.4209C53.1418 55.4592 53.0848 55.4951 53.0275 55.5309C52.9989 55.5489 52.9615 55.5647 53.0144 55.5439C52.9853 55.5556 52.9552 55.5645 52.9245 55.5707C52.8969 55.5766 52.899 55.576 52.9309 55.5686H52.8861C52.7962 55.5318 52.9707 55.5965 52.8592 55.5627C52.8285 55.5534 52.7972 55.5458 52.7666 55.5353C52.723 55.5198 52.8146 55.5363 52.7468 55.5223C52.7842 55.5535 52.7899 55.5569 52.7637 55.5323C52.7486 55.5171 52.7339 55.5015 52.7196 55.4856C52.7051 55.4706 52.6807 55.4385 52.7069 55.474C52.6836 55.4425 52.6655 55.409 52.645 55.3759C52.6021 55.3069 52.6543 55.415 52.6236 55.3291C52.5926 55.2268 52.5235 55.1404 52.4306 55.0876C52.3376 55.0349 52.228 55.0199 52.1243 55.0457C52.0211 55.0751 51.9335 55.1439 51.8805 55.2373C51.8275 55.3306 51.8133 55.4411 51.841 55.5448H51.8415Z" fill="#211715"/>
<path d="M52.8243 49.7273C53.0911 49.699 53.3602 49.7529 53.5955 49.8819C53.8378 50.0031 54.0902 50.1219 54.3239 50.2586C54.8507 50.604 55.2722 51.0877 55.5425 51.6567C56.0387 52.6331 55.4132 53.9499 54.5932 54.5586C54.5027 54.6151 54.4373 54.704 54.4102 54.8072C54.3832 54.9104 54.3966 55.02 54.4476 55.1136C54.5025 55.206 54.5915 55.273 54.6954 55.3002C54.7993 55.3275 54.9097 55.3127 55.0028 55.2592C56.1461 54.4108 56.9312 52.7518 56.3047 51.3742C55.9768 50.6514 55.4533 50.0348 54.7932 49.5941C54.5041 49.4198 54.2041 49.264 53.8951 49.1278C53.565 48.959 53.1943 48.8856 52.8248 48.9158C52.7181 48.9189 52.6167 48.9626 52.5412 49.0381C52.4658 49.1135 52.4221 49.2149 52.419 49.3216C52.4197 49.429 52.4627 49.5318 52.5386 49.6077C52.6146 49.6837 52.7174 49.7266 52.8248 49.7273H52.8243Z" fill="#211715"/>
<path d="M19.0393 31.8134C18.5287 31.3344 17.8908 30.9797 17.2123 31.0649C16.295 31.1802 15.6306 32.136 15.6615 33.0599C15.6992 34.1937 16.5995 35.1939 17.6144 35.6218C18.5161 35.3561 19.3773 34.9687 20.1742 34.4703L20.5292 33.867C20.7677 33.458 20.8479 32.9758 20.7546 32.5116C20.6843 32.1676 20.4542 31.8015 20.1035 31.7831C19.8226 31.7687 19.5877 31.9824 19.3889 32.1814C19.2792 32.0524 19.1625 31.9295 19.0393 31.8134Z" fill="white"/>
<path d="M33.1566 37.5887C32.8383 36.3126 32.3339 35.0875 31.5167 34.0676C30.3932 32.666 28.7653 31.8212 26.9891 32.0881C26.3128 32.1896 25.4959 32.3544 24.8898 32.6702C23.6061 33.3391 22.4552 34.0934 21.6387 35.5327C21.3977 35.0168 21.1093 34.5244 20.7773 34.0618C19.7539 34.8087 18.6013 35.3602 17.3777 35.6886C17.2773 37.0759 18.1216 40.229 18.4443 41.3224C18.6573 42.0444 18.9664 42.8019 19.6227 43.2213C19.9756 43.4313 20.3719 43.5576 20.7812 43.5907L20.6833 43.9045C19.0626 44.0719 17.8886 45.9937 18.4793 47.512L19.3945 49.7447L26.855 50.824C29.3709 50.5941 31.5512 48.7395 32.6334 46.4567C33.7155 44.174 33.8232 41.531 33.4427 39.0334C33.3686 38.55 33.2756 38.0651 33.1566 37.5887Z" fill="#7ABEE6"/>
<path d="M23.837 42.2201C23.1625 42.8266 22.2959 43.1761 21.3893 43.2071C20.9189 43.2426 20.4469 43.1635 20.0138 42.9765C19.6363 42.776 19.3353 42.4569 19.1571 42.0684C18.8631 41.495 18.7203 40.8324 18.5561 40.2119C18.3571 39.4597 18.175 38.7025 18.0254 37.9388C17.8805 37.2002 17.7331 36.4461 17.7829 35.6886L17.4851 36.0798C18.7418 35.7397 19.9265 35.1747 20.9817 34.4121L20.4265 34.2665C20.9057 34.9345 21.2921 35.6643 21.5749 36.4362C21.6059 36.5384 21.675 36.6248 21.7679 36.6776C21.8608 36.7303 21.9704 36.7453 22.074 36.7195C22.1773 36.6902 22.2649 36.6214 22.318 36.528C22.371 36.4347 22.3852 36.3242 22.3575 36.2204C22.0564 35.3806 21.6425 34.5855 21.1272 33.8571C21.0101 33.6924 20.7619 33.5734 20.572 33.7115C19.5766 34.4362 18.4574 34.9736 17.2693 35.2972C17.1846 35.3225 17.1101 35.374 17.0566 35.4443C17.0031 35.5147 16.9733 35.6002 16.9714 35.6886C16.9219 36.4428 17.0664 37.2186 17.2047 37.9568C17.3606 38.7875 17.5574 39.6107 17.7737 40.4277C17.9669 41.1584 18.1442 41.9264 18.5164 42.59C18.752 43.0306 19.1069 43.3959 19.5406 43.6441C20.0508 43.9003 20.6154 44.0296 21.1862 44.0211C22.3774 44.0332 23.5291 43.5948 24.4108 42.7939C24.797 42.4406 24.2218 41.8679 23.837 42.2201Z" fill="#211715"/>
<path d="M20.6828 43.4987C20.2233 43.5625 19.7833 43.726 19.3936 43.9777C19.0039 44.2294 18.6739 44.5631 18.4267 44.9557C18.1795 45.3483 18.0211 45.7901 17.9625 46.2503C17.9039 46.7105 17.9466 47.1779 18.0876 47.6199C18.1187 47.722 18.1878 47.8083 18.2807 47.861C18.3735 47.9137 18.483 47.9288 18.5867 47.9032C18.69 47.8739 18.7776 47.8051 18.8307 47.7118C18.8837 47.6184 18.8978 47.5079 18.87 47.4041C18.7513 47.0799 18.7093 46.7325 18.7475 46.3893C18.7856 46.046 18.9028 45.7163 19.0898 45.4261C19.2595 45.1417 19.4832 44.8934 19.7483 44.695C20.0235 44.492 20.3444 44.3597 20.6828 44.3101C20.7894 44.3069 20.8908 44.2632 20.9662 44.1878C21.0417 44.1123 21.0854 44.0109 21.0885 43.9043C21.0879 43.7969 21.0449 43.6941 20.9689 43.6181C20.893 43.5422 20.7902 43.4992 20.6828 43.4985V43.4987Z" fill="#211715"/>
<path d="M24.2059 32.5112C23.9977 32.5385 23.7861 32.5227 23.5842 32.465C23.3822 32.4073 23.1943 32.3088 23.0319 32.1756C22.6368 31.8976 22.3125 31.5307 22.0852 31.1044C21.6153 30.1699 21.8184 29.0531 21.8791 28.0556C21.911 27.5295 21.9022 26.9993 21.9589 26.4752C22.0083 26.0318 22.1066 25.5952 22.252 25.1734C22.5288 24.3654 23.0235 23.6046 23.7567 23.1446C24.6536 22.5826 25.7348 22.4245 26.7761 22.4345C27.6034 22.4373 28.4252 22.57 29.2115 22.8277C30.6906 23.3236 31.9103 24.3923 32.3094 25.9353C32.5897 27.0189 32.5123 28.2362 32.2587 29.3167C32.0338 30.4634 31.3768 31.4799 30.4237 32.156C30.3332 32.2125 30.2678 32.3015 30.2407 32.4047C30.2137 32.5079 30.2271 32.6175 30.2781 32.7112C30.3329 32.8035 30.4219 32.8706 30.5259 32.8978C30.6298 32.9251 30.7402 32.9103 30.8333 32.8567C31.8044 32.1662 32.5286 31.1826 32.8996 30.0502C33.2588 28.8998 33.3721 27.6867 33.2322 26.4897C33.1259 25.5255 32.7514 24.6103 32.1512 23.8482C31.588 23.1648 30.8668 22.6288 30.05 22.2866C29.1726 21.9143 28.2375 21.6962 27.286 21.6419C26.1223 21.5657 24.9245 21.6893 23.8539 22.1729C22.8893 22.6222 22.1222 23.4088 21.6975 24.3845C21.2547 25.3674 21.1396 26.3795 21.0982 27.4446C21.0518 28.6439 20.7876 29.929 21.2048 31.0917C21.405 31.6321 21.7342 32.1154 22.1638 32.4995C22.5557 32.8642 23.0248 33.1981 23.5616 33.2975C23.8463 33.3482 24.1379 33.3465 24.422 33.2924C24.5253 33.2631 24.6129 33.1943 24.6659 33.1009C24.7189 33.0075 24.7331 32.8971 24.7054 32.7933C24.6747 32.6909 24.6057 32.6042 24.5127 32.5514C24.4197 32.4987 24.3099 32.4838 24.2063 32.51L24.2059 32.5112Z" fill="#211715"/>
<path d="M25.796 27.9516C25.6576 27.9565 25.519 27.9503 25.3816 27.933L25.4895 27.9474C25.4339 27.94 25.3788 27.9305 25.324 27.919C25.2184 27.8927 25.1067 27.9074 25.0114 27.9599C24.9654 27.9868 24.9251 28.0225 24.8929 28.065C24.8606 28.1074 24.8371 28.1558 24.8236 28.2074C24.8101 28.2589 24.8068 28.3126 24.8141 28.3655C24.8213 28.4183 24.8389 28.4691 24.8658 28.5151C24.9193 28.6063 25.0063 28.6731 25.1083 28.7011C25.3342 28.7489 25.5651 28.7696 25.796 28.7626C25.9033 28.7609 26.006 28.7187 26.0834 28.6443C26.1556 28.5655 26.1975 28.4637 26.2018 28.3569C26.2018 28.3036 26.1913 28.2508 26.1709 28.2016C26.1505 28.1524 26.1206 28.1077 26.0829 28.07C26.0453 28.0323 26.0005 28.0024 25.9513 27.982C25.9021 27.9616 25.8493 27.9511 25.796 27.9511V27.9516Z" fill="#211715"/>
<path d="M22.7322 27.7804C22.5867 27.7933 22.4404 27.79 22.2956 27.7708L22.4035 27.7853C22.3751 27.7817 22.3469 27.7766 22.319 27.7701C22.2134 27.7431 22.1014 27.7577 22.0064 27.811C21.9181 27.8678 21.8524 27.9535 21.8204 28.0535C21.8062 28.1048 21.8023 28.1585 21.8089 28.2114C21.8155 28.2643 21.8324 28.3153 21.8587 28.3617C21.885 28.408 21.9202 28.4487 21.9622 28.4815C22.0043 28.5142 22.0524 28.5384 22.1038 28.5525C22.1718 28.5671 22.2406 28.5776 22.3098 28.584C22.3548 28.5896 22.4001 28.5931 22.4451 28.5955C22.5409 28.6012 22.6369 28.6 22.7325 28.5919C22.7868 28.5943 22.8408 28.5822 22.8889 28.5569C22.9614 28.5252 23.0234 28.4735 23.0675 28.4078C23.1117 28.3422 23.1362 28.2653 23.1383 28.1862C23.1381 28.0785 23.0956 27.9753 23.0199 27.8988C22.9825 27.8607 22.9377 27.8305 22.8883 27.8102C22.8389 27.7899 22.7859 27.7797 22.7325 27.7804H22.7322Z" fill="#211715"/>
<path d="M23.6749 30.5956C23.5113 30.5654 23.3458 30.546 23.1797 30.5376C23.0998 30.5365 23.0215 30.5597 22.9553 30.6043C22.889 30.6489 22.8379 30.7126 22.8089 30.787C22.7836 30.8351 22.7715 30.8891 22.7739 30.9434L22.7885 31.0513C22.8072 31.1189 22.8431 31.1806 22.8928 31.2303L22.9749 31.2937C23.037 31.3301 23.1077 31.3493 23.1797 31.3492C23.2762 31.3558 23.3728 31.3634 23.4686 31.3762L23.3607 31.3617C23.3946 31.3662 23.4265 31.3715 23.4591 31.3786C23.5115 31.3954 23.5673 31.3979 23.6209 31.3858C23.699 31.3743 23.7722 31.3409 23.8321 31.2895C23.8919 31.238 23.9359 31.1707 23.9591 31.0952L23.9736 30.9874C23.9736 30.9153 23.9545 30.8446 23.9182 30.7824L23.8548 30.7005C23.8051 30.6508 23.7434 30.6148 23.6757 30.5961L23.6749 30.5956Z" fill="#211715"/>
<path d="M29.4542 29.2326C29.4608 29.2284 29.5621 29.1743 29.4899 29.2047C29.5263 29.1908 29.5637 29.1798 29.6018 29.1718C29.6728 29.1549 29.5886 29.1687 29.6321 29.1694C29.6476 29.1694 29.7536 29.1757 29.7181 29.1694C29.6723 29.1621 29.7719 29.1846 29.7812 29.1863C29.876 29.2122 29.7454 29.1562 29.8275 29.2064C29.8444 29.2166 29.9229 29.2817 29.8669 29.2291C29.8752 29.2369 29.9357 29.3082 29.9065 29.2666C29.8742 29.2205 29.9303 29.3136 29.9078 29.2649C29.9117 29.2732 29.9378 29.3905 29.928 29.3231C29.9371 29.409 29.94 29.4954 29.9366 29.5818C29.9366 29.6541 29.9342 29.7265 29.929 29.7987C29.9259 29.8414 29.9227 29.8847 29.9166 29.9273C29.9263 29.8597 29.9034 29.9895 29.9036 29.9889C29.8878 30.0661 29.8668 30.1421 29.8407 30.2164C29.8214 30.2734 29.7954 30.3278 29.7633 30.3786C29.7416 30.4161 29.7181 30.4524 29.6938 30.4881C29.6887 30.4954 29.6299 30.5759 29.6574 30.5404C29.6793 30.5121 29.6132 30.5911 29.6039 30.6014C29.5822 30.6247 29.5601 30.6477 29.5362 30.669C29.5349 30.6702 29.4432 30.7488 29.4975 30.7069C29.4642 30.7324 29.4294 30.7558 29.3932 30.777C29.3702 30.7907 29.3467 30.8031 29.3227 30.8149C29.2987 30.8268 29.2507 30.8437 29.3026 30.8244C29.2281 30.8523 29.1522 30.8763 29.0752 30.8962C29.0375 30.9057 28.9993 30.9131 28.9614 30.9214C28.8735 30.9419 29.0196 30.9177 28.9303 30.9255C28.8227 30.9255 28.7195 30.9682 28.6434 31.0443C28.5673 31.1204 28.5245 31.2236 28.5245 31.3312C28.5245 31.4389 28.5673 31.5421 28.6434 31.6182C28.7195 31.6943 28.8227 31.737 28.9303 31.737C29.3816 31.7112 29.8092 31.5267 30.1376 31.2161C30.4659 30.8773 30.6716 30.4385 30.7219 29.9694C30.7785 29.5258 30.7948 28.9838 30.4402 28.6548C30.2518 28.4866 30.0143 28.3836 29.7628 28.3611C29.5112 28.3386 29.2592 28.3978 29.0439 28.5298C28.951 28.5841 28.8834 28.6732 28.8561 28.7773C28.8288 28.8814 28.844 28.9921 28.8983 29.085C28.9527 29.178 29.0417 29.2455 29.1458 29.2728C29.2499 29.3001 29.3606 29.2849 29.4536 29.2306L29.4542 29.2326Z" fill="#211715"/>
<path d="M20.8796 34.0719C21.2365 33.438 21.3504 32.5562 20.9491 31.912C20.8637 31.7597 20.7417 31.631 20.5941 31.5377C20.4465 31.4443 20.278 31.3893 20.1037 31.3775C19.6963 31.3705 19.3767 31.6224 19.1022 31.8946H19.676C18.8748 30.9666 17.5245 30.1935 16.3505 30.9605C15.3134 31.638 15.0182 32.975 15.4891 34.0823C15.783 34.7361 16.2602 35.2906 16.8629 35.6787C17.2974 35.971 17.704 35.2683 17.2725 34.9779C16.3572 34.362 15.6796 33.1481 16.3337 32.1068C16.46 31.8873 16.648 31.7098 16.8744 31.5964C17.1008 31.483 17.3556 31.4387 17.607 31.4691C18.2166 31.5638 18.7145 32.0194 19.1022 32.4684C19.1788 32.5435 19.2818 32.5855 19.3891 32.5855C19.4963 32.5855 19.5993 32.5435 19.676 32.4684C19.7715 32.3739 19.9477 32.1557 20.1037 32.189C20.2001 32.2094 20.2809 32.3611 20.3174 32.4517C20.3828 32.6515 20.4043 32.8632 20.3805 33.0721C20.3566 33.281 20.2879 33.4823 20.1791 33.6622C19.9225 34.1179 20.6231 34.5275 20.8796 34.0719Z" fill="#211715"/>
<path d="M22.1296 35.5009C22.6584 34.6926 23.3656 34.0164 24.1968 33.5245C24.5833 33.2693 24.9934 33.0518 25.4215 32.8751C25.9233 32.6988 26.4414 32.5729 26.9681 32.4993C28.9011 32.1928 30.6159 33.3277 31.6232 34.9129C32.7597 36.7014 33.1548 38.9499 33.227 41.038C33.3003 43.1555 32.9353 45.3483 31.7804 47.1582C30.6967 48.857 28.9024 50.2193 26.8545 50.4176C26.7478 50.4204 26.6462 50.464 26.5707 50.5395C26.4952 50.615 26.4516 50.7166 26.4488 50.8234C26.4495 50.9307 26.4925 51.0335 26.5684 51.1094C26.6444 51.1854 26.7472 51.2284 26.8545 51.2291C28.9195 51.0293 30.7441 49.8663 32.0016 48.2441C33.4184 46.4165 34.0057 44.1059 34.0456 41.8213C34.0599 40.6349 33.9523 39.4502 33.7244 38.2858C33.5229 37.1388 33.1478 36.0293 32.6121 34.9954C31.6063 33.1245 29.7601 31.5833 27.5426 31.634C26.3147 31.6786 25.1178 32.0312 24.0619 32.6596C22.9994 33.2434 22.0956 34.0779 21.4292 35.0906C21.1486 35.5329 21.8505 35.9405 22.1298 35.5002L22.1296 35.5009Z" fill="#211715"/>
<path d="M23.8898 24.5188C23.7773 24.6727 23.646 24.8121 23.4991 24.9337L23.5813 24.8703C23.5055 24.9277 23.4241 24.9772 23.3383 25.0182C23.2474 25.072 23.1808 25.1589 23.1523 25.2606C23.1381 25.312 23.1342 25.3657 23.1408 25.4186C23.1474 25.4716 23.1643 25.5227 23.1906 25.569C23.217 25.6154 23.2522 25.6561 23.2942 25.6889C23.3363 25.7216 23.3844 25.7457 23.4359 25.7599L23.5437 25.7743C23.6157 25.7744 23.6864 25.7553 23.7485 25.719C23.9038 25.6419 24.0469 25.5423 24.173 25.4233C24.2786 25.3208 24.376 25.2102 24.4643 25.0926C24.5365 25.0138 24.5784 24.912 24.5826 24.8052C24.5821 24.6976 24.5397 24.5945 24.4643 24.5178C24.3878 24.4419 24.2845 24.3994 24.1769 24.3994L24.0688 24.414C24.0011 24.4326 23.9395 24.4686 23.8898 24.5183V24.5188Z" fill="#211715"/>
<path d="M25.3797 25.1918C25.3425 25.2498 25.3025 25.3056 25.2604 25.3609L25.3239 25.2787C25.1705 25.4779 24.993 25.6572 24.7954 25.8128L24.8776 25.7494C24.8472 25.7725 24.8162 25.795 24.7839 25.8158C24.6943 25.8711 24.6281 25.9575 24.598 26.0584C24.57 26.1639 24.5847 26.2762 24.6389 26.371C24.6658 26.417 24.7015 26.4573 24.7439 26.4895C24.7864 26.5218 24.8348 26.5453 24.8863 26.5588C24.9379 26.5724 24.9916 26.5756 25.0444 26.5683C25.0972 26.5611 25.1481 26.5435 25.1941 26.5166C25.36 26.4057 25.5134 26.2772 25.6516 26.1331C25.8126 25.9713 25.9565 25.7933 26.081 25.6019C26.1353 25.509 26.1505 25.3984 26.1232 25.2943C26.0959 25.1902 26.0284 25.1012 25.9355 25.0469C25.8886 25.0198 25.8369 25.0022 25.7832 24.9952C25.7296 24.9881 25.6751 24.9918 25.6229 25.006C25.5223 25.0368 25.4362 25.1029 25.3802 25.192L25.3797 25.1918Z" fill="#211715"/>
<path d="M34.3337 44.7911C34.4542 44.6687 34.5715 44.5386 34.6857 44.4009C35.637 43.2523 35.5858 41.9807 35.2791 40.7141C35.0182 40.0005 34.2713 39.1881 33.7923 39.0741C33.144 38.9198 32.7989 38.9741 32.1921 39.1274C31.4401 39.3352 30.6588 39.4163 29.8801 39.3675C29.3831 39.3398 28.8847 39.3802 28.3986 39.4875C27.8914 39.5942 27.6728 39.895 27.732 40.3675C27.7986 40.9009 28.3986 41.2876 29.0627 41.3499L29.9757 41.4358C29.5858 41.637 29.1807 41.8069 28.764 41.944C28.1954 42.13 27.6385 42.29 27.0689 42.5273C26.9221 42.5886 26.7971 42.6926 26.7102 42.8259C26.6234 42.9592 26.5786 43.1155 26.5818 43.2746C26.5802 43.4029 26.6079 43.53 26.6626 43.646C26.7174 43.7621 26.7979 43.8642 26.898 43.9445C26.9982 44.0248 27.1152 44.0813 27.2404 44.1097C27.3656 44.138 27.4956 44.1375 27.6206 44.1081L28.2968 43.9952L28.188 44.4437C28.1479 44.5906 28.1495 44.7458 28.1925 44.8919C28.2356 45.038 28.3184 45.1692 28.4317 45.2709C28.8235 46.3678 30.082 46.5171 31.1243 46.3656C32.3413 46.2185 33.4725 45.6635 34.3337 44.7911Z" fill="white"/>
<path d="M29.0627 40.944C28.6368 40.8972 28.0194 40.5946 28.1393 40.1192C28.1514 40.0745 28.1739 40.0333 28.205 39.999C28.3158 39.9263 28.4419 39.8804 28.5734 39.8649C28.9254 39.7923 29.2842 39.7578 29.6436 39.7619C30.0325 39.7679 30.4122 39.8034 30.8015 39.7728C31.2264 39.738 31.6481 39.6721 32.0633 39.5756C32.3811 39.4815 32.7074 39.4188 33.0374 39.3885C33.3123 39.3711 33.5873 39.4204 33.839 39.5322C34.9168 40.1596 35.2422 41.6392 35.0186 42.7864C34.7699 44.0623 33.6525 45.0752 32.4963 45.5743C31.8772 45.843 31.2123 45.9904 30.5376 46.0086C29.9537 46.0192 29.2732 45.9071 28.9315 45.3788C28.6493 44.9414 27.9465 45.3477 28.2307 45.7885C29.0974 47.132 31.0337 46.9381 32.3482 46.4941C33.8403 45.9912 35.3273 44.7998 35.7484 43.2278C35.9641 42.4222 35.8881 41.5774 35.7085 40.7729C35.5454 40.0412 34.9775 39.3386 34.3729 38.9132C33.7093 38.4456 32.8236 38.5545 32.0836 38.7365C31.6239 38.857 31.1542 38.9353 30.6803 38.9702C30.2264 38.9971 29.7758 38.933 29.3224 38.9579C28.5109 39.0025 27.3808 39.1289 27.3179 40.1543C27.2579 41.1349 28.2123 41.6627 29.0615 41.7561C29.1689 41.7554 29.2718 41.7125 29.3477 41.6365C29.4237 41.5606 29.4667 41.4577 29.4673 41.3503C29.4649 41.2434 29.4213 41.1416 29.3458 41.0661C29.2702 40.9905 29.1684 40.947 29.0615 40.9445L29.0627 40.944Z" fill="#211715"/>
<path d="M30.3964 40.7364C29.8269 41.0844 29.2193 41.366 28.5856 41.5756C28.2566 41.6826 27.9254 41.7832 27.5982 41.8968C27.2818 41.9806 26.9785 42.1078 26.6969 42.2747C26.4532 42.4493 26.2812 42.7065 26.2128 42.9984C26.1444 43.2903 26.1842 43.5972 26.325 43.8619C26.593 44.407 27.1625 44.5808 27.7282 44.4999C27.8317 44.4708 27.9194 44.4021 27.9725 44.3086C28.0256 44.2152 28.0397 44.1046 28.0118 44.0009C27.9808 43.8986 27.9117 43.8122 27.8187 43.7595C27.7258 43.7067 27.6162 43.6917 27.5125 43.7175C27.4516 43.7303 27.3887 43.7297 27.328 43.7159C27.2673 43.7021 27.2103 43.6754 27.1609 43.6376C27.1115 43.5998 27.0708 43.5517 27.0417 43.4967C27.0125 43.4418 26.9956 43.3811 26.992 43.319C26.9257 42.9133 27.4696 42.7986 27.7781 42.6916C28.2878 42.5144 28.8111 42.3746 29.3134 42.1766C29.8305 41.9724 30.3295 41.7253 30.8054 41.4378C31.2523 41.1687 30.8448 40.4667 30.3958 40.7372L30.3964 40.7364Z" fill="#211715"/>
<path d="M27.621 44.5138C28.2165 44.457 28.8025 44.326 29.3655 44.1238C29.9205 43.9395 30.465 43.725 30.9966 43.4814C31.0889 43.4265 31.1559 43.3375 31.1832 43.2336C31.2104 43.1297 31.1957 43.0193 31.1422 42.9261C31.0861 42.8351 30.9971 42.7692 30.8937 42.7421C30.7903 42.715 30.6805 42.7288 30.587 42.7806C30.4844 42.8276 30.3812 42.8733 30.2774 42.9177C30.2164 42.9439 30.2786 42.9177 30.2407 42.9332L30.1616 42.9659C30.1003 42.9911 30.0387 43.016 29.9768 43.0404C29.7039 43.1485 29.4282 43.2489 29.1497 43.3417C28.8764 43.4323 28.6001 43.5148 28.3203 43.5826C28.1905 43.6139 28.0599 43.6421 27.9286 43.6653C27.9008 43.6702 27.8731 43.6746 27.8454 43.6792C27.8209 43.6832 27.7524 43.6922 27.8116 43.6847C27.748 43.6925 27.6843 43.6985 27.6205 43.7028C27.5137 43.7053 27.4119 43.7488 27.3363 43.8244C27.2608 43.9 27.2172 44.0017 27.2148 44.1086C27.2157 44.2159 27.2588 44.3186 27.3347 44.3945C27.4105 44.4704 27.5132 44.5134 27.6205 44.5143L27.621 44.5138Z" fill="#211715"/>
<path d="M21.1936 48.5137C21.4062 48.337 21.7159 48.22 22.1911 48.103C23.0315 47.8825 23.8572 47.6094 24.6634 47.2854C25.0715 47.1084 25.4146 46.784 25.8485 46.6864C26.2825 46.5888 26.8132 46.7302 26.9951 47.1361C27.0453 47.2677 27.0655 47.4087 27.0545 47.5491C27.0434 47.6894 27.0013 47.8255 26.9312 47.9476C26.6316 48.3881 26.2968 48.8036 25.9302 49.1901L25.8714 49.2489L26.0129 49.4246C26.3989 49.925 27.0631 50.1421 27.6974 50.1634C28.2427 50.2124 28.7921 50.1439 29.3086 49.9624C29.6806 49.8332 30.154 49.7404 30.4394 49.8332C30.7247 49.926 31.0095 50.191 31.0208 50.49C31.0269 50.6495 30.8422 50.933 30.7624 51.0716C30.5858 51.3778 30.0666 51.6573 29.3991 51.894C29.2672 52.2377 29.1901 52.4392 29.1901 52.4392C28.6998 53.7189 27.395 54.7062 25.833 54.9742C24.3848 55.2019 22.2633 55.2479 21.6464 55.0628C21.4738 55.011 21.0405 54.7951 20.8645 54.7561C20.5263 54.6812 19.7306 54.667 18.9356 54.6122C18.9356 54.6122 18.7911 54.6022 18.549 54.586C18.7167 52.787 18.8857 50.4518 18.7845 49.1309C18.9535 49.1509 19.237 49.1837 19.237 49.1837C19.5936 49.2248 20.1008 49.3345 20.3886 49.3071L20.5745 49.2893C20.7367 49.0106 20.9375 48.7561 21.1708 48.5334C21.1789 48.5262 21.1864 48.5198 21.1936 48.5137Z" fill="white"/>
<path d="M27.7967 44.3356C27.6882 44.8428 27.8414 45.4303 28.33 45.6858C28.7431 45.8771 29.2121 45.9097 29.6477 45.7773C30.3766 45.5494 31.0838 45.2573 31.761 44.9044C31.8532 44.8493 31.9201 44.7604 31.9473 44.6565C31.9745 44.5527 31.9599 44.4423 31.9066 44.3492C31.8507 44.2579 31.7617 44.1919 31.6582 44.1647C31.5548 44.1376 31.4448 44.1515 31.3514 44.2036C30.8019 44.4776 30.2364 44.718 29.6578 44.9235C29.4225 45.0228 29.1658 45.0606 28.9119 45.0332C28.9095 45.0332 28.8412 45.0176 28.8201 45.0119C28.7936 45.0013 28.7664 44.9923 28.7388 44.9852C28.7266 44.9793 28.6417 44.9176 28.6712 44.9438C28.6355 44.9128 28.6507 44.9257 28.6348 44.902C28.5713 44.7968 28.551 44.6711 28.5783 44.5514C28.6044 44.4477 28.5895 44.3379 28.5368 44.245C28.484 44.152 28.3974 44.083 28.295 44.0523C28.1913 44.0248 28.0809 44.039 27.9876 44.092C27.8942 44.145 27.8254 44.2325 27.7959 44.3356H27.7967Z" fill="#211715"/>
<path d="M18.936 55.0167C19.4341 55.0505 19.9335 55.0646 20.4314 55.1055C20.6984 55.1318 20.9589 55.2037 21.2016 55.318C21.7765 55.5633 22.3863 55.5797 23.0049 55.5819C23.832 55.5853 24.6584 55.5345 25.4788 55.4297C26.3274 55.3431 27.1447 55.0633 27.8683 54.6116C28.6413 54.1193 29.2406 53.397 29.5817 52.5463C29.6096 52.4426 29.5955 52.3321 29.5424 52.2387C29.4894 52.1453 29.4017 52.0765 29.2984 52.0472C29.1947 52.0211 29.085 52.036 28.992 52.0888C28.899 52.1416 28.83 52.2282 28.7993 52.3306C28.2583 53.7059 26.8119 54.45 25.418 54.626C24.637 54.7234 23.8507 54.7718 23.0637 54.7709C22.7445 54.7709 22.424 54.7641 22.106 54.7334C22.0801 54.7308 21.917 54.7092 21.9971 54.7217C21.9477 54.7139 21.8984 54.7058 21.8495 54.695C21.751 54.6708 21.6548 54.638 21.5621 54.5969C21.3862 54.5132 21.2055 54.4398 21.0211 54.3771C20.8466 54.3341 20.6684 54.3079 20.4889 54.2989C19.972 54.2527 19.4523 54.24 18.9348 54.2052C18.8272 54.2052 18.724 54.2479 18.6479 54.324C18.5718 54.4001 18.5291 54.5033 18.5291 54.6109C18.5291 54.7186 18.5718 54.8218 18.6479 54.8979C18.724 54.974 18.8272 55.0167 18.9348 55.0167H18.936Z" fill="#211715"/>
<path d="M25.7263 49.7107C26.22 50.324 27.018 50.5478 27.7758 50.5706C28.1647 50.5903 28.5545 50.5631 28.9369 50.4895C29.307 50.4107 29.6578 50.2345 30.0382 50.2053C30.1732 50.1813 30.3124 50.2058 30.4311 50.2744C30.4865 50.3072 30.5347 50.3507 30.573 50.4024C30.5845 50.4193 30.6213 50.5218 30.6203 50.4628C30.6222 50.5698 30.4991 50.7191 30.4441 50.812C30.4343 50.829 30.3664 50.9346 30.3926 50.9001C30.4255 50.8567 30.3817 50.912 30.3723 50.9213C30.3515 50.9412 30.3319 50.9623 30.3109 50.9823C30.3153 50.9782 30.2254 51.056 30.2663 51.0229C30.3018 50.9943 30.2357 51.0452 30.2281 51.0504C30.1809 51.0826 30.1334 51.1138 30.0844 51.1432C29.9594 51.2174 29.8301 51.284 29.6972 51.3427C29.4103 51.4664 29.1156 51.5711 28.815 51.6564C28.0356 51.8866 27.2394 52.0556 26.4337 52.1617C26.3272 52.1651 26.2259 52.2089 26.1506 52.2843C26.0752 52.3597 26.0313 52.4609 26.028 52.5675C26.028 52.7641 26.2149 53.0026 26.4337 52.9732C27.2596 52.8685 28.0769 52.7047 28.8793 52.4829C29.5092 52.3039 30.1887 52.0912 30.7175 51.6917C30.9481 51.5115 31.1343 51.2808 31.2616 51.0173C31.377 50.8325 31.4278 50.6147 31.406 50.3979C31.3842 50.1812 31.2912 49.9778 31.1414 49.8196C30.9943 49.6614 30.8114 49.5406 30.6081 49.4675C30.4048 49.3944 30.187 49.3711 29.9728 49.3995C29.5261 49.4436 29.1252 49.6254 28.6896 49.7131C28.2613 49.7938 27.8223 49.799 27.3923 49.7285C26.9667 49.6761 26.5766 49.4647 26.3002 49.1368C26.2237 49.0613 26.1206 49.019 26.0133 49.019C25.9059 49.019 25.8028 49.0613 25.7263 49.1368C25.6525 49.2141 25.6113 49.3169 25.6113 49.4238C25.6113 49.5307 25.6525 49.6335 25.7263 49.7107Z" fill="#211715"/>
<path d="M20.8346 49.6369C20.9969 49.3465 21.198 49.0795 21.4324 48.8433C21.5086 48.7816 21.5922 48.7293 21.6811 48.6878C21.8101 48.6324 21.9432 48.5872 22.0792 48.5526C22.788 48.3527 23.5011 48.1602 24.1926 47.9074C24.5391 47.7913 24.8739 47.643 25.1928 47.4644C25.4464 47.3131 25.7086 47.1064 26.0107 47.0671C26.1099 47.0491 26.2118 47.0538 26.3089 47.0808C26.406 47.1079 26.4957 47.1565 26.5713 47.2232C26.7211 47.3895 26.6445 47.6443 26.5389 47.8134C26.2798 48.2075 25.9795 48.5728 25.6428 48.903C25.2758 49.275 25.8492 49.8498 26.2166 49.4768C26.5905 49.1017 26.927 48.691 27.2214 48.2508C27.673 47.5625 27.4604 46.656 26.6755 46.3515C26.3336 46.2248 25.9589 46.2177 25.6125 46.3314C25.2359 46.4558 24.9283 46.7009 24.5787 46.8785C23.8179 47.2644 22.9388 47.4721 22.1207 47.7011C21.7403 47.8077 21.343 47.9017 21.0185 48.1399C20.6369 48.4207 20.3828 48.8341 20.1331 49.2281C19.8526 49.6706 20.5546 50.0782 20.8337 49.6378L20.8346 49.6369Z" fill="#211715"/>
<path d="M19.2374 49.5885C19.2644 49.5918 19.2915 49.5951 19.3184 49.5987L19.2105 49.5841C19.4026 49.61 19.5936 49.6428 19.7853 49.6687C19.9842 49.7051 20.1865 49.7196 20.3886 49.7118C20.4957 49.709 20.598 49.6669 20.676 49.5934C20.7138 49.5557 20.7438 49.511 20.7643 49.4616C20.7848 49.4123 20.7953 49.3594 20.7953 49.306C20.7953 49.2526 20.7848 49.1998 20.7643 49.1504C20.7438 49.1011 20.7138 49.0563 20.676 49.0186C20.6385 48.9806 20.5937 48.9505 20.5443 48.9302C20.4949 48.9098 20.442 48.8997 20.3886 48.9003C20.2229 48.9088 20.0568 48.8992 19.8932 48.8717L20.0011 48.8862C19.7461 48.8524 19.4927 48.8068 19.2371 48.7769C19.1837 48.7766 19.1308 48.787 19.0815 48.8073C19.0322 48.8276 18.9874 48.8575 18.9496 48.8952C18.8736 48.9713 18.8308 49.0745 18.8308 49.1821C18.8308 49.2897 18.8736 49.3929 18.9496 49.469L19.0318 49.5324C19.0939 49.5687 19.1646 49.5879 19.2365 49.5879L19.2374 49.5885Z" fill="#211715"/>
<path d="M9.78172 47.4019C11.3094 47.7523 12.8734 47.8771 14.4219 48.1001C15.7078 48.2851 17.0005 48.3468 18.2918 48.4781C18.3992 48.4774 18.502 48.4344 18.5779 48.3584C18.6538 48.2825 18.6968 48.1797 18.6976 48.0724C18.6953 47.9655 18.6518 47.8636 18.5762 47.788C18.5006 47.7124 18.3987 47.6689 18.2918 47.6666C17.0482 47.5401 15.8018 47.4847 14.5634 47.3068C13.0394 47.0871 11.5008 46.9643 9.99744 46.6192C9.48906 46.5026 9.27198 47.2849 9.78172 47.4019Z" fill="#211715"/>
<path d="M18.3062 48.4773C18.198 48.399 18.2428 48.4291 18.2724 48.4588C18.1889 48.3758 18.2281 48.4052 18.2568 48.45C18.3033 48.5224 18.255 48.4418 18.2546 48.4401C18.2617 48.4717 18.2766 48.5031 18.2857 48.5342C18.3058 48.6056 18.3222 48.6779 18.3348 48.751C18.3419 48.7904 18.3478 48.8298 18.3539 48.8693C18.3628 48.928 18.3451 48.7956 18.352 48.8566C18.3552 48.8844 18.3586 48.9121 18.3615 48.9398C18.4054 49.4182 18.4207 49.8989 18.4071 50.3791C18.3902 51.6124 18.2974 52.8453 18.1895 54.0735C18.1365 54.6771 18.078 55.2801 18.0142 55.8825C18.0149 55.9899 18.0578 56.0928 18.1338 56.1687C18.2098 56.2447 18.3126 56.2876 18.42 56.2883C18.5269 56.286 18.6287 56.2425 18.7043 56.1669C18.7799 56.0913 18.8234 55.9894 18.8257 55.8825C18.9522 54.6784 19.0624 53.4721 19.1395 52.2645C19.2099 51.151 19.2961 50.0024 19.1674 48.89C19.1211 48.4891 19.0668 48.0311 18.7153 47.777C18.6222 47.7235 18.5118 47.7088 18.408 47.736C18.3041 47.7633 18.2152 47.8303 18.1603 47.9226C18.1083 48.016 18.0944 48.126 18.1215 48.2294C18.1486 48.3329 18.2147 48.4219 18.3059 48.4778L18.3062 48.4773Z" fill="#211715"/>
</g>
<defs>
<clipPath id="clip0_63_10119">
<rect width="60" height="60" fill="white" transform="translate(0.5)"/>
</clipPath>
</defs>
</svg>
