<svg width="47" height="47" viewBox="0 0 47 47" fill="none" xmlns="http://www.w3.org/2000/svg">
<rect width="47" height="47" rx="23.5" fill="#A0EAFF"/>
<path d="M33 38.3956C31.7101 38.8091 30.1857 39 28.3974 39H19.6026C17.8143 39 16.2899 38.8091 15 38.3956C15.3225 34.2605 19.2362 31 24 31C28.7638 31 32.6775 34.2605 33 38.3956Z" fill="#A0EAFF" stroke="#00C8FF" stroke-width="1.5" stroke-linecap="round" stroke-linejoin="round"/>
<path d="M27.85 9H19.15C11.9 9 9 12.0581 9 19.7034V28.8777C9 34.6575 10.653 37.8226 14.597 39C14.916 35.0245 18.7875 31.8899 23.5 31.8899C28.2125 31.8899 32.084 35.0245 32.403 39C36.347 37.8226 38 34.6575 38 28.8777V19.7034C38 12.0581 35.1 9 27.85 9ZM23.5 27.6085C20.629 27.6085 18.309 25.1468 18.309 22.1193C18.309 19.0918 20.629 16.6453 23.5 16.6453C26.371 16.6453 28.691 19.0918 28.691 22.1193C28.691 25.1468 26.371 27.6085 23.5 27.6085Z" fill="#A0EAFF" stroke="#00C8FF" stroke-width="1.5" stroke-linecap="round" stroke-linejoin="round"/>
<path d="M29 21.4924C29 24.53 26.5419 27 23.5 27C20.4581 27 18 24.53 18 21.4924C18 18.4547 20.4581 16 23.5 16C26.5419 16 29 18.4547 29 21.4924Z" fill="#A0EAFF" stroke="#00C8FF" stroke-width="1.5" stroke-linecap="round" stroke-linejoin="round"/>
</svg>
