<svg width="14" height="14" viewBox="0 0 14 14" fill="none" xmlns="http://www.w3.org/2000/svg">
<g clip-path="url(#clip0_9_177)">
<g clip-path="url(#clip1_9_177)">
<path d="M1.75 0.875C0.784766 0.875 0 1.65977 0 2.625V11.375C0 12.3402 0.784766 13.125 1.75 13.125H12.25C13.2152 13.125 14 12.3402 14 11.375V5.25C14 4.28477 13.2152 3.5 12.25 3.5H2.1875C1.94687 3.5 1.75 3.30312 1.75 3.0625C1.75 2.82187 1.94687 2.625 2.1875 2.625H12.25C12.734 2.625 13.125 2.23398 13.125 1.75C13.125 1.26602 12.734 0.875 12.25 0.875H1.75ZM11.375 7.4375C11.6071 7.4375 11.8296 7.52969 11.9937 7.69378C12.1578 7.85788 12.25 8.08044 12.25 8.3125C12.25 8.54456 12.1578 8.76712 11.9937 8.93122C11.8296 9.09531 11.6071 9.1875 11.375 9.1875C11.1429 9.1875 10.9204 9.09531 10.7563 8.93122C10.5922 8.76712 10.5 8.54456 10.5 8.3125C10.5 8.08044 10.5922 7.85788 10.7563 7.69378C10.9204 7.52969 11.1429 7.4375 11.375 7.4375Z" fill="#7E8289"/>
</g>
</g>
<defs>
<clipPath id="clip0_9_177">
<rect width="14" height="14" fill="white"/>
</clipPath>
<clipPath id="clip1_9_177">
<path d="M0 0H14V14H0V0Z" fill="white"/>
</clipPath>
</defs>
</svg>
