<svg width="14" height="14" viewBox="0 0 14 14" fill="none" xmlns="http://www.w3.org/2000/svg">
<g clip-path="url(#clip0_9_747)">
<path d="M7.2043 5.94458C7.13673 5.93782 7.05565 5.93782 6.98133 5.94458C5.37322 5.89047 4.09619 4.57141 4.09619 2.94796C4.09619 1.29069 5.43403 -0.0554199 7.09619 -0.0554199C8.7516 -0.0554199 10.0962 1.29069 10.0962 2.94796C10.0894 4.57141 8.81241 5.89047 7.2043 5.94458Z" fill="#7E8289"/>
<path d="M3.42684 8.89964C1.65264 10.0269 1.65264 11.864 3.42684 12.9843C5.44297 14.2647 8.74942 14.2647 10.7655 12.9843C12.5397 11.857 12.5397 10.02 10.7655 8.89964C8.75675 7.62623 5.4503 7.62623 3.42684 8.89964Z" fill="#7E8289"/>
</g>
<defs>
<clipPath id="clip0_9_747">
<path d="M0 0H14V14H0V0Z" fill="white"/>
</clipPath>
</defs>
</svg>
