<svg width="25" height="24" viewBox="0 0 25 24" fill="none" xmlns="http://www.w3.org/2000/svg">
<path d="M8.33301 2V5" stroke="#37B5FF" stroke-width="1.5" stroke-miterlimit="10" stroke-linecap="round" stroke-linejoin="round"/>
<path d="M16.333 2V5" stroke="#37B5FF" stroke-width="1.5" stroke-miterlimit="10" stroke-linecap="round" stroke-linejoin="round"/>
<path d="M3.83301 9.08984H20.833" stroke="#37B5FF" stroke-width="1.5" stroke-miterlimit="10" stroke-linecap="round" stroke-linejoin="round"/>
<path d="M22.333 19C22.333 19.75 22.123 20.46 21.753 21.06C21.063 22.22 19.793 23 18.333 23C17.323 23 16.403 22.63 15.703 22C15.393 21.74 15.123 21.42 14.913 21.06C14.543 20.46 14.333 19.75 14.333 19C14.333 16.79 16.123 15 18.333 15C19.533 15 20.603 15.53 21.333 16.36C21.953 17.07 22.333 17.99 22.333 19Z" stroke="#37B5FF" stroke-width="1.5" stroke-miterlimit="10" stroke-linecap="round" stroke-linejoin="round"/>
<path d="M16.7729 19L17.7629 19.99L19.8929 18.02" stroke="#37B5FF" stroke-width="1.5" stroke-linecap="round" stroke-linejoin="round"/>
<path d="M21.333 8.5V16.36C20.603 15.53 19.533 15 18.333 15C16.123 15 14.333 16.79 14.333 19C14.333 19.75 14.543 20.46 14.913 21.06C15.123 21.42 15.393 21.74 15.703 22H8.33301C4.83301 22 3.33301 20 3.33301 17V8.5C3.33301 5.5 4.83301 3.5 8.33301 3.5H16.333C19.833 3.5 21.333 5.5 21.333 8.5Z" stroke="#37B5FF" stroke-width="1.5" stroke-miterlimit="10" stroke-linecap="round" stroke-linejoin="round"/>
<path d="M12.3285 13.7002H12.3375" stroke="#37B5FF" stroke-width="2" stroke-linecap="round" stroke-linejoin="round"/>
<path d="M8.62732 13.7002H8.6363" stroke="#37B5FF" stroke-width="2" stroke-linecap="round" stroke-linejoin="round"/>
<path d="M8.62732 16.7002H8.6363" stroke="#37B5FF" stroke-width="2" stroke-linecap="round" stroke-linejoin="round"/>
</svg>
