<svg width="25" height="24" viewBox="0 0 25 24" fill="none" xmlns="http://www.w3.org/2000/svg">
<path fill-rule="evenodd" clip-rule="evenodd" d="M18.75 7C18.75 9.07107 17.0711 10.75 15 10.75C12.9289 10.75 11.25 9.07107 11.25 7C11.25 4.92893 12.9289 3.25 15 3.25C17.0711 3.25 18.75 4.92893 18.75 7ZM15 9.25C16.2426 9.25 17.25 8.24264 17.25 7C17.25 5.75736 16.2426 4.75 15 4.75C13.7574 4.75 12.75 5.75736 12.75 7C12.75 8.24264 13.7574 9.25 15 9.25Z" fill="black"/>
<path fill-rule="evenodd" clip-rule="evenodd" d="M6.25 17C6.25 19.0711 7.92893 20.75 10 20.75C12.0711 20.75 13.75 19.0711 13.75 17C13.75 14.9289 12.0711 13.25 10 13.25C7.92893 13.25 6.25 14.9289 6.25 17ZM10 19.25C8.75736 19.25 7.75 18.2426 7.75 17C7.75 15.7574 8.75736 14.75 10 14.75C11.2426 14.75 12.25 15.7574 12.25 17C12.25 18.2426 11.2426 19.25 10 19.25Z" fill="black"/>
<path d="M14.75 16.9585C14.75 16.5443 15.0858 16.2085 15.5 16.2085H22.5C22.9142 16.2085 23.25 16.5443 23.25 16.9585C23.25 17.3727 22.9142 17.7085 22.5 17.7085H15.5C15.0858 17.7085 14.75 17.3727 14.75 16.9585Z" fill="black"/>
<path d="M9.5 6.20852C9.91421 6.20852 10.25 6.54431 10.25 6.95852C10.25 7.37273 9.91421 7.70852 9.5 7.70852L2.5 7.70852C2.08579 7.70852 1.75 7.37273 1.75 6.95852C1.75 6.54431 2.08579 6.20852 2.5 6.20852L9.5 6.20852Z" fill="black"/>
<path d="M1.75 16.9585C1.75 16.5443 2.08579 16.2085 2.5 16.2085H4.5C4.91421 16.2085 5.25 16.5443 5.25 16.9585C5.25 17.3727 4.91421 17.7085 4.5 17.7085H2.5C2.08579 17.7085 1.75 17.3727 1.75 16.9585Z" fill="black"/>
<path d="M22.5 6.20852C22.9142 6.20852 23.25 6.54431 23.25 6.95852C23.25 7.37273 22.9142 7.70852 22.5 7.70852H20.5C20.0858 7.70852 19.75 7.37273 19.75 6.95852C19.75 6.54431 20.0858 6.20852 20.5 6.20852H22.5Z" fill="black"/>
</svg>
