<svg width="10" height="10" viewBox="0 0 10 10" fill="none" xmlns="http://www.w3.org/2000/svg">
<path d="M0.833496 0.833496H1.5585C2.0085 0.833496 2.36266 1.221 2.32516 1.66683L1.97933 5.81683C1.921 6.49599 2.45849 7.07933 3.14183 7.07933H7.57933C8.17933 7.07933 8.70433 6.58766 8.75016 5.99183L8.97516 2.86683C9.02516 2.17516 8.50016 1.61266 7.80433 1.61266H2.42517" stroke="#10B981" stroke-miterlimit="10" stroke-linecap="round" stroke-linejoin="round"/>
<path d="M6.77083 9.16667C7.05848 9.16667 7.29167 8.93348 7.29167 8.64583C7.29167 8.35819 7.05848 8.125 6.77083 8.125C6.48318 8.125 6.25 8.35819 6.25 8.64583C6.25 8.93348 6.48318 9.16667 6.77083 9.16667Z" stroke="#10B981" stroke-miterlimit="10" stroke-linecap="round" stroke-linejoin="round"/>
<path d="M3.43734 9.16667C3.72499 9.16667 3.95817 8.93348 3.95817 8.64583C3.95817 8.35819 3.72499 8.125 3.43734 8.125C3.14969 8.125 2.9165 8.35819 2.9165 8.64583C2.9165 8.93348 3.14969 9.16667 3.43734 9.16667Z" stroke="#10B981" stroke-miterlimit="10" stroke-linecap="round" stroke-linejoin="round"/>
<path d="M3.75 3.3335H8.75" stroke="#10B981" stroke-miterlimit="10" stroke-linecap="round" stroke-linejoin="round"/>
</svg>
