<svg width="48" height="49" viewBox="0 0 48 49" fill="none" xmlns="http://www.w3.org/2000/svg">
<rect x="0.00585938" y="0.844238" width="48" height="48" rx="24" fill="#A0EAFF"/>
<path d="M18.3394 13.1777V16.6777" stroke="#00C8FF" stroke-width="1.5" stroke-miterlimit="10" stroke-linecap="round" stroke-linejoin="round"/>
<path d="M27.6724 13.1777V16.6777" stroke="#00C8FF" stroke-width="1.5" stroke-miterlimit="10" stroke-linecap="round" stroke-linejoin="round"/>
<path d="M13.0894 21.4492H32.9227" stroke="#00C8FF" stroke-width="1.5" stroke-miterlimit="10" stroke-linecap="round" stroke-linejoin="round"/>
<path d="M34.6727 33.0109C34.6727 33.8859 34.4277 34.7142 33.996 35.4142C33.191 36.7676 31.7094 37.6776 30.006 37.6776C28.8277 37.6776 27.7544 37.2459 26.9377 36.5109C26.576 36.2076 26.261 35.8342 26.016 35.4142C25.5844 34.7142 25.3394 33.8859 25.3394 33.0109C25.3394 30.4326 27.4277 28.3442 30.006 28.3442C31.406 28.3442 32.6544 28.9626 33.506 29.9309C34.2294 30.7592 34.6727 31.8326 34.6727 33.0109Z" stroke="#00C8FF" stroke-width="1.5" stroke-miterlimit="10" stroke-linecap="round" stroke-linejoin="round"/>
<path d="M28.186 33.011L29.341 34.166L31.826 31.8677" stroke="#00C8FF" stroke-width="1.5" stroke-linecap="round" stroke-linejoin="round"/>
<path d="M33.5059 20.7611V29.9311C32.6542 28.9627 31.4059 28.3444 30.0059 28.3444C27.4275 28.3444 25.3392 30.4327 25.3392 33.0111C25.3392 33.8861 25.5842 34.7144 26.0159 35.4144C26.2609 35.8344 26.5759 36.2077 26.9375 36.5111H18.3392C14.2559 36.5111 12.5059 34.1777 12.5059 30.6777V20.7611C12.5059 17.2611 14.2559 14.9277 18.3392 14.9277H27.6725C31.7559 14.9277 33.5059 17.2611 33.5059 20.7611Z" stroke="#00C8FF" stroke-width="1.5" stroke-miterlimit="10" stroke-linecap="round" stroke-linejoin="round"/>
<path d="M23.0008 26.8275H23.0112" stroke="#00C8FF" stroke-width="2" stroke-linecap="round" stroke-linejoin="round"/>
<path d="M18.6824 26.8275H18.6929" stroke="#00C8FF" stroke-width="2" stroke-linecap="round" stroke-linejoin="round"/>
<path d="M18.6824 30.3275H18.6929" stroke="#00C8FF" stroke-width="2" stroke-linecap="round" stroke-linejoin="round"/>
</svg>
