<svg width="47" height="48" viewBox="0 0 47 48" fill="none" xmlns="http://www.w3.org/2000/svg">
<rect x="0.00585938" y="0.844238" width="47" height="47" rx="23.5" fill="#A0EAFF"/>
<path d="M33.0059 39.2399C31.716 39.6534 30.1915 39.8442 28.4033 39.8442H19.6085C17.8202 39.8442 16.2958 39.6534 15.0059 39.2399C15.3283 35.1047 19.242 31.8442 24.0059 31.8442C28.7697 31.8442 32.6834 35.1047 33.0059 39.2399Z" fill="#A0EAFF" stroke="#00C8FF" stroke-width="1.5" stroke-linecap="round" stroke-linejoin="round"/>
<path d="M27.8559 9.84424H19.1559C11.9059 9.84424 9.00586 12.9023 9.00586 20.5476V29.7219C9.00586 35.5017 10.6589 38.6669 14.6029 39.8442C14.9219 35.8687 18.7934 32.7341 23.5059 32.7341C28.2184 32.7341 32.0899 35.8687 32.4089 39.8442C36.3529 38.6669 38.0059 35.5017 38.0059 29.7219V20.5476C38.0059 12.9023 35.1059 9.84424 27.8559 9.84424ZM23.5059 28.4528C20.6349 28.4528 18.3149 25.9911 18.3149 22.9635C18.3149 19.936 20.6349 17.4895 23.5059 17.4895C26.3769 17.4895 28.6969 19.936 28.6969 22.9635C28.6969 25.9911 26.3769 28.4528 23.5059 28.4528Z" fill="#A0EAFF" stroke="#00C8FF" stroke-width="1.5" stroke-linecap="round" stroke-linejoin="round"/>
<path d="M29.0059 22.3366C29.0059 25.3743 26.5478 27.8442 23.5059 27.8442C20.464 27.8442 18.0059 25.3743 18.0059 22.3366C18.0059 19.2989 20.464 16.8442 23.5059 16.8442C26.5478 16.8442 29.0059 19.2989 29.0059 22.3366Z" fill="#A0EAFF" stroke="#00C8FF" stroke-width="1.5" stroke-linecap="round" stroke-linejoin="round"/>
</svg>
