<svg width="64" height="65" viewBox="0 0 64 65" fill="none" xmlns="http://www.w3.org/2000/svg">
<path d="M0 32.5C0 14.8269 14.3269 0.5 32 0.5C49.6731 0.5 64 14.8269 64 32.5C64 50.1731 49.6731 64.5 32 64.5C14.3269 64.5 0 50.1731 0 32.5Z" fill="#DDF9FF"/>
<path d="M37.6672 45.6178C37.5456 45.6175 37.428 45.5738 37.3357 45.4945C37.2434 45.4152 37.1826 45.3055 37.1641 45.1852C37.1456 45.0649 37.1708 44.942 37.235 44.8387C37.2992 44.7353 37.3982 44.6583 37.5142 44.6216L39.4012 44.03C39.4658 44.0072 39.5342 43.9977 39.6025 44.002C39.6708 44.0062 39.7376 44.0242 39.7988 44.0548C39.86 44.0854 39.9144 44.128 39.9588 44.1801C40.0032 44.2321 40.0367 44.2926 40.0572 44.3579C40.0778 44.4232 40.085 44.4919 40.0784 44.56C40.0718 44.6281 40.0516 44.6942 40.0189 44.7544C39.9863 44.8145 39.9418 44.8675 39.8883 44.9101C39.8347 44.9527 39.7732 44.9841 39.7072 45.0024L37.8202 45.594C37.7709 45.6102 37.7192 45.6182 37.6672 45.6178Z" fill="#00C8FF"/>
<path d="M31.0002 47.6852C30.9339 47.687 30.8679 47.6755 30.8061 47.6514C30.7443 47.6272 30.688 47.591 30.6404 47.5447C30.5929 47.4984 30.5551 47.4431 30.5293 47.3819C30.5035 47.3208 30.4902 47.2551 30.4902 47.1888V30.6002C30.4898 30.4916 30.5242 30.3857 30.5885 30.2982C30.6528 30.2106 30.7435 30.146 30.8472 30.114L43.7264 26.0986C43.803 26.0749 43.884 26.0693 43.9631 26.0823C44.0421 26.0952 44.1171 26.1264 44.182 26.1734C44.2463 26.221 44.2985 26.2831 44.3345 26.3545C44.3705 26.4259 44.3893 26.5048 44.3894 26.5848V36.2986C44.3894 36.4338 44.3357 36.5636 44.2401 36.6592C44.1444 36.7548 44.0147 36.8086 43.8794 36.8086C43.7442 36.8086 43.6145 36.7548 43.5188 36.6592C43.4232 36.5636 43.3694 36.4338 43.3694 36.2986V27.2784L31.5238 30.9844V47.1616C31.5243 47.2305 31.5111 47.2987 31.4849 47.3625C31.4587 47.4262 31.4202 47.4841 31.3715 47.5328C31.3228 47.5815 31.2649 47.6201 31.2011 47.6462C31.1374 47.6724 31.0691 47.6856 31.0002 47.6852Z" fill="#00C8FF"/>
<path d="M30.9997 47.6987C30.8781 47.6984 30.7605 47.6547 30.6682 47.5754C30.576 47.496 30.5151 47.3863 30.4966 47.2661C30.4782 47.1458 30.5033 47.0229 30.5675 46.9195C30.6317 46.8162 30.7307 46.7392 30.8467 46.7025L37.5005 44.6217C37.5655 44.5974 37.6348 44.5866 37.7041 44.59C37.7734 44.5934 37.8413 44.6109 37.9036 44.6414C37.9659 44.6719 38.0213 44.7148 38.0664 44.7675C38.1116 44.8202 38.1455 44.8816 38.1661 44.9478C38.1867 45.0141 38.1936 45.0838 38.1863 45.1528C38.1791 45.2218 38.1578 45.2886 38.1238 45.3491C38.0898 45.4096 38.0439 45.4625 37.9887 45.5046C37.9336 45.5468 37.8704 45.5772 37.8031 45.5941L31.1663 47.6749C31.1127 47.6925 31.0562 47.7006 30.9997 47.6987Z" fill="#00C8FF"/>
<path d="M33.0398 44.6387C32.9181 44.6385 32.8005 44.5947 32.7083 44.5154C32.616 44.4361 32.5551 44.3264 32.5367 44.2061C32.5182 44.0859 32.5433 43.963 32.6075 43.8596C32.6717 43.7562 32.7708 43.6792 32.8868 43.6425L37.589 42.1601C37.6535 42.1374 37.722 42.1278 37.7903 42.1321C37.8586 42.1364 37.9253 42.1543 37.9865 42.1849C38.0478 42.2155 38.1022 42.2581 38.1466 42.3102C38.191 42.3623 38.2245 42.4227 38.245 42.488C38.2655 42.5533 38.2727 42.622 38.2662 42.6902C38.2596 42.7583 38.2394 42.8244 38.2067 42.8845C38.174 42.9446 38.1296 42.9976 38.0761 43.0402C38.0225 43.0828 37.9609 43.1142 37.895 43.1325L33.2064 44.6149C33.1527 44.6326 33.0963 44.6407 33.0398 44.6387Z" fill="#00C8FF"/>
<path d="M33.0398 42.2587C32.9181 42.2585 32.8005 42.2148 32.7083 42.1354C32.616 42.0561 32.5551 41.9464 32.5367 41.8261C32.5182 41.7059 32.5433 41.583 32.6075 41.4796C32.6717 41.3763 32.7708 41.2993 32.8868 41.2625L36.467 40.1439C36.5959 40.1024 36.7361 40.1139 36.8566 40.1757C36.9771 40.2376 37.0681 40.3448 37.1096 40.4737C37.1511 40.6027 37.1396 40.7428 37.0778 40.8633C37.0159 40.9838 36.9087 41.0748 36.7798 41.1163L33.2064 42.2349C33.1527 42.2526 33.0963 42.2607 33.0398 42.2587Z" fill="#00C8FF"/>
<path d="M31.0001 47.6714C30.9492 47.6721 30.8986 47.664 30.8505 47.6476L17.9781 43.622C17.8737 43.5905 17.7822 43.5262 17.7173 43.4386C17.6524 43.351 17.6174 43.2448 17.6177 43.1358V26.5574C17.6177 26.4221 17.6714 26.2924 17.7671 26.1968C17.8627 26.1011 17.9924 26.0474 18.1277 26.0474C18.1808 26.0467 18.2336 26.0548 18.2841 26.0712L21.7759 27.1592C21.8793 27.1928 21.9696 27.2583 22.0337 27.3462C22.0978 27.4341 22.1325 27.54 22.1329 27.6488V34.6596C22.1731 34.7251 22.1985 34.7986 22.2073 34.875C22.2161 34.9513 22.2081 35.0287 22.1839 35.1016C22.1377 35.2288 22.0435 35.3329 21.9214 35.3914C21.7993 35.4499 21.6592 35.4581 21.5311 35.4144L21.4529 35.3872C21.3534 35.3515 21.2674 35.286 21.2065 35.1996C21.1457 35.1132 21.113 35.0101 21.1129 34.9044V28.0228L18.6377 27.2476V42.7618L30.5037 46.4678V30.957L27.7259 30.09V36.72C27.7259 36.8553 27.6721 36.985 27.5765 37.0806C27.4809 37.1763 27.3511 37.23 27.2159 37.23C27.0806 37.23 26.9509 37.1763 26.8553 37.0806C26.7596 36.985 26.7059 36.8553 26.7059 36.72V29.3964C26.7045 29.3159 26.7222 29.2362 26.7575 29.1638C26.7928 29.0914 26.8448 29.0285 26.9091 28.98C26.9735 28.9316 27.0484 28.8991 27.1277 28.8852C27.207 28.8713 27.2885 28.8764 27.3655 28.9L31.1667 30.09C31.2676 30.1246 31.3548 30.1903 31.416 30.2777C31.4771 30.365 31.5088 30.4696 31.5067 30.5762V47.1614C31.5074 47.2415 31.4889 47.3207 31.4528 47.3922C31.4168 47.4638 31.3641 47.5257 31.2993 47.5728C31.2124 47.6364 31.1077 47.6709 31.0001 47.6714Z" fill="#00C8FF"/>
<path d="M27.2159 37.2403C27.0807 37.2403 26.9509 37.1866 26.8553 37.091C26.7597 36.9953 26.7059 36.8656 26.7059 36.7303V29.4645C26.693 29.3872 26.6988 29.3079 26.7229 29.2333C26.7419 29.1686 26.7737 29.1084 26.8163 29.0561C26.8589 29.0039 26.9115 28.9606 26.971 28.929C27.0306 28.8973 27.0958 28.8778 27.163 28.8717C27.2301 28.8656 27.2978 28.873 27.3621 28.8933C27.4663 28.9267 27.5574 28.9919 27.6227 29.0797C27.6879 29.1675 27.724 29.2736 27.7259 29.3829V36.7201C27.7273 36.788 27.7151 36.8554 27.6901 36.9184C27.665 36.9815 27.6277 37.0389 27.5802 37.0874C27.5327 37.1358 27.476 37.1743 27.4135 37.2006C27.3509 37.2268 27.2838 37.2404 27.2159 37.2403Z" fill="#00C8FF"/>
<path d="M21.701 35.4417C21.6433 35.441 21.586 35.4318 21.531 35.4145L21.4528 35.3873C21.3533 35.3516 21.2673 35.2861 21.2064 35.1997C21.1456 35.1133 21.1129 35.0102 21.1128 34.9045V27.6489C21.1128 27.5137 21.1665 27.3839 21.2622 27.2883C21.3578 27.1926 21.4875 27.1389 21.6228 27.1389C21.7581 27.1389 21.8878 27.1926 21.9834 27.2883C22.0791 27.3839 22.1328 27.5137 22.1328 27.6489V34.6597C22.173 34.7252 22.1984 34.7987 22.2072 34.8751C22.216 34.9514 22.208 35.0288 22.1838 35.1017C22.1477 35.2009 22.0821 35.2867 21.9957 35.3475C21.9094 35.4082 21.8066 35.4411 21.701 35.4417Z" fill="#00C8FF"/>
<path d="M30.9998 31.1067C30.9337 31.1062 30.8684 31.0928 30.8075 31.0671C30.7466 31.0414 30.6914 31.0039 30.645 30.9569C30.5986 30.9099 30.5619 30.8541 30.537 30.7929C30.5121 30.7317 30.4996 30.6662 30.5 30.6001C30.5 30.4648 30.5537 30.3351 30.6494 30.2395C30.745 30.1438 30.8748 30.0901 31.01 30.0901C31.1453 30.0901 31.275 30.1438 31.3706 30.2395C31.4663 30.3351 31.52 30.4648 31.52 30.6001C31.5173 30.736 31.4612 30.8653 31.3639 30.9601C31.2665 31.055 31.1357 31.1076 30.9998 31.1067Z" fill="#00C8FF"/>
<path d="M18.1343 27.0641C18.017 27.0635 17.9034 27.0225 17.8129 26.9479C17.7223 26.8734 17.6602 26.7698 17.637 26.6548C17.6138 26.5398 17.631 26.4203 17.6857 26.3165C17.7404 26.2127 17.8292 26.1309 17.9371 26.0849L30.8571 20.7061C30.982 20.6538 31.1225 20.6533 31.2478 20.7046C31.3731 20.7559 31.4729 20.8549 31.5252 20.9798C31.5775 21.1047 31.578 21.2453 31.5267 21.3706C31.4754 21.4959 31.3764 21.5956 31.2515 21.6479L18.3315 27.0267C18.269 27.0527 18.2019 27.0654 18.1343 27.0641Z" fill="#00C8FF"/>
<path d="M22.031 28.1691C21.9165 28.1665 21.8062 28.1256 21.7179 28.0528C21.6295 27.9799 21.5682 27.8795 21.5439 27.7676C21.5195 27.6557 21.5336 27.5389 21.5837 27.436C21.6338 27.333 21.7171 27.2499 21.8202 27.2001L27.658 24.7725C27.7822 24.7242 27.9204 24.7264 28.0429 24.7787C28.1655 24.831 28.2628 24.9292 28.3139 25.0522C28.365 25.1753 28.3658 25.3135 28.3163 25.4372C28.2668 25.561 28.1709 25.6604 28.049 25.7143L22.2248 28.1283C22.1636 28.1548 22.0977 28.1686 22.031 28.1691Z" fill="#00C8FF"/>
<path d="M27.2021 29.8997C27.1008 29.8999 27.0018 29.8695 26.9181 29.8124C26.8344 29.7554 26.7699 29.6745 26.7329 29.5801C26.705 29.5178 26.6899 29.4505 26.6886 29.3822C26.6872 29.3139 26.6996 29.246 26.725 29.1826C26.7503 29.1191 26.7882 29.0615 26.8363 29.013C26.8844 28.9644 26.9417 28.9261 27.0049 28.9001L32.1457 26.7615C32.2706 26.7092 32.4111 26.7087 32.5364 26.76C32.6617 26.8114 32.7615 26.9104 32.8138 27.0352C32.8661 27.1601 32.8666 27.3007 32.8153 27.426C32.764 27.5513 32.665 27.651 32.5401 27.7033L27.3993 29.8623C27.3367 29.8878 27.2697 29.9006 27.2021 29.8997Z" fill="#00C8FF"/>
<path d="M34.9949 23.3444C34.9271 23.344 34.8601 23.3301 34.7977 23.3036L30.8707 21.6444C30.8048 21.6216 30.7443 21.5855 30.693 21.5383C30.6416 21.4912 30.6005 21.434 30.5721 21.3703C30.5437 21.3066 30.5286 21.2378 30.5279 21.1681C30.5271 21.0984 30.5407 21.0293 30.5677 20.965C30.5947 20.9007 30.6346 20.8427 30.6849 20.7944C30.7353 20.7462 30.7949 20.7088 30.8603 20.6845C30.9257 20.6602 30.9953 20.6496 31.0649 20.6533C31.1346 20.657 31.2027 20.675 31.2651 20.706L35.1955 22.3652C35.2587 22.3912 35.316 22.4295 35.3641 22.478C35.4122 22.5265 35.4501 22.5842 35.4754 22.6476C35.5008 22.7111 35.5132 22.7789 35.5118 22.8472C35.5104 22.9155 35.4954 22.9829 35.4675 23.0452C35.4257 23.1352 35.359 23.2112 35.2752 23.2643C35.1914 23.3173 35.0941 23.3452 34.9949 23.3444Z" fill="#00C8FF"/>
<path d="M43.8828 27.0946C43.8151 27.0942 43.748 27.0803 43.6856 27.0538L34.798 23.3138C34.7339 23.2895 34.6752 23.2525 34.6257 23.205C34.5762 23.1574 34.5367 23.1004 34.5098 23.0373C34.4828 22.9742 34.4688 22.9063 34.4688 22.8376C34.4687 22.769 34.4824 22.701 34.5092 22.6379C34.536 22.5747 34.5753 22.5175 34.6247 22.4699C34.674 22.4222 34.7326 22.385 34.7967 22.3605C34.8608 22.336 34.9292 22.3247 34.9978 22.3273C35.0664 22.3298 35.1337 22.3462 35.1958 22.3754L44.0834 26.1154C44.1916 26.1615 44.2806 26.2436 44.3352 26.3477C44.3898 26.4519 44.4068 26.5717 44.3832 26.687C44.3596 26.8022 44.2969 26.9057 44.2057 26.98C44.1145 27.0543 44.0004 27.0948 43.8828 27.0946Z" fill="#00C8FF"/>
<path d="M27.2158 37.2403C27.1296 37.2401 27.0449 37.2181 26.9694 37.1766C26.894 37.135 26.8302 37.075 26.784 37.0023L24.064 32.7353C23.9958 32.6213 23.9748 32.4853 24.0054 32.3561C24.036 32.2268 24.1159 32.1147 24.2279 32.0434C24.3399 31.9721 24.4754 31.9473 24.6054 31.9743C24.7354 32.0013 24.8498 32.0779 24.9242 32.1879L27.6442 36.4549C27.6924 36.5321 27.7193 36.6208 27.7219 36.7118C27.7246 36.8028 27.7031 36.8929 27.6595 36.9728C27.6159 37.0527 27.5518 37.1196 27.4738 37.1666C27.3959 37.2137 27.3068 37.2391 27.2158 37.2403Z" fill="#00C8FF"/>
<path d="M21.7013 35.4416C21.6291 35.4419 21.5576 35.4266 21.4919 35.3966C21.4261 35.3667 21.3677 35.3229 21.3205 35.2682C21.2761 35.2183 21.242 35.1601 21.2202 35.0969C21.1984 35.0338 21.1892 34.967 21.1933 34.9003C21.1974 34.8336 21.2147 34.7684 21.2441 34.7084C21.2735 34.6484 21.3145 34.5949 21.3647 34.5508L24.1561 32.079C24.2575 31.9888 24.3907 31.9426 24.5262 31.9506C24.6616 31.9586 24.7884 32.02 24.8786 32.1215C24.9688 32.2229 25.015 32.356 25.007 32.4915C24.999 32.627 24.9375 32.7538 24.8361 32.844L22.0447 35.3124C21.9511 35.398 21.8281 35.4443 21.7013 35.4416Z" fill="#00C8FF"/>
<path d="M32.3602 27.7611C32.2876 27.7615 32.2158 27.7465 32.1494 27.7169L27.6682 25.7007C27.5534 25.6402 27.4659 25.5381 27.4237 25.4154C27.3815 25.2926 27.3877 25.1584 27.441 25.04C27.4943 24.9216 27.5908 24.8281 27.7107 24.7784C27.8306 24.7287 27.965 24.7266 28.0864 24.7725L32.554 26.7853C32.6597 26.8323 32.7463 26.9139 32.7996 27.0166C32.8528 27.1193 32.8695 27.2371 32.847 27.3506C32.8244 27.4641 32.764 27.5666 32.6755 27.6411C32.5871 27.7157 32.4759 27.758 32.3602 27.7611Z" fill="#00C8FF"/>
<path d="M41.8394 45.6281C40.8199 45.6308 39.8226 45.3311 38.9735 44.767C38.1243 44.2029 37.4616 43.3996 37.069 42.4588C36.6764 41.518 36.5715 40.4819 36.7678 39.4815C36.964 38.4811 37.4525 37.5614 38.1715 36.8387C38.8904 36.1159 39.8075 35.6226 40.8069 35.4211C41.8062 35.2195 42.8428 35.3189 43.7857 35.7065C44.7286 36.0941 45.5353 36.7527 46.1039 37.5988C46.6725 38.4449 46.9775 39.4407 46.9802 40.4601C46.982 41.8266 46.4418 43.138 45.4781 44.1068C44.5144 45.0756 43.2058 45.6227 41.8394 45.6281ZM41.8394 36.3393C41.0205 36.3366 40.2193 36.5772 39.5373 37.0304C38.8553 37.4837 38.3233 38.1292 38.0087 38.8853C37.6941 39.6413 37.6111 40.4737 37.7702 41.277C37.9293 42.0802 38.3233 42.8181 38.9023 43.3972C39.4814 43.9762 40.2193 44.3702 41.0225 44.5293C41.8258 44.6884 42.6582 44.6054 43.4142 44.2908C44.1702 43.9762 44.8158 43.4442 45.2691 42.7622C45.7223 42.0802 45.9629 41.279 45.9602 40.4601C45.9557 39.3686 45.5201 38.3231 44.7483 37.5512C43.9764 36.7794 42.9309 36.3438 41.8394 36.3393Z" fill="#00C8FF"/>
<path d="M41.2988 42.6428C41.1636 42.6443 41.0331 42.5931 40.935 42.5L39.1398 40.698C39.0497 40.6013 39.0007 40.4735 39.003 40.3413C39.0053 40.2092 39.0589 40.0831 39.1523 39.9897C39.2457 39.8963 39.3718 39.8427 39.5039 39.8404C39.6361 39.8381 39.7639 39.8871 39.8606 39.9772L41.6592 41.7792C41.7539 41.8753 41.807 42.0047 41.807 42.1396C41.807 42.2745 41.7539 42.404 41.6592 42.5C41.562 42.5923 41.4329 42.6434 41.2988 42.6428Z" fill="#00C8FF"/>
<path d="M41.2987 42.6429C41.1979 42.6418 41.0997 42.6112 41.0162 42.5547C40.9327 42.4982 40.8677 42.4184 40.8293 42.3252C40.7909 42.2321 40.7807 42.1297 40.8001 42.0307C40.8195 41.9318 40.8676 41.8408 40.9383 41.7691L43.9677 38.7397C44.0644 38.6496 44.1923 38.6005 44.3244 38.6029C44.4565 38.6052 44.5826 38.6587 44.676 38.7522C44.7695 38.8456 44.823 38.9717 44.8253 39.1038C44.8276 39.2359 44.7786 39.3638 44.6885 39.4605L41.6591 42.5001C41.5619 42.5923 41.4328 42.6435 41.2987 42.6429Z" fill="#00C8FF"/>
</svg>
