<svg width="64" height="64" viewBox="0 0 64 64" fill="none" xmlns="http://www.w3.org/2000/svg">
<path d="M0 32C0 14.3269 14.3269 0 32 0C49.6731 0 64 14.3269 64 32C64 49.6731 49.6731 64 32 64C14.3269 64 0 49.6731 0 32Z" fill="#DDF9FF"/>
<path d="M35.6665 20C36.8448 20 38.0107 20.2403 39.093 20.7062C40.1753 21.1721 41.1512 21.8538 41.9611 22.7096C42.7711 23.5655 43.3979 24.5775 43.8035 25.6838C44.209 26.7901 44.3847 27.9675 44.3198 29.144C44.3474 29.3481 44.3292 29.5558 44.2665 29.752C44.0802 31.2189 43.5223 32.6139 42.6456 33.8046C41.7689 34.9954 40.6026 35.9425 39.2572 36.556L39.9665 38.6827C40.0865 38.672 40.2087 38.6667 40.3332 38.6667C41.1243 38.6667 41.8977 38.9013 42.5554 39.3408C43.2132 39.7803 43.7259 40.405 44.0287 41.1359C44.3314 41.8668 44.4107 42.6711 44.2563 43.447C44.102 44.223 43.721 44.9357 43.1616 45.4951C42.6022 46.0545 41.8895 46.4355 41.1135 46.5898C40.3376 46.7442 39.5333 46.6649 38.8024 46.3622C38.0715 46.0594 37.4468 45.5467 37.0073 44.8889C36.5678 44.2312 36.3332 43.4578 36.3332 42.6667L36.3398 42.432C36.398 41.4405 36.8229 40.5062 37.5318 39.8107L36.6865 37.2733C36.3514 37.3133 36.0114 37.3333 35.6665 37.3333H32.0998C31.6136 37.3333 31.1354 37.2964 30.6652 37.2227L29.8012 39.8107C30.2718 40.2725 30.6211 40.8434 30.8178 41.4728C31.0144 42.1022 31.0525 42.7704 30.9285 43.418C30.8045 44.0657 30.5223 44.6726 30.1071 45.1848C29.6919 45.697 29.1565 46.0987 28.5485 46.354C27.9405 46.6093 27.2789 46.7103 26.6225 46.6481C25.966 46.5859 25.3351 46.3624 24.7859 45.9974C24.2368 45.6325 23.7863 45.1374 23.4747 44.5563C23.1631 43.9752 23 43.3261 22.9998 42.6667L23.0052 42.432C23.0365 41.8964 23.1753 41.3726 23.4133 40.8917C23.6512 40.4109 23.9835 39.9828 24.3903 39.633C24.7971 39.2832 25.2701 39.0188 25.7811 38.8555C26.2922 38.6922 26.8309 38.6335 27.3652 38.6827L28.1118 36.44C26.9714 35.9015 25.952 35.1374 25.1151 34.1939C24.2782 33.2505 23.6412 32.1472 23.2425 30.9507L21.3732 25.3333H18.9998C18.6733 25.3333 18.3581 25.2134 18.114 24.9964C17.87 24.7794 17.714 24.4803 17.6758 24.156L17.6665 24C17.6665 23.6464 17.807 23.3072 18.057 23.0572C18.3071 22.8071 18.6462 22.6667 18.9998 22.6667H22.3332C22.6131 22.6666 22.886 22.7547 23.1131 22.9183C23.3402 23.082 23.51 23.3131 23.5985 23.5787L25.0705 28H33.6665V21.3333C33.6665 20.9797 33.807 20.6406 34.057 20.3905C34.3071 20.1405 34.6462 20 34.9998 20H35.6665ZM26.9998 41.3333C26.6462 41.3333 26.3071 41.4738 26.057 41.7239C25.807 41.9739 25.6665 42.313 25.6665 42.6667C25.6665 43.0203 25.807 43.3594 26.057 43.6095C26.3071 43.8595 26.6462 44 26.9998 44C27.3535 44 27.6926 43.8595 27.9426 43.6095C28.1927 43.3594 28.3332 43.0203 28.3332 42.6667C28.3332 42.313 28.1927 41.9739 27.9426 41.7239C27.6926 41.4738 27.3535 41.3333 26.9998 41.3333ZM40.3332 41.3333C39.9795 41.3333 39.6404 41.4738 39.3904 41.7239C39.1403 41.9739 38.9998 42.313 38.9998 42.6667C38.9998 43.0203 39.1403 43.3594 39.3904 43.6095C39.6404 43.8595 39.9795 44 40.3332 44C40.6868 44 41.0259 43.8595 41.276 43.6095C41.526 43.3594 41.6665 43.0203 41.6665 42.6667C41.6665 42.313 41.526 41.9739 41.276 41.7239C41.0259 41.4738 40.6868 41.3333 40.3332 41.3333Z" fill="#00C8FF"/>
</svg>
