<svg width="64" height="64" viewBox="0 0 64 64" fill="none" xmlns="http://www.w3.org/2000/svg">
<path d="M0 32C0 14.3269 14.3269 0 32 0C49.6731 0 64 14.3269 64 32C64 49.6731 49.6731 64 32 64C14.3269 64 0 49.6731 0 32Z" fill="#DDF9FF"/>
<path d="M47.5871 33.7317H41.0236V28.1102C41.0236 27.7008 40.6917 27.3689 40.2823 27.3689H37.242V25.0264C37.242 24.6169 36.91 24.285 36.5007 24.285H32.9056V20.7413C32.9056 20.3319 32.5736 20 32.1643 20C31.7549 20 31.423 20.3319 31.423 20.7413V24.285H27.8278C27.4185 24.285 27.0865 24.6169 27.0865 25.0263V27.3689H24.0461C23.6367 27.3689 23.3048 27.7008 23.3048 28.1102V33.7317H16.7413C16.332 33.7317 16 34.0636 16 34.473V43.2345C16 43.644 16.332 43.9759 16.7413 43.9759H47.5871C47.9964 43.9759 48.3284 43.644 48.3284 43.2345V34.473C48.3284 34.0636 47.9964 33.7317 47.5871 33.7317ZM33.7022 42.4931H30.626V37.9986H33.7022V42.4931ZM28.5691 25.7677H35.7594V27.369H28.5691V25.7677ZM39.541 28.8516V42.4932H35.1849V37.2574C35.1849 36.848 34.8529 36.5161 34.4436 36.5161H29.8847C29.4754 36.5161 29.1434 36.848 29.1434 37.2574V42.4932H24.7874V28.8516H39.541ZM17.4826 35.2144H23.3048V42.4932H17.4826V35.2144ZM46.8458 42.4932H41.0236V35.2144H46.8458V42.4932Z" fill="#00C8FF"/>
<path d="M26.2833 31.614H38.0454C38.4547 31.614 38.7867 31.2821 38.7867 30.8727C38.7867 30.4632 38.4547 30.1313 38.0454 30.1313H26.2833C25.8739 30.1313 25.542 30.4632 25.542 30.8727C25.542 31.2821 25.8739 31.614 26.2833 31.614Z" fill="#00C8FF"/>
<path d="M26.2833 34.8095H38.0454C38.4547 34.8095 38.7867 34.4776 38.7867 34.0682C38.7867 33.6588 38.4547 33.3269 38.0454 33.3269H26.2833C25.8739 33.3269 25.542 33.6588 25.542 34.0682C25.542 34.4776 25.8739 34.8095 26.2833 34.8095Z" fill="#00C8FF"/>
<path d="M26.2833 38.0058H27.8015C28.2108 38.0058 28.5428 37.6739 28.5428 37.2645C28.5428 36.8551 28.2108 36.5232 27.8015 36.5232H26.2833C25.8739 36.5232 25.542 36.8551 25.542 37.2645C25.542 37.6739 25.8739 38.0058 26.2833 38.0058Z" fill="#00C8FF"/>
<path d="M38.0456 36.5232H36.5274C36.1181 36.5232 35.7861 36.8551 35.7861 37.2645C35.7861 37.6739 36.1181 38.0058 36.5274 38.0058H38.0456C38.4549 38.0058 38.7869 37.6739 38.7869 37.2645C38.7869 36.8551 38.4549 36.5232 38.0456 36.5232Z" fill="#00C8FF"/>
<path d="M43.1759 38.0058H44.6941C45.1034 38.0058 45.4354 37.6739 45.4354 37.2645C45.4354 36.8551 45.1034 36.5232 44.6941 36.5232H43.1759C42.7665 36.5232 42.4346 36.8551 42.4346 37.2645C42.4346 37.6739 42.7665 38.0058 43.1759 38.0058Z" fill="#00C8FF"/>
<path d="M26.2833 41.2014H27.8015C28.2108 41.2014 28.5428 40.8695 28.5428 40.4601C28.5428 40.0506 28.2108 39.7188 27.8015 39.7188H26.2833C25.8739 39.7188 25.542 40.0506 25.542 40.4601C25.542 40.8695 25.8739 41.2014 26.2833 41.2014Z" fill="#00C8FF"/>
<path d="M38.0456 39.7188H36.5274C36.1181 39.7188 35.7861 40.0506 35.7861 40.4601C35.7861 40.8695 36.1181 41.2014 36.5274 41.2014H38.0456C38.4549 41.2014 38.7869 40.8695 38.7869 40.4601C38.7869 40.0506 38.4549 39.7188 38.0456 39.7188Z" fill="#00C8FF"/>
<path d="M44.6941 39.7188H43.1759C42.7665 39.7188 42.4346 40.0506 42.4346 40.4601C42.4346 40.8695 42.7665 41.2014 43.1759 41.2014H44.6941C45.1034 41.2014 45.4354 40.8695 45.4354 40.4601C45.4354 40.0506 45.1035 39.7188 44.6941 39.7188Z" fill="#00C8FF"/>
<path d="M19.6349 38.0058H21.153C21.5623 38.0058 21.8943 37.6739 21.8943 37.2645C21.8943 36.8551 21.5623 36.5232 21.153 36.5232H19.6349C19.2255 36.5232 18.8936 36.8551 18.8936 37.2645C18.8936 37.6739 19.2255 38.0058 19.6349 38.0058Z" fill="#00C8FF"/>
<path d="M21.1531 39.7188H19.6349C19.2255 39.7188 18.8936 40.0506 18.8936 40.4601C18.8936 40.8695 19.2255 41.2014 19.6349 41.2014H21.153C21.5623 41.2014 21.8943 40.8695 21.8943 40.4601C21.8943 40.0506 21.5624 39.7188 21.1531 39.7188Z" fill="#00C8FF"/>
</svg>
