<svg width="64" height="65" viewBox="0 0 64 65" fill="none" xmlns="http://www.w3.org/2000/svg">
<path d="M0 32.5C0 14.8269 14.3269 0.5 32 0.5C49.6731 0.5 64 14.8269 64 32.5C64 50.1731 49.6731 64.5 32 64.5C14.3269 64.5 0 50.1731 0 32.5Z" fill="#DDF9FF"/>
<path fill-rule="evenodd" clip-rule="evenodd" d="M28.0781 21.5813C28.0781 20.394 29.047 19.432 30.2415 19.432C31.4361 19.432 32.405 20.394 32.405 21.5813C32.405 22.7687 31.4361 23.7306 30.2415 23.7306C29.047 23.7306 28.0781 22.7687 28.0781 21.5813ZM30.2415 18C28.2499 18 26.6359 19.6037 26.6359 21.5813C26.6359 21.9563 26.6939 22.3178 26.8015 22.6575H26.3713C26.0382 22.6575 25.6687 22.7912 25.3487 22.9579C25.0063 23.1363 24.6362 23.3964 24.2935 23.7364C23.6042 24.4201 23 25.4553 23 26.8178C23 28.4941 23.5599 29.7187 24.2523 30.5324C24.5948 30.935 24.9687 31.2356 25.3195 31.4395C25.4256 31.5011 25.5367 31.558 25.6502 31.6068V45.1136C25.6502 46.1528 26.5035 47 27.55 47L27.5527 46.9999H27.5613L27.5639 47C28.6104 47 29.4637 46.1528 29.4637 45.1136V37.4867H31.0862V45.1136C31.0862 46.1528 31.9395 47 32.986 47L32.9887 46.9999H32.9973L32.9999 47C34.0464 47 34.8997 46.1528 34.8997 45.1136V31.6991L35.0736 32.1938C35.318 32.8892 35.951 33.34 36.6467 33.3899C36.0602 33.7742 35.6733 34.4343 35.6733 35.1841V35.6614C35.6733 36.0569 35.9961 36.3774 36.3944 36.3774C36.7927 36.3774 37.1155 36.0569 37.1155 35.6614V35.1841C37.1155 34.7886 37.4384 34.4681 37.8366 34.4681C38.2349 34.4681 38.5578 34.7886 38.5578 35.1841V45.2081C38.5578 45.6036 38.8806 45.9241 39.2789 45.9241C39.6772 45.9241 40 45.6036 40 45.2081V35.1841C40 34.0049 39.043 33.0476 37.8581 33.0361C38.4695 32.5808 38.7431 31.7691 38.4779 31.0144L36.1321 24.3386C35.7784 23.3324 34.8224 22.6582 33.749 22.6582H33.6813C33.7891 22.3183 33.8472 21.9565 33.8472 21.5813C33.8472 19.6037 32.2332 18 30.2415 18ZM26.3713 24.0895H27.6679C28.3221 24.7518 29.2335 25.1626 30.2415 25.1626C31.2492 25.1626 32.1603 24.7521 32.8145 24.0903H33.749C34.2091 24.0903 34.6187 24.3792 34.7703 24.8104L37.1162 31.4861C37.1818 31.6728 37.0826 31.8769 36.8945 31.9421C36.7065 32.0072 36.5009 31.9087 36.4353 31.722L34.8595 27.2377L33.4575 27.4735V45.1136C33.4575 45.3619 33.25 45.568 32.9999 45.568L32.9973 45.5679H32.9887L32.986 45.568C32.736 45.568 32.5284 45.3619 32.5284 45.1136V36.7707V36.0547H31.8073H28.7426H28.0215V36.7707V45.1136C28.0215 45.3619 27.814 45.568 27.5639 45.568L27.5613 45.5679H27.5527L27.55 45.568C27.3 45.568 27.0924 45.3619 27.0924 45.1136V31.06V30.344H27.0903V26.592H25.6481V29.91C25.5508 29.8233 25.4516 29.723 25.3539 29.6083C24.8833 29.0552 24.4422 28.1586 24.4422 26.8178C24.4422 25.9064 24.8391 25.2194 25.3128 24.7495C25.5515 24.5127 25.8035 24.3381 26.0187 24.2259C26.2253 24.1184 26.3458 24.0948 26.3681 24.0904C26.3714 24.0898 26.3713 24.0895 26.3713 24.0895Z" fill="#00C8FF"/>
</svg>
