<svg width="64" height="64" viewBox="0 0 64 64" fill="none" xmlns="http://www.w3.org/2000/svg">
<path d="M0 32C0 14.3269 14.3269 0 32 0C49.6731 0 64 14.3269 64 32C64 49.6731 49.6731 64 32 64C14.3269 64 0 49.6731 0 32Z" fill="#DDF9FF"/>
<path d="M42.7232 20.0021C42.2879 20.0321 41.8865 20.3118 41.7476 20.768V20.783C41.7439 20.7943 41.7401 20.8055 41.7326 20.813L36.3895 34.7042C35.4215 35.119 34.0688 35.8192 32.8925 36.8066C31.6393 37.8579 30.5662 39.2488 30.5662 40.9665C30.5662 41.7023 30.8382 42.4907 31.4667 43.0689C32.0952 43.6471 33.0539 44 34.3634 44H43.5337C43.7738 43.9925 43.9708 43.8104 43.9971 43.572C44.0233 43.3336 43.8714 43.114 43.6387 43.0539C43.6387 43.0539 41.9277 42.6578 40.5319 41.5672C39.834 41.0228 39.2262 40.3188 38.926 39.4197C38.6258 38.5205 38.6127 37.4092 39.1811 35.9657C39.1811 35.9563 39.1811 35.945 39.1811 35.9356L43.9239 21.5489L43.9389 21.5189H43.9239C44.1528 20.9369 43.8395 20.2968 43.2335 20.0922L43.2485 20.0622C43.2335 20.0565 43.2185 20.0678 43.2035 20.0622C43.1885 20.0584 43.1885 20.0359 43.1735 20.0321L43.1584 20.0622C43.014 20.0152 42.8677 19.9927 42.7232 20.0021ZM42.8583 20.9482C42.8827 20.9557 42.9071 20.9595 42.9333 20.9632C43.0252 20.9857 43.0628 21.1171 43.0384 21.1735C43.0327 21.1885 43.0271 21.2035 43.0234 21.2185L38.4307 35.1697L37.3801 34.7793L42.6331 21.0984C42.6388 21.0834 42.6444 21.0683 42.6482 21.0533C42.6707 20.9613 42.802 20.9238 42.8583 20.9482ZM27.7295 21.9393C26.2399 21.9393 24.8985 22.7165 24.0824 23.9667C23.7935 23.9667 23.6021 24.0061 23.362 24.1019L24.0374 24.8678C24.1819 24.8189 24.2682 24.8265 24.4126 24.7776H24.6528L24.7578 24.5824C25.3338 23.5256 26.4838 22.8554 27.6845 22.8554C29.221 22.8554 30.5718 23.9179 30.9564 25.4084L31.0464 25.7838H31.5267C32.4385 25.7838 33.1627 26.4089 33.4028 27.2255H34.4084C34.1683 25.9284 33.1083 24.9184 31.8119 24.8227C31.1872 23.0919 29.6019 21.9393 27.7295 21.9393ZM20.9156 22.8404C20.895 22.8441 20.8743 22.8498 20.8556 22.8554C20.6905 22.8892 20.5535 23.0093 20.4991 23.1689C20.4428 23.3285 20.4766 23.5068 20.5854 23.6363L21.8912 25.2282C21.4315 25.7782 21.107 26.439 21.0056 27.1804H21.9662C22.0506 26.7262 22.2345 26.3057 22.4915 25.949L23.9023 27.661H20.4803C20.3359 27.661 20.1858 27.7154 20.0901 27.8112C19.9944 27.9557 20.0001 28.0871 20.0001 28.2317L22.4015 43.6095C22.4502 43.801 22.6416 44 22.8817 44H32.007C31.4779 43.7597 31.0952 43.4237 30.8063 43.0389H23.317L21.0507 28.6221H24.6828L26.784 31.1751C26.7427 31.2765 26.7239 31.3853 26.7239 31.5055C26.7239 32.0348 27.1554 32.4666 27.6845 32.4666C28.2136 32.4666 28.6451 32.0348 28.6451 31.5055C28.6451 30.9761 28.2136 30.5444 27.6845 30.5444C27.6338 30.5444 27.5832 30.55 27.5344 30.5594L21.3358 23.0356C21.3265 23.0244 21.3171 23.015 21.3058 23.0056C21.2964 22.9906 21.2871 22.9756 21.2758 22.9605C21.2477 22.9418 21.2176 22.9267 21.1857 22.9155C21.1764 22.9042 21.167 22.8948 21.1557 22.8854C21.1276 22.8723 21.0957 22.8629 21.0657 22.8554C21.0169 22.8423 20.9662 22.8366 20.9156 22.8404ZM26.2887 27.661L27.0541 28.6221H34.3183L33.1627 35.9807C33.5473 35.6916 33.8737 35.4513 34.2583 35.2598L35.3689 28.2317C35.3689 28.0871 35.3746 27.952 35.2789 27.8562C35.1832 27.7117 35.0331 27.661 34.8887 27.661H26.2887ZM36.7798 35.5752L38.1155 36.0708C37.654 37.4787 37.6728 38.7082 38.0105 39.72C38.3857 40.8445 39.1286 41.6911 39.9316 42.318C40.3762 42.6653 40.7965 42.8117 41.2373 43.0389H38.896C37.7047 42.885 37.17 42.4401 36.8998 41.9576C36.6297 41.4752 36.6297 40.8858 36.7497 40.4258C36.7948 40.2738 36.7629 40.1105 36.6634 39.9885C36.564 39.8646 36.412 39.7989 36.2545 39.8101C36.0425 39.8251 35.8661 39.9772 35.8192 40.1856C35.6504 40.8313 35.6316 41.6723 36.0593 42.4382C36.1794 42.6559 36.3445 42.853 36.5396 43.0389H36.2394C35.2658 43.0389 34.6861 42.8155 34.3634 42.5433C34.0407 42.2711 33.9037 41.9276 33.8981 41.4771C33.8887 40.5741 34.536 39.3427 35.1438 38.7139C35.292 38.5731 35.3333 38.3534 35.2489 38.1676C35.1645 37.9818 34.9712 37.8691 34.7686 37.8879C34.6485 37.8973 34.536 37.9498 34.4534 38.0381C33.6673 38.8509 32.9225 40.1837 32.9375 41.4921C32.9432 42.0046 33.097 42.5339 33.4328 42.9638C32.8212 42.853 32.401 42.6278 32.1121 42.3631C31.6974 41.9802 31.5267 41.4808 31.5267 40.9665C31.5267 39.6562 32.371 38.498 33.5079 37.5425C34.5829 36.6396 35.8792 35.96 36.7798 35.5752Z" fill="#00C8FF"/>
</svg>
