<svg width="64" height="64" viewBox="0 0 64 64" fill="none" xmlns="http://www.w3.org/2000/svg">
<path d="M0 32C0 14.3269 14.3269 0 32 0C49.6731 0 64 14.3269 64 32C64 49.6731 49.6731 64 32 64C14.3269 64 0 49.6731 0 32Z" fill="#DDF9FF"/>
<g clip-path="url(#clip0_488_3001)">
<path d="M32.0797 23.3799C27.1354 23.3799 23.1265 27.3888 23.1265 32.3332C23.1265 37.2775 27.1354 41.2864 32.0797 41.2864C37.0247 41.2864 41.033 37.2775 41.033 32.3332C41.033 27.3888 37.0247 23.3799 32.0797 23.3799ZM32.0797 39.4756C28.1416 39.4756 24.9373 36.2713 24.9373 32.3332C24.9373 28.395 28.1416 25.1907 32.0797 25.1907C36.0179 25.1907 39.2222 28.395 39.2222 32.3332C39.2222 36.2713 36.0179 39.4756 32.0797 39.4756Z" fill="#00C8FF"/>
<path d="M18.254 27.2701C17.1712 31.0002 16.9425 33.3521 16.9425 33.3521C16.9425 33.3521 16.8246 34.7833 17.1818 34.7833C17.5384 34.7833 18.4225 34.7833 18.4225 34.7833V39.9706C18.4225 40.53 18.8771 40.9844 19.4364 40.9844H20.2221C20.7815 40.9844 21.236 40.53 21.236 39.9706V25.2412C21.2361 23.81 19.3274 23.5725 18.254 27.2701Z" fill="#00C8FF"/>
<path d="M47.1446 24.4465H47.1423C46.8021 24.4465 46.768 24.7224 46.768 25.0625V28.9889H45.7818V25.0625C45.7818 24.7224 45.506 24.4465 45.1658 24.4465C44.8257 24.4465 44.5498 24.7224 44.5498 25.0625V28.9889H43.3921V25.0625C43.3921 24.7224 43.358 24.4465 43.0178 24.4465H43.0155C42.5433 24.4465 42.1602 24.8297 42.1602 25.3019V28.9889C42.1602 30.5734 42.5734 30.9989 42.9901 31.4157C43.4428 31.8684 43.6733 32.0193 43.6733 32.5474C43.6733 33.0756 43.6733 34.7832 43.6733 34.7832V39.9705C43.6733 40.5299 44.1278 40.9843 44.6871 40.9843H45.4729C46.0323 40.9843 46.4868 40.5299 46.4868 39.9705V32.5474C46.4868 32.0192 46.7172 31.8683 47.1699 31.4157C47.5867 30.9989 47.9999 30.5734 47.9999 28.9889V25.3019C47.9999 24.8297 47.6168 24.4465 47.1446 24.4465Z" fill="#00C8FF"/>
</g>
<defs>
<clipPath id="clip0_488_3001">
<rect x="16" y="16" width="32" height="32" rx="5" fill="white"/>
</clipPath>
</defs>
</svg>
