<svg width="64" height="64" viewBox="0 0 64 64" fill="none" xmlns="http://www.w3.org/2000/svg">
<path d="M0 32C0 14.3269 14.3269 0 32 0C49.6731 0 64 14.3269 64 32C64 49.6731 49.6731 64 32 64C14.3269 64 0 49.6731 0 32Z" fill="#DDF9FF"/>
<path d="M32.6804 49.344C33.127 36.95 28.2649 32.7706 24.4268 30.1765C25.3629 25.4687 28.7234 22.9248 28.7234 22.9248" stroke="#00C8FF" stroke-width="2" stroke-linecap="round" stroke-linejoin="round"/>
<path d="M31.8689 22.3943C31.8689 22.3943 30.3067 24.9884 28.9026 25.0424C28.9026 25.0424 28.4462 20.3046 28.6218 19.3498C29.7627 17.9808 32.22 17.6565 33.6242 17.6565C35.0284 17.6565 36.1518 18.6293 36.3449 20.755C37.6788 20.773 38.9426 21.4035 39.2059 21.9979C39.1181 23.5111 37.9246 24.2858 36.7661 24.7361C35.6076 25.1865 34.6598 25.9251 34.6598 26.6457C34.6598 27.3663 34.9757 30.0864 36.9416 30.4647C38.9075 30.843 42.0143 31.8338 42.0143 35.0944C42.0143 38.3551 40.9436 37.8146 40.9436 41.0092C40.9436 44.2038 41.2712 43.4832 41.2712 45.1165C41.2712 46.7498 40.7563 48.191 40.2415 49.1517" stroke="#00C8FF" stroke-width="2" stroke-linecap="round" stroke-linejoin="round"/>
<path d="M37.5973 48.8633C37.5973 48.8633 38.1825 46.0771 38.1825 44.7561C38.1825 43.435 37.0887 41.718 35.9357 40.2284C34.9411 38.9434 32.3465 40.0629 32.441 43.4" stroke="#00C8FF" stroke-width="2" stroke-linecap="round" stroke-linejoin="round"/>
<path d="M40.5977 31.9902C43.2138 32.266 45.0393 29.9121 43.4946 27.0779" stroke="#00C8FF" stroke-width="2" stroke-linecap="round" stroke-linejoin="round"/>
<path d="M24.427 30.1765C24.5908 30.9211 24.7254 32.4103 24.7254 32.4103C23.8297 32.4103 23.0164 33.1885 22.5074 33.5308C21.4687 34.2293 20.3812 34.464 20.4192 35.725C20.7936 36.7338 22.4728 36.8479 23.6898 36.8239L23.6634 37.5265C22.451 38.7157 20.1616 41.3822 20.1616 44.6602C20.1616 48.4793 22.8823 49.1518 24.4269 49.1518C25.9715 49.1518 33.6739 45.1556 31.1472 38.175" stroke="#00C8FF" stroke-width="2" stroke-linecap="round" stroke-linejoin="round"/>
<path d="M18.1019 38.4871C18.8273 38.5591 19.6231 38.6792 19.6231 39.8561C19.6231 41.033 17.938 42.1379 17.938 44.9002C17.938 47.6625 19.7459 49.1516 24.4266 49.1516" stroke="#00C8FF" stroke-width="2" stroke-linecap="round" stroke-linejoin="round"/>
<path d="M41.1992 44.1037C40.757 42.3301 38.7442 40.3845 38.1825 40.0963C37.6208 39.8081 37.5883 42.7256 37.9966 43.7108" stroke="#00C8FF" stroke-width="2" stroke-linecap="round" stroke-linejoin="round"/>
</svg>
