<svg width="64" height="64" viewBox="0 0 64 64" fill="none" xmlns="http://www.w3.org/2000/svg">
<path d="M0 32C0 14.3269 14.3269 0 32 0C49.6731 0 64 14.3269 64 32C64 49.6731 49.6731 64 32 64C14.3269 64 0 49.6731 0 32Z" fill="#DDF9FF"/>
<path fill-rule="evenodd" clip-rule="evenodd" d="M29.0307 16C28.9814 15.9999 28.9323 16.0062 28.8847 16.0188L25.6035 16.898C25.3015 16.979 25.1223 17.2894 25.2032 17.5914L25.4963 18.6851C25.7678 19.6983 26.699 20.3699 27.7047 20.3627L30.3611 30.2781L29.8147 30.4241C29.5123 30.5046 29.3325 30.8151 29.4133 31.1175L29.7075 32.2123L28.0663 32.6514C27.7644 32.7323 27.5852 33.0427 27.666 33.3447L28.3815 36.0177C27.7811 36.1063 27.2029 36.3062 26.6508 36.5673C26.3791 34.6462 24.7884 33.1357 22.7946 33.1357C20.7453 33.1369 19.0999 34.7269 18.9041 36.7299C17.1337 37.7273 16.0031 39.5807 16 41.6278C16 41.6282 16 41.6286 16 41.629C16 44.7494 18.5417 47.2911 21.6621 47.2911C21.6636 47.2911 21.6651 47.2911 21.6666 47.2911C22.2338 47.2871 22.7908 47.1703 23.3309 46.9991C23.8823 47.1716 24.4611 47.2889 25.0572 47.2911C25.0583 47.2911 25.0594 47.2911 25.0606 47.2911C25.7642 47.2905 26.4403 47.1291 27.0722 46.893C27.6976 47.1274 28.3505 47.2876 29.0196 47.2911C29.0211 47.2911 29.0226 47.2911 29.024 47.2911C30.0205 47.29 30.9817 46.9927 31.8407 46.4949C32.9705 47.0014 34.3522 47.2908 35.8175 47.2911C35.8179 47.2911 35.8183 47.2911 35.8186 47.2911C37.1432 47.2888 38.4047 47.0497 39.4758 46.6298C40.2717 47.0422 41.1447 47.2869 42.0437 47.2911C42.0444 47.2911 42.0451 47.2911 42.0459 47.2911C45.1663 47.2911 47.708 44.7494 47.708 41.629C47.708 38.5085 45.1663 35.9668 42.0459 35.9668C42.0451 35.9668 42.0444 35.9668 42.0437 35.9668C41.3957 35.9691 40.7684 36.1406 40.1603 36.3594C39.1217 35.4139 37.7967 34.8349 36.3837 34.8344C36.3833 34.8344 36.383 34.8344 36.3826 34.8344C36.3455 34.8344 36.3089 34.8366 36.272 34.8378L35.3231 31.2934C35.2638 31.0721 35.077 30.9085 34.8498 30.8787C34.7762 30.869 34.7015 30.8741 34.6298 30.8931L32.9886 31.3332L32.6956 30.2384C32.6146 29.9364 32.3042 29.7572 32.0022 29.838L31.4548 29.9852L28.7984 20.0697C29.673 19.573 30.1437 18.5261 29.8722 17.5129L29.5781 16.4192C29.5115 16.1717 29.287 15.9997 29.0307 16ZM28.6314 17.2596L28.7774 17.8059C28.941 18.4165 28.5874 19.0291 27.9768 19.1927C27.3662 19.3563 26.7536 19.0026 26.59 18.392L26.444 17.8457L28.6314 17.2596ZM31.7478 31.0788L32.188 32.7188C32.2707 33.0273 32.0962 33.3295 31.7877 33.4122C31.4791 33.4949 31.1769 33.3204 31.0943 33.0119L30.6552 31.3718C31.0192 31.2734 31.3835 31.1761 31.7478 31.0788ZM34.3754 32.1338L35.1385 34.9815C33.9334 35.2664 32.8527 35.9533 32.0531 36.9234C31.2922 36.4341 30.4446 36.0982 29.5504 36L28.9068 33.5991L30.0005 33.306C30.242 34.2051 31.1814 34.7469 32.0807 34.5059C32.98 34.265 33.5221 33.3262 33.2817 32.4269L34.3754 32.1338ZM22.7946 34.2682C24.3636 34.2682 25.6226 35.5273 25.6245 37.0959C25.6222 37.1828 25.6172 37.2695 25.6068 37.3558C25.5939 37.4638 25.6123 37.5732 25.6599 37.671C25.7075 37.7688 25.7822 37.8508 25.8752 37.9073C25.9681 37.9637 26.0754 37.9923 26.1841 37.9894C26.2928 37.9865 26.3984 37.9523 26.4882 37.891C27.2352 37.3799 28.1178 37.1038 29.0229 37.0992C30.0417 37.0998 31.0294 37.444 31.8286 38.0757C31.8896 38.124 31.9599 38.1591 32.0351 38.179C32.1104 38.1988 32.1889 38.203 32.2657 38.1911C32.3426 38.1793 32.4163 38.1517 32.482 38.1102C32.5478 38.0686 32.6043 38.014 32.648 37.9497C33.4896 36.7119 34.887 35.9703 36.3837 35.9668C37.6097 35.9673 38.782 36.4641 39.635 37.3447C39.715 37.4274 39.8183 37.4837 39.9311 37.5063C40.0439 37.5288 40.1609 37.5164 40.2665 37.4708C40.8283 37.228 41.4338 37.1016 42.0459 37.0992C44.5543 37.0992 46.5756 39.1206 46.5756 41.629C46.5756 44.1366 44.5554 46.1574 42.0481 46.1587C41.2549 46.1553 40.4765 45.9427 39.791 45.5438C39.7144 45.4994 39.6285 45.4736 39.5402 45.4684C39.4518 45.4632 39.3635 45.4788 39.2823 45.514C38.3495 45.9179 37.105 46.1565 35.8175 46.1587C34.3881 46.1584 33.0173 45.8645 32.063 45.3857C31.9743 45.3413 31.8756 45.321 31.7766 45.3269C31.6776 45.3327 31.5819 45.3644 31.499 45.4188C30.7636 45.9004 29.9031 46.1572 29.024 46.1587C28.4308 46.1553 27.8436 46.0355 27.2966 45.8059C27.2269 45.7767 27.152 45.7617 27.0765 45.7619C27.0009 45.7621 26.9261 45.7775 26.8565 45.807C26.3232 46.0333 25.6984 46.1576 25.0616 46.1587C24.5218 46.157 23.9897 46.0662 23.5145 45.8988C23.3925 45.8557 23.2594 45.8557 23.1374 45.8988C22.6628 46.0667 22.1633 46.1549 21.6599 46.1587C19.153 46.1574 17.133 44.1372 17.1324 41.6301V41.629C17.1354 39.909 18.1094 38.3418 19.6505 37.5781C19.7445 37.5316 19.8237 37.4599 19.8794 37.3711C19.935 37.2823 19.9649 37.1797 19.9657 37.0749C19.9789 35.5149 21.2345 34.2691 22.7946 34.2682Z" fill="#00C8FF"/>
<path fill-rule="evenodd" clip-rule="evenodd" d="M41.4798 32.0034C41.3296 32.0034 41.1856 32.0631 41.0794 32.1693C40.9732 32.2755 40.9136 32.4195 40.9136 32.5696C40.9136 32.7198 40.9732 32.8638 41.0794 32.97C41.1856 33.0762 41.3296 33.1358 41.4798 33.1358C41.63 33.1358 41.774 33.0762 41.8802 32.97C41.9863 32.8638 42.046 32.7198 42.046 32.5696C42.046 32.4195 41.9863 32.2755 41.8802 32.1693C41.774 32.0631 41.63 32.0034 41.4798 32.0034Z" fill="#00C8FF"/>
<path fill-rule="evenodd" clip-rule="evenodd" d="M46.5755 16.1494C46.4253 16.1494 46.2813 16.2091 46.1751 16.3153C46.0689 16.4214 46.0093 16.5655 46.0093 16.7156C46.0093 16.8658 46.0689 17.0098 46.1751 17.116C46.2813 17.2222 46.4253 17.2818 46.5755 17.2818C46.7257 17.2818 46.8697 17.2222 46.9759 17.116C47.0821 17.0098 47.1417 16.8658 47.1417 16.7156C47.1417 16.5655 47.0821 16.4214 46.9759 16.3153C46.8697 16.2091 46.7257 16.1494 46.5755 16.1494Z" fill="#00C8FF"/>
<path fill-rule="evenodd" clip-rule="evenodd" d="M43.1883 24.4446C43.0821 24.5508 43.0225 24.6948 43.0225 24.845C43.0225 24.9951 43.0821 25.1391 43.1883 25.2453L43.9889 26.0459C44.0415 26.0987 44.104 26.1405 44.1728 26.169C44.2416 26.1976 44.3153 26.2123 44.3898 26.2123C44.4643 26.2123 44.538 26.1976 44.6068 26.169C44.6756 26.1405 44.7381 26.0987 44.7907 26.0459C44.8968 25.9398 44.9565 25.7958 44.9565 25.6456C44.9565 25.4955 44.8968 25.3515 44.7907 25.2453L43.9889 24.4446C43.8827 24.3385 43.7387 24.2788 43.5886 24.2788C43.4384 24.2788 43.2944 24.3385 43.1883 24.4446Z" fill="#00C8FF"/>
<path fill-rule="evenodd" clip-rule="evenodd" d="M40.7864 22.043C40.6802 22.1492 40.6206 22.2932 40.6206 22.4433C40.6206 22.5935 40.6802 22.7375 40.7864 22.8437L41.5871 23.6443C41.6932 23.7505 41.8372 23.8102 41.9874 23.8102C42.1375 23.8102 42.2815 23.7505 42.3877 23.6443C42.4939 23.5382 42.5535 23.3942 42.5535 23.244C42.5535 23.0939 42.4939 22.9499 42.3877 22.8437L41.5871 22.043C41.4809 21.9369 41.3369 21.8772 41.1867 21.8772C41.0366 21.8772 40.8926 21.9369 40.7864 22.043Z" fill="#00C8FF"/>
<path fill-rule="evenodd" clip-rule="evenodd" d="M41.5871 24.4446L40.7864 25.2453C40.6802 25.3515 40.6206 25.4955 40.6206 25.6456C40.6206 25.7958 40.6802 25.9398 40.7864 26.0459C40.8926 26.1521 41.0366 26.2118 41.1867 26.2118C41.3369 26.2118 41.4809 26.1521 41.5871 26.0459L42.3877 25.2453C42.4939 25.1391 42.5535 24.9951 42.5535 24.845C42.5535 24.6948 42.4939 24.5508 42.3877 24.4446C42.2815 24.3385 42.1375 24.2788 41.9874 24.2788C41.8372 24.2788 41.6932 24.3385 41.5871 24.4446Z" fill="#00C8FF"/>
<path fill-rule="evenodd" clip-rule="evenodd" d="M43.9889 22.0428L43.1883 22.8435C43.0821 22.9497 43.0225 23.0937 43.0225 23.2438C43.0225 23.394 43.0821 23.538 43.1883 23.6442C43.2944 23.7503 43.4384 23.81 43.5886 23.81C43.7387 23.81 43.8827 23.7503 43.9889 23.6442L44.7907 22.8435C44.8968 22.7373 44.9565 22.5933 44.9565 22.4432C44.9565 22.293 44.8968 22.149 44.7907 22.0428C44.7381 21.9901 44.6756 21.9483 44.6068 21.9197C44.538 21.8912 44.4643 21.8765 44.3898 21.8765C44.3153 21.8765 44.2416 21.8912 44.1728 21.9197C44.104 21.9483 44.0415 21.9901 43.9889 22.0428Z" fill="#00C8FF"/>
<path fill-rule="evenodd" clip-rule="evenodd" d="M36.95 17.8481C36.7998 17.8481 36.6558 17.9078 36.5496 18.014C36.4434 18.1202 36.3838 18.2642 36.3838 18.4144C36.3838 18.5645 36.4434 18.7085 36.5496 18.8147C36.6558 18.9209 36.7998 18.9806 36.95 18.9806C37.1002 18.9806 37.2442 18.9209 37.3504 18.8147C37.4566 18.7085 37.5162 18.5645 37.5162 18.4144C37.5162 18.2642 37.4566 18.1202 37.3504 18.014C37.2442 17.9078 37.1002 17.8481 36.95 17.8481Z" fill="#00C8FF"/>
<path fill-rule="evenodd" clip-rule="evenodd" d="M25.6258 26.3413C25.4756 26.3413 25.3316 26.401 25.2254 26.5072C25.1192 26.6133 25.0596 26.7574 25.0596 26.9075C25.0596 27.0577 25.1192 27.2017 25.2254 27.3079C25.3316 27.4141 25.4756 27.4737 25.6258 27.4737C25.776 27.4737 25.92 27.4141 26.0262 27.3079C26.1323 27.2017 26.192 27.0577 26.192 26.9075C26.192 26.7574 26.1323 26.6133 26.0262 26.5072C25.92 26.401 25.776 26.3413 25.6258 26.3413Z" fill="#00C8FF"/>
<path fill-rule="evenodd" clip-rule="evenodd" d="M17.1326 32.0034C16.9825 32.0034 16.8384 32.0631 16.7322 32.1693C16.6261 32.2755 16.5664 32.4195 16.5664 32.5696C16.5664 32.7198 16.6261 32.8638 16.7322 32.97C16.8384 33.0762 16.9825 33.1358 17.1326 33.1358C17.2828 33.1358 17.4268 33.0762 17.533 32.97C17.6392 32.8638 17.6988 32.7198 17.6988 32.5696C17.6988 32.4195 17.6392 32.2755 17.533 32.1693C17.4268 32.0631 17.2828 32.0034 17.1326 32.0034Z" fill="#00C8FF"/>
<path fill-rule="evenodd" clip-rule="evenodd" d="M37.9198 38.7173C37.1417 38.7173 36.3637 39.0127 35.7733 39.6031C35.3139 40.0624 35.0296 40.6372 34.9272 41.2343C34.9145 41.3076 34.9164 41.3828 34.9328 41.4554C34.9492 41.528 34.9797 41.5967 35.0226 41.6575C35.0656 41.7183 35.1201 41.77 35.183 41.8098C35.246 41.8495 35.3161 41.8764 35.3895 41.889C35.4629 41.9015 35.5379 41.8994 35.6105 41.8829C35.6831 41.8664 35.7516 41.8358 35.8123 41.7928C35.873 41.7497 35.9247 41.6951 35.9643 41.6321C36.0038 41.5691 36.0306 41.499 36.0431 41.4256C36.1073 41.0508 36.2829 40.6947 36.5739 40.4038C37.322 39.6557 38.5176 39.6557 39.2656 40.4038C39.3718 40.5099 39.5158 40.5696 39.666 40.5696C39.8161 40.5696 39.9601 40.5099 40.0663 40.4038C40.1725 40.2976 40.2321 40.1536 40.2321 40.0034C40.2321 39.8533 40.1725 39.7093 40.0663 39.6031C39.4759 39.0127 38.6979 38.7173 37.9198 38.7173Z" fill="#00C8FF"/>
<path fill-rule="evenodd" clip-rule="evenodd" d="M22.9627 38.2938C22.3595 38.2382 21.7304 38.3627 21.1678 38.6875C19.7216 39.5225 19.2226 41.3884 20.0575 42.8346C20.1327 42.9645 20.2563 43.0592 20.4012 43.0979C20.5462 43.1367 20.7006 43.1164 20.8305 43.0414C20.9604 42.9662 21.0551 42.8426 21.0939 42.6977C21.1327 42.5527 21.1123 42.3983 21.0373 42.2684C20.5084 41.3522 20.8179 40.1974 21.7341 39.6684C22.0904 39.4627 22.48 39.3858 22.8587 39.4207C22.9328 39.4276 23.0075 39.4198 23.0786 39.3977C23.1496 39.3757 23.2156 39.3399 23.2728 39.2923C23.33 39.2448 23.3773 39.1864 23.4119 39.1206C23.4466 39.0548 23.4679 38.9828 23.4747 38.9087C23.4882 38.7593 23.4419 38.6106 23.3459 38.4953C23.2499 38.3801 23.1121 38.3076 22.9627 38.2938Z" fill="#00C8FF"/>
<path fill-rule="evenodd" clip-rule="evenodd" d="M32.1094 41.0963C32.043 41.0628 31.9707 41.0426 31.8965 41.037C31.8224 41.0314 31.7478 41.0404 31.6772 41.0637C31.6065 41.0869 31.5411 41.1238 31.4848 41.1723C31.4284 41.2208 31.3821 41.2799 31.3485 41.3462C30.3586 43.3041 28.0574 43.0128 28.0574 43.0128C27.9084 42.9954 27.7586 43.0377 27.6409 43.1306C27.5231 43.2235 27.447 43.3593 27.4293 43.5083C27.4205 43.5821 27.4263 43.657 27.4464 43.7286C27.4666 43.8002 27.5006 43.8671 27.5466 43.9255C27.5926 43.984 27.6497 44.0327 27.7146 44.0691C27.7795 44.1055 27.8509 44.1287 27.9247 44.1375C27.9247 44.1375 31.0304 44.4854 32.3593 41.8572C32.3929 41.7908 32.413 41.7185 32.4186 41.6443C32.4242 41.5702 32.4152 41.4956 32.392 41.425C32.3687 41.3543 32.3318 41.2889 32.2834 41.2325C32.2349 41.1762 32.1758 41.1299 32.1094 41.0963Z" fill="#00C8FF"/>
<path fill-rule="evenodd" clip-rule="evenodd" d="M25.3255 41.7681C25.1753 41.7681 25.0313 41.8277 24.9251 41.9339C24.8189 42.0401 24.7593 42.1841 24.7593 42.3343C24.7593 42.4845 24.8189 42.6285 24.9251 42.7346C25.0313 42.8408 25.1753 42.9005 25.3255 42.9005C25.4757 42.9005 25.6197 42.8408 25.7259 42.7346C25.8321 42.6285 25.8917 42.4845 25.8917 42.3343C25.8917 42.1841 25.8321 42.0401 25.7259 41.9339C25.6197 41.8277 25.4757 41.7681 25.3255 41.7681Z" fill="#00C8FF"/>
<path fill-rule="evenodd" clip-rule="evenodd" d="M43.7791 41.5112C43.6289 41.5112 43.4849 41.5709 43.3787 41.6771C43.2725 41.7833 43.2129 41.9273 43.2129 42.0774C43.2129 42.2276 43.2725 42.3716 43.3787 42.4778C43.4849 42.584 43.6289 42.6437 43.7791 42.6437C43.9293 42.6437 44.0733 42.584 44.1795 42.4778C44.2857 42.3716 44.3453 42.2276 44.3453 42.0774C44.3453 41.9273 44.2857 41.7833 44.1795 41.6771C44.0733 41.5709 43.9293 41.5112 43.7791 41.5112Z" fill="#00C8FF"/>
<path fill-rule="evenodd" clip-rule="evenodd" d="M21.5119 18.306C21.3669 18.2676 21.2126 18.2883 21.0828 18.3635L20.1019 18.9297C19.9721 19.0049 19.8773 19.1285 19.8386 19.2734C19.7998 19.4184 19.8201 19.5728 19.8951 19.7027C19.9703 19.8326 20.0939 19.9273 20.2388 19.9661C20.3838 20.0049 20.5382 19.9845 20.6681 19.9095L21.6491 19.3433C21.7789 19.2682 21.8736 19.1445 21.9124 18.9996C21.9512 18.8547 21.9308 18.7003 21.8559 18.5703C21.8187 18.5058 21.7692 18.4493 21.7102 18.4039C21.6512 18.3586 21.5838 18.3253 21.5119 18.306Z" fill="#00C8FF"/>
<path fill-rule="evenodd" clip-rule="evenodd" d="M18.1413 20.0621L17.1604 20.6283C17.0303 20.7033 16.9354 20.8268 16.8964 20.9718C16.8574 21.1168 16.8776 21.2712 16.9525 21.4013C16.9897 21.4658 17.0392 21.5223 17.0983 21.5675C17.1573 21.6128 17.2247 21.646 17.2966 21.6652C17.3685 21.6844 17.4435 21.6893 17.5173 21.6795C17.5911 21.6697 17.6622 21.6454 17.7266 21.6081L18.7075 21.0419C18.8374 20.9668 18.9321 20.8431 18.9708 20.6982C19.0096 20.5533 18.9893 20.3989 18.9143 20.2689C18.8391 20.1391 18.7155 20.0443 18.5706 20.0056C18.4256 19.9668 18.2712 19.9871 18.1413 20.0621Z" fill="#00C8FF"/>
<path fill-rule="evenodd" clip-rule="evenodd" d="M19.6869 20.4759C19.6224 20.5131 19.5659 20.5627 19.5207 20.6217C19.4754 20.6808 19.4422 20.7482 19.423 20.8201C19.4038 20.892 19.3989 20.967 19.4087 21.0407C19.4185 21.1145 19.4428 21.1856 19.4801 21.25L20.0463 22.2309C20.1214 22.3608 20.2451 22.4555 20.39 22.4943C20.5349 22.5331 20.6893 22.5127 20.8193 22.4377C20.9493 22.3628 21.0443 22.2392 21.0833 22.0943C21.1223 21.9493 21.1021 21.7948 21.0272 21.6647L20.461 20.6838C20.4239 20.6193 20.3744 20.5627 20.3154 20.5173C20.2563 20.4719 20.189 20.4386 20.117 20.4193C20.0451 20.4 19.9701 20.395 19.8963 20.4047C19.8225 20.4145 19.7513 20.4386 19.6869 20.4759Z" fill="#00C8FF"/>
<path fill-rule="evenodd" clip-rule="evenodd" d="M18.4188 17.4777C18.3469 17.4584 18.2719 17.4534 18.1981 17.4631C18.1243 17.4727 18.0531 17.4969 17.9886 17.5341C17.8588 17.6093 17.7641 17.7329 17.7253 17.8778C17.6865 18.0228 17.7069 18.1772 17.7818 18.3071L18.348 19.288C18.423 19.4181 18.5466 19.513 18.6915 19.552C18.8365 19.591 18.991 19.5708 19.1211 19.4959C19.1856 19.4588 19.2422 19.4093 19.2876 19.3503C19.333 19.2913 19.3663 19.2239 19.3856 19.152C19.4049 19.0801 19.4098 19.0051 19.4001 18.9313C19.3904 18.8575 19.3662 18.7863 19.329 18.7218L18.7628 17.7409C18.6875 17.6111 18.5638 17.5164 18.4188 17.4777Z" fill="#00C8FF"/>
</svg>
