<svg width="64" height="64" viewBox="0 0 64 64" fill="none" xmlns="http://www.w3.org/2000/svg">
<path d="M0 32C0 14.3269 14.3269 0 32 0C49.6731 0 64 14.3269 64 32C64 49.6731 49.6731 64 32 64C14.3269 64 0 49.6731 0 32Z" fill="#DDF9FF"/>
<path d="M42.762 19.4214H37.0978V18.2555C37.0978 16.967 36.0831 15.9236 34.8315 15.9236H29.1673C27.9157 15.9236 26.901 16.9681 26.901 18.2555V19.4214H21.2368V20.5873H22.4045L23.5382 42.7456C23.5382 44.0341 24.5529 45.0786 25.8045 45.0786H38.2666C39.5182 45.0786 40.5329 44.0341 40.5329 42.7456L41.6474 20.5873H42.7641V19.4214H42.762ZM28.0347 18.2544C28.0347 17.6112 28.5436 17.0884 29.1673 17.0884H34.8315C35.4563 17.0884 35.9641 17.6112 35.9641 18.2544V19.4203H28.0336L28.0347 18.2544ZM39.4013 42.6844L39.3992 42.7139V42.7445C39.3992 43.3866 38.8913 43.9105 38.2666 43.9105H25.8045C25.1808 43.9105 24.6719 43.3866 24.6719 42.7445V42.7139L24.6708 42.6833L23.5393 20.5862H40.5127L39.4013 42.6844Z" fill="#00C8FF"/>
<path d="M31.4336 22.9192H32.5662V41.5786H31.4336V22.9192Z" fill="#00C8FF"/>
<path d="M29.193 41.5415L28.0338 22.9182L26.9033 22.9926L28.0625 41.6159L29.193 41.5415Z" fill="#00C8FF"/>
<path d="M37.1053 22.9563L35.9748 22.8831L34.8315 41.5424L35.962 41.6157L37.1053 22.9563Z" fill="#00C8FF"/>
</svg>
