<svg width="64" height="64" viewBox="0 0 64 64" fill="none" xmlns="http://www.w3.org/2000/svg">
<path d="M0 32C0 14.3269 14.3269 0 32 0C49.6731 0 64 14.3269 64 32C64 49.6731 49.6731 64 32 64C14.3269 64 0 49.6731 0 32Z" fill="#DDF9FF"/>
<path d="M45.0002 38.6667C44.4479 38.6667 44.0002 38.219 44.0002 37.6667V31.1497C44.0002 30.391 43.1883 29.9087 42.522 30.2714L32.4788 35.7394C32.1804 35.9019 31.82 35.9017 31.5218 35.739L18.943 28.8779C18.2481 28.4989 18.2481 27.5011 18.943 27.1221L31.5213 20.2612C31.8198 20.0984 32.1805 20.0984 32.479 20.2612L46.1457 27.7157C46.4669 27.891 46.6668 28.2277 46.6668 28.5936V37.6667C46.6668 38.219 46.2191 38.6667 45.6668 38.6667H45.0002ZM32.4773 43.741C32.1797 43.9025 31.8206 43.9025 31.5231 43.741L23.1897 39.2172C22.8675 39.0423 22.6668 38.705 22.6668 38.3383V33.9474C22.6668 33.1892 23.4776 32.7068 24.1439 33.0685L31.5231 37.0743C31.8206 37.2359 32.1797 37.2359 32.4773 37.0743L39.8564 33.0685C40.5227 32.7068 41.3335 33.1892 41.3335 33.9474V38.3383C41.3335 38.705 41.1328 39.0423 40.8106 39.2172L32.4773 43.741Z" fill="#00C8FF"/>
</svg>
