<svg width="64" height="64" viewBox="0 0 64 64" fill="none" xmlns="http://www.w3.org/2000/svg">
<path d="M0 32C0 14.3269 14.3269 0 32 0C49.6731 0 64 14.3269 64 32C64 49.6731 49.6731 64 32 64C14.3269 64 0 49.6731 0 32Z" fill="#DDF9FF"/>
<path d="M40.5729 27.2626C40.8334 26.8854 41.0714 26.4944 41.3116 26.1022C41.5326 25.7357 41.7493 25.3672 41.9436 24.9836C42.3236 24.2335 42.6513 23.4385 42.8744 22.6253C42.9353 22.4013 43.0079 22.1645 42.9993 21.9299C42.9865 21.6224 42.8157 21.2495 42.5211 21.107C42.2894 20.9955 42.1346 20.9666 41.8806 20.9334C41.761 20.9184 41.6415 20.912 41.5219 20.912C41.1867 20.912 40.8526 20.9612 40.5217 21.0127C39.7456 21.1316 38.9877 21.3352 38.2543 21.6138C37.8391 21.7713 37.4633 21.9845 37.0779 22.1999C36.715 22.4013 36.3499 22.5974 36.0051 22.832C35.6294 23.0871 35.2739 23.3678 34.9291 23.6624C34.817 23.0378 34.6814 22.4174 34.4861 21.812C34.2192 20.9827 33.9395 20.1555 33.6684 19.3283C33.5349 18.9244 33.3972 18.5226 33.2425 18.1261C33.2051 18.0275 33.1677 17.929 33.1293 17.8304C33.0919 17.7382 33.0524 17.6354 33.0129 17.5497C32.9649 17.4489 32.9147 17.4007 32.8357 17.2989C32.6842 17.105 32.4002 17 32.1557 17C31.7864 17 31.5024 17.2154 31.3007 17.5068C31.1929 17.6643 31.1043 17.8358 31.0071 17.9986C30.9004 18.1829 30.7883 18.3651 30.6773 18.5451C30.4648 18.889 30.2887 19.249 30.1051 19.609C29.913 19.9883 29.7229 20.3666 29.5393 20.7502C29.3312 21.1916 29.1721 21.6449 29.0344 22.1109C28.9095 22.5235 28.8049 22.9403 28.728 23.3656C28.696 23.536 28.6811 23.7107 28.6651 23.8842C28.5999 23.8124 28.5412 23.7353 28.475 23.6646C28.1516 23.3185 27.7822 23.0238 27.3819 22.772C27.0339 22.5567 26.6539 22.3788 26.2867 22.1977C25.4583 21.7927 24.5702 21.5473 23.666 21.3738C23.2657 21.2966 22.859 21.2463 22.4544 21.183C22.3114 21.1605 22.1672 21.138 22.0231 21.138C21.9313 21.138 21.8395 21.1466 21.7488 21.1713C21.4905 21.2377 21.2332 21.4091 21.1168 21.6588C20.977 21.9524 20.977 22.1967 21.0421 22.5063C21.0581 22.5888 21.0912 22.6724 21.1232 22.7517C21.3592 23.3796 21.5972 24.0107 21.8577 24.63C21.9826 24.9279 22.116 25.2204 22.2644 25.5054C22.4106 25.7818 22.59 26.0347 22.7693 26.2908C23.1803 26.8769 23.5934 27.4651 24.077 27.9934C24.4271 28.3769 24.8317 28.6952 25.2491 29.0048C25.3025 29.0445 25.3569 29.0841 25.4103 29.1248C24.5168 29.1452 23.6254 29.1859 22.7384 29.3006C22.4779 29.3338 22.2665 29.382 22.0744 29.577C22.0584 29.5931 22.052 29.6166 22.037 29.6338C21.6548 29.772 21.3848 30.1352 21.372 30.5617C21.3431 31.4917 21.3015 32.4293 21.3367 33.3593C21.3495 33.6604 21.3762 33.9625 21.3912 34.2658C21.4083 34.6386 21.4019 35.0115 21.4243 35.3844C21.436 35.5869 21.5139 35.768 21.6218 35.9233C21.6356 35.9576 21.6634 35.9834 21.6815 36.0155C21.6922 36.0273 21.6965 36.0434 21.7072 36.0541C21.8673 36.3059 22.1331 36.488 22.4437 36.4805C22.6615 36.4741 22.8803 36.4655 23.0981 36.4569C23.1493 37.417 23.2283 38.3695 23.3842 39.3189C23.508 40.0614 23.6916 40.79 23.8528 41.5229C23.7599 41.5218 23.666 41.5197 23.5731 41.5186C23.2796 41.5175 23.0276 41.675 22.8632 41.899C22.8067 41.9043 22.7501 41.8958 22.6946 41.9108C22.4565 41.9761 22.2526 42.1347 22.1267 42.3479C21.9868 42.5869 21.989 42.8172 22.0306 43.0808C22.1075 43.5619 22.1704 44.0462 22.2623 44.5241C22.3519 45.0041 22.575 45.4166 22.8718 45.7949C23.112 46.1002 23.4418 46.3831 23.7749 46.5717C23.9756 46.6853 24.1901 46.7731 24.4047 46.8481C24.6737 46.9403 24.9683 46.9531 25.2502 46.9713C26.1009 47.0346 26.9635 46.9756 27.8164 46.9606C28.6757 46.9456 29.5351 46.9381 30.3955 46.9317C31.2655 46.9253 32.1376 46.9231 33.0097 46.9296C33.4058 46.9317 33.8029 46.9317 34.1989 46.9146C34.5992 46.8996 34.9963 46.8685 35.3945 46.846C35.8183 46.8213 36.24 46.7892 36.6627 46.7742C36.8484 46.7678 37.0363 46.7699 37.2221 46.7699C37.4388 46.7721 37.6587 46.7742 37.8775 46.7613C38.2992 46.7388 38.7326 46.7024 39.1254 46.5438C39.5588 46.3681 39.9666 46.1399 40.3146 45.8195C40.5174 45.6331 40.6839 45.3898 40.8323 45.1552C40.9807 44.927 41.1013 44.6634 41.1803 44.403C41.3468 43.8523 41.3394 43.2598 41.3511 42.6897C41.3543 42.544 41.3084 42.4111 41.2422 42.289C41.2433 42.2708 41.2529 42.2568 41.2529 42.2386C41.2529 41.7479 40.8408 41.3107 40.3445 41.3107C40.3391 41.3107 40.3327 41.3107 40.3274 41.3107C40.0338 41.3172 39.7392 41.3214 39.4456 41.3268C39.5385 40.9839 39.6421 40.6432 39.7253 40.2982C39.8235 39.905 39.894 39.5042 39.9634 39.1046C40.115 38.2152 40.2655 37.327 40.4235 36.4377C40.6476 36.4655 40.8729 36.488 41.097 36.4741C41.2646 36.4634 41.4141 36.4055 41.5518 36.3284C41.9489 36.2201 42.2638 35.8676 42.2542 35.438C42.2254 33.9175 42.2788 32.3971 42.2542 30.8767C42.2542 30.8617 42.2457 30.8488 42.2446 30.8328C42.3492 30.6795 42.4218 30.5049 42.4218 30.3174C42.4218 30.072 42.3236 29.8341 42.1507 29.6595C41.9649 29.4731 41.7503 29.4088 41.4952 29.3873C41.0469 29.3477 40.5985 29.2931 40.147 29.2802C39.7424 29.2673 39.34 29.2577 38.9354 29.247C38.8607 29.2448 38.787 29.2459 38.7123 29.2438C39.0453 28.9802 39.3666 28.7112 39.6666 28.4048C40.0071 28.0587 40.2932 27.6633 40.5729 27.2626ZM30.3826 23.7867C30.5065 23.1299 30.673 22.471 30.9089 21.8452C31.1833 21.2623 31.5035 20.7052 31.7907 20.1287C31.8579 19.9948 31.9326 19.8662 32.0095 19.7387C32.2113 20.3259 32.3959 20.9195 32.5902 21.5088C32.8945 22.4356 33.1699 23.3924 33.3108 24.361C33.3983 25.155 33.4154 25.9704 33.3268 26.7644C33.2083 27.5776 33.0364 28.3791 32.7226 29.1388C32.7215 29.142 32.7226 29.1463 32.7215 29.1495C32.2209 29.1409 31.7202 29.1313 31.2196 29.1195C31.0488 28.632 30.8854 28.1423 30.7306 27.6516C30.5993 27.2326 30.4787 26.8179 30.404 26.3861C30.3101 25.5257 30.2887 24.6503 30.3826 23.7867ZM24.8819 26.1836C24.583 25.784 24.2873 25.3789 24.0108 24.9611C23.8795 24.7596 23.7727 24.5378 23.666 24.3225C23.5721 24.1307 23.4824 23.9367 23.3959 23.7407C23.3052 23.5157 23.2166 23.2896 23.128 23.0635C23.8293 23.1921 24.5211 23.3592 25.1978 23.6089C25.7732 23.8607 26.3443 24.1435 26.8546 24.5111C27.431 24.9943 27.9125 25.605 28.3779 26.1965C28.4932 26.3508 28.6031 26.5072 28.6981 26.6765C28.7216 26.8662 28.7483 27.0569 28.79 27.2433C28.9309 27.8691 29.1155 28.4841 29.313 29.0959C29.2148 29.0959 29.1166 29.0927 29.0195 29.0927C28.8156 29.0927 28.6106 29.0959 28.4067 29.097C28.3555 28.8452 28.2146 28.6137 27.9765 28.498C27.6659 28.3469 27.3531 28.2012 27.0542 28.0266C26.8332 27.8991 26.624 27.7523 26.4159 27.6033C26.197 27.448 25.9771 27.2947 25.7636 27.134C25.4316 26.8522 25.1498 26.5233 24.8819 26.1836ZM39.5823 43.1794C39.5769 43.3498 39.5801 43.5201 39.5641 43.6894C39.5428 43.7987 39.5172 43.9058 39.4809 44.0119C39.4136 44.1523 39.3378 44.2873 39.2514 44.4159C39.2044 44.4705 39.1563 44.522 39.104 44.5702C38.9557 44.6677 38.7955 44.7502 38.6343 44.8252C38.4774 44.882 38.3173 44.9227 38.1529 44.9538C37.8028 44.9902 37.4494 44.9902 37.0982 44.9934C36.6979 44.9998 36.2987 45.0202 35.8984 45.0523C35.0743 45.1188 34.2502 45.1798 33.4239 45.2141C32.5603 45.2473 31.6925 45.2248 30.8289 45.2206C30.0026 45.2184 29.1764 45.2227 28.3501 45.2334C27.3211 45.2452 26.2814 45.2773 25.2566 45.1584C25.1487 45.1381 25.0463 45.1134 24.9438 45.078C24.8232 45.017 24.7079 44.9495 24.5969 44.8734C24.4848 44.7759 24.3791 44.673 24.2809 44.5605C24.2371 44.4919 24.1955 44.4212 24.1581 44.3484C24.1005 44.178 24.0652 44.0044 24.0375 43.8266C24.0151 43.6541 23.9895 43.4815 23.966 43.309C25.6622 43.294 27.3574 43.2308 29.0558 43.2212C29.3141 43.2212 29.5735 43.2212 29.8297 43.2212C30.4766 43.2233 31.1235 43.2255 31.7704 43.1987C32.618 43.1655 33.4645 43.1322 34.3121 43.1087C35.3219 43.0819 36.3403 43.0755 37.3523 43.113C37.8327 43.1301 38.3141 43.1462 38.7955 43.1612C39.056 43.1665 39.3197 43.1751 39.5823 43.1794ZM39.6346 31.1413C39.8673 31.1456 40.1011 31.1714 40.3349 31.1821C40.3551 31.8785 40.3818 32.5739 40.3893 33.2704C40.3925 33.7022 40.3904 34.1351 40.3872 34.5669C39.7531 34.5422 39.1179 34.5358 38.4806 34.539C37.9842 34.5411 37.4857 34.5176 36.9872 34.5176C36.8175 34.5165 36.6477 34.5165 36.478 34.5165C36.0681 34.5165 35.6582 34.5176 35.2472 34.5197C34.7711 34.524 34.3729 34.9172 34.3729 35.3973C34.3729 35.8708 34.7711 36.2791 35.2472 36.2727C35.8172 36.2662 36.3841 36.2555 36.9541 36.2512C37.4654 36.2469 37.9725 36.2887 38.4817 36.3219C38.5201 36.3241 38.5596 36.3252 38.598 36.3273C38.4796 37.0805 38.3696 37.8349 38.2287 38.5838C38.1561 38.9771 38.0739 39.3692 37.9885 39.7603C37.9031 40.1439 37.79 40.52 37.7088 40.9014C37.6747 41.0589 37.6896 41.2122 37.7259 41.3589C37.3544 41.3654 36.9829 41.3729 36.6115 41.3793C36.6328 41.3322 36.667 41.2925 36.6787 41.24C36.779 40.7814 36.9018 40.3293 37.0022 39.8728C37.1463 39.2031 37.2487 38.5324 37.3405 37.8542C37.3694 37.6345 37.2274 37.3731 37.0822 37.2263C36.9157 37.0591 36.6904 36.9648 36.4545 36.9648C36.2207 36.9648 35.9955 37.0591 35.829 37.2263C35.6475 37.4084 35.5995 37.6077 35.5706 37.8542C35.5429 38.0781 35.5173 38.301 35.4895 38.5249C35.3668 39.2835 35.2344 40.0442 34.9963 40.7739C34.9259 40.9936 34.9664 41.2218 35.0721 41.4147C33.472 41.4565 31.8729 41.5518 30.2684 41.5465C29.2191 41.5422 28.1697 41.5379 27.1204 41.5529C26.6027 41.5604 26.086 41.5529 25.5693 41.5454C25.5683 41.48 25.5757 41.4147 25.5608 41.3493C25.4519 40.8907 25.3644 40.4278 25.2608 39.9671C25.1466 39.4732 25.0495 38.9642 24.9758 38.4595C24.8893 37.7749 24.8733 37.0805 24.8466 36.3927C25.58 36.3798 26.3123 36.3262 27.0478 36.3444C27.43 36.353 27.8111 36.3466 28.1932 36.353C28.5252 36.3573 28.8604 36.3809 29.1924 36.3905C29.9162 36.4152 30.6378 36.3552 31.3626 36.3466C31.859 36.3423 32.2742 35.9341 32.2742 35.4315C32.2742 34.9579 31.8761 34.5144 31.3925 34.5144C31.3829 34.5144 31.3722 34.5144 31.3626 34.5144C31.0146 34.5294 30.6634 34.5604 30.3154 34.5797C29.9524 34.599 29.5916 34.5947 29.2266 34.5947C28.5113 34.5969 27.7951 34.5926 27.0798 34.5861C26.7414 34.584 26.402 34.6151 26.0636 34.6344C25.6654 34.6569 25.2662 34.6697 24.868 34.6676C24.3503 34.6633 23.8325 34.6729 23.3148 34.6794C23.3159 34.5411 23.3137 34.404 23.3116 34.2668C23.3095 33.9636 23.2806 33.6636 23.2721 33.3604C23.2507 32.6157 23.2934 31.8657 23.3297 31.1188C24.1293 31.0224 24.9267 30.9453 25.7316 30.9078C26.6721 30.8617 27.6178 30.8638 28.5583 30.8596C30.3965 30.851 32.2347 30.9121 34.073 30.9388C34.6868 30.9474 35.2995 30.9913 35.9112 31.0288C36.2282 31.0503 36.5474 31.0792 36.8687 31.0835C37.031 31.0878 37.1943 31.0878 37.3566 31.0856C37.5188 31.0856 37.6821 31.0856 37.8444 31.0878C38.4411 31.0953 39.0379 31.1285 39.6346 31.1413ZM37.7707 27.8423C37.4206 28.0994 37.0641 28.3448 36.6968 28.5784C36.5196 28.6898 36.336 28.8002 36.1439 28.8837C35.9283 28.9802 35.7148 29.0766 35.5098 29.1934C35.3475 29.187 35.1853 29.1848 35.0241 29.1795C34.8544 29.1741 34.6857 29.1752 34.5181 29.1752C34.7337 28.5098 34.9067 27.838 35.0113 27.1405C35.0753 26.7076 35.102 26.2801 35.1074 25.845C35.6005 25.3564 36.0969 24.8764 36.6339 24.4328C37.2242 23.9978 37.886 23.6496 38.5521 23.3453C38.9695 23.1846 39.3891 23.0549 39.8289 22.9649C40.069 22.9167 40.305 22.8524 40.5441 22.8074C40.7234 22.7742 40.9028 22.7474 41.0821 22.7206C40.9978 22.9788 40.8985 23.2328 40.7981 23.4824C40.5355 24.0707 40.227 24.6311 39.8918 25.1818C39.5492 25.7432 39.1926 26.2929 38.8041 26.8222C38.4934 27.1951 38.1433 27.5326 37.7707 27.8423Z" fill="#00C8FF"/>
</svg>
