<svg width="60" height="61" viewBox="0 0 60 61" fill="none" xmlns="http://www.w3.org/2000/svg">
<path d="M50.625 58.625H9.375C5.25 58.625 1.875 55.25 1.875 51.125V9.875C1.875 5.75 5.25 2.375 9.375 2.375H50.625C54.75 2.375 58.125 5.75 58.125 9.875V51.125C58.125 55.25 54.75 58.625 50.625 58.625Z" fill="white"/>
<path d="M1.875 8.98438V18.9219H58.125V8.98438C58.125 5.32812 55.1719 2.375 51.5156 2.375H8.48438C4.82812 2.375 1.875 5.32812 1.875 8.98438Z" fill="#EC7BB0"/>
<path d="M7.03125 10.3906C7.03125 11.2733 7.38189 12.1198 8.00604 12.744C8.63018 13.3681 9.4767 13.7188 10.3594 13.7188C11.242 13.7188 12.0886 13.3681 12.7127 12.744C13.3369 12.1198 13.6875 11.2733 13.6875 10.3906C13.6875 9.50795 13.3369 8.66143 12.7127 8.03729C12.0886 7.41314 11.242 7.0625 10.3594 7.0625C9.4767 7.0625 8.63018 7.41314 8.00604 8.03729C7.38189 8.66143 7.03125 9.50795 7.03125 10.3906Z" fill="white"/>
<path d="M46.3125 10.3906C46.3125 11.2733 46.6631 12.1198 47.2873 12.744C47.9114 13.3681 48.758 13.7188 49.6406 13.7188C50.5233 13.7188 51.3698 13.3681 51.994 12.744C52.6181 12.1198 52.9687 11.2733 52.9687 10.3906C52.9687 9.50795 52.6181 8.66143 51.994 8.03729C51.3698 7.41314 50.5233 7.0625 49.6406 7.0625C48.758 7.0625 47.9114 7.41314 47.2873 8.03729C46.6631 8.66143 46.3125 9.50795 46.3125 10.3906Z" fill="white"/>
<path d="M26.6719 10.3906C26.6719 11.2733 27.0225 12.1198 27.6467 12.744C28.2708 13.3681 29.1173 13.7188 30 13.7188C30.8827 13.7188 31.7292 13.3681 32.3533 12.744C32.9775 12.1198 33.3281 11.2733 33.3281 10.3906C33.3281 9.50795 32.9775 8.66143 32.3533 8.03729C31.7292 7.41314 30.8827 7.0625 30 7.0625C29.1173 7.0625 28.2708 7.41314 27.6467 8.03729C27.0225 8.66143 26.6719 9.50795 26.6719 10.3906Z" fill="white"/>
<path d="M10.3594 14.1406C8.29688 14.1406 6.5625 12.4531 6.5625 10.3438C6.5625 8.28125 8.25 6.54688 10.3594 6.54688C12.4688 6.54688 14.1563 8.23438 14.1563 10.3438C14.1563 12.4531 12.4688 14.1406 10.3594 14.1406ZM10.3594 7.53125C8.8125 7.53125 7.5 8.79688 7.5 10.3906C7.5 11.9844 8.76563 13.25 10.3594 13.25C11.9531 13.25 13.2188 11.9844 13.2188 10.3906C13.2188 8.79688 11.9531 7.53125 10.3594 7.53125ZM49.6406 14.1406C47.5781 14.1406 45.8438 12.4531 45.8438 10.3438C45.8438 8.28125 47.5312 6.54688 49.6406 6.54688C51.75 6.54688 53.4375 8.23438 53.4375 10.3438C53.3906 12.4531 51.7031 14.1406 49.6406 14.1406ZM49.6406 7.53125C48.0938 7.53125 46.7812 8.79688 46.7812 10.3906C46.7812 11.9844 48.0469 13.25 49.6406 13.25C51.2344 13.25 52.5 11.9844 52.5 10.3906C52.5 8.79688 51.1875 7.53125 49.6406 7.53125ZM30 14.1406C27.9375 14.1406 26.2031 12.4531 26.2031 10.3438C26.2031 8.28125 27.8906 6.54688 30 6.54688C32.1094 6.54688 33.7969 8.23438 33.7969 10.3438C33.7969 12.4531 32.0625 14.1406 30 14.1406ZM30 7.53125C28.4531 7.53125 27.1406 8.79688 27.1406 10.3906C27.1406 11.9844 28.4062 13.25 30 13.25C31.5938 13.25 32.8594 11.9844 32.8594 10.3906C32.8594 8.79688 31.5469 7.53125 30 7.53125Z" fill="#6A576D"/>
<path d="M58.5938 19.3906H1.40625V8.98438C1.40625 5.09375 4.59375 1.90625 8.48438 1.90625H51.5156C55.4062 1.90625 58.5938 5.09375 58.5938 8.98438V19.3906ZM2.34375 18.4531H57.6562V8.98438C57.6562 5.60938 54.8906 2.84375 51.5156 2.84375H8.48438C5.10938 2.84375 2.34375 5.60938 2.34375 8.98438V18.4531Z" fill="#6A576D"/>
<path d="M50.625 59.0938H9.375C4.96875 59.0938 1.40625 55.5312 1.40625 51.125V9.875C1.40625 5.46875 4.96875 1.90625 9.375 1.90625H50.625C55.0312 1.90625 58.5938 5.46875 58.5938 9.875V51.125C58.5938 55.5312 55.0312 59.0938 50.625 59.0938ZM9.375 2.84375C5.48438 2.84375 2.34375 5.98438 2.34375 9.875V51.125C2.34375 55.0156 5.48438 58.1562 9.375 58.1562H50.625C54.5156 58.1562 57.6562 55.0156 57.6562 51.125V9.875C57.6562 5.98438 54.5156 2.84375 50.625 2.84375H9.375Z" fill="#6A576D"/>
<path d="M28.6875 40.8594C29.0625 40.8594 29.25 41.1406 29.25 41.5156C29.25 41.8906 29.0625 42.2188 28.6875 42.2188H21.6563C21.0469 42.2188 20.7188 41.8906 20.7188 41.2812C20.7188 40.7188 21.0469 39.9687 21.3281 39.5C21.8906 38.4219 22.8281 37.4844 24.2812 36.5469L25.3594 35.8438C26.8594 34.8594 27.5156 34.25 27.5156 33.0781C27.5156 31.9531 26.5781 31.2031 25.125 31.2031C23.2969 31.2031 22.7344 32.2344 22.4531 33.3125C22.3594 33.6406 22.0781 33.7812 21.75 33.7812H21.5156C21.1875 33.6875 20.9062 33.5 20.9062 33.125C20.9062 33.0312 20.9063 32.9844 20.9531 32.8906C21.0938 32.2344 21.4688 31.5312 21.9844 31.0156C22.6875 30.3125 23.6719 29.8906 25.1719 29.8906C27.5156 29.8906 29.0156 31.1094 29.0156 33.0781C29.0156 34.9531 27.8438 35.7969 26.4375 36.6875L25.4063 37.2969C23.6719 38.375 22.6875 39.4062 22.3125 40.8125H28.6875V40.8594ZM31.3125 31.5312C30.8906 31.5312 30.7031 31.25 30.7031 30.8281C30.7031 30.4531 30.9375 30.125 31.3125 30.125H38.4375C39.0469 30.125 39.2813 30.4063 39.2813 30.9219C39.2813 31.4844 39.0938 31.7187 38.7656 32.1406C37.0312 34.4844 35.6719 37.8125 34.875 41.6094C34.7813 42.125 34.4531 42.2656 34.0781 42.2656H34.0312C33.6094 42.2656 33.2344 42.0312 33.2344 41.6094C33.2344 41.5625 33.2344 41.4688 33.2812 41.4219C34.0781 37.9063 35.625 34.3437 37.5469 31.4844H31.3125V31.5312Z" fill="#6A576D"/>
</svg>
