<svg width="70" height="71" viewBox="0 0 70 71" fill="none" xmlns="http://www.w3.org/2000/svg">
<path d="M8.25728 59.7235C8.05374 59.7235 7.90382 59.6619 7.86701 59.6341C7.65472 59.4694 7.60992 59.228 7.60992 58.8952C7.60992 56.524 8.76179 54.554 8.77277 54.5351L8.85312 54.4248C9.60988 53.5341 11.1261 52.7099 13.8667 51.7418C15.808 51.0557 17.1616 50.3734 17.8923 49.7141C18.4692 49.1937 19.1564 48.1492 19.1922 46.9188L19.1346 45.9813L19.0055 45.2276L18.7086 44.9895C18.3362 44.6895 18.0104 44.0271 17.8398 43.218L17.7007 42.5635L17.0452 42.4313C16.6153 42.3451 16.0692 42.0927 15.656 40.9042C15.4425 40.2895 15.3394 39.7214 15.3394 39.1685C15.3394 38.9062 15.4069 38.3949 15.4069 38.3949C15.4148 38.3313 15.4514 38.1496 15.519 37.945L15.6849 37.4386L15.3642 37.0136C13.4081 34.4278 12.416 31.6514 12.416 28.7618C12.416 19.0334 23.6219 11.1182 37.3958 11.1182C51.1675 11.1182 62.3715 19.0334 62.3715 28.7618C62.3715 38.4882 51.1675 46.4013 37.3958 46.4013C35.097 46.4013 32.7396 46.152 30.391 45.6604L29.2353 45.4182L29.1479 46.9424C29.1796 48.1369 29.8082 49.1776 30.4159 49.7187C31.1368 50.3721 32.4912 51.0554 34.4356 51.7416C37.1375 52.6958 38.6945 53.5389 39.487 54.4773L39.5655 54.5885H39.5645C39.5614 54.5885 40.7282 56.505 40.7282 58.895C40.7282 59.3757 40.3936 59.7113 39.9141 59.7113L8.48378 59.7054L8.25728 59.7235Z" fill="white"/>
<path d="M30.1827 46.6556L30.1628 47.0012C30.1866 47.7876 30.6594 48.5742 31.0924 48.9594C31.5213 49.3486 32.5063 49.9821 34.7743 50.7825C37.6977 51.8153 39.338 52.7249 40.2636 53.821L40.3868 53.9899C40.4502 54.0911 41.7451 56.2023 41.7451 58.8953C41.7451 59.94 40.9587 60.7284 39.9142 60.7284L8.48384 60.7226C8.38053 60.7364 8.31691 60.7405 8.25727 60.7405C7.87596 60.7405 7.4987 60.6313 7.25247 60.4445C6.59314 59.9321 6.59314 59.1794 6.59314 58.8953C6.59314 56.2044 7.88799 54.0337 7.89996 54.0139L8.01916 53.8431C8.96034 52.7268 10.6047 51.8153 13.5281 50.7826C15.7883 49.9842 16.7773 49.3507 17.2102 48.9595C17.532 48.6695 18.1476 47.8672 18.1754 46.89L18.1199 46.0481L18.0721 45.7819C17.5082 45.329 17.0673 44.4791 16.8448 43.4285C15.84 43.226 15.1369 42.5089 14.6961 41.2379C14.4419 40.5051 14.3227 39.8279 14.3227 39.1686C14.3227 38.8627 14.3981 38.2669 14.3981 38.2669C14.4099 38.1756 14.4577 37.9173 14.5529 37.6273C12.555 34.986 11.3993 31.9713 11.3993 28.762C11.3993 18.4725 23.0609 10.1016 37.3959 10.1016C51.7267 10.1016 63.3885 18.4725 63.3885 28.762C63.3885 39.0493 51.7267 47.4182 37.3959 47.4182C34.8894 47.4182 32.4785 47.1362 30.1827 46.6556Z" fill="#27323A"/>
<path d="M23.5854 25.7588C23.8156 25.7588 24.0301 25.7708 24.2288 25.7885C24.3835 25.7708 24.5902 25.7609 24.8086 25.7609C27.8512 25.7609 31.6326 27.4827 33.134 32.3107C33.3642 33.0592 33.4795 33.8796 33.4795 34.7515C33.4795 35.3988 33.3445 36.0921 33.2094 36.7632C33.7099 36.9878 33.8887 37.8974 33.9403 38.2726C33.9918 38.2726 34.0158 39.1603 34.0158 39.1684C34.0158 39.8316 33.8925 40.507 33.6463 41.2377C33.4795 41.7143 32.987 43.1284 31.5093 43.4322C31.4855 43.5575 31.4259 43.6508 31.3942 43.7718C33.3166 44.1293 35.3106 44.3677 37.3959 44.3677C50.0426 44.3677 60.338 37.367 60.338 28.7618C60.338 20.1544 50.0427 13.1519 37.3959 13.1519C24.7452 13.1519 14.4498 20.1544 14.4498 28.7618C14.4498 30.0605 14.7157 31.3136 15.1607 32.5192C15.1845 32.4417 15.1925 32.3544 15.2203 32.2769C16.8369 27.4708 20.6024 25.7588 23.5854 25.7588Z" fill="white"/>
<path d="M19.7047 57.7215C18.3462 56.2876 17.3928 54.4485 17.0394 52.5737C16.3005 52.9392 15.4586 53.2908 14.529 53.6184C13.695 53.9104 11.2046 54.7902 10.3784 55.7275C10.2791 55.9242 9.94155 56.7166 9.75488 57.7215H19.7047Z" fill="#00C8FF"/>
<path d="M19.8794 53.4673C20.507 52.7722 21.2179 52.2142 21.9926 51.8091L22.3937 51.6004L22.052 51.3065C21.4326 50.7822 20.9002 50.2838 20.4513 49.8151L20.1853 49.533L19.9749 49.8626C19.7483 50.2181 19.4823 50.548 19.1527 50.8777C19.093 50.9602 19.0293 51.0397 18.9619 51.116L18.8706 51.2191L18.8865 51.3561C18.9748 52.0413 19.1359 52.7151 19.3671 53.366L19.5379 53.8466L19.8794 53.4673ZM27.8312 55.499L27.7041 55.3164C26.322 53.3462 24.6856 52.9053 24.1017 52.816C23.6329 52.9053 21.9926 53.3482 20.6142 55.3202L20.4871 55.503L20.6221 55.6818C21.5675 56.9091 22.7711 57.8147 23.76 58.0471L23.7958 58.055L24.6697 58.0371C25.5911 57.8047 26.7787 56.8792 27.6961 55.6756L27.8312 55.499ZM28.4391 53.4633L28.7805 53.8428L28.9514 53.362C29.2096 52.6431 29.3526 51.9124 29.3843 51.1914C29.3843 51.1914 29.0706 50.7603 29.0388 50.7207C28.8045 50.4824 28.5701 50.1806 28.3595 49.8489L28.1529 49.5151L27.8828 49.7992C27.4339 50.2718 26.8938 50.7782 26.2703 51.3066L25.9246 51.6005L26.3259 51.8091C27.1044 52.2142 27.8153 52.7702 28.4391 53.4633Z" fill="white"/>
<path d="M28.5779 57.7212H38.5835C38.3491 56.4959 37.8805 55.6638 37.8764 55.6538C37.1138 54.8019 34.5955 53.9101 33.7694 53.618C32.836 53.2864 31.9899 52.9329 31.247 52.5654C30.8937 54.4444 29.9364 56.2873 28.5779 57.7212Z" fill="#00C8FF"/>
<path d="M31.0883 40.4672C31.2949 39.8278 31.41 39.1506 31.287 38.4455C31.2313 38.1018 31.12 37.8854 30.9333 37.7087C30.8062 37.647 30.5361 37.7305 30.5243 37.5596C30.9016 36.0742 31.0207 34.5411 30.6236 33.2223C28.9554 27.6476 24.0697 28.2614 24.0697 28.2614C24.0697 28.2614 19.2756 27.6218 17.4524 33.2223C17.0273 34.5311 17.1705 36.0742 17.5557 37.5596C17.5478 37.7305 17.2736 37.647 17.1506 37.7087C16.9559 37.8854 16.8488 38.1018 16.7892 38.4455C16.666 39.1506 16.7773 39.8278 16.9956 40.4672C17.3214 41.4344 17.679 41.8395 18.7792 41.506C18.7792 44.0102 19.7444 44.2386 19.9548 44.4632C20.5783 45.1383 21.1067 46.7787 21.1067 47.5691C21.3967 47.8909 22.2189 48.8798 24.1413 50.417C25.9088 49.0069 26.7231 48.0776 27.1005 47.5691H27.1084C27.1084 47.5653 27.1123 47.5612 27.1123 47.5573C27.1481 47.5056 27.2038 47.4381 27.2355 47.3944C27.1877 47.3606 27.1719 47.2235 27.1639 47.0745C27.2872 46.1868 27.6843 45.0549 28.1253 44.4631C28.2721 44.2605 29.2969 44.046 29.2969 41.5059C30.4012 41.8395 30.7586 41.4344 31.0883 40.4672Z" fill="#FFEAB9"/>
<path d="M51.4369 37.4763C51.4369 38.8785 50.2968 40.0183 48.8948 40.0183C47.4926 40.0183 46.3528 38.8785 46.3528 37.4763C46.3528 36.0742 47.4927 34.9342 48.8948 34.9342C50.2968 34.9342 51.4369 36.0743 51.4369 37.4763ZM39.1792 30.3943H53.4148C53.9749 30.3943 54.4316 29.9414 54.4316 29.3775C54.4316 28.8174 53.9749 28.3606 53.4148 28.3606H39.1792C38.6153 28.3606 38.1664 28.8174 38.1664 29.3775C38.1664 29.9414 38.6153 30.3943 39.1792 30.3943ZM52.688 33.9095C52.688 35.0335 53.5977 35.9431 54.7216 35.9431C55.8418 35.9431 56.7553 35.0334 56.7553 33.9095C56.7553 32.7855 55.8418 31.8758 54.7216 31.8758C53.5976 31.8758 52.688 32.7855 52.688 33.9095ZM40.9627 36.2531C39.2825 36.2531 37.9161 37.6234 37.9161 39.3074C37.9161 40.9876 39.2825 42.354 40.9627 42.354C42.6427 42.354 44.0132 40.9876 44.0132 39.3074C44.0132 37.6233 42.6427 36.2531 40.9627 36.2531ZM39.1792 25.9615H53.4148C53.9749 25.9615 54.4316 25.5047 54.4316 24.9447C54.4316 24.3807 53.9749 23.9278 53.4148 23.9278H39.1792C38.6153 23.9278 38.1664 24.3807 38.1664 24.9447C38.1664 25.5048 38.6153 25.9615 39.1792 25.9615ZM24.4868 21.5249H53.4148C53.9749 21.5249 54.4316 21.072 54.4316 20.5081C54.4316 19.948 53.9749 19.4912 53.4148 19.4912H24.4868C23.9267 19.4912 23.47 19.948 23.47 20.5081C23.47 21.072 23.9267 21.5249 24.4868 21.5249Z" fill="#27323A"/>
</svg>
