<svg width="71" height="71" viewBox="0 0 71 71" fill="none" xmlns="http://www.w3.org/2000/svg">
<path d="M62.5539 40.7731C62.8352 40.5821 63.686 40.0044 64.3405 39.5596C67.6189 40.2757 70.0345 42.1979 70.5009 45.2086C70.8225 49.5659 69.8155 53.9184 67.6128 57.6917C67.1327 58.5776 66.4598 59.3443 65.6437 59.9354C64.7813 60.5409 63.5766 60.9748 62.5076 60.8432C61.5277 60.6926 60.6338 60.1971 59.9868 59.4459C59.3421 58.721 58.8219 57.8943 58.4473 56.9994C58.3925 56.8719 58.3389 56.7437 58.2865 56.6147H48.2955C47.7076 55.2834 46.9289 54.0448 45.9838 52.938C45.2121 52.0237 43.7359 51.2033 42.1703 50.5937L41.4798 50.4724C41.4131 50.4424 40.5549 50.0351 40.5112 50.0214C39.8533 49.6579 39.7145 49.0989 39.6302 48.6043C39.6141 48.5101 39.6002 48.4273 39.5913 48.3547C41.1974 47.6034 42.4751 45.5528 42.7039 44.9747C42.7843 44.7622 42.8538 44.5458 42.9123 44.3263C43.0562 44.3972 43.2185 44.4219 43.377 44.397C43.5354 44.3721 43.6823 44.2989 43.7976 44.1873C44.0771 43.9497 44.3021 43.6544 44.457 43.3217C44.7327 42.7697 44.877 42.1613 44.8785 41.5442C45.4116 41.1174 45.9693 40.7222 46.5487 40.3607C47.0668 40.0624 47.6139 39.8175 48.1815 39.6298C51.8034 41.5479 53.6425 42.1271 56.9909 42.0532C60.2439 41.9813 61.3434 41.4531 62.46 40.8378L62.5539 40.7731Z" fill="white"/>
<path d="M26.8832 23.0267C27.0068 22.9196 27.1505 22.8381 27.3058 22.7868C27.4612 22.7356 27.6251 22.7156 27.7882 22.728C27.9962 22.7279 28.2003 22.7842 28.3787 22.891C28.5572 22.9978 28.7033 23.151 28.8015 23.3343C29.1326 23.9534 29.0816 25.0732 28.8241 25.7587C28.6418 26.2442 28.3446 26.9864 27.6693 27.5037C27.5206 27.6195 27.3494 27.7033 27.1667 27.7497C26.984 27.7961 26.7937 27.8042 26.6077 27.7734L26.5073 27.7532C26.3975 28.085 26.2661 28.4092 26.1139 28.7239C25.8251 29.4362 24.2843 31.9056 22.4001 32.8527C22.3407 33.2589 22.3141 33.6693 22.3204 34.0798C22.3223 34.5856 22.4085 35.0754 22.9081 35.4011C22.9315 35.4139 23.3446 35.677 23.9562 36.0025C20.1824 38.6877 14.6334 37.8988 11.6657 35.1873C12.4254 34.8985 13.4388 34.5066 13.4707 34.4975C14.0296 34.2893 14.221 33.8306 14.3337 33.3372C14.4106 33.013 14.4676 32.6845 14.5043 32.3534C13.8489 31.8885 13.2689 31.3255 12.7846 30.6842C11.9973 29.6682 11.4264 28.5017 11.1071 27.2567C10.9069 27.2924 10.7012 27.2821 10.5056 27.2264C10.31 27.1707 10.1296 27.0712 9.97826 26.9354C9.3374 26.3757 9.08895 25.6161 8.93776 25.1197C8.7247 24.419 8.746 23.2985 9.116 22.7017C9.22588 22.5252 9.38162 22.3818 9.56659 22.2869C9.75156 22.1919 9.95884 22.149 10.1663 22.1626C10.3299 22.1606 10.4923 22.191 10.6441 22.2522C10.7959 22.3134 10.9341 22.404 11.0506 22.5189C11.0506 22.5189 9.79076 16.1084 19.8357 16.1084C28.8936 16.1073 26.8832 23.0267 26.8832 23.0267Z" fill="white"/>
<path d="M24.5019 35.7854C24.1632 35.6125 23.8297 35.4303 23.5014 35.2388C23.4077 35.184 23.3145 35.1284 23.2218 35.0721C23.199 35.0582 23.1759 35.0443 23.1533 35.03C23.137 35.0196 23.0705 34.9754 23.1064 35.0026C23.0709 34.9746 23.0373 34.9441 23.006 34.9114C22.9991 34.9044 22.9259 34.822 22.9561 34.8592C22.9795 34.8883 22.9159 34.7982 22.908 34.7851C22.8904 34.756 22.8754 34.7258 22.8594 34.6958C22.8126 34.6074 22.8687 34.7406 22.8433 34.6528C22.832 34.6139 22.8192 34.5761 22.8094 34.5366C22.7996 34.4972 22.7922 34.4575 22.7844 34.4175C22.7659 34.3219 22.7844 34.4799 22.7785 34.3729C22.7548 33.9719 22.7634 33.5698 22.8044 33.1702C22.8036 33.0526 22.7565 32.9399 22.6733 32.8567C22.59 32.7735 22.4774 32.7264 22.3597 32.7256C22.2426 32.728 22.1309 32.7757 22.048 32.8585C21.9652 32.9414 21.9175 33.0531 21.9151 33.1702C21.8363 33.9686 21.7684 34.97 22.4088 35.5718C22.5878 35.726 22.7832 35.8602 22.9915 35.9718C23.3391 36.1772 23.6929 36.3713 24.053 36.5543C24.1554 36.611 24.2758 36.6261 24.3891 36.5964C24.5025 36.5667 24.6 36.4945 24.6614 36.3947C24.7197 36.2926 24.7357 36.1717 24.7059 36.058C24.676 35.9442 24.6028 35.8467 24.5019 35.7863V35.7854Z" fill="#211715"/>
<path d="M8.38287 57.2348C8.02503 57.513 7.64021 57.7546 7.23418 57.956C6.05528 58.5337 4.58847 58.701 3.40809 58.1261C2.04707 57.4634 1.34989 55.9955 0.976377 54.5874C0.262147 51.8906 0.366456 49.0566 0.716994 46.2957C1.02362 43.8814 1.56925 41.3753 3.19447 39.498C4.65591 37.8107 8.75639 35.9922 11.6411 35.1602C14.6503 37.942 20.3643 38.7241 24.1515 35.8612C26.5749 36.4335 28.3846 37.0077 30.1688 38.4195C30.7262 38.8911 31.1811 39.4719 31.5054 40.126C31.8131 40.7143 32.0612 41.6747 32.2215 42.2862C32.8447 44.6385 33.28 47.0367 33.5232 49.4581C33.3773 49.6962 33.1704 49.891 32.924 50.0224C32.8757 50.0361 32.0221 50.4434 31.9508 50.4734C30.3491 51.0829 28.187 52.0247 27.3977 52.939C26.3216 54.1852 25.9081 55.1362 25.3549 56.7371C25.3549 56.7371 13.009 56.7371 8.97297 56.7371C8.78288 56.9113 8.58668 57.078 8.38287 57.2348Z" fill="white"/>
<path d="M46.8742 26.732C46.9825 26.5945 47.1215 26.4843 47.28 26.4101C47.4386 26.3358 47.6123 26.2997 47.7872 26.3046C47.9441 26.2983 48.1006 26.3231 48.2478 26.3777C48.395 26.4322 48.53 26.5154 48.6449 26.6223C48.6449 26.6223 47.6296 19.667 55.9669 19.667C64.8257 19.667 63.841 26.6815 63.841 26.6815C63.9567 26.5754 64.0923 26.4933 64.2399 26.4399C64.3875 26.3865 64.5442 26.3629 64.701 26.3704C64.9005 26.3646 65.0979 26.413 65.272 26.5105C65.4462 26.6081 65.5906 26.751 65.6898 26.9242C66.0233 27.5091 66.0048 28.5842 65.7771 29.2486C65.6154 29.719 65.351 30.4388 64.717 30.9531C64.5775 31.0683 64.4156 31.1532 64.2417 31.2027C64.0677 31.2522 63.8853 31.265 63.7061 31.2405L63.6094 31.2238C63.513 31.545 63.3958 31.8595 63.2583 32.1654C62.985 32.8985 61.4134 35.567 59.4787 36.3842C59.5051 36.5059 59.5154 36.6305 59.5091 36.7548C59.4836 37.065 59.4375 37.3733 59.3713 37.6774L59.886 37.7951C60.0876 37.6992 60.3172 37.6801 60.5318 37.7414C60.7187 37.7715 60.8893 37.8656 61.0146 38.0075C61.1399 38.1494 61.2121 38.3303 61.2188 38.5195C61.9784 39.0613 63.1434 39.5179 64.0974 39.9107L62.4598 40.8386C61.3431 41.4539 60.2437 41.9821 56.9907 42.054C53.6463 42.1281 51.8077 41.55 48.195 39.6369C49.8404 39.0373 51.5179 38.6214 52.3098 38.0904C52.4044 38.046 52.4883 37.9817 52.5558 37.9018C52.5881 37.8402 52.6088 37.7731 52.6168 37.7039C52.6996 37.24 52.7822 36.7768 52.8645 36.3144C52.0122 35.9212 51.2526 35.2785 50.53 34.4075C49.7477 33.4548 49.1687 32.352 48.8286 31.1671C48.6376 31.2067 48.44 31.2022 48.2509 31.154C48.0618 31.1059 47.8861 31.0153 47.7372 30.8892C47.1073 30.3704 46.8479 29.6479 46.6902 29.1765C46.4679 28.5095 46.457 27.435 46.7958 26.8528C46.8193 26.8109 46.8455 26.7706 46.8742 26.732Z" fill="white"/>
<path d="M44.1961 42.8079C44.9793 41.9589 45.8902 41.2373 46.8959 40.6693C47.8223 40.132 48.9074 39.8355 49.9225 39.5193C50.4669 39.349 50.2345 38.4903 49.6861 38.6617C48.5993 39.0014 47.4384 39.3259 46.447 39.9013C45.375 40.5069 44.4035 41.2753 43.5673 42.1789C43.1869 42.605 43.8139 43.2349 44.1961 42.8088V42.8079Z" fill="#211715"/>
<path d="M23.224 36.1022C25.5726 36.6356 28.1254 37.2096 29.9893 38.8454C30.4647 39.2786 30.8535 39.7982 31.1352 40.3765C31.3913 40.9408 31.5879 41.5302 31.7218 42.1353C32.0868 43.5083 32.4025 44.8929 32.6443 46.2932C32.9274 47.9338 33.1087 49.5888 33.2445 51.2476C33.2475 51.3646 33.2952 51.476 33.378 51.5588C33.4608 51.6415 33.5722 51.6893 33.6892 51.6922C33.8069 51.6914 33.9195 51.6442 34.0027 51.561C34.0859 51.4778 34.133 51.3652 34.1339 51.2476C33.9064 48.183 33.4099 45.1444 32.6502 42.1668C32.502 41.5422 32.3124 40.9281 32.0827 40.3287C31.8091 39.6673 31.4217 39.059 30.9379 38.5315C30.4912 38.0755 29.9862 37.6805 29.4361 37.3569C28.9157 37.0325 28.37 36.7508 27.8042 36.5146C26.41 35.9253 24.9324 35.5794 23.4604 35.2451C22.9031 35.1186 22.6652 35.9758 23.224 36.1028V36.1022Z" fill="#211715"/>
<path d="M26.5412 54.0754C26.0422 54.8599 25.7308 55.648 25.3554 56.7367H48.346C47.7554 55.3584 46.9589 54.0778 45.9838 52.9386C45.1543 51.9567 43.5107 51.0816 41.8172 50.4609C41.202 51.446 39.389 52.3229 37.5462 52.4345C36.5076 52.5014 35.4647 52.4304 34.4447 52.2233C33.3472 51.995 32.2726 51.4998 31.5608 50.6238C30.0152 51.2315 28.1243 52.0967 27.3975 52.9386C27.0845 53.296 26.7983 53.6759 26.5412 54.0754Z" fill="#FEBE69"/>
<path d="M43.2417 40.4374C43.3507 40.3428 43.4789 40.2729 43.6174 40.2324C43.7559 40.1919 43.9015 40.1818 44.0443 40.2027C44.1845 40.2225 44.3183 40.2734 44.4362 40.3518C44.554 40.4301 44.6528 40.5339 44.7252 40.6555C44.8092 40.8232 44.857 41.0067 44.8655 41.1941C44.9266 41.9272 44.785 42.6631 44.4562 43.3212C44.3013 43.6538 44.0764 43.9491 43.7968 44.1868C43.6816 44.2983 43.5348 44.3715 43.3765 44.3964C43.2181 44.4213 43.056 44.3967 42.9121 44.3259C42.8404 44.6079 42.7454 44.8545 42.7031 44.9744C42.4751 45.5524 41.1974 47.6031 39.5905 48.3543C39.5994 48.427 39.6133 48.5098 39.6294 48.6039C39.7145 49.0986 39.8518 49.6575 40.5104 50.0211C40.5541 50.0348 41.4123 50.442 41.479 50.472L41.734 50.5861L41.676 50.6588C40.9555 51.5605 39.2635 52.3296 37.5455 52.4335C36.5069 52.5005 35.464 52.4294 34.444 52.2223C33.4274 52.0109 32.4305 51.5705 31.7231 50.8105L31.56 50.6354L31.9491 50.472C32.0204 50.442 32.874 50.0348 32.9224 50.0211C33.5756 49.6575 33.7161 49.0986 33.8011 48.6039C33.8082 48.5739 33.8126 48.5463 33.8172 48.5166C32.9523 48.1335 32.1837 47.5625 31.5671 46.8451C30.9321 46.1335 30.4445 45.303 30.1325 44.4017C29.998 44.4488 29.853 44.4575 29.7139 44.4268C29.5747 44.396 29.4469 44.3271 29.3447 44.2277C29.0651 43.99 28.8402 43.6948 28.6852 43.3621C28.3564 42.704 28.2148 41.9681 28.2761 41.235C28.2844 41.0476 28.3321 40.8641 28.4161 40.6964C28.4886 40.5749 28.5874 40.4711 28.7053 40.3927C28.8232 40.3144 28.9571 40.2634 29.0972 40.2436C29.24 40.2227 29.3856 40.2329 29.5241 40.2734C29.6626 40.3139 29.7908 40.3838 29.8998 40.4784C29.8998 40.4784 28.6703 35.0991 36.2054 35.0991C43.7405 35.0991 43.2417 40.4374 43.2417 40.4374Z" fill="white"/>
<path d="M46.7056 36.0171C46.1537 35.45 45.9688 34.9344 45.7906 34.1245C45.667 33.5189 45.4887 32.9257 45.2579 32.3522C45.0874 31.9523 44.8323 31.5939 44.5103 31.3017C43.621 30.5091 42.8368 30.2169 41.7262 30.3739C40.8627 30.4963 40.0678 30.8528 39.7112 31.6176V31.6189C39.5259 31.5355 39.3371 31.4599 39.1448 31.3921C38.2898 31.0973 37.3909 30.9499 36.4865 30.9562C34.8763 30.9288 33.2992 31.4142 31.9831 32.3422C30.578 33.3501 28.9866 35.1454 28.8594 38.0514C28.8508 38.7904 28.914 39.5284 29.0483 40.2551C29.0644 40.2498 29.081 40.2462 29.0978 40.2441C29.2406 40.2232 29.3862 40.2334 29.5247 40.2739C29.6632 40.3144 29.7914 40.3843 29.9004 40.4789L30.1266 40.6827C30.2347 40.2414 30.4398 39.8297 30.727 39.4777C31.0142 39.1256 31.3763 38.842 31.7869 38.6474C31.8106 38.6365 31.8343 38.6258 31.8582 38.6154C33.0753 38.6154 36.206 38.6154 36.206 38.6154C36.5984 38.5453 36.9822 38.4335 37.3508 38.2819C37.9663 37.94 38.4979 37.4653 38.9071 36.8923C39.4368 36.9554 39.9481 37.1256 40.41 37.3926C40.8718 37.6595 41.2745 38.0176 41.5936 38.4451C42.0489 39.041 42.3819 39.721 42.5733 40.4461C42.9324 40.4426 43.2403 40.4374 43.2403 40.4374C43.3406 40.3503 43.4573 40.284 43.5834 40.2424C43.7096 40.2008 43.8428 40.1847 43.9753 40.195C44.0994 39.4875 44.1458 38.7686 44.1139 38.051C44.083 37.3232 43.95 36.6033 43.7189 35.9124L44.0535 36.0488C44.8625 36.3865 45.7196 36.3263 46.7056 36.0171Z" fill="#85807F"/>
<path d="M33.3741 48.5171C33.3741 48.5234 33.3974 48.3874 33.3828 48.4429C33.378 48.4615 33.3754 48.48 33.3721 48.4985C33.3676 48.5211 33.3641 48.5437 33.3598 48.5663C33.3498 48.6201 33.3393 48.6738 33.3272 48.7272C33.3041 48.8333 33.274 48.9377 33.2372 49.0399C33.2309 49.0569 33.1925 49.1527 33.2231 49.0784C33.252 49.0078 33.2172 49.0888 33.2094 49.1049C33.1833 49.1584 33.1543 49.2105 33.1225 49.2607C33.1062 49.2865 33.0884 49.3113 33.0712 49.3365C33.0267 49.4019 33.128 49.2709 33.0749 49.3312C33.0322 49.3806 32.9869 49.4278 32.9393 49.4725C32.9139 49.4959 32.8872 49.5175 32.8611 49.5398C32.824 49.5711 32.8892 49.5166 32.8905 49.5166C32.8826 49.5166 32.8592 49.539 32.8524 49.5438C32.8214 49.565 32.787 49.5824 32.7575 49.605C32.6956 49.6522 32.7946 49.5966 32.7979 49.5966C32.7217 49.6169 32.6488 49.6481 32.5815 49.6893C32.4266 49.7602 32.2728 49.8331 32.1183 49.9055C31.9886 49.9668 31.8589 50.0319 31.7259 50.0885C31.6259 50.1472 31.5528 50.2426 31.5221 50.3544C31.4913 50.4701 31.5075 50.5932 31.5669 50.697C31.6259 50.7967 31.7211 50.8697 31.8326 50.9008C31.9486 50.9252 32.0695 50.9093 32.1754 50.856C32.4598 50.7342 32.7362 50.5918 33.0174 50.4626L33.0969 50.4267C33.1799 50.3896 32.9874 50.4798 33.0413 50.4502C33.1305 50.4081 33.2174 50.3614 33.3016 50.3101C33.3872 50.2515 33.4692 50.1878 33.5471 50.1195C33.7759 49.908 33.9527 49.6464 34.0637 49.3552C34.1124 49.2351 34.1513 49.1111 34.18 48.9847C34.2247 48.8319 34.2528 48.6747 34.264 48.5159C34.264 48.398 34.2171 48.2849 34.1337 48.2015C34.0503 48.1181 33.9372 48.0713 33.8193 48.0713C33.7014 48.0713 33.5883 48.1181 33.5049 48.2015C33.4215 48.2849 33.3746 48.398 33.3746 48.5159L33.3741 48.5171Z" fill="#211715"/>
<path d="M39.1465 48.3536C39.2247 48.9502 39.3464 49.5379 39.7633 49.9983C39.8792 50.1222 40.0099 50.2313 40.1523 50.3235C40.2277 50.3766 40.3096 50.4196 40.3962 50.4513C40.4264 50.4615 40.2615 50.3916 40.3133 50.4163C40.325 50.4218 40.3372 50.427 40.3491 50.4324C40.5081 50.5041 40.6655 50.5791 40.8234 50.6534C40.9675 50.7211 41.1109 50.7909 41.256 50.8572C41.3585 50.9139 41.4789 50.9289 41.5921 50.8992C41.7054 50.8695 41.8029 50.7973 41.8645 50.6977C41.9226 50.5956 41.9384 50.4747 41.9086 50.361C41.8788 50.2473 41.8057 50.1498 41.7049 50.0893C41.4287 49.9644 41.1565 49.8299 40.8816 49.7035C40.8377 49.6832 40.7938 49.663 40.7495 49.6437C40.7118 49.6243 40.6728 49.6078 40.6326 49.5944C40.6413 49.5966 40.7291 49.6467 40.6894 49.6116C40.6751 49.6015 40.6601 49.5923 40.6444 49.5842C40.6155 49.5657 40.5877 49.5472 40.5594 49.5286C40.551 49.5229 40.5055 49.4888 40.552 49.524C40.5985 49.5592 40.5435 49.5162 40.5346 49.5086C40.4843 49.4659 40.4369 49.42 40.3926 49.3712C40.3754 49.3478 40.3565 49.3256 40.3361 49.3048C40.3361 49.3048 40.3871 49.3789 40.3626 49.3384C40.353 49.3224 40.3409 49.3078 40.3306 49.2924C40.2977 49.2431 40.2675 49.192 40.2403 49.1394C40.2281 49.1157 40.2172 49.0914 40.2053 49.0673C40.1731 49.0017 40.2379 49.1568 40.2053 49.064C40.1631 48.9473 40.1286 48.8279 40.1021 48.7066C40.0897 48.6499 40.0788 48.593 40.0686 48.5359C40.0612 48.4941 40.054 48.4518 40.0471 48.4098C40.0421 48.3801 40.021 48.2328 40.0371 48.3553C40.0329 48.2382 39.9869 48.1264 39.9074 48.0403C39.8233 47.9577 39.7103 47.9112 39.5924 47.9106C39.3773 47.9203 39.1152 48.1083 39.1478 48.3553L39.1465 48.3536Z" fill="#211715"/>
<path d="M40.0952 31.842C40.362 31.2952 40.8671 31.0175 41.442 30.8785C42.0341 30.7139 42.6635 30.7454 43.2362 30.9684C43.8304 31.2273 44.3343 31.6568 44.6843 32.2023C45.0665 32.8271 45.2183 33.6121 45.3785 34.3176C45.5213 35.0703 45.8721 35.7679 46.3912 36.3313L46.5874 35.588C45.7804 35.8361 44.9744 35.9428 44.1731 35.6202C44.0594 35.5897 43.9383 35.6051 43.8359 35.6633C43.7335 35.7214 43.6581 35.8175 43.626 35.9308C43.5975 36.0444 43.6139 36.1647 43.6717 36.2666C43.7296 36.3685 43.8245 36.4441 43.9367 36.4779C44.8714 36.854 45.8821 36.7349 46.8238 36.4456C46.8979 36.4237 46.9651 36.3831 47.0189 36.3277C47.0728 36.2723 47.1114 36.2039 47.1311 36.1292C47.1508 36.0545 47.151 35.976 47.1315 35.9012C47.1121 35.8264 47.0737 35.7579 47.02 35.7023C46.5103 35.1691 46.3425 34.5436 46.1826 33.8411C46.0042 33.057 45.7839 32.1897 45.3035 31.5324C44.8344 30.8974 44.1989 30.4044 43.4672 30.108C42.7621 29.8545 41.9971 29.8189 41.2716 30.0057C40.4662 30.1854 39.6995 30.6305 39.3273 31.393C39.2708 31.4955 39.2558 31.6158 39.2855 31.7291C39.3152 31.8423 39.3873 31.9397 39.4868 32.0013C39.5889 32.0598 39.7099 32.0758 39.8237 32.046C39.9375 32.0162 40.035 31.943 40.0952 31.842Z" fill="#211715"/>
<path d="M43.5562 40.7523C43.6148 40.7056 43.6825 40.6718 43.755 40.6529C43.8275 40.634 43.9031 40.6304 43.9771 40.6425C44.051 40.6545 44.1216 40.6819 44.1844 40.7229C44.2471 40.7638 44.3006 40.8175 44.3413 40.8803C44.4153 41.0603 44.447 41.2549 44.434 41.4491C44.4406 41.6765 44.4243 41.904 44.3853 42.1281C44.3077 42.5766 44.1452 43.006 43.9065 43.3935C43.7398 43.6576 43.4672 44.0251 43.1436 43.9388C42.59 43.7906 42.3539 44.6488 42.9071 44.7962C43.6338 44.99 44.2028 44.5213 44.5989 43.9562C44.9827 43.3796 45.2207 42.7184 45.2924 42.0294C45.3704 41.3907 45.3707 40.579 44.8533 40.1144C44.5859 39.8815 44.2429 39.7539 43.8883 39.7554C43.5337 39.7569 43.1918 39.8874 42.9264 40.1225C42.8438 40.2064 42.7975 40.3193 42.7975 40.4369C42.7975 40.5546 42.8438 40.6675 42.9264 40.7514C43.011 40.8325 43.1236 40.8778 43.2408 40.8778C43.358 40.8778 43.4707 40.8325 43.5552 40.7514L43.5562 40.7523Z" fill="#211715"/>
<path d="M30.2157 40.1643C29.9502 39.9293 29.6084 39.7989 29.2538 39.7974C28.8993 39.7959 28.5563 39.9234 28.2889 40.1561C27.7716 40.6204 27.7718 41.4329 27.8498 42.0711C27.9212 42.7601 28.1592 43.4214 28.5431 43.998C28.9395 44.5634 29.5065 45.032 30.2348 44.838C30.7873 44.6898 30.5529 43.8327 29.9984 43.9805C29.6753 44.0667 29.4018 43.6991 29.2354 43.4353C28.9967 43.0478 28.8342 42.6183 28.7567 42.1699C28.7195 41.9577 28.703 41.7425 28.7074 41.5272C28.6909 41.3209 28.723 41.1137 28.8011 40.9221C28.8419 40.8592 28.8954 40.8056 28.9581 40.7646C29.0209 40.7237 29.0915 40.6963 29.1654 40.6842C29.2393 40.6722 29.315 40.6757 29.3875 40.6946C29.46 40.7135 29.5277 40.7474 29.5863 40.794C29.6712 40.8745 29.7837 40.9194 29.9007 40.9194C30.0177 40.9194 30.1303 40.8745 30.2151 40.794C30.2976 40.7102 30.3439 40.5972 30.3439 40.4796C30.3439 40.362 30.2976 40.2491 30.2151 40.1652L30.2157 40.1643Z" fill="#211715"/>
<path d="M42.5537 43.846C42.4925 44.1909 42.399 44.5292 42.2745 44.8566C42.25 44.9272 42.3271 44.7581 42.2835 44.8344C42.265 44.8657 42.252 44.9011 42.2359 44.9337C42.2013 45.0037 42.164 45.0725 42.1259 45.1407C41.9114 45.5216 41.6674 45.8851 41.3959 46.2277C40.7348 47.0614 39.8809 47.9175 38.805 48.1527C38.2462 48.2748 38.4828 49.1322 39.0414 49.0101C40.2633 48.7431 41.2688 47.8058 42.0243 46.8565C42.678 46.0348 43.2542 45.1418 43.4107 44.0824C43.4383 43.9688 43.4215 43.849 43.3638 43.7474C43.3061 43.6457 43.2119 43.5699 43.1002 43.5353C42.9865 43.5048 42.8654 43.5203 42.763 43.5785C42.6606 43.6366 42.5852 43.7327 42.5531 43.846H42.5537Z" fill="#211715"/>
<path d="M29.5297 43.9365C29.8602 45.2104 30.5087 46.3795 31.4145 47.3343C32.3186 48.287 33.4878 49.0629 34.8094 49.2495C34.923 49.2768 35.0427 49.26 35.1443 49.2022C35.2459 49.1445 35.3217 49.0503 35.3563 48.9388C35.3868 48.8251 35.3714 48.704 35.3132 48.6016C35.2551 48.4992 35.1591 48.4239 35.0458 48.3918C32.7125 48.0626 30.9502 45.878 30.3873 43.7001C30.2441 43.1465 29.3868 43.3813 29.5297 43.9365Z" fill="#211715"/>
<path d="M44.414 40.2638C44.7526 38.1915 44.5453 35.9917 43.395 34.1885C42.2941 32.4929 40.5954 31.2737 38.6368 30.7731C36.6277 30.2579 34.5002 30.4857 32.6458 31.4147C31.2703 32.1313 30.1322 33.2314 29.3692 34.5816C28.8813 35.4729 28.5735 36.4514 28.4634 37.4615C28.3771 38.3974 28.4212 39.3407 28.5944 40.2645C28.6265 40.3777 28.7019 40.4738 28.8042 40.5319C28.9065 40.59 29.0276 40.6055 29.1413 40.575C29.2535 40.5413 29.3484 40.4657 29.4062 40.3638C29.464 40.2619 29.4804 40.1417 29.4518 40.0281C29.2141 38.5667 29.241 36.9381 29.8913 35.5167C30.4565 34.3078 31.3477 33.2806 32.4647 32.5505C33.9881 31.5891 35.8057 31.2057 37.5876 31.4698C39.3976 31.723 41.0466 32.6463 42.2085 34.0571C43.5715 35.716 43.8945 37.9584 43.5563 40.0288C43.5285 40.1424 43.5452 40.2623 43.6029 40.364C43.6607 40.4657 43.7551 40.5414 43.8669 40.5758C43.9808 40.6062 44.102 40.5905 44.2045 40.5321C44.3069 40.4737 44.3821 40.3773 44.414 40.2638Z" fill="#211715"/>
<path d="M48.6794 56.3905C48.0752 54.9781 47.2435 53.6743 46.2173 52.5311C45.1957 51.3972 43.6823 50.7115 42.2885 50.1652C42.1748 50.1347 42.0537 50.1502 41.9513 50.2083C41.849 50.2664 41.7736 50.3624 41.7414 50.4757C41.7128 50.5893 41.7292 50.7096 41.787 50.8115C41.8449 50.9134 41.9399 50.989 42.0521 51.0226C43.3231 51.521 44.7123 52.1596 45.6296 53.2061C46.5765 54.2896 47.3467 55.5158 47.9116 56.8393C47.9715 56.9406 48.069 57.0142 48.1829 57.0441C48.2968 57.0739 48.4179 57.0577 48.5198 56.9988C48.6193 56.9372 48.6914 56.8397 48.7211 56.7265C48.7508 56.6133 48.7358 56.493 48.6794 56.3905Z" fill="#211715"/>
<path d="M25.7834 56.8551C26.1749 55.7249 26.6206 54.635 27.3582 53.6812C27.6624 53.2715 28.0328 52.9155 28.4543 52.6279C28.9781 52.289 29.5261 51.9891 30.094 51.7306C30.7404 51.4264 31.4014 51.1563 32.0686 50.9012C32.1805 50.867 32.2751 50.7913 32.3329 50.6896C32.3907 50.5878 32.4073 50.4678 32.3793 50.3542C32.3472 50.241 32.2718 50.1449 32.1694 50.0868C32.067 50.0287 31.9459 50.0131 31.8322 50.0435C30.569 50.5252 29.2852 51.044 28.1406 51.7721C27.1031 52.4321 26.339 53.4211 25.7813 54.5081C25.447 55.1907 25.1611 55.896 24.9258 56.6187C24.7381 57.1606 25.5968 57.3935 25.7832 56.8551H25.7834Z" fill="#211715"/>
<path d="M39.5974 37.4963C40.2587 37.7444 40.8362 38.1748 41.263 38.7376C41.5861 39.1646 41.8402 39.6398 42.0158 40.1457C42.0501 40.2436 42.0821 40.3424 42.1116 40.4421C42.1234 40.4819 42.1347 40.5218 42.1459 40.5618C42.1541 40.5918 42.1622 40.6219 42.1701 40.652C42.1917 40.7494 42.2022 40.6904 42.2014 40.4753L42.361 40.3158L42.3387 40.3306L42.5631 40.27L42.5346 40.2674C42.4169 40.2683 42.3043 40.3154 42.2211 40.3986C42.1379 40.4818 42.0908 40.5944 42.0899 40.7121C42.0923 40.8292 42.1399 40.941 42.2228 41.0239C42.3056 41.1067 42.4174 41.1543 42.5346 41.1567C42.9051 41.1895 43.0974 40.7958 43.0405 40.4814C42.991 40.246 42.921 40.0154 42.8312 39.7922C42.66 39.3167 42.4297 38.8647 42.1457 38.4467C41.5844 37.6159 40.7754 36.9832 39.8338 36.6386C39.7202 36.6084 39.5992 36.624 39.4969 36.682C39.3946 36.7401 39.3192 36.836 39.2869 36.9491C39.2579 37.0628 39.2741 37.1833 39.332 37.2853C39.3898 37.3873 39.485 37.4629 39.5974 37.4963Z" fill="#211715"/>
<path d="M39.057 35.3565C38.9373 36.0875 38.57 36.7551 38.0165 37.2474C37.7452 37.497 37.4469 37.7157 37.1272 37.8992C37.1016 37.9147 37.0345 37.9338 37.1435 37.8957C37.1098 37.9075 37.0766 37.9214 37.0429 37.9327C36.9543 37.9644 36.8645 37.9924 36.7744 38.019C36.5486 38.0859 36.3196 38.1415 36.0889 38.1875C35.9758 38.2198 35.88 38.2952 35.8219 38.3975C35.7638 38.4997 35.7481 38.6207 35.7782 38.7344C35.8116 38.8468 35.8872 38.942 35.9892 38.9999C36.0912 39.0578 36.2117 39.074 36.3253 39.0451C36.758 38.9779 37.1791 38.8504 37.5763 38.6662C37.9668 38.4521 38.3264 38.1861 38.6455 37.8755C39.3077 37.2743 39.7537 36.4719 39.9146 35.5921C39.9423 35.4786 39.9256 35.3587 39.8679 35.257C39.8102 35.1553 39.7158 35.0795 39.6041 35.045C39.4904 35.0146 39.3693 35.0301 39.2669 35.0883C39.1646 35.1464 39.0892 35.2425 39.0572 35.3557L39.057 35.3565Z" fill="#211715"/>
<path d="M35.5503 35.3665C35.2353 36.0373 34.8046 36.6474 34.278 37.1688C33.7537 37.6633 33.0648 37.7811 32.394 37.9655C31.7119 38.1288 31.0873 38.4751 30.5874 38.9669C30.1175 39.451 29.7973 40.0604 29.6651 40.722C29.6369 40.8356 29.6534 40.9557 29.7112 41.0575C29.769 41.1593 29.8637 41.235 29.9758 41.2689C30.0894 41.2992 30.2104 41.2836 30.3127 41.2255C30.415 41.1674 30.4904 41.0715 30.5227 40.9584C30.6342 40.3546 30.9492 39.8071 31.4152 39.4073C31.911 38.9812 32.5387 38.8492 33.1532 38.6864C33.855 38.5332 34.5002 38.1876 35.0167 37.6883C35.5453 37.1353 35.9844 36.5031 36.3181 35.8146C36.3746 35.7121 36.3896 35.5918 36.3599 35.4785C36.3302 35.3653 36.2581 35.2678 36.1585 35.2062C36.0564 35.1478 35.9355 35.1318 35.8217 35.1617C35.708 35.1915 35.6104 35.2648 35.5501 35.3657L35.5503 35.3665Z" fill="#211715"/>
<path d="M31.4095 51.1253C32.4789 52.2516 34.0016 52.6709 35.4998 52.8332C37.1013 53.0066 38.7235 52.8789 40.21 52.2295C40.8935 51.9554 41.5034 51.5253 41.9912 50.9736C42.0715 50.8886 42.1163 50.7761 42.1163 50.6592C42.1163 50.5422 42.0715 50.4297 41.9912 50.3448C41.9074 50.2621 41.7944 50.2158 41.6768 50.2158C41.5591 50.2158 41.4462 50.2621 41.3624 50.3448C40.6011 51.2754 39.309 51.7291 38.1601 51.9214C37.4262 52.0284 36.6824 52.0492 35.9437 51.9835C35.2182 51.943 34.5008 51.8111 33.8084 51.5909C33.1376 51.3767 32.5297 51.0009 32.0383 50.4965C31.6433 50.0807 31.0152 50.7103 31.4095 51.1253Z" fill="#211715"/>
<path d="M63.3265 30.5485C63.2002 31.0835 63.0258 31.606 62.8056 32.1096C62.8611 31.9721 62.7787 32.1652 62.7594 32.2058C62.7224 32.2841 62.682 32.3616 62.6412 32.4385C62.5471 32.6156 62.4463 32.7892 62.3415 32.96C61.8022 33.8695 61.1138 34.6818 60.3051 35.3628C59.8709 35.7319 59.3573 35.9958 58.8044 36.1339C58.2465 36.2612 58.4826 37.1188 59.0408 36.9916C60.2038 36.7262 61.1761 35.8842 61.939 35.0045C62.593 34.2747 63.1403 33.456 63.5648 32.5728C63.5876 32.5228 63.6091 32.4722 63.6304 32.4216C63.6326 32.4166 63.6991 32.2595 63.6688 32.329C63.6413 32.3918 63.6713 32.326 63.676 32.316C63.6973 32.2695 63.7166 32.2217 63.7364 32.1744C63.7734 32.0861 63.8105 31.9975 63.8437 31.9078C63.9857 31.5427 64.0993 31.1672 64.1833 30.7845C64.3007 30.2263 63.4436 29.9878 63.3256 30.5481L63.3265 30.5485Z" fill="#211715"/>
<path d="M61.5703 15.8409C61.0471 15.4784 60.4877 15.1712 59.901 14.9242C58.7469 14.4308 57.4963 14.2043 56.2424 14.2617C52.0528 14.0151 48.0428 17.1519 47.2187 21.1209C46.9947 22.1917 47.0808 23.8486 47.2018 24.7183C47.2737 25.2337 47.4312 25.9359 47.6731 26.3128C47.7102 26.3081 47.7472 26.3057 47.7873 26.3044C47.9441 26.2981 48.1007 26.3229 48.2479 26.3775C48.3951 26.432 48.53 26.5152 48.6449 26.6222L49.5157 25.333C50.0715 24.9577 50.7313 24.6727 51.6002 24.314C51.8176 24.2354 52.0263 24.1347 52.2231 24.0135C52.2192 24.0849 52.2168 24.1321 52.2168 24.1321C52.1983 24.2113 52.2049 24.2943 52.2355 24.3697C52.2662 24.445 52.3195 24.509 52.388 24.5529C52.5758 24.6181 52.7747 24.6449 52.9731 24.632C53.6917 24.6625 54.4045 24.491 55.0305 24.1369C55.1124 24.0882 55.1886 24.0393 55.2597 23.9887H58.5417C59.0208 23.614 59.4223 23.1496 59.7239 22.6214C60.0457 22.0592 60.2673 21.4453 60.3788 20.8072H61.0847C61.2172 21.8794 61.6492 22.89 62.1119 23.8664C62.3898 24.4536 62.7316 25.0827 63.3365 25.3195L63.842 26.6809C63.9577 26.5749 64.0933 26.4928 64.2409 26.4394C64.3885 26.386 64.5452 26.3623 64.702 26.3698C64.8615 26.3738 65.0189 26.4059 65.1672 26.4647C65.7751 24.9367 65.4637 22.4463 65.21 21.1905C65.0808 20.5503 64.8717 19.9288 64.5875 19.3407C64.1437 18.3712 63.5044 17.5038 62.7096 16.793L61.5703 15.8409Z" fill="#FEBE69"/>
<path d="M48.2502 30.6992C48.591 32.2284 49.301 33.6509 50.3181 34.8426C51.3013 35.9928 52.5708 36.9079 54.0938 37.14C54.2074 37.1676 54.3272 37.1508 54.4289 37.0931C54.5305 37.0353 54.6064 36.941 54.6409 36.8293C54.6713 36.7156 54.6557 36.5945 54.5976 36.4922C54.5395 36.3899 54.4434 36.3145 54.3302 36.2824C52.9406 36.0701 51.8447 35.2634 50.9469 34.2134C50.0372 33.1317 49.4058 31.844 49.1077 30.4624C48.9832 29.904 48.1257 30.1404 48.2502 30.6988V30.6992Z" fill="#211715"/>
<path d="M61.7947 15.4569C60.2426 14.3738 58.3934 13.7978 56.5009 13.8079C55.731 13.7927 54.9611 13.841 54.1992 13.9524C53.468 14.091 52.7563 14.3177 52.0797 14.6276C49.4557 15.8089 47.2225 18.3221 46.7508 21.2137C46.6248 22.0786 46.5974 22.955 46.6693 23.826C46.7262 24.6866 46.83 25.5706 47.1929 26.3619C47.2531 26.463 47.3506 26.5364 47.4645 26.5662C47.5783 26.5961 47.6993 26.58 47.8013 26.5214C47.9011 26.46 47.9734 26.3625 48.0031 26.2492C48.0328 26.1358 48.0177 26.0154 47.9609 25.913C47.8186 25.5705 47.7205 25.2112 47.6691 24.8439C47.6224 24.5764 47.595 24.3029 47.5701 23.9876C47.5086 23.2673 47.5064 22.5431 47.5638 21.8225C47.6804 20.5124 48.2521 19.2555 49.0219 18.2024C50.5947 16.0512 53.2293 14.6511 55.9067 14.6935C56.3617 14.7008 56.8175 14.6852 57.2718 14.7209C57.7555 14.7612 58.2343 14.8472 58.7017 14.9777C59.6464 15.2432 60.5401 15.6647 61.346 16.2246C61.8191 16.5489 62.2645 15.7789 61.7947 15.4569Z" fill="#211715"/>
<path d="M65.5607 26.6681C66.0812 25.4291 66.0189 23.9475 65.8766 22.6384C65.8164 22.0277 65.7188 21.4213 65.5842 20.8227C65.3828 19.9992 65.0639 19.2089 64.6375 18.4762C64.2056 17.7312 63.6613 17.0574 63.0239 16.4784C62.6032 16.0913 61.9727 16.7192 62.3951 17.1072C63.4756 18.0931 64.2577 19.3623 64.6527 20.7706C64.9672 21.9547 65.1082 23.1783 65.0712 24.4029C65.0766 25.0961 64.9517 25.7842 64.7031 26.4313C64.6724 26.545 64.6879 26.6662 64.746 26.7687C64.8042 26.8711 64.9004 26.9464 65.0138 26.9784C65.1274 27.0067 65.2476 26.9902 65.3494 26.9324C65.4512 26.8745 65.5269 26.7798 65.5607 26.6677V26.6681Z" fill="#211715"/>
<path d="M60.6401 20.8074C60.8023 21.8441 61.1215 22.8499 61.5868 23.7904C61.9574 24.5944 62.3594 25.3896 63.2183 25.7493C63.332 25.7799 63.4532 25.7645 63.5556 25.7064C63.658 25.6482 63.7333 25.5521 63.7653 25.4387C63.7937 25.3251 63.7773 25.205 63.7195 25.1031C63.6616 25.0013 63.5669 24.9256 63.4548 24.8918C62.8543 24.6404 62.5671 23.807 62.32 23.2657C61.9363 22.4898 61.6699 21.6614 61.5294 20.8074C61.5257 20.6907 61.4776 20.5797 61.395 20.4971C61.3124 20.4145 61.2015 20.3665 61.0847 20.3628C60.967 20.3634 60.8543 20.4105 60.771 20.4937C60.6878 20.577 60.6407 20.6897 60.6401 20.8074Z" fill="#211715"/>
<path d="M48.9593 26.3079C48.7065 26.08 48.3923 25.9315 48.0557 25.881C47.7191 25.8305 47.3751 25.8802 47.0665 26.0239C46.8447 26.1376 46.6511 26.2996 46.5001 26.4981C46.3491 26.6965 46.2446 26.9262 46.1941 27.1704C46.0646 27.7426 46.0537 28.3352 46.162 28.9118C46.2704 29.4883 46.4957 30.0366 46.824 30.5227C47.2528 31.1599 47.9257 31.7324 48.7453 31.6271C48.8621 31.6235 48.9731 31.5755 49.0557 31.4929C49.1383 31.4103 49.1863 31.2993 49.19 31.1825C49.1893 31.0647 49.1423 30.952 49.059 30.8688C48.9758 30.7855 48.863 30.7385 48.7453 30.7378C48.1154 30.8188 47.6917 30.2932 47.4206 29.7885C47.1872 29.3685 47.0405 28.9058 46.9893 28.428C46.95 27.9593 46.9543 27.3953 47.2318 26.9929C47.1762 27.0746 47.2596 26.9631 47.2759 26.9464C47.2889 26.9332 47.3804 26.8595 47.3485 26.8815C47.4292 26.8269 47.5201 26.7891 47.6157 26.7704C47.7396 26.7392 47.8691 26.7381 47.9935 26.7671C48.1179 26.7961 48.2335 26.8544 48.3309 26.9371C48.7544 27.3201 49.3853 26.6931 48.9597 26.3083L48.9593 26.3079Z" fill="#211715"/>
<path d="M60.1769 38.0974C60.558 38.6966 61.2118 39.0823 61.8295 39.398C62.5567 39.7697 63.32 40.065 64.0741 40.3772C64.1878 40.4078 64.309 40.3924 64.4114 40.3343C64.5138 40.2762 64.5891 40.18 64.621 40.0667C64.6494 39.9531 64.633 39.8329 64.5752 39.7311C64.5174 39.6292 64.4226 39.5536 64.3105 39.5197C63.6435 39.244 62.9734 38.981 62.3281 38.6552C62.0224 38.5053 61.7283 38.3329 61.448 38.1394C61.3416 38.067 61.2423 37.9846 61.1516 37.8932C61.1071 37.85 61.0653 37.8048 61.0241 37.7587C61.0008 37.7326 60.9708 37.6898 61.008 37.7417C60.9862 37.7113 60.9654 37.6802 60.9452 37.649C60.8857 37.5472 60.7881 37.4732 60.674 37.4433C60.5599 37.4133 60.4386 37.43 60.3368 37.4895C60.2349 37.549 60.1609 37.6466 60.131 37.7607C60.1011 37.8748 60.1177 37.9961 60.1772 38.0979L60.1769 38.0974Z" fill="#211715"/>
<path d="M49.9225 39.5194C50.6982 39.2946 51.4557 39.0113 52.1886 38.6719C52.5221 38.5037 52.9112 38.3051 53.0234 37.9234C53.0718 37.7208 53.1095 37.5158 53.1363 37.3093L53.258 36.6265C53.2861 36.5129 53.2695 36.3929 53.2117 36.2912C53.154 36.1894 53.0594 36.1137 52.9475 36.0796C52.8338 36.0493 52.7128 36.0649 52.6105 36.1229C52.5082 36.181 52.4328 36.277 52.4005 36.3901C52.3296 36.7883 52.2634 37.1868 52.1875 37.5848C52.1821 37.6192 52.1749 37.6533 52.166 37.687C52.1649 37.687 52.1978 37.627 52.201 37.635C52.201 37.6368 52.0431 37.733 52.0254 37.7441C51.9091 37.8164 51.7888 37.882 51.6652 37.9409C51.3896 38.0705 51.1068 38.1843 50.8183 38.2818C50.4433 38.4155 50.0644 38.5384 49.6861 38.6617C49.5738 38.6953 49.4788 38.7709 49.421 38.8728C49.3631 38.9747 49.3468 39.0951 49.3756 39.2087C49.4079 39.3217 49.4833 39.4176 49.5856 39.4757C49.6879 39.5338 49.8088 39.5495 49.9225 39.5194Z" fill="#211715"/>
<path d="M49.7469 40.9175C50.6903 41.3788 51.6721 41.757 52.6812 42.0476C53.6243 42.2978 54.5918 42.4441 55.5667 42.4838C56.644 42.5335 57.7236 42.5031 58.7964 42.3928C59.5551 42.3284 60.305 42.1843 61.0336 41.963C61.6059 41.7689 62.1584 41.5207 62.6836 41.2219C63.1851 40.946 62.737 40.1777 62.2347 40.4541C62.0263 40.5688 61.8167 40.6814 61.6024 40.7846C61.5016 40.833 61.3999 40.8797 61.297 40.9238C61.3854 40.8858 61.2138 40.9569 61.187 40.9673C61.1176 40.9943 61.0478 41.0203 60.9776 41.0451C60.3561 41.2584 59.7131 41.4025 59.06 41.4749C57.1639 41.7017 55.1519 41.7295 53.285 41.2845C52.219 41.0138 51.1837 40.6337 50.1958 40.1502C50.0932 40.0939 49.973 40.079 49.8598 40.1087C49.7466 40.1384 49.6491 40.2103 49.5874 40.3098C49.5289 40.4118 49.5129 40.5327 49.5427 40.6465C49.5725 40.7603 49.6459 40.8578 49.7469 40.918V40.9175Z" fill="#211715"/>
<path d="M58.766 24.373C59.4714 23.8382 60.0244 23.128 60.3701 22.3131C60.7281 21.4762 60.9178 20.5769 60.9283 19.6667C60.9513 19.0944 60.062 19.0953 60.039 19.6667C60.03 20.096 59.9839 20.5237 59.9014 20.9451C59.8322 21.2604 59.732 21.5682 59.6023 21.8638C59.3059 22.5164 58.9101 23.178 58.3173 23.6054C58.2179 23.6672 58.1459 23.7647 58.1163 23.8778C58.0866 23.991 58.1014 24.1113 58.1577 24.2138C58.2179 24.315 58.3154 24.3884 58.4292 24.4183C58.543 24.4481 58.664 24.432 58.766 24.3734V24.373Z" fill="#211715"/>
<path d="M51.7721 24.1324C51.7507 24.3093 51.7879 24.4883 51.878 24.6419C51.9682 24.7956 52.1063 24.9154 52.2711 24.983C52.5745 25.0739 52.8925 25.1054 53.2078 25.0756C53.8374 25.059 54.4562 24.909 55.0235 24.6354C55.6045 24.344 56.1077 23.9185 56.4916 23.3941C56.8955 22.8899 57.2152 22.3239 57.4386 21.7177C57.6546 21.0396 57.7926 20.3391 57.8499 19.6297C57.8492 19.512 57.8021 19.3993 57.7189 19.316C57.6356 19.2328 57.5229 19.1857 57.4052 19.1851C57.2881 19.1877 57.1766 19.2355 57.0938 19.3183C57.0109 19.4011 56.9632 19.5126 56.9605 19.6297C56.9044 20.27 56.7735 20.9014 56.5704 21.5112C56.3472 22.0905 56.0191 22.6238 55.6025 23.0841C55.303 23.4257 54.9351 23.7005 54.5225 23.8906C54.11 24.0808 53.6621 24.182 53.2078 24.1878C53.0654 24.1908 52.9205 24.193 52.778 24.1841C52.7224 24.1855 52.6669 24.1806 52.6124 24.1697C52.6641 24.191 52.6529 24.2428 52.6615 24.1326C52.6604 24.015 52.6133 23.9025 52.5301 23.8193C52.4469 23.7361 52.3344 23.689 52.2168 23.6879C52.0996 23.6901 51.9877 23.7377 51.9048 23.8206C51.8219 23.9035 51.7743 24.0152 51.7721 24.1324Z" fill="#211715"/>
<path d="M49.7401 25.717C50.7266 25.0586 51.9313 24.8177 52.8754 24.1007C53.8298 23.3759 54.2982 22.2717 54.5761 21.1376C54.7124 20.5818 53.855 20.3448 53.7186 20.9012C53.4759 21.8908 53.0981 22.8651 52.2351 23.473C51.7757 23.7963 51.2552 23.9747 50.7429 24.1956C50.2373 24.4022 49.7515 24.6543 49.2913 24.9487C48.8174 25.265 49.2622 26.0355 49.7401 25.7167V25.717Z" fill="#211715"/>
<path d="M11.4292 35.5707C13.9759 37.8186 17.7401 38.6023 21.0147 37.8099C21.9925 37.5742 22.9265 37.1841 23.7815 36.6543C24.2664 36.3525 23.8204 35.5829 23.3326 35.8865C20.6213 37.5742 17.0324 37.6164 14.1616 36.2897C13.3987 35.9446 12.6899 35.4906 12.0574 34.9418C11.6298 34.5644 10.9986 35.191 11.4286 35.5707H11.4292Z" fill="#211715"/>
<path d="M9.93476 16.7278C10.5848 14.7087 11.8911 12.9649 13.646 11.7734C15.3192 10.6247 17.3226 10.0557 19.3498 10.1533C21.2268 10.1882 23.0497 10.788 24.5806 11.8745L25.7818 12.8594C27.2693 14.2929 28.584 16.4954 28.6164 19.6831C28.6204 20.7374 28.4592 21.7859 28.1386 22.7903C28.0248 22.756 27.9075 22.7351 27.7888 22.7279C27.6257 22.7154 27.4618 22.7354 27.3064 22.7866C27.1511 22.8379 27.0074 22.9194 26.8838 23.0265L25.661 21.9914C25.2882 20.9583 24.4091 19.8016 23.4807 18.9494C23.065 18.5522 22.585 18.2284 22.0611 17.9917L20.4944 17.7479C19.4198 18.1609 17.893 19.0515 17.0385 19.4909C16.99 19.5132 16.9363 19.5214 16.8834 19.5149C16.8305 19.5083 16.7804 19.4872 16.7388 19.4538C16.6972 19.4204 16.6657 19.3762 16.6478 19.3259C16.63 19.2757 16.6264 19.2215 16.6376 19.1693C16.6654 18.9854 16.6591 18.7979 16.6191 18.6163C16.5705 18.3841 16.3967 18.2806 16.2563 18.3484C15.0607 18.9275 13.3336 20.4684 12.35 21.4954L11.0507 22.5174C10.934 22.4027 10.7958 22.3123 10.644 22.2514C10.4922 22.1905 10.3299 22.1602 10.1663 22.1624C10.0355 22.1617 9.90503 22.178 9.77839 22.2111C9.52422 21.1841 9.42746 20.1244 9.4914 19.0683C9.54761 18.2736 9.69641 17.4881 9.93476 16.7278Z" fill="#85807F"/>
<path d="M11.365 22.2035C11.1048 21.9587 10.7771 21.7976 10.4244 21.7409C10.0716 21.6842 9.70995 21.7346 9.38612 21.8856C9.163 22.002 8.96775 22.1653 8.81381 22.3644C8.65987 22.5634 8.5509 22.7935 8.4944 23.0387C8.16795 24.1761 8.42418 25.4931 9.03707 26.492C9.46079 27.1831 10.1554 27.8036 11.0206 27.7173C11.1375 27.7141 11.2488 27.6662 11.3315 27.5835C11.4142 27.5008 11.4621 27.3895 11.4653 27.2726C11.4645 27.1549 11.4174 27.0423 11.3342 26.959C11.2509 26.8758 11.1383 26.8287 11.0206 26.828C10.3455 26.8952 9.91063 26.2934 9.64421 25.75C9.41901 25.3023 9.28572 24.814 9.25217 24.314C9.22772 23.8323 9.25217 23.2474 9.55472 22.8457C9.49173 22.9296 9.60104 22.8016 9.61549 22.7879C9.67367 22.7323 9.59308 22.7942 9.67108 22.7416C9.76733 22.6764 9.87712 22.634 9.99215 22.6174C10.1243 22.5925 10.2604 22.599 10.3896 22.6364C10.5188 22.6738 10.6374 22.7409 10.7358 22.8325C11.1494 23.2281 11.7791 22.6002 11.3647 22.2035H11.365Z" fill="#211715"/>
<path d="M27.1982 23.3409C27.3053 23.2594 27.4302 23.2044 27.5627 23.1802C27.6951 23.1561 27.8314 23.1635 27.9604 23.202C28.1156 23.232 28.2542 23.3184 28.3495 23.4445C28.6318 23.8577 28.623 24.4617 28.5651 24.9399C28.4946 25.4439 28.3246 25.9288 28.0649 26.3665C27.8055 26.8178 27.3238 27.4433 26.7269 27.3445C26.6133 27.3167 26.4934 27.3334 26.3917 27.3911C26.29 27.4488 26.2143 27.5433 26.1799 27.655C26.1495 27.7687 26.165 27.8898 26.2231 27.9922C26.2812 28.0945 26.3772 28.1699 26.4905 28.202C27.9506 28.4428 28.8392 27.0416 29.2638 25.849C29.6175 24.8556 29.6714 23.2737 28.7189 22.585C28.3961 22.3683 28.0111 22.2634 27.623 22.2863C27.2348 22.3092 26.8649 22.4586 26.5698 22.7118C26.4869 22.7957 26.4405 22.9088 26.4405 23.0267C26.4405 23.1446 26.4869 23.2578 26.5698 23.3417C26.6543 23.4228 26.767 23.4681 26.8842 23.4681C27.0013 23.4681 27.114 23.4228 27.1986 23.3417L27.1982 23.3409Z" fill="#211715"/>
<path d="M26.247 27.0586C26.1657 27.3871 26.0625 27.7099 25.9383 28.0247C25.8942 28.1388 25.8486 28.2518 25.7973 28.3628C25.7762 28.4087 25.7519 28.4534 25.731 28.4993C25.5939 28.8009 25.7627 28.445 25.6939 28.5836C25.5311 28.9146 25.348 29.2351 25.1457 29.5435C24.5667 30.4656 23.8359 31.283 22.9841 31.9612C22.5068 32.3456 21.9475 32.6153 21.3495 32.7493C21.2932 32.7648 21.2405 32.7913 21.1944 32.8272C21.1483 32.8631 21.1098 32.9077 21.0809 32.9585C21.0521 33.0093 21.0335 33.0652 21.0263 33.1232C21.0191 33.1811 21.0234 33.2399 21.0389 33.2962C21.0545 33.3525 21.0809 33.4052 21.1168 33.4513C21.1527 33.4974 21.1973 33.5359 21.2481 33.5648C21.2989 33.5936 21.3549 33.6122 21.4128 33.6194C21.4708 33.6266 21.5296 33.6223 21.5859 33.6068C22.8037 33.3659 23.8407 32.5068 24.6585 31.6141C25.3588 30.8733 25.9505 30.0368 26.416 29.1298C26.4336 29.0939 26.4506 29.0579 26.4669 29.0214C26.4888 28.978 26.5082 28.9334 26.5253 28.8878C26.4919 28.9536 26.5368 28.8693 26.5438 28.8549C26.5623 28.8178 26.579 28.7791 26.5959 28.7409C26.6351 28.6525 26.6726 28.5632 26.7096 28.4739C26.8718 28.0918 27.0039 27.6975 27.1046 27.2947C27.238 26.7389 26.3806 26.5011 26.247 27.0583V27.0586Z" fill="#211715"/>
<path d="M10.5409 26.7622C10.7709 27.9587 11.2184 29.1028 11.8614 30.1377C12.5469 31.2338 13.4618 32.2632 14.5814 32.9291C15.1534 33.2691 15.7816 33.5043 16.4363 33.6235C16.5499 33.6515 16.67 33.635 16.7717 33.5772C16.8735 33.5193 16.9492 33.4247 16.9833 33.3128C17.0136 33.1991 16.998 33.0781 16.9399 32.9758C16.8818 32.8734 16.7859 32.7981 16.6727 32.7658C15.2391 32.5064 14.1256 31.6357 13.2237 30.524C12.2967 29.361 11.6699 27.988 11.3984 26.5258C11.3661 26.4127 11.2907 26.3168 11.1884 26.2587C11.0861 26.2006 10.9651 26.185 10.8514 26.2153C10.739 26.2486 10.6439 26.3242 10.586 26.4262C10.5281 26.5282 10.5119 26.6486 10.5409 26.7622Z" fill="#211715"/>
<path d="M24.805 11.4909C23.4145 10.5386 21.8108 9.94361 20.1357 9.75842C18.4606 9.57323 16.7657 9.80357 15.2008 10.4291C13.924 10.9624 12.7707 11.7531 11.813 12.7518C10.8553 13.7505 10.1136 14.9359 9.63423 16.2339C8.96313 18.147 8.85295 20.212 9.31667 22.1856C9.44062 22.744 10.2986 22.5076 10.1741 21.949C9.52381 19.0197 10.1763 15.8832 12.2071 13.6282C13.7196 11.9619 15.7874 10.9038 18.0236 10.6518C20.2598 10.3998 22.5112 10.9712 24.3566 12.259C24.4587 12.3175 24.5796 12.3336 24.6934 12.3038C24.8072 12.2739 24.9047 12.2006 24.9649 12.0995C25.0221 11.9972 25.0374 11.8767 25.0076 11.7633C24.9779 11.6499 24.9054 11.5524 24.8054 11.4913L24.805 11.4909Z" fill="#211715"/>
<path d="M28.6046 22.777C28.8388 21.9799 28.9868 21.16 29.0461 20.3314C29.0883 19.5089 29.0408 18.6842 28.9043 17.872C28.6948 16.538 28.1978 15.2655 27.4477 14.1427C27.0755 13.5948 26.6481 13.0865 26.1721 12.6258C25.7608 12.2275 25.1312 12.8556 25.5433 13.2546C26.3381 14.0186 26.9772 14.9296 27.4249 15.937C27.9612 17.2126 28.2155 18.589 28.1703 19.9719C28.1391 20.8427 27.9968 21.706 27.7469 22.5407C27.593 23.0929 28.451 23.3285 28.6046 22.7772V22.777Z" fill="#211715"/>
<path d="M21.8356 18.3757C22.5946 18.7551 23.2698 19.2827 23.8215 19.9274C24.424 20.56 24.9022 21.3003 25.2311 22.1097C25.265 22.2217 25.3407 22.3164 25.4425 22.3742C25.5443 22.432 25.6644 22.4485 25.778 22.4202C25.8912 22.3881 25.9872 22.3127 26.0453 22.2104C26.1034 22.108 26.1189 21.987 26.0885 21.8733C25.7198 20.9407 25.1801 20.0853 24.4972 19.351C23.8842 18.6271 23.1316 18.0342 22.2843 17.6077C22.1818 17.5514 22.0615 17.5365 21.9484 17.5662C21.8352 17.5959 21.7377 17.6679 21.6761 17.7673C21.6175 17.8693 21.6015 17.9903 21.6313 18.1041C21.6611 18.2179 21.7345 18.3155 21.8356 18.3757Z" fill="#211715"/>
<path d="M12.6644 21.8102C13.6283 20.7677 14.7139 19.8447 15.898 19.0611C16.0247 18.9813 16.1536 18.9042 16.2854 18.8329C16.3192 18.8172 16.3523 18.7998 16.3843 18.7806C16.4458 18.7369 16.4282 18.7895 16.3882 18.7641C16.3697 18.7527 16.0905 18.8677 16.1946 18.7167C16.1792 18.7389 16.2035 18.7908 16.2057 18.816C16.2198 18.9763 16.1837 19.1341 16.1981 19.2925C16.2071 19.398 16.2389 19.5002 16.2912 19.5922C16.3435 19.6842 16.4151 19.7637 16.501 19.8254C16.8621 20.0831 17.2051 19.9071 17.5473 19.7248C17.8437 19.5673 18.137 19.4063 18.4318 19.2473C19.1357 18.8459 19.8636 18.4883 20.6115 18.1765C20.7233 18.1422 20.8178 18.0665 20.8755 17.9648C20.9333 17.8631 20.9499 17.7431 20.922 17.6295C20.89 17.5163 20.8146 17.4202 20.7122 17.3621C20.6099 17.304 20.4888 17.2885 20.3751 17.319C19.6747 17.6033 18.9917 17.9287 18.3297 18.2936C18.0069 18.4653 17.6859 18.6408 17.364 18.8144C17.2346 18.8843 17.1049 18.9536 16.975 19.0224C16.8723 19.0765 16.8145 19.0615 16.9527 19.1054C17.0909 19.1493 17.0837 19.2227 17.0959 19.0471C17.1234 18.6509 17.0335 18.1687 16.6555 17.9625C16.2982 17.7674 15.9404 17.9995 15.6332 18.1807C14.9952 18.5737 14.3905 19.0183 13.8251 19.5101C13.1995 20.0351 12.6022 20.593 12.0357 21.1814C11.6393 21.5944 12.2672 22.2241 12.6644 21.8102Z" fill="#211715"/>
<path d="M11.9379 35.5577C12.3355 35.4058 12.7331 35.2535 13.1306 35.1008C13.3805 35.0179 13.6251 34.9194 13.8628 34.806C14.6991 34.3569 14.8362 33.2868 14.9401 32.4403C14.9401 32.3819 14.9286 32.324 14.9063 32.2701C14.8839 32.2162 14.8512 32.1671 14.8099 32.1258C14.7686 32.0846 14.7196 32.0518 14.6656 32.0295C14.6117 32.0071 14.5539 31.9956 14.4955 31.9956C14.3786 31.999 14.2675 32.0469 14.1848 32.1296C14.1021 32.2123 14.0542 32.3234 14.0508 32.4403C14.0438 32.4967 14.0425 32.5074 14.0471 32.4723C14.0425 32.5055 14.0376 32.5386 14.0323 32.5714C14.0247 32.6207 14.0163 32.6698 14.0076 32.7197C13.9871 32.8356 13.9639 32.9512 13.9391 33.0665C13.9062 33.2348 13.8623 33.4007 13.8075 33.5632C13.7996 33.5853 13.7912 33.6071 13.7827 33.629C13.8053 33.5765 13.8064 33.5731 13.786 33.6188C13.7703 33.6497 13.7558 33.681 13.7392 33.7114C13.7197 33.7468 13.6973 33.7802 13.6764 33.8146C13.6193 33.9087 13.7105 33.7883 13.6514 33.8485C13.6267 33.8735 13.6041 33.9004 13.5785 33.9247C13.5613 33.9412 13.5437 33.9569 13.5254 33.9723C13.5684 33.9408 13.5691 33.9397 13.5281 33.9693C13.4957 33.9895 13.4646 34.0108 13.4311 34.0295C13.3993 34.0433 13.3684 34.0588 13.3384 34.076C13.3755 34.0623 13.3212 34.0809 13.3127 34.084C13.2736 34.0977 13.2352 34.1133 13.1965 34.1279C13.0673 34.1773 12.9382 34.2267 12.8093 34.2761C12.4401 34.4177 12.0708 34.5591 11.7015 34.7004C11.5893 34.734 11.4943 34.8097 11.4365 34.9115C11.3786 35.0134 11.3622 35.1337 11.3908 35.2473C11.4233 35.3604 11.4988 35.4562 11.601 35.5143C11.7033 35.5723 11.8242 35.5881 11.9379 35.558V35.5577Z" fill="#211715"/>
<path d="M11.1957 34.8275C9.76383 35.2679 8.36568 35.8114 7.01225 36.4537C5.75646 37.0465 4.5016 37.7241 3.44184 38.6321C2.3339 39.5815 1.60763 40.9312 1.12907 42.2902C0.586402 43.8296 0.353698 45.4646 0.179541 47.0819C-0.0420762 48.8872 -0.0562493 50.7119 0.137298 52.5204C0.327389 54.0741 0.660326 55.749 1.56817 57.0596C1.97325 57.6736 2.5294 58.1731 3.1832 58.5101C3.91975 58.8602 4.74036 58.9945 5.55007 58.8975C7.22309 58.7087 8.62079 57.7648 9.77079 56.5816C10.8268 55.4914 11.7703 54.2976 12.5869 53.0182C13.2897 51.8793 13.8987 50.6851 14.408 49.4475C14.5703 49.0698 14.7299 48.6909 14.8869 48.311C14.9176 48.1973 14.9023 48.0761 14.8441 47.9736C14.786 47.8712 14.6898 47.7958 14.5764 47.7639C14.4628 47.7356 14.3426 47.752 14.2408 47.8099C14.139 47.8677 14.0633 47.9625 14.0295 48.0746C13.5386 49.3123 12.9756 50.5202 12.3435 51.6921C11.6919 52.8303 10.9344 53.9045 10.0811 54.9004C9.12863 56.0325 8.04793 57.211 6.62521 57.7375C5.29569 58.2296 3.76996 58.1503 2.73687 57.0944C1.75492 56.0901 1.37863 54.6094 1.14037 53.2678C0.868353 51.5705 0.811458 49.8457 0.97103 48.1342C1.0666 46.5719 1.30593 45.0217 1.686 43.5033C2.05192 42.1355 2.6296 40.7565 3.60414 39.7052C4.42064 38.8246 5.52598 38.2071 6.58 37.6583C7.84425 37.0051 9.1552 36.4465 10.5021 35.9872C10.8108 35.8809 11.1209 35.7802 11.4323 35.685C11.9781 35.5182 11.7454 34.6593 11.1959 34.8273L11.1957 34.8275Z" fill="#211715"/>
<path d="M37.3899 44.8801C37.3729 44.8968 37.3054 44.9507 37.3782 44.8946C37.4511 44.8384 37.366 44.9011 37.3443 44.9144C37.3169 44.9312 37.2888 44.9468 37.26 44.9613C37.2415 44.9707 37.2193 44.9781 37.2015 44.9889C37.1295 45.0276 37.0755 45.0929 37.0509 45.1709C37.0264 45.2489 37.0332 45.3334 37.0701 45.4064C37.1069 45.4794 37.1708 45.5351 37.2481 45.5617C37.3254 45.5883 37.4101 45.5837 37.484 45.5488C37.558 45.5139 37.6153 45.4515 37.644 45.3749C37.6726 45.2983 37.6701 45.2135 37.6372 45.1387C37.6042 45.0639 37.5434 45.0049 37.4676 44.9743C37.3918 44.9436 37.307 44.9438 37.2313 44.9748C37.1397 45.0074 37.0458 45.0331 36.9504 45.0517C36.9269 45.0561 36.8256 45.0845 36.9404 45.0556C36.9119 45.0609 36.8829 45.0638 36.8539 45.0645C36.7852 45.0702 36.7163 45.0728 36.6473 45.073C36.5843 45.073 36.5214 45.0708 36.4587 45.066C36.4243 45.0598 36.3895 45.0563 36.3546 45.0556C36.3718 45.0415 36.4472 45.0702 36.3602 45.0545C36.2632 45.0376 36.1679 45.0124 36.0752 44.9793C36.0391 44.9661 35.9826 44.9274 36.0937 44.9889C36.078 44.9802 36.0606 44.9739 36.0445 44.9659C36.0124 44.9502 35.9811 44.9331 35.9507 44.9144C35.9275 44.9001 35.9062 44.8824 35.8829 44.8686C36.0094 44.9428 35.942 44.9164 35.9048 44.8801C35.8211 44.7979 35.7084 44.752 35.5911 44.7524C35.4738 44.7529 35.3614 44.7997 35.2785 44.8827C35.1955 44.9656 35.1487 45.078 35.1483 45.1953C35.1478 45.3126 35.1937 45.4253 35.2759 45.5089C35.628 45.853 36.1738 45.9625 36.647 45.9623C37.1202 45.9621 37.666 45.8534 38.018 45.5089C38.1003 45.4253 38.1462 45.3126 38.1457 45.1953C38.1452 45.078 38.0984 44.9656 38.0154 44.8827C37.9325 44.7997 37.8201 44.7529 37.7028 44.7524C37.5855 44.752 37.4728 44.7979 37.3892 44.8801H37.3899Z" fill="#211715"/>
<path d="M36.4387 42.596C36.4988 42.8131 36.5469 43.0332 36.5828 43.2556L36.5669 43.1374C36.5712 43.1675 36.572 43.198 36.5695 43.2284L36.5852 43.1101C36.5833 43.1241 36.58 43.1378 36.5752 43.1511L36.6201 43.0449C36.6161 43.0542 36.6113 43.063 36.6056 43.0712L36.6753 42.9812C36.6689 42.9891 36.6616 42.9962 36.6536 43.0025L36.7436 42.9328C36.7269 42.9433 36.7094 42.9526 36.6914 42.9606L36.7976 42.9158C36.7693 42.9278 36.7398 42.9364 36.7095 42.9414L36.8278 42.9256C36.8003 42.9288 36.7726 42.9288 36.7451 42.9256L36.8633 42.9415C36.8322 42.9371 36.8016 42.9295 36.7707 42.9254C36.7134 42.9069 36.6521 42.9042 36.5934 42.9175C36.5345 42.92 36.4774 42.9381 36.4279 42.9701C36.3775 42.9995 36.3334 43.0387 36.298 43.0852C36.2627 43.1317 36.2369 43.1847 36.2221 43.2412C36.2073 43.2978 36.2038 43.3566 36.2117 43.4145C36.2197 43.4724 36.2389 43.5281 36.2684 43.5785C36.2967 43.6287 36.3348 43.6726 36.3805 43.7076C36.4262 43.7427 36.4785 43.7681 36.5343 43.7823C36.6145 43.7932 36.6925 43.8133 36.7751 43.817C36.9026 43.8174 37.0282 43.7869 37.1412 43.728C37.2145 43.6935 37.2792 43.6433 37.3308 43.581C37.3824 43.5186 37.4197 43.4457 37.4399 43.3673C37.4668 43.2431 37.4658 43.1144 37.4367 42.9906C37.401 42.7781 37.3519 42.5677 37.2972 42.3592C37.2653 42.2481 37.1925 42.1532 37.0934 42.0936C37.043 42.0641 36.9873 42.0448 36.9294 42.0368C36.8715 42.0289 36.8127 42.0324 36.7562 42.0473C36.6997 42.0621 36.6466 42.0879 36.6001 42.1232C36.5536 42.1585 36.5145 42.2026 36.485 42.2531C36.4268 42.3573 36.4108 42.4799 36.4402 42.5956L36.4387 42.596Z" fill="#211715"/>
<path d="M33.0934 40.8343C32.9857 41.1843 33.0563 41.9891 33.7188 42.0571C34.595 42.0519 34.6415 41.0787 34.3467 40.6212C34.1051 40.2472 33.3952 40.0913 33.0934 40.8343Z" fill="#211715"/>
<path d="M40.0806 40.8339C40.1885 41.1839 40.1177 41.9887 39.4553 42.0567C38.5792 42.0515 38.5325 41.0783 38.8274 40.6206C39.0689 40.2466 39.7783 40.0909 40.0806 40.8339Z" fill="#211715"/>
<path d="M57.4102 48.8638L57.1276 47.9089C57.1276 47.9089 57.0906 47.7809 57.0246 47.5608C56.9079 47.6427 56.7856 47.7185 56.6541 47.7967C56.216 48.128 55.8462 48.541 55.565 49.0128C55.5634 49.0157 55.562 49.0188 55.5608 49.0219C54.4886 48.56 53.0529 47.9217 52.1063 47.3244C52.2804 46.7868 52.4266 46.2406 52.5443 45.6879C52.7246 45.0126 52.8067 44.5781 53.0029 44.0439C53.4116 42.9312 54.161 41.6033 54.5618 40.6444C54.9972 39.5764 56.5071 36.1122 56.8664 35.3516C56.9433 35.162 57.084 35.0053 57.2642 34.9084C57.4444 34.8115 57.6528 34.7806 57.8533 34.821C58.1683 34.8853 58.4462 35.3105 58.5235 35.556L58.6346 35.9064C58.785 35.8695 58.9431 35.88 59.0873 35.9364C59.4597 36.0779 59.5186 36.4044 59.5091 36.7536C59.4524 37.2885 59.3595 37.8189 59.2312 38.3412L59.8852 37.7939C60.0868 37.6981 60.3164 37.679 60.5311 37.7402C60.6884 37.7655 60.8347 37.8367 60.9519 37.9447C61.069 38.0527 61.1517 38.1928 61.1897 38.3475C61.2678 38.8785 61.2667 39.4182 61.1862 39.9488C60.9239 41.5379 60.7351 42.9154 60.4918 44.459C60.3182 45.3055 60.5487 45.9354 60.8294 46.4951L61.8087 48.3879L61.8643 48.4944C60.5572 49.0584 59.0081 49.7224 57.8122 50.2234C57.8057 50.1989 57.8016 50.1863 57.8016 50.1863L57.4102 48.8638Z" fill="white"/>
<path d="M58.9518 35.4381C58.7606 34.8884 58.3265 34.3811 57.7105 34.3604C57.4448 34.3588 57.1844 34.4354 56.9619 34.5807C56.7393 34.726 56.5644 34.9335 56.459 35.1774C56.1209 35.8894 55.8133 36.6176 55.4978 37.3399C55.1113 38.2244 54.7274 39.1099 54.3526 39.9992C53.9298 41.0017 53.4262 41.9631 52.9786 42.9541C52.677 43.6165 52.4361 44.3048 52.2588 45.0106C52.0736 45.7477 51.9146 46.4928 51.6748 47.2143C51.4942 47.7586 52.3528 47.9924 52.5325 47.4507C52.9134 46.3035 53.0657 45.0868 53.5087 43.9598C53.9459 42.8481 54.556 41.8126 55.0125 40.7086C55.2793 40.0637 55.5754 39.378 55.8833 38.6682C56.2329 37.8615 56.5861 37.0565 56.9431 36.2531C57.0609 35.9891 57.1684 35.6067 57.3653 35.3901C57.4196 35.3241 57.4946 35.2783 57.5782 35.2604C57.7079 35.225 57.5169 35.2549 57.6449 35.2491C57.6801 35.2477 57.8202 35.2791 57.7355 35.2491C57.9048 35.3399 58.0334 35.4917 58.0951 35.6736C58.1289 35.7858 58.2045 35.8806 58.3064 35.9384C58.4082 35.9963 58.5285 36.0126 58.6421 35.9841C58.7552 35.9518 58.8511 35.8764 58.9092 35.7742C58.9672 35.6719 58.9828 35.5509 58.9526 35.4372L58.9518 35.4381Z" fill="#211715"/>
<path d="M58.3944 41.8318C58.6335 41.0201 58.9465 40.232 59.3294 39.4774C59.3627 39.4163 59.399 39.3569 59.4384 39.2995C59.3389 39.4426 59.4647 39.2688 59.4441 39.2775C59.6174 39.2034 59.5638 39.6021 59.554 39.6812C59.4856 40.1271 59.3898 40.5683 59.267 41.0024C59.0262 41.9545 58.7403 42.8955 58.5165 43.8517C58.2786 44.8689 57.9606 45.931 57.2677 46.7409C56.9455 47.1168 56.5363 47.2982 56.1611 47.6137C55.7639 47.9407 55.4315 48.3392 55.1808 48.7885C54.9159 49.2952 55.6831 49.7453 55.9486 49.2374C56.1664 48.842 56.4627 48.4952 56.8194 48.2184C56.9572 48.1176 57.1982 47.9859 57.3646 47.8603C57.5763 47.7037 57.7686 47.5227 57.9377 47.3209C58.7343 46.3553 59.1092 45.1847 59.3971 43.9895C59.6546 42.9211 59.9798 41.87 60.2308 40.7999C60.3585 40.2574 60.5493 39.6254 60.3924 39.0737C60.3446 38.9142 60.2557 38.7702 60.1346 38.656C60.0135 38.5418 59.8645 38.4614 59.7025 38.423C59.5405 38.3846 59.3713 38.3895 59.2119 38.4372C59.0524 38.4849 58.9083 38.5738 58.794 38.6948C58.4659 39.0498 58.2964 39.5719 58.1185 40.0102C57.9064 40.532 57.7121 41.0608 57.5356 41.5967C57.3559 42.1416 58.2145 42.3749 58.3931 41.8331L58.3944 41.8318Z" fill="#211715"/>
<path d="M56.6741 41.2406C57.1217 40.1115 57.5643 38.9802 58.0158 37.8528C58.1173 37.5991 58.2197 37.3459 58.3228 37.0932C58.3621 36.9969 58.4017 36.9007 58.4416 36.8046C58.4482 36.7885 58.5038 36.6564 58.4805 36.7119C58.4571 36.7675 58.5077 36.6484 58.5175 36.6269C58.5822 36.4787 58.6419 36.3197 58.8325 36.3284C59.1013 36.3408 59.0758 36.6121 59.0617 36.8224C59.029 37.1309 58.9774 37.4372 58.9073 37.7395C58.8209 38.1645 58.725 38.5875 58.6196 39.0084C58.4816 39.5642 59.339 39.8008 59.4772 39.2448C59.6962 38.4634 59.8535 37.666 59.9478 36.86C59.9754 36.6715 59.9637 36.4794 59.9134 36.2958C59.8632 36.1121 59.7755 35.9408 59.6559 35.7926C59.4828 35.6185 59.2599 35.5024 59.0181 35.4604C58.7762 35.4183 58.5273 35.4524 58.3056 35.5579C57.7887 35.8009 57.6297 36.4526 57.4309 36.9409C57.1695 37.5836 56.914 38.2286 56.6587 38.8735C56.3778 39.5835 56.0972 40.2937 55.817 41.0042C55.7865 41.1179 55.802 41.239 55.8601 41.3414C55.9183 41.4437 56.0144 41.5191 56.1277 41.5511C56.2413 41.5796 56.3615 41.5633 56.4634 41.5055C56.5653 41.4476 56.6409 41.3528 56.6746 41.2406H56.6741Z" fill="#211715"/>
<path d="M60.11 38.1781C60.1655 38.154 60.2266 38.1457 60.2865 38.1544C60.3723 38.1562 60.4571 38.173 60.537 38.2041C60.5995 38.229 60.6542 38.2703 60.6953 38.3236C60.7364 38.377 60.7624 38.4403 60.7706 38.5072C60.7924 38.6514 60.8031 38.7971 60.8029 38.9429C60.8064 39.156 60.7994 39.3691 60.7832 39.5819C60.7493 40.0253 60.6397 40.5554 60.5628 41.0526C60.4809 41.5829 60.4018 42.1135 60.3219 42.6441C60.2393 43.1951 60.162 43.7476 60.0696 44.2971C59.9624 44.8179 59.9738 45.3562 60.1029 45.872C60.2686 46.372 60.4855 46.8535 60.7501 47.3089L61.4245 48.6122C61.6876 49.1207 62.4553 48.6715 62.1924 48.1634L61.5679 46.9564C61.3255 46.4878 61.043 46.0202 60.9265 45.5007C60.8084 44.976 60.9409 44.4511 61.0208 43.9307C61.1084 43.3587 61.1933 42.7862 61.2792 42.2141C61.3691 41.6168 61.4602 41.0197 61.5571 40.4234C61.6379 39.9769 61.6833 39.5246 61.6931 39.0709C61.695 38.584 61.6724 38.0364 61.3077 37.6688C60.9244 37.2821 60.1405 37.0957 59.6612 37.4094C59.1819 37.7231 59.6294 38.4922 60.1101 38.1774L60.11 38.1781Z" fill="#211715"/>
<path d="M56.6989 48.0268L57.287 50.0146L57.3726 50.3034C57.3881 50.3597 57.4146 50.4125 57.4504 50.4585C57.4863 50.5046 57.531 50.5432 57.5818 50.572C57.6325 50.6009 57.6885 50.6194 57.7465 50.6266C57.8045 50.6338 57.8633 50.6296 57.9196 50.614C57.9759 50.5985 58.0286 50.5721 58.0747 50.5362C58.1208 50.5003 58.1593 50.4557 58.1882 50.4049C58.217 50.3541 58.2356 50.2981 58.2428 50.2401C58.25 50.1822 58.2457 50.1233 58.2302 50.067L57.642 48.0794L57.5564 47.7904C57.525 47.6767 57.4498 47.5801 57.3472 47.5219C57.2446 47.4636 57.1231 47.4485 57.0094 47.4799C56.8957 47.5112 56.7991 47.5864 56.7409 47.689C56.6827 47.7916 56.6676 47.9131 56.6989 48.0268Z" fill="#211715"/>
<path d="M51.5488 47.4855C52.1672 47.9049 52.8203 48.2706 53.5011 48.5786C54.1996 48.9144 54.9104 49.2236 55.6226 49.5289C55.7253 49.5847 55.8454 49.5992 55.9584 49.5696C56.0715 49.5399 56.169 49.4684 56.2311 49.3694C56.2898 49.2674 56.306 49.1464 56.2761 49.0325C56.2463 48.9187 56.1728 48.8212 56.0716 48.7611C55.3594 48.4558 54.6485 48.1464 53.9498 47.8109C53.2692 47.5026 52.6161 47.137 51.9976 46.7177C51.8956 46.6591 51.7746 46.643 51.6608 46.6729C51.5469 46.7027 51.4494 46.7761 51.3893 46.8773C51.3322 46.9796 51.317 47.1001 51.3467 47.2135C51.3764 47.3269 51.4489 47.4243 51.5488 47.4855Z" fill="#211715"/>
<path d="M11.0314 41.6451C10.9736 41.608 10.918 41.5713 10.8646 41.5349L10.9176 41.3144C11.1971 39.6005 11.5941 37.9079 12.1058 36.2484C12.4076 35.301 12.724 34.161 13.3454 33.5527C13.7884 33.0694 14.3126 32.6676 14.8943 32.3653C16.0998 31.7758 17.3697 31.3286 18.6785 31.0326C19.0365 30.959 19.4084 30.9958 19.745 31.1382C19.8575 31.2023 19.9475 31.2995 20.0028 31.4166C20.0581 31.5337 20.076 31.665 20.054 31.7926C20.0138 32.089 19.4991 32.4237 19.0745 32.5954C18.0629 33.0049 17.1637 33.4625 16.2003 33.9121L16.124 33.9477C16.9334 34.0403 17.9336 34.1825 18.5477 34.2608C18.8221 34.2957 19.4117 34.5437 19.3529 35.2128C19.3103 35.6969 19.0289 36.0878 18.2552 36.0426C18.4629 36.1406 18.6061 36.2093 18.6061 36.2093C18.7832 36.2845 18.9276 36.4203 19.0134 36.5925C19.0993 36.7646 19.1209 36.9617 19.0745 37.1483C19.0004 37.5744 18.5237 37.7008 18.2235 37.6782L18.1924 37.676L18.3702 37.8572C18.5002 38.0351 18.5639 38.2529 18.5503 38.4728C18.5455 38.8 18.2909 39.0737 17.8809 39.1583C17.5382 39.2291 17.2064 39.288 16.6952 39.3655C16.6757 40.0695 16.6355 40.5901 16.4338 41.0948C16.1612 41.7761 15.8101 42.1824 15.248 42.3323C15.248 42.3323 14.9034 43.0187 14.574 43.6764C13.5806 43.168 12.0315 42.296 11.0314 41.6451Z" fill="white"/>
<path d="M15.5146 34.3299C16.0491 34.3767 16.5814 34.4455 17.1133 34.5151C17.39 34.5512 17.6666 34.5883 17.9432 34.6263L18.2998 34.6739C18.3536 34.681 18.4073 34.6882 18.4612 34.695C18.5559 34.7071 18.4026 34.6734 18.506 34.7039C18.5399 34.7141 18.5744 34.7225 18.6085 34.7332C18.7011 34.7597 18.58 34.7071 18.6455 34.7478C18.6826 34.771 18.7215 34.7901 18.7582 34.8134C18.7997 34.8399 18.7517 34.806 18.7458 34.8014C18.7719 34.8225 18.7945 34.846 18.8188 34.8688C18.8877 34.9339 18.8241 34.8664 18.8621 34.9253C18.8679 34.9342 18.902 34.9994 18.8744 34.9364C18.8828 34.9576 18.8899 34.9793 18.8957 35.0013C18.9108 35.0328 18.9165 35.0681 18.9122 35.1028C18.9122 35.1443 18.889 35.304 18.9094 35.2081C18.9005 35.2503 18.889 35.2918 18.8797 35.3339C18.8593 35.4278 18.902 35.3187 18.8656 35.378C18.8536 35.3976 18.7965 35.4908 18.8251 35.4521C18.8632 35.4009 18.7339 35.5384 18.7795 35.5006C18.8114 35.4743 18.7209 35.5364 18.6974 35.5488C18.6826 35.5567 18.6233 35.576 18.6906 35.5523C18.6701 35.5602 18.6491 35.5667 18.6278 35.5717C18.5247 35.5965 18.4186 35.6064 18.3128 35.601C17.9852 35.5916 17.6545 35.5367 17.3286 35.5038C16.979 35.4682 16.6294 35.4332 16.2805 35.3926C16.1628 35.3932 16.0501 35.4403 15.9668 35.5235C15.8836 35.6068 15.8365 35.7195 15.8359 35.8372C15.8386 35.9543 15.8863 36.0659 15.9691 36.1487C16.0519 36.2315 16.1634 36.2792 16.2805 36.2819C16.6294 36.3221 16.979 36.3571 17.3286 36.3931C17.6727 36.4279 18.0249 36.4909 18.371 36.4913C18.9811 36.4913 19.5247 36.2009 19.7253 35.6045C19.8264 35.3209 19.8285 35.0114 19.7314 34.7264C19.6342 34.4413 19.4435 34.1976 19.1902 34.0347C18.9815 33.9095 18.7472 33.8329 18.5047 33.8109C18.2161 33.7739 17.9274 33.7355 17.6388 33.6959C16.9323 33.6014 16.2249 33.5032 15.5146 33.4409C15.397 33.4418 15.2844 33.489 15.2012 33.5722C15.118 33.6554 15.0709 33.7679 15.0699 33.8856C15.0723 34.0028 15.1199 34.1145 15.2028 34.1974C15.2857 34.2803 15.3974 34.3279 15.5146 34.3302V34.3299Z" fill="#211715"/>
<path d="M18.3812 36.5923C18.4232 36.613 18.4621 36.638 18.5033 36.6604C18.5438 36.689 18.5411 36.6858 18.4953 36.651C18.5124 36.6653 18.529 36.6801 18.545 36.6955C18.5609 36.7108 18.5759 36.727 18.5905 36.7434C18.5558 36.696 18.5526 36.6922 18.5809 36.7321C18.5972 36.761 18.6141 36.7894 18.63 36.8187C18.5763 36.7194 18.6326 36.8466 18.6413 36.8742C18.6508 36.9243 18.6511 36.9209 18.6426 36.8639C18.645 36.8893 18.6463 36.9148 18.6467 36.9402C18.6467 36.9604 18.6282 37.1144 18.6452 37.029C18.6381 37.0639 18.629 37.0983 18.6178 37.1321C18.6412 37.0784 18.6418 37.0732 18.6194 37.1166C18.5924 37.1573 18.5968 37.1535 18.6326 37.1049C18.6085 37.1297 18.5088 37.1976 18.6046 37.1407C18.5676 37.1627 18.5322 37.1833 18.4948 37.2037C18.5918 37.1507 18.5124 37.1951 18.4827 37.2037C18.4429 37.2161 18.4023 37.2239 18.3615 37.2331C18.2819 37.2516 18.4596 37.2285 18.3319 37.2331C18.2763 37.2344 18.2206 37.2324 18.1652 37.2272C17.5345 37.1778 16.9041 37.1248 16.2739 37.0682C16.1561 37.0687 16.0433 37.1157 15.96 37.199C15.8767 37.2823 15.8297 37.3951 15.8292 37.5129C15.8322 37.6299 15.88 37.7412 15.9628 37.824C16.0455 37.9067 16.1569 37.9545 16.2739 37.9575C16.8649 38.011 17.4562 38.0609 18.0479 38.1072C18.3477 38.144 18.6518 38.0992 18.9283 37.9776C19.1198 37.8828 19.2793 37.7341 19.3872 37.5497C19.4951 37.3653 19.5465 37.1533 19.5353 36.94C19.533 36.7067 19.4657 36.4787 19.341 36.2815C19.2163 36.0844 19.039 35.9259 18.8292 35.8239C18.7273 35.7644 18.606 35.7478 18.4919 35.7777C18.3779 35.8077 18.2803 35.8817 18.2208 35.9835C18.1613 36.0854 18.1447 36.2067 18.1746 36.3208C18.2046 36.4349 18.2786 36.5324 18.3804 36.5919L18.3812 36.5923Z" fill="#211715"/>
<path d="M16.2468 39.4198C16.2418 39.5913 16.2355 39.7627 16.2235 39.9341C16.2185 40.0047 16.2127 40.0754 16.2049 40.1458C16.2011 40.1829 16.197 40.2216 16.1922 40.2594C16.2001 40.196 16.1903 40.2694 16.1862 40.2955C16.1652 40.4299 16.1362 40.5629 16.0993 40.6939C16.08 40.7618 16.0582 40.8291 16.0339 40.8956C16.0213 40.9297 16.0082 40.9638 15.9943 40.9975C15.9621 41.0767 16.0369 40.9095 15.9758 41.0407C15.9197 41.1638 15.8561 41.2832 15.7851 41.3983C15.7666 41.4263 15.7492 41.4539 15.7295 41.4811C15.7232 41.4902 15.6591 41.5737 15.6953 41.5287C15.7314 41.4837 15.6582 41.5708 15.6582 41.57C15.6419 41.5886 15.6252 41.6071 15.6082 41.6238C15.5662 41.6665 15.5218 41.7068 15.4753 41.7446C15.5218 41.7066 15.5037 41.7244 15.4657 41.7485C15.4407 41.7642 15.4164 41.7805 15.3916 41.7955C15.3712 41.8074 15.3505 41.8189 15.3295 41.8296C15.3284 41.8296 15.2278 41.8774 15.2851 41.8526C15.3423 41.8278 15.248 41.8659 15.2363 41.8698C15.201 41.8819 15.165 41.8924 15.1291 41.9024C15.0728 41.9179 15.0201 41.9444 14.974 41.9803C14.9279 42.0162 14.8894 42.0608 14.8605 42.1116C14.8317 42.1624 14.8132 42.2183 14.8059 42.2763C14.7987 42.3342 14.803 42.393 14.8185 42.4493C14.8341 42.5056 14.8605 42.5583 14.8964 42.6044C14.9323 42.6505 14.9769 42.689 15.0277 42.7179C15.0785 42.7467 15.1345 42.7653 15.1924 42.7725C15.2504 42.7797 15.3092 42.7754 15.3655 42.7599C15.6683 42.667 15.947 42.5088 16.1819 42.2964C16.4168 42.084 16.6022 41.8225 16.725 41.5306C17.04 40.8582 17.1141 40.1547 17.1363 39.4198C17.1354 39.3021 17.0882 39.1896 17.005 39.1064C16.9218 39.0232 16.8093 38.9761 16.6917 38.9751C16.5744 38.9774 16.4627 39.025 16.3798 39.1079C16.2969 39.1908 16.2491 39.3025 16.2468 39.4198Z" fill="#211715"/>
<path d="M18.0553 38.1699C18.1047 38.2233 17.9975 38.0723 18.0553 38.1734L18.0666 38.1944C18.0866 38.2363 18.0815 38.2229 18.0514 38.1542C18.0592 38.2077 18.0864 38.2626 18.0968 38.3167C18.104 38.3537 18.1014 38.4295 18.0949 38.2889C18.0949 38.3098 18.0994 38.3311 18.101 38.352C18.1038 38.3915 18.1057 38.4315 18.1047 38.4712C18.1034 38.5223 18.0803 38.5483 18.1129 38.4428C18.1053 38.4673 18.1029 38.4938 18.0957 38.5184C18.0927 38.5292 18.0894 38.5397 18.0857 38.5501C18.0694 38.5928 18.0758 38.5779 18.1051 38.5053C18.0934 38.5242 18.0827 38.5437 18.0731 38.5638C18.0653 38.5766 18.0569 38.5892 18.0482 38.6009C18.0933 38.5445 18.1049 38.5295 18.0829 38.5559C18.0631 38.5744 18.0467 38.5962 18.0273 38.6148C17.9873 38.6518 17.9639 38.6411 18.0438 38.6062C18.0187 38.6207 17.9946 38.6366 17.9713 38.6539C17.9528 38.6646 17.9032 38.6792 17.8917 38.6955L17.9493 38.6716C17.9324 38.6783 17.9156 38.6846 17.8983 38.6902C17.8377 38.7097 17.7758 38.7254 17.7131 38.737C17.6075 38.7585 17.5017 38.7792 17.3957 38.7989C17.1313 38.8478 16.8658 38.8905 16.599 38.9307C16.4873 38.9614 16.392 39.0345 16.3333 39.1345C16.2738 39.2363 16.2572 39.3576 16.2871 39.4716C16.317 39.5857 16.391 39.6832 16.4929 39.7427C16.5985 39.7965 16.7195 39.8124 16.8354 39.7875C17.1348 39.7423 17.4337 39.6949 17.7309 39.6371C18.0501 39.5985 18.3534 39.4758 18.6098 39.2818C18.7312 39.1781 18.8285 39.0492 18.8946 38.9039C18.9608 38.7586 18.9943 38.6006 18.9928 38.441C19.0052 38.1125 18.8945 37.7912 18.6824 37.54C18.5986 37.4574 18.4857 37.4111 18.368 37.4111C18.2504 37.4111 18.1374 37.4574 18.0536 37.54C17.9725 37.6246 17.9272 37.7372 17.9272 37.8544C17.9272 37.9716 17.9725 38.0842 18.0536 38.1688L18.0553 38.1699Z" fill="#211715"/>
<path d="M16.4242 34.2959C17.136 33.9624 17.84 33.6139 18.5581 33.2954C19.174 33.0214 20.0092 32.8009 20.3751 32.1762C20.7488 31.5379 20.2917 30.7883 19.6275 30.6212C18.9283 30.4453 18.2178 30.6667 17.5478 30.862C16.7983 31.0848 16.0635 31.3548 15.3481 31.6704C14.6674 31.9482 14.035 32.3319 13.4742 32.8074C12.975 33.2291 12.5757 33.7565 12.3051 34.3513C12.0465 34.9733 11.8234 35.6094 11.6367 36.2566C11.1524 37.878 10.7688 39.5277 10.488 41.1964C10.46 41.31 10.4765 41.4301 10.5343 41.5319C10.5921 41.6336 10.6867 41.7094 10.7987 41.7435C10.9124 41.7738 11.0334 41.7582 11.1357 41.7001C11.2381 41.642 11.3134 41.546 11.3456 41.4328C11.5865 40.1159 11.8397 38.8008 12.1947 37.5093C12.3633 36.896 12.5536 36.2885 12.7505 35.6838C12.9012 35.1507 13.1237 34.6405 13.4118 34.1673C13.7629 33.685 14.2079 33.2786 14.72 32.9725C15.2773 32.6454 15.8653 32.3739 16.4757 32.1619C17.1221 31.9125 17.7839 31.7047 18.4568 31.5396C18.7327 31.4727 19.4721 31.2757 19.6131 31.648C19.6429 31.7267 19.6059 31.7326 19.5468 31.7962C19.437 31.9008 19.3121 31.9883 19.1762 32.0556C18.8629 32.2293 18.5177 32.3468 18.19 32.4911C17.4441 32.8202 16.7139 33.1831 15.9756 33.5287C15.8745 33.5888 15.8011 33.6863 15.7713 33.8001C15.7414 33.9139 15.7575 34.0349 15.8161 34.1369C15.8774 34.2368 15.9748 34.3091 16.0882 34.3389C16.2015 34.3686 16.3219 34.3534 16.4243 34.2964L16.4242 34.2959Z" fill="#211715"/>
<path d="M10.014 41.4652C10.7564 42.0231 11.5388 42.5256 12.355 42.9687C13.1666 43.4367 13.9878 43.8993 14.8356 44.2995C14.9382 44.3558 15.0584 44.3706 15.1716 44.3409C15.2847 44.3112 15.3822 44.2393 15.444 44.14C15.5025 44.0379 15.5186 43.9169 15.4888 43.8031C15.4589 43.6893 15.3856 43.5918 15.2845 43.5315C14.4556 43.1404 13.6524 42.6889 12.8583 42.232C12.4222 41.9812 11.9892 41.7247 11.5631 41.4572C11.3749 41.339 11.1877 41.2188 11.0039 41.0939C10.9314 41.0445 10.8596 40.9945 10.7885 40.944C10.7564 40.921 10.7247 40.8975 10.6927 40.8741C10.5937 40.8021 10.6927 40.8762 10.6428 40.8371C10.5577 40.757 10.4453 40.7124 10.3284 40.7124C10.2116 40.7124 10.0991 40.757 10.014 40.8371C9.93136 40.9209 9.88501 41.0338 9.88501 41.1515C9.88501 41.2692 9.93136 41.3821 10.014 41.4659V41.4652Z" fill="#211715"/>
<path d="M65.2386 51.0577C64.873 50.1836 64.5066 49.3098 64.1493 48.4322C63.9674 47.9853 63.7732 47.2623 63.1257 47.4687C62.7787 47.5799 62.4402 47.7652 62.1052 47.9095C60.6288 48.5476 59.1516 49.1842 57.6679 49.8054C57.3652 49.9321 57.062 50.0578 56.7584 50.1824C56.5539 50.2357 56.3724 50.3545 56.2417 50.5206C56.1061 50.7364 56.154 50.9652 56.2072 51.1977C56.4068 52.0685 56.6191 52.9354 56.8629 53.7943C57.4095 55.7195 58.054 57.7236 59.3018 59.3186C59.8673 60.077 60.625 60.6706 61.4966 61.0382C62.3878 61.3743 63.3675 61.394 64.2714 61.0938C65.1842 60.8068 66.0157 60.3069 66.697 59.6351C67.3334 58.9753 67.8677 58.2243 68.2824 57.4068C70.2019 53.8865 71.135 49.9131 70.9834 45.9063C70.9633 45.07 70.7841 44.2452 70.4551 43.4761C70.1587 42.8027 69.7492 42.185 69.2444 41.6498C68.1883 40.5197 66.7647 39.7803 65.2942 39.3443C64.8999 39.2274 64.4997 39.1335 64.0958 39.0564C63.9821 39.0282 63.8619 39.0448 63.7601 39.1027C63.6583 39.1607 63.5827 39.2555 63.5489 39.3676C63.5186 39.4813 63.5341 39.6024 63.5922 39.7047C63.6503 39.8071 63.7462 39.8825 63.8594 39.9148C66.3259 40.3852 68.8872 41.6671 69.7826 44.1761C69.8876 44.471 69.9701 44.7735 70.0294 45.0809C70.0879 45.4763 70.1134 45.8758 70.1055 46.2754C70.1254 47.1417 70.0945 48.0084 70.0129 48.8711C69.7632 51.4169 69.0525 53.8961 67.9156 56.1875C67.5644 56.9397 67.145 57.6581 66.6626 58.3337C65.7581 59.5363 64.2809 60.4968 62.7281 60.4175C61.1072 60.3347 59.9455 58.9149 59.2301 57.5986C58.4118 56.0925 57.9262 54.3794 57.4947 52.7287C57.3967 52.3542 57.3032 51.9785 57.2142 51.6018C57.1756 51.44 57.1377 51.2781 57.1004 51.1162C57.0921 51.0321 57.0731 50.9495 57.0439 50.8702C56.9513 50.7247 56.9426 51.1635 56.8688 51.0912C56.9117 51.0762 56.9537 51.0591 56.9948 51.0399C57.564 50.8074 58.1305 50.5687 58.6969 50.3294C60.0136 49.7728 61.3276 49.2099 62.6388 48.6408L63.0714 48.4535L63.2752 48.3655C63.2997 48.3549 63.3251 48.3453 63.3493 48.3334C63.4848 48.2671 63.3799 48.3705 63.303 48.3388L63.1068 48.2245C63.1009 48.1899 63.1055 48.1964 63.1207 48.2441L63.1691 48.3638L63.2471 48.5561C63.3012 48.6894 63.3554 48.8225 63.4099 48.9556C63.5111 49.2026 63.6129 49.4496 63.7153 49.6966C63.9363 50.2297 64.1587 50.7622 64.3822 51.2939C64.4169 51.4055 64.4927 51.4998 64.5943 51.5575C64.696 51.6152 64.8157 51.632 64.9293 51.6046C65.0427 51.5726 65.1388 51.4972 65.1969 51.3948C65.255 51.2924 65.2705 51.1712 65.2399 51.0575L65.2386 51.0577Z" fill="#211715"/>
<path d="M54.5075 32.6647C54.9759 32.9094 55.4983 33.0325 56.0267 33.0227C56.5786 33.0472 57.1228 32.8868 57.5732 32.5669C57.6566 32.4835 57.7034 32.3704 57.7034 32.2525C57.7034 32.1346 57.6566 32.0215 57.5732 31.9381C57.4881 31.858 57.3756 31.8135 57.2588 31.8135C57.1419 31.8135 57.0295 31.858 56.9444 31.9381C57.0828 31.8312 56.9872 31.9042 56.9518 31.9268C56.922 31.9453 56.891 31.9639 56.8592 31.9798C56.8136 32.0035 56.7191 32.0192 56.8388 31.9931C56.7962 32.0024 56.7532 32.0255 56.7113 32.0387C56.5949 32.0748 56.4757 32.1015 56.355 32.1186C56.4215 32.1087 56.3778 32.115 56.3365 32.1186C56.3017 32.1219 56.2667 32.1247 56.2316 32.1269C56.1473 32.1319 56.063 32.1337 55.9786 32.133C55.903 32.1321 55.8276 32.1293 55.7522 32.1239C55.7175 32.1213 55.683 32.1178 55.6484 32.1149C55.5187 32.1037 55.7355 32.1313 55.6136 32.111C55.5013 32.0931 55.3904 32.0679 55.2814 32.0357C55.2349 32.0217 55.1887 32.0048 55.1435 31.9889C55.0353 31.9518 55.2228 32.0283 55.125 31.9815C55.0681 31.9542 55.012 31.9259 54.9564 31.8964C54.906 31.8669 54.8502 31.8477 54.7924 31.8397C54.7345 31.8318 54.6756 31.8353 54.6191 31.8502C54.5626 31.865 54.5096 31.8908 54.4631 31.9261C54.4166 31.9614 54.3774 32.0055 54.348 32.0559C54.3185 32.1064 54.2992 32.1621 54.2913 32.22C54.2834 32.2778 54.2869 32.3367 54.3017 32.3932C54.3165 32.4497 54.3423 32.5027 54.3776 32.5492C54.4129 32.5958 54.4571 32.6349 54.5075 32.6644V32.6647Z" fill="#211715"/>
<path d="M55.7879 29.1234C55.8556 29.3717 55.9096 29.6234 55.9496 29.8776L55.9337 29.7594C55.9386 29.7939 55.9394 29.8288 55.9361 29.8634L55.9521 29.7452C55.9497 29.7611 55.9458 29.7767 55.9404 29.7919L55.9852 29.6857C55.9807 29.6962 55.9752 29.7063 55.9687 29.7157L56.0382 29.6257C56.0309 29.6346 56.0226 29.6428 56.0136 29.6499L56.1034 29.5803C56.0843 29.5922 56.0644 29.6027 56.0438 29.6118L56.1499 29.5669C56.1176 29.5805 56.0838 29.5902 56.0491 29.5958L56.1673 29.5799C56.136 29.5837 56.1044 29.5837 56.073 29.5799L56.1912 29.5958C56.1557 29.5907 56.1207 29.582 56.0851 29.5773C56.0277 29.5589 55.9665 29.5562 55.9078 29.5694C55.849 29.572 55.792 29.5902 55.7425 29.6222C55.6921 29.6516 55.6479 29.6907 55.6126 29.7373C55.5773 29.7838 55.5515 29.8368 55.5367 29.8933C55.5219 29.9498 55.5183 30.0087 55.5263 30.0666C55.5342 30.1244 55.5535 30.1802 55.583 30.2306C55.6112 30.2807 55.6493 30.3247 55.695 30.3597C55.7406 30.3947 55.7929 30.4201 55.8487 30.4344C55.9348 30.4463 56.0184 30.4679 56.1062 30.4715C56.2406 30.4723 56.3731 30.4405 56.4925 30.3788C56.569 30.3435 56.6368 30.2917 56.6909 30.227C56.745 30.1624 56.784 30.0865 56.8052 30.0049C56.8332 29.8741 56.8322 29.7387 56.8023 29.6083C56.7621 29.3654 56.707 29.1247 56.6455 28.8857C56.6135 28.7746 56.5407 28.6797 56.4417 28.62C56.3654 28.5753 56.2775 28.5544 56.1892 28.56C56.1009 28.5655 56.0162 28.5973 55.9461 28.6512C55.876 28.7051 55.8235 28.7787 55.7954 28.8626C55.7673 28.9465 55.7649 29.0368 55.7885 29.1221L55.7879 29.1234Z" fill="#211715"/>
<path d="M51.8681 26.9568C51.7406 27.3644 51.819 28.3062 52.5934 28.3892C53.6173 28.3871 53.6762 27.2501 53.3336 26.7141C53.0531 26.2754 52.224 26.0901 51.8681 26.9568Z" fill="#211715"/>
<path d="M60.067 26.9891C60.1913 27.3984 60.1057 28.3387 59.3307 28.4157C58.3069 28.4056 58.2561 27.2682 58.6035 26.7348C58.8874 26.2981 59.7178 26.1193 60.067 26.9891Z" fill="#211715"/>
<path d="M17.5052 29.0282C17.9769 29.2891 18.5059 29.4291 19.0448 29.4358C19.5573 29.4525 20.1593 29.3851 20.5876 29.0729C20.6874 29.0114 20.7596 28.9139 20.7893 28.8006C20.819 28.6873 20.8039 28.5669 20.7471 28.4644C20.6867 28.3636 20.5892 28.2904 20.4755 28.2606C20.3618 28.2308 20.241 28.2467 20.1389 28.3049C20.0862 28.3431 20.0304 28.3769 19.9721 28.4059C19.9556 28.4142 19.938 28.4211 19.9217 28.43C19.8763 28.455 20.0225 28.3929 19.9495 28.4183C19.9017 28.4355 19.8543 28.4529 19.8054 28.4672C19.7498 28.4839 19.6926 28.4978 19.6353 28.5096C19.6064 28.5156 19.5775 28.5208 19.5486 28.5256C19.5052 28.533 19.4745 28.5345 19.5358 28.5284C19.3725 28.5452 19.2084 28.5514 19.0443 28.5469C18.9646 28.5444 18.8851 28.5395 18.8058 28.5321C18.7997 28.5321 18.6576 28.5135 18.7527 28.5276C18.7199 28.5228 18.6869 28.5174 18.6543 28.5115C18.536 28.4906 18.4193 28.4616 18.305 28.4246C18.2563 28.4087 18.2089 28.3896 18.1609 28.3718C18.1081 28.3533 18.2545 28.4168 18.1876 28.3825C18.1676 28.3723 18.1466 28.364 18.1266 28.3536C18.0677 28.3247 18.0103 28.2927 17.9534 28.261C17.903 28.2315 17.8473 28.2123 17.7894 28.2043C17.7315 28.1964 17.6727 28.1999 17.6162 28.2147C17.5597 28.2295 17.5067 28.2553 17.4602 28.2906C17.4136 28.3259 17.3745 28.37 17.345 28.4204C17.3156 28.4708 17.2963 28.5266 17.2884 28.5844C17.2804 28.6423 17.284 28.7011 17.2988 28.7576C17.3136 28.8141 17.3394 28.8671 17.3747 28.9137C17.4099 28.9602 17.4541 28.9993 17.5045 29.0288L17.5052 29.0282Z" fill="#211715"/>
<path d="M18.9446 25.3933C18.9977 25.626 19.047 25.8613 19.0795 26.0974L19.0635 25.9792C19.0715 26.0383 19.0791 26.0974 19.0876 26.1563L19.0719 26.0381C19.0787 26.0829 19.0796 26.1284 19.0746 26.1735L19.0904 26.0553C19.0875 26.0718 19.0831 26.0879 19.077 26.1035L19.1217 25.9973C19.1165 26.0081 19.1103 26.0184 19.1032 26.0281L19.1726 25.9382C19.1677 25.9444 19.1622 25.9501 19.1562 25.9553L19.246 25.8858C19.2233 25.9014 19.1988 25.9142 19.173 25.924L19.2792 25.8791C19.2492 25.8907 19.2182 25.8993 19.1865 25.9047L19.3047 25.8888C19.2712 25.893 19.2373 25.893 19.2038 25.8888L19.322 25.9047C19.2812 25.8986 19.2416 25.8871 19.2008 25.8802C19.085 25.8524 18.963 25.8684 18.8582 25.9251C18.8078 25.9545 18.7637 25.9936 18.7283 26.0402C18.693 26.0867 18.6672 26.1397 18.6524 26.1962C18.6376 26.2527 18.6341 26.3116 18.642 26.3695C18.65 26.4273 18.6692 26.4831 18.6987 26.5335C18.7273 26.5834 18.7654 26.6271 18.8111 26.6621C18.8567 26.6971 18.9088 26.7227 18.9644 26.7373C19.053 26.7521 19.136 26.7731 19.2271 26.7801C19.3703 26.7845 19.5122 26.7518 19.639 26.6852C19.715 26.6485 19.7819 26.5953 19.8349 26.5295C19.8879 26.4637 19.9257 26.387 19.9454 26.3049C19.9727 26.1692 19.9712 26.0294 19.941 25.8943L19.9569 26.0125C19.9199 25.7249 19.8682 25.4393 19.802 25.1569C19.7699 25.0437 19.6945 24.9477 19.5922 24.8896C19.4899 24.8314 19.3688 24.8159 19.2551 24.8462C19.1428 24.8798 19.0477 24.9554 18.9898 25.0574C18.9319 25.1593 18.9158 25.2797 18.9446 25.3933Z" fill="#211715"/>
<path d="M14.9027 23.0132C14.7578 23.4351 14.8117 24.4178 15.6162 24.5271C16.6832 24.5549 16.7779 23.3719 16.4368 22.804C16.1574 22.3377 15.299 22.1204 14.9027 23.0132Z" fill="#211715"/>
<path d="M23.4447 23.2878C23.5622 23.718 23.4447 24.6959 22.6354 24.7526C21.569 24.712 21.5503 23.5253 21.9271 22.9797C22.2358 22.5332 23.1064 22.3712 23.4447 23.2878Z" fill="#211715"/>
<path d="M64.1562 26.9958C64.2453 26.9211 64.3498 26.8668 64.4622 26.837C64.5746 26.8072 64.6923 26.8025 64.8067 26.8234C64.9266 26.8394 65.0409 26.8839 65.1402 26.953C65.1143 26.9345 65.2927 27.1139 65.2328 27.037C65.5293 27.4227 65.525 28.0106 65.4865 28.4699C65.4355 28.9484 65.2888 29.4117 65.0552 29.8324C64.8286 30.2554 64.3859 30.8884 63.8244 30.8125C63.7108 30.7851 63.5911 30.802 63.4896 30.8597C63.388 30.9173 63.3122 31.0115 63.2775 31.123C63.2469 31.2367 63.2624 31.3578 63.3205 31.4602C63.3786 31.5626 63.4747 31.638 63.588 31.6701C65.0051 31.8632 65.8359 30.5151 66.215 29.3401C66.3965 28.7442 66.4384 28.1145 66.3374 27.4998C66.3119 27.2446 66.234 26.9975 66.1087 26.7738C65.9833 26.5501 65.8131 26.3547 65.6088 26.1997C65.2912 25.9963 64.9157 25.9025 64.5398 25.9328C64.1639 25.9631 63.8082 26.1159 63.5274 26.3676C63.099 26.7489 63.7297 27.376 64.1562 26.9964V26.9958Z" fill="#211715"/>
</svg>
