<svg width="76" height="71" viewBox="0 0 76 71" fill="none" xmlns="http://www.w3.org/2000/svg">
<path d="M63.1958 13.8945L58.6958 12.6758L63.1958 11.457L64.4146 6.95703L65.6333 11.457L70.2271 12.6758L65.6333 13.8945L64.4146 18.4883L63.1958 13.8945ZM67.6958 18.8633L65.9146 18.4883L67.6958 18.0195L68.0708 16.2383L68.5396 18.0195L70.3208 18.4883L68.5396 18.8633L68.0708 20.6445L67.6958 18.8633Z" fill="#FDCD60"/>
<path d="M4.41455 54.7695L2.4458 54.3008L4.41455 53.832L4.8833 51.8633L5.35205 53.832L7.3208 54.3008L5.35205 54.7695L4.8833 56.7383L4.41455 54.7695Z" fill="#FDCD60"/>
<path d="M11.5396 10.8945C11.5396 11.1183 11.6284 11.3329 11.7867 11.4912C11.9449 11.6494 12.1595 11.7383 12.3833 11.7383C12.6071 11.7383 12.8217 11.6494 12.9799 11.4912C13.1382 11.3329 13.2271 11.1183 13.2271 10.8945C13.2271 10.6708 13.1382 10.4561 12.9799 10.2979C12.8217 10.1397 12.6071 10.0508 12.3833 10.0508C12.1595 10.0508 11.9449 10.1397 11.7867 10.2979C11.6284 10.4561 11.5396 10.6708 11.5396 10.8945Z" fill="#5546CB"/>
<path d="M16.5083 64.707L13.9771 64.1445L16.5083 63.4883L17.0708 60.957L17.7271 63.4883L20.2583 64.1445L17.7271 64.707L17.0708 67.2383L16.5083 64.707Z" fill="#FDCD60"/>
<path d="M67.5083 65.3633C67.0448 65.3633 66.5916 65.2258 66.2062 64.9683C65.8208 64.7108 65.5204 64.3447 65.343 63.9164C65.1656 63.4882 65.1192 63.0169 65.2096 62.5623C65.3 62.1076 65.5232 61.69 65.851 61.3623C66.1788 61.0345 66.5964 60.8113 67.0511 60.7208C67.5057 60.6304 67.977 60.6768 68.4052 60.8542C68.8335 61.0316 69.1995 61.332 69.4571 61.7174C69.7146 62.1028 69.8521 62.556 69.8521 63.0195C69.8521 63.6411 69.6051 64.2373 69.1656 64.6768C68.726 65.1164 68.1299 65.3633 67.5083 65.3633ZM67.5083 61.9883C67.3229 61.9883 67.1416 62.0433 66.9875 62.1463C66.8333 62.2493 66.7131 62.3957 66.6422 62.567C66.5712 62.7383 66.5526 62.9268 66.5888 63.1087C66.625 63.2905 66.7143 63.4576 66.8454 63.5887C66.9765 63.7198 67.1435 63.8091 67.3254 63.8453C67.5073 63.8814 67.6958 63.8629 67.8671 63.7919C68.0384 63.721 68.1848 63.6008 68.2878 63.4466C68.3908 63.2925 68.4458 63.1112 68.4458 62.9258C68.4458 62.6771 68.347 62.4387 68.1712 62.2629C67.9954 62.0871 67.7569 61.9883 67.5083 61.9883Z" fill="#5546CB"/>
<path d="M48.2896 34.8008L47.3521 33.207L48.3833 32.5508V14.6445L46.3208 15.957C46.51 16.692 46.6045 17.4481 46.6021 18.207C46.6021 20.832 44.8208 24.207 41.1646 28.332C43.1333 28.9883 44.3521 30.1133 44.3521 31.5195C44.3521 32.9258 41.4458 35.2695 37.6958 35.2695C33.9458 35.2695 31.0396 33.6758 31.0396 31.5195C31.0396 29.3633 32.2583 28.9883 34.2271 28.332L31.8833 25.5195L28.1333 27.957V44.832H28.3208L29.3521 44.1758L30.3833 45.7695L28.7896 46.707H28.1333V57.207L48.3833 47.6445V34.707L48.2896 34.8008ZM35.6333 42.582L34.1333 43.5195L33.3833 43.9883L32.6333 44.457H32.5396L32.0708 43.6133L31.6021 42.8633L32.4458 42.3945L34.6958 40.9883L35.6333 42.582ZM40.8833 39.3008L37.7896 41.1758L36.8521 39.582L39.9458 37.707L40.8833 39.3008ZM46.1333 36.0195L43.0396 37.8945L42.1021 36.3008L43.6958 35.3633L45.1958 34.4258L46.1333 36.0195ZM7.1333 47.7383L26.2583 57.0195V27.7695L7.1333 15.4883V47.7383ZM22.3208 40.8008L25.3208 42.8633L24.2896 44.3633L21.2896 42.3008L22.3208 40.8008ZM16.9771 37.8945L17.3521 37.4258L18.1021 37.9883L20.2583 39.4883L19.2271 40.9883L17.8208 39.957L17.0708 39.3945L16.3208 38.832L16.9771 37.8945ZM13.0396 33.6758C13.5773 33.6758 14.1029 33.8352 14.55 34.134C14.9971 34.4327 15.3456 34.8573 15.5513 35.3541C15.7571 35.8509 15.811 36.3975 15.7061 36.9249C15.6012 37.4523 15.3422 37.9368 14.962 38.317C14.5818 38.6972 14.0973 38.9561 13.57 39.061C13.0426 39.1659 12.4959 39.1121 11.9991 38.9063C11.5023 38.7006 11.0777 38.3521 10.779 37.905C10.4803 37.4579 10.3208 36.9322 10.3208 36.3945C10.3206 36.0295 10.3939 35.6681 10.5363 35.332C10.6788 34.9959 10.8875 34.6919 11.15 34.4382C11.4124 34.1844 11.7233 33.9862 12.0641 33.8552C12.4048 33.7242 12.7685 33.6632 13.1333 33.6758H13.0396ZM50.2583 32.457L51.3833 33.0195L50.5396 34.707L50.2583 34.5195V47.7383L70.6021 56.6445V27.8633L50.2583 14.457V32.457ZM66.7583 38.832C67.296 38.832 67.8217 38.9915 68.2688 39.2902C68.7159 39.589 69.0643 40.0136 69.2701 40.5104C69.4759 41.0071 69.5297 41.5538 69.4248 42.0812C69.3199 42.6086 69.061 43.093 68.6807 43.4732C68.3005 43.8535 67.8161 44.1124 67.2887 44.2173C66.7613 44.3222 66.2147 44.2684 65.7179 44.0626C65.2211 43.8568 64.7965 43.5083 64.4977 43.0612C64.199 42.6141 64.0396 42.0885 64.0396 41.5508C64.0396 40.8297 64.326 40.1382 64.8359 39.6283C65.3457 39.1185 66.0372 38.832 66.7583 38.832ZM60.0083 37.4258L63.3833 39.207L62.5396 40.8945L59.1646 39.207L60.0083 37.4258ZM53.5396 35.2695L54.0083 34.332L54.8521 34.707L55.6958 35.082L57.3833 35.9258L56.5396 37.6133L54.0083 36.3008L53.1646 35.9258L53.5396 35.2695Z" fill="#FDCD60"/>
<path d="M49.5083 11.7381L45.6646 14.2694C44.7963 12.4146 43.3154 10.9158 41.4712 10.0253C39.627 9.13476 37.5323 8.90699 35.5398 9.38034C33.5474 9.85369 31.7789 10.9992 30.5323 12.624C29.2857 14.2488 28.6371 16.2536 28.6958 18.3006C28.6958 19.8944 29.3521 21.8631 30.7583 24.0194L27.2896 26.2694L5.2583 12.1131V48.8631L27.3833 59.6444L49.2271 49.3319L72.4771 59.4569V26.8319L49.5083 11.7381ZM30.5708 18.2069C30.5708 16.3297 31.3165 14.5293 32.6439 13.2019C33.9713 11.8745 35.7717 11.1288 37.6489 11.1288C39.5262 11.1288 41.3265 11.8745 42.6539 13.2019C43.9813 14.5293 44.7271 16.3297 44.7271 18.2069C44.7271 21.3006 40.9771 25.8006 37.6958 29.2694C31.8833 23.3631 30.5708 19.9881 30.5708 18.2069ZM39.6646 29.8319C41.3521 30.2069 42.3833 30.9569 42.3833 31.5194C42.3833 32.0819 40.5083 33.3944 37.6021 33.3944C34.6958 33.3944 32.8208 32.2694 32.8208 31.5194C32.8208 30.7694 33.8521 30.2069 35.5396 29.8319L36.9458 31.2381L37.6021 31.8944L38.2583 31.2381L39.6646 29.8319ZM26.2583 57.0194L7.1333 47.7381V15.4881L26.2583 27.7694V57.0194ZM28.1333 57.2069V46.8006H28.7896L30.3833 45.8631L29.3521 44.2694L28.3208 44.9256H28.1333V27.9569L31.8833 25.5194L34.2271 28.3319C32.2583 28.9881 31.0396 30.1131 31.0396 31.5194C31.0396 32.9256 33.9458 35.2694 37.6958 35.2694C41.4458 35.2694 44.3521 33.6756 44.3521 31.5194C44.3521 29.3631 43.1333 28.9881 41.1646 28.3319C44.8208 24.2069 46.6021 20.8319 46.6021 18.2069C46.6045 17.448 46.51 16.6918 46.3208 15.9569L48.3833 14.6444V32.4569L47.3521 33.1131L48.2896 34.7069H48.3833V47.6444L28.1333 57.2069ZM70.6021 56.6444L50.2583 47.7381V34.5194L50.5396 34.7069L51.3833 33.0194L50.2583 32.4569V14.4569L70.6021 27.8631V56.6444Z" fill="#5546CB"/>
<path d="M16.3208 38.9258L17.0708 39.3945L17.8208 39.957L19.2271 40.9883L20.3521 39.3945L18.1021 37.8945L17.3521 37.332L16.9771 37.8008L16.3208 38.9258ZM24.2896 44.3633L25.3208 42.8633L22.3208 40.8008L21.2896 42.3008L24.2896 44.3633ZM34.6021 40.9883L32.3521 42.3945L31.5083 42.8633L31.6021 42.957H31.5083L31.9771 43.707L32.4458 44.5508V44.457L32.5396 44.5508L33.2896 44.082L34.1333 43.6133H34.0396L35.6333 42.582L34.6021 40.9883ZM39.8521 37.8008L36.7583 39.6758L37.7896 41.2695L40.8833 39.3945L39.9458 37.8008H39.8521ZM45.1958 34.5195L43.6958 35.457L42.1021 36.3945L43.0396 37.9883L46.1333 36.1133L45.1958 34.5195ZM53.1646 36.0195L54.0083 36.3945L56.5396 37.707L57.3833 36.1133V36.0195L55.6958 35.1758L54.8521 34.8008L54.0083 34.332L53.5396 35.2695L53.1646 36.0195ZM62.5396 40.8008L63.3833 39.1133L60.0083 37.4258L59.1646 39.0195V39.1133L62.5396 40.8008Z" fill="#5546CB"/>
<path d="M66.7583 42.582C66.9623 42.582 67.1616 42.5216 67.3312 42.4082C67.5008 42.2949 67.633 42.1339 67.7111 41.9454C67.7891 41.757 67.8095 41.5496 67.7697 41.3496C67.7299 41.1496 67.6317 40.9658 67.4875 40.8216C67.3433 40.6774 67.1595 40.5791 66.9595 40.5393C66.7594 40.4996 66.5521 40.52 66.3637 40.598C66.1752 40.6761 66.0142 40.8083 65.9008 40.9778C65.7875 41.1474 65.7271 41.3468 65.7271 41.5508C65.7271 41.8243 65.8357 42.0866 66.0291 42.28C66.2225 42.4734 66.4848 42.582 66.7583 42.582Z" fill="#F97744"/>
<path d="M66.7583 44.2695C67.296 44.2695 67.8217 44.1101 68.2688 43.8113C68.7159 43.5126 69.0643 43.088 69.2701 42.5912C69.4759 42.0944 69.5297 41.5478 69.4248 41.0204C69.3199 40.493 69.061 40.0086 68.6807 39.6283C68.3005 39.2481 67.8161 38.9892 67.2887 38.8843C66.7613 38.7794 66.2147 38.8332 65.7179 39.039C65.2211 39.2448 64.7965 39.5932 64.4977 40.0403C64.199 40.4874 64.0396 41.0131 64.0396 41.5508C64.0396 42.2718 64.326 42.9634 64.8359 43.4732C65.3457 43.9831 66.0372 44.2695 66.7583 44.2695ZM66.7583 40.5195C66.9623 40.5195 67.1616 40.58 67.3312 40.6933C67.5008 40.8066 67.633 40.9677 67.7111 41.1561C67.7891 41.3446 67.8095 41.5519 67.7697 41.752C67.7299 41.952 67.6317 42.1358 67.4875 42.28C67.3433 42.4242 67.1595 42.5224 66.9595 42.5622C66.7594 42.602 66.5521 42.5816 66.3637 42.5035C66.1752 42.4255 66.0142 42.2933 65.9008 42.1237C65.7875 41.9541 65.7271 41.7547 65.7271 41.5508C65.7271 41.2773 65.8357 41.015 66.0291 40.8216C66.2225 40.6282 66.4848 40.5195 66.7583 40.5195Z" fill="#5546CB"/>
<path d="M13.1333 37.4258C13.3373 37.4258 13.5366 37.3653 13.7062 37.252C13.8758 37.1387 14.008 36.9776 14.0861 36.7892C14.1641 36.6007 14.1845 36.3934 14.1447 36.1933C14.1049 35.9933 14.0067 35.8096 13.8625 35.6653C13.7183 35.5211 13.5345 35.4229 13.3345 35.3831C13.1344 35.3433 12.9271 35.3637 12.7387 35.4418C12.5502 35.5198 12.3892 35.652 12.2758 35.8216C12.1625 35.9912 12.1021 36.1906 12.1021 36.3945C12.1021 36.668 12.2107 36.9303 12.4041 37.1237C12.5975 37.3171 12.8598 37.4258 13.1333 37.4258Z" fill="white"/>
<path d="M13.1333 39.1133C13.671 39.1133 14.1967 38.9538 14.6438 38.6551C15.0909 38.3563 15.4393 37.9317 15.6451 37.435C15.8509 36.9382 15.9047 36.3915 15.7998 35.8641C15.6949 35.3367 15.436 34.8523 15.0557 34.4721C14.6755 34.0919 14.1911 33.8329 13.6637 33.728C13.1363 33.6231 12.5897 33.677 12.0929 33.8827C11.5961 34.0885 11.1715 34.437 10.8727 34.8841C10.574 35.3312 10.4146 35.8568 10.4146 36.3945C10.4146 37.1156 10.701 37.8071 11.2109 38.317C11.7207 38.8268 12.4122 39.1133 13.1333 39.1133ZM13.1333 35.3633C13.3373 35.3633 13.5366 35.4238 13.7062 35.5371C13.8758 35.6504 14.008 35.8115 14.0861 35.9999C14.1641 36.1883 14.1845 36.3957 14.1447 36.5957C14.1049 36.7958 14.0067 36.9795 13.8625 37.1237C13.7183 37.268 13.5345 37.3662 13.3345 37.406C13.1344 37.4458 12.9271 37.4253 12.7387 37.3473C12.5502 37.2692 12.3892 37.1371 12.2758 36.9675C12.1625 36.7979 12.1021 36.5985 12.1021 36.3945C12.1021 36.121 12.2107 35.8587 12.4041 35.6653C12.5975 35.4719 12.8598 35.3633 13.1333 35.3633Z" fill="#5546CB"/>
<path d="M37.0396 31.332L35.6333 29.9258C33.9458 30.3008 32.9146 31.0508 32.9146 31.6133C32.9146 32.1758 34.7896 33.4883 37.6958 33.4883C40.6021 33.4883 42.4771 32.3633 42.4771 31.6133C42.4771 30.8633 41.4458 30.3008 39.7583 29.9258L38.3521 31.332L37.6958 31.9883L37.0396 31.332Z" fill="#AFBCF3"/>
<path d="M37.6958 29.3633C41.0708 25.8945 44.7271 21.3945 44.7271 18.3008C44.7271 16.4235 43.9813 14.6232 42.6539 13.2958C41.3265 11.9684 39.5262 11.2227 37.6489 11.2227C35.7717 11.2227 33.9713 11.9684 32.6439 13.2958C31.3165 14.6232 30.5708 16.4235 30.5708 18.3008C30.5708 19.9883 31.8833 23.3633 37.6958 29.3633ZM34.4146 18.3945C34.4146 17.7456 34.607 17.1112 34.9675 16.5716C35.3281 16.032 35.8406 15.6114 36.4401 15.3631C37.0397 15.1147 37.6994 15.0497 38.3359 15.1763C38.9724 15.3029 39.5571 15.6154 40.016 16.0743C40.4749 16.5332 40.7874 17.1179 40.914 17.7544C41.0406 18.3909 40.9756 19.0506 40.7273 19.6502C40.4789 20.2498 40.0584 20.7622 39.5188 21.1228C38.9792 21.4833 38.3448 21.6758 37.6958 21.6758C36.8256 21.6758 35.991 21.3301 35.3756 20.7147C34.7603 20.0994 34.4146 19.2648 34.4146 18.3945Z" fill="#F97744"/>
<path d="M34.4146 18.3945C34.4146 19.2648 34.7603 20.0994 35.3756 20.7147C35.991 21.3301 36.8256 21.6758 37.6958 21.6758C38.566 21.6758 39.4006 21.3301 40.016 20.7147C40.6313 20.0994 40.9771 19.2648 40.9771 18.3945C40.9771 17.5243 40.6313 16.6897 40.016 16.0743C39.4006 15.459 38.566 15.1133 37.6958 15.1133C36.8256 15.1133 35.991 15.459 35.3756 16.0743C34.7603 16.6897 34.4146 17.5243 34.4146 18.3945Z" fill="white"/>
</svg>
