<svg width="41" height="41" viewBox="0 0 41 41" fill="none" xmlns="http://www.w3.org/2000/svg">
<g clip-path="url(#clip0_63_9985)">
<path d="M33.7648 29.7728V16.8824C33.7648 9.55649 27.826 3.61768 20.5001 3.61768C13.1742 3.61768 7.23535 9.55649 7.23535 16.8824V29.7728H9.64712C12.8865 29.7728 16.5041 29.7728 20.5001 29.7728C24.496 29.7728 28.1136 29.7728 31.353 29.7728H33.7648Z" fill="url(#paint0_linear_63_9985)"/>
<path d="M34.3678 27.7354C36.6987 27.7354 38.5883 29.625 38.5883 31.9559C38.5883 34.2869 36.6987 36.1765 34.3678 36.1765H6.63245C4.30149 36.1765 2.41187 34.2869 2.41187 31.9559C2.41187 29.625 4.30149 27.7354 6.63245 27.7354H34.3678Z" fill="url(#paint1_linear_63_9985)"/>
<path d="M13.2648 33.7647C13.2648 37.7606 16.5041 41 20.5001 41C24.496 41 27.7354 37.7606 27.7354 33.7647H13.2648Z" fill="url(#paint2_linear_63_9985)"/>
<path d="M18.0883 6.10498L22.9118 6.10498H25.3236V4.22042C25.3236 1.88946 23.434 -0.000164032 21.103 -0.000164032H19.8971C17.5662 -0.000164032 15.6765 1.88946 15.6765 4.22042V6.10498H18.0883Z" fill="url(#paint3_linear_63_9985)"/>
<path d="M31.353 3.61768C28.0231 3.61768 25.3236 6.31714 25.3236 9.64709C25.3236 12.977 28.0231 15.6765 31.353 15.6765C34.683 15.6765 37.3824 12.977 37.3824 9.64709C37.3824 6.31714 34.683 3.61768 31.353 3.61768Z" fill="url(#paint4_linear_63_9985)"/>
</g>
<defs>
<linearGradient id="paint0_linear_63_9985" x1="1333.71" y1="3.61768" x2="1333.71" y2="2619.13" gradientUnits="userSpaceOnUse">
<stop stop-color="#FFC923"/>
<stop offset="1" stop-color="#FFAD41"/>
</linearGradient>
<linearGradient id="paint1_linear_63_9985" x1="1811.24" y1="27.7354" x2="1811.24" y2="871.853" gradientUnits="userSpaceOnUse">
<stop stop-color="#FE9F15"/>
<stop offset="1" stop-color="#FFB03C"/>
</linearGradient>
<linearGradient id="paint2_linear_63_9985" x1="-695.794" y1="41" x2="-695.794" y2="-682.529" gradientUnits="userSpaceOnUse">
<stop stop-color="#FFB637"/>
<stop offset="1" stop-color="#FFBE2F"/>
</linearGradient>
<linearGradient id="paint3_linear_63_9985" x1="-457.029" y1="6.10498" x2="-457.029" y2="-604.409" gradientUnits="userSpaceOnUse">
<stop stop-color="#FFC226"/>
<stop offset="1" stop-color="#FFE825"/>
</linearGradient>
<linearGradient id="paint4_linear_63_9985" x1="628.265" y1="3.61768" x2="628.265" y2="1209.5" gradientUnits="userSpaceOnUse">
<stop stop-color="#EB2E2E"/>
<stop offset="1" stop-color="#D71919"/>
</linearGradient>
<clipPath id="clip0_63_9985">
<rect width="41" height="41" fill="white"/>
</clipPath>
</defs>
</svg>
