<svg width="61" height="61" viewBox="0 0 61 61" fill="none" xmlns="http://www.w3.org/2000/svg">
<path d="M49.8571 43.7443H2.99274C1.86734 43.7443 0.9552 42.8321 0.9552 41.7067V11.143C0.9552 10.0176 1.86734 9.10547 2.99274 9.10547H49.8571C50.9825 9.10547 51.8946 10.0176 51.8946 11.143V41.7066C51.8946 42.832 50.9825 43.7443 49.8571 43.7443Z" fill="#F4F296"/>
<path d="M16.2369 24.3871H8.08664C7.52406 24.3871 7.06787 23.9309 7.06787 23.3683V17.2556C7.06787 16.693 7.52406 16.2368 8.08664 16.2368H16.2369C16.7995 16.2368 17.2557 16.693 17.2557 17.2556V23.3683C17.2557 23.9309 16.7995 24.3871 16.2369 24.3871Z" fill="#F5D183"/>
<path d="M47.8194 24.3872C39.3796 24.3872 32.5376 31.2291 32.5376 39.669C32.5376 41.0826 32.7448 42.445 33.1039 43.7442H49.8569C50.9822 43.7442 51.8945 42.8318 51.8945 41.7067V24.9537C50.5954 24.5944 49.2329 24.3872 47.8194 24.3872Z" fill="#F5D183"/>
<path d="M35.0845 24.3873C37.6165 24.3873 39.6691 22.3348 39.6691 19.8028C39.6691 17.2708 37.6165 15.2183 35.0845 15.2183C32.5526 15.2183 30.5 17.2708 30.5 19.8028C30.5 22.3348 32.5526 24.3873 35.0845 24.3873Z" fill="#FF507D"/>
<path d="M41.1973 24.3873C43.7293 24.3873 45.7819 22.3348 45.7819 19.8028C45.7819 17.2708 43.7293 15.2183 41.1973 15.2183C38.6654 15.2183 36.6128 17.2708 36.6128 19.8028C36.6128 22.3348 38.6654 24.3873 41.1973 24.3873Z" fill="#F5D183"/>
<path d="M36.6128 19.8029C36.6128 21.1554 37.2094 22.3586 38.141 23.1976C39.0726 22.3584 39.6692 21.1552 39.6692 19.8029C39.6692 18.4504 39.0726 17.2472 38.141 16.4082C37.2094 17.2472 36.6128 18.4504 36.6128 19.8029Z" fill="#FF8C66"/>
<path d="M47.8195 51.8944C54.5714 51.8944 60.045 46.4208 60.045 39.6689C60.045 32.9169 54.5714 27.4434 47.8195 27.4434C41.0675 27.4434 35.594 32.9169 35.594 39.6689C35.594 46.4208 41.0675 51.8944 47.8195 51.8944Z" fill="#B4E66E"/>
<path d="M53.9321 49.4492C47.1802 49.4492 41.7066 43.9757 41.7066 37.2237C41.7066 33.2598 43.6015 29.747 46.5257 27.5132C40.3824 28.1596 35.5939 33.3541 35.5939 39.6689C35.5939 46.4208 41.0674 51.8944 47.8194 51.8944C50.6074 51.8944 53.1689 50.9505 55.2257 49.3795C54.8004 49.4243 54.3692 49.4492 53.9321 49.4492Z" fill="#A0D755"/>
<path d="M32.5375 42.7892H2.99269C2.3958 42.7892 1.91018 42.3036 1.91018 41.7067V11.1431C1.91018 10.5462 2.3958 10.0606 2.99269 10.0606H49.857C50.4539 10.0606 50.9395 10.5462 50.9395 11.1431V24.3876C50.9395 24.915 51.3671 25.3427 51.8947 25.3427C52.4221 25.3427 52.8498 24.9151 52.8498 24.3876V11.1431C52.8498 9.49287 51.5074 8.15039 49.8571 8.15039H2.99269C1.34248 8.15039 0 9.49287 0 11.1431V41.7067C0 43.3569 1.34248 44.6994 2.99269 44.6994H32.5375C33.065 44.6994 33.4927 44.2718 33.4927 43.7442C33.4927 43.2169 33.0651 42.7892 32.5375 42.7892Z" fill="black"/>
<path d="M47.8194 26.4888C40.5516 26.4888 34.6389 32.4016 34.6389 39.6693C34.6389 46.937 40.5517 52.8498 47.8194 52.8498C55.0871 52.8498 61 46.9371 61 39.6693C61 32.4015 55.0871 26.4888 47.8194 26.4888ZM47.8194 50.9396C41.6049 50.9396 36.5491 45.8838 36.5491 39.6693C36.5491 33.4548 41.6049 28.399 47.8194 28.399C54.0339 28.399 59.0898 33.4548 59.0898 39.6693C59.0898 45.8838 54.0338 50.9396 47.8194 50.9396Z" fill="black"/>
<path d="M8.08671 25.3423H16.237C17.3255 25.3423 18.2109 24.4569 18.2109 23.3684V17.2557C18.2109 16.1672 17.3255 15.2817 16.237 15.2817H8.08671C6.99825 15.2817 6.11279 16.1672 6.11279 17.2557V23.3684C6.11279 24.4569 6.99825 25.3423 8.08671 25.3423ZM16.3006 17.2557V23.3684C16.3006 23.4036 16.2722 23.432 16.237 23.432H12.0982V21.2671H13.1807C13.7081 21.2671 14.1358 20.8395 14.1358 20.312C14.1358 19.7844 13.7082 19.3568 13.1807 19.3568H12.0982V17.1919H16.237C16.2722 17.192 16.3006 17.2205 16.3006 17.2557ZM8.02297 17.2557C8.02297 17.2205 8.05145 17.192 8.0866 17.192H10.1879V23.4321H8.08671C8.05157 23.4321 8.02309 23.4037 8.02309 23.3685V17.2557H8.02297Z" fill="black"/>
<path d="M38.1434 15.184C37.2414 14.5863 36.1789 14.2632 35.0845 14.2632C32.03 14.2632 29.5448 16.7482 29.5448 19.8029C29.5448 22.8575 32.0298 25.3425 35.0845 25.3425C36.2127 25.3425 37.2628 25.0026 38.1394 24.421C39.0415 25.0182 40.1051 25.3425 41.1972 25.3425C44.2518 25.3425 46.7369 22.8575 46.7369 19.8029C46.7369 16.7482 44.2519 14.2632 41.1972 14.2632C40.0693 14.2632 39.0196 14.6029 38.1434 15.184ZM31.4551 19.8029C31.4551 17.8015 33.0833 16.1735 35.0845 16.1735C35.6541 16.1735 36.2101 16.3078 36.711 16.5588C36.0492 17.4714 35.6575 18.5919 35.6575 19.8029C35.6575 20.9806 36.0322 22.1116 36.7088 23.0471C36.2197 23.293 35.6682 23.4322 35.0845 23.4322C33.0833 23.4322 31.4551 21.8042 31.4551 19.8029ZM44.8267 19.8029C44.8267 21.8042 43.1986 23.4322 41.1973 23.4322C40.6287 23.4322 40.0722 23.2977 39.5711 23.0466C40.2328 22.134 40.6243 21.0136 40.6243 19.8027C40.6243 19.2753 40.1967 18.8476 39.6691 18.8476C39.1417 18.8476 38.714 19.2752 38.714 19.8027C38.714 20.522 38.5029 21.1926 38.1404 21.7571C37.7709 21.1794 37.5678 20.5038 37.5678 19.8027C37.5678 17.8014 39.196 16.1734 41.1972 16.1734C43.1986 16.1734 44.8267 17.8015 44.8267 19.8029Z" fill="black"/>
<path d="M7.06794 32.4738H15.2182C15.7457 32.4738 16.1734 32.0462 16.1734 31.5186C16.1734 30.9912 15.7458 30.5635 15.2182 30.5635H7.06794C6.54051 30.5635 6.11279 30.9911 6.11279 31.5186C6.11279 32.0462 6.54039 32.4738 7.06794 32.4738Z" fill="black"/>
<path d="M7.06794 38.5866H31.5189C32.0464 38.5866 32.4741 38.159 32.4741 37.6314C32.4741 37.104 32.0465 36.6763 31.5189 36.6763H7.06794C6.54051 36.6763 6.11279 37.1039 6.11279 37.6314C6.11279 38.1589 6.54039 38.5866 7.06794 38.5866Z" fill="black"/>
<path d="M27.4437 32.4738C27.9711 32.4738 28.3988 32.0462 28.3988 31.5186C28.3988 30.9912 27.9713 30.5635 27.4437 30.5635H19.2934C18.766 30.5635 18.3383 30.9911 18.3383 31.5186C18.3383 32.0461 18.7659 32.4738 19.2934 32.4738H27.4437Z" fill="black"/>
<path d="M33.5563 30.5635H31.5187C30.9913 30.5635 30.5636 30.9911 30.5636 31.5186C30.5636 32.0461 30.9912 32.4738 31.5187 32.4738H33.5563C34.0837 32.4738 34.5114 32.0462 34.5114 31.5186C34.5114 30.9912 34.0838 30.5635 33.5563 30.5635Z" fill="black"/>
<path d="M55.6263 34.9184C55.2533 34.5454 54.6485 34.5454 54.2756 34.9184L45.7818 43.4121L41.3633 38.9935C40.9902 38.6205 40.3855 38.6205 40.0126 38.9935C39.6395 39.3666 39.6395 39.9712 40.0126 40.3442L45.1065 45.4382C45.293 45.6248 45.5375 45.7179 45.7818 45.7179C46.0262 45.7179 46.2707 45.6248 46.4571 45.4382L55.6262 36.2691C55.9993 35.8961 55.9993 35.2915 55.6263 34.9184Z" fill="black"/>
</svg>
